<svg xmlns="http://www.w3.org/2000/svg" xmlns:xlink="http://www.w3.org/1999/xlink" width="62.504" height="62.504" viewBox="0 0 62.504 62.504">
  <defs>
    <clipPath id="clip-path">
      <rect id="Rectangle_404784" data-name="Rectangle 404784" width="31.026" height="35.481" fill="#12263f"/>
    </clipPath>
  </defs>
  <g id="img24" transform="translate(-279.816 -1198.717)">
    <g id="Group_1072053" data-name="Group 1072053" transform="translate(279.816 1198.717)">
      <circle id="Ellipse_4742" data-name="Ellipse 4742" cx="31.252" cy="31.252" r="31.252" transform="translate(0)" fill="#a3f167"/>
    </g>
    <g id="Group_1102720" data-name="Group 1102720" transform="translate(295.556 1212.228)">
      <g id="Group_1102720-2" data-name="Group 1102720" clip-path="url(#clip-path)">
        <path id="Path_877509" data-name="Path 877509" d="M28.846,26.334c-.154.177.1,4.115-.01,4.689a2.229,2.229,0,0,1-.037,4.458H6.439A6.753,6.753,0,0,1,0,29.285V6.2A6.775,6.775,0,0,1,6.119,0L27.746,0a3.386,3.386,0,0,1,3.276,3.123l0,20.412a3.412,3.412,0,0,1-1.515,2.535c-.165.1-.642.238-.666.265M10.187,8.932a1.648,1.648,0,0,0-.012,3.213H23.038a1.647,1.647,0,0,0,0-3.228Zm0,6.641a1.648,1.648,0,0,0-.012,3.213H23.038a1.647,1.647,0,0,0,0-3.228Zm14.195,11H6.6a2.262,2.262,0,0,0-1.533,3.8,2.905,2.905,0,0,0,1.29.654H24.382Z" fill="#12263f"/>
      </g>
    </g>
  </g>
</svg>
