<svg xmlns="http://www.w3.org/2000/svg" xmlns:xlink="http://www.w3.org/1999/xlink" width="99" height="99" viewBox="0 0 99 99">
  <defs>
    <clipPath id="clip-path">
      <rect id="Rectangle_403416" data-name="Rectangle 403416" width="97.687" height="91.902" fill="#d1f3f5"/>
    </clipPath>
    <clipPath id="clip-path-2">
      <path id="Path_875268" data-name="Path 875268" d="M1.5,23.675l-1.5.6V36.6a8.4,8.4,0,0,0,3.3,6.507L40.867,73.755a13.171,13.171,0,0,0,15.954,0L94.388,43.113a8.425,8.425,0,0,0,3.3-6.393c0-.1,0-.206,0-.309l.006,0V24.386l-2.354-1.849A12.143,12.143,0,0,1,85.987,32.73L59.069,54.97,47.32,60.964l-37.5-27.34.867-.708c-3.2-2.116-4.931-6.953-6.664-11.367Z" transform="translate(0 -21.549)" fill="#61dfe4"/>
    </clipPath>
    <clipPath id="clip-path-3">
      <rect id="Rectangle_403409" data-name="Rectangle 403409" width="97.687" height="91.903" fill="none"/>
    </clipPath>
    <clipPath id="clip-path-4">
      <rect id="Rectangle_403408" data-name="Rectangle 403408" width="48.843" height="53.75" fill="none"/>
    </clipPath>
    <clipPath id="clip-path-5">
      <path id="Path_875270" data-name="Path 875270" d="M34.642,9.4,3.311,35.8c1.733,4.413,3.46,9.251,6.664,11.367l35.6-29.041a4.219,4.219,0,0,1,5.109,0L85.662,46.66l-.388.323A12.143,12.143,0,0,0,94.62,36.789L55.364,5.942,43.942,1.678Z" transform="translate(-3.311 -1.678)" fill="#61dfe4"/>
    </clipPath>
    <clipPath id="clip-path-7">
      <rect id="Rectangle_403411" data-name="Rectangle 403411" width="44.819" height="45.491" fill="none"/>
    </clipPath>
    <clipPath id="clip-path-8">
      <path id="Path_875272" data-name="Path 875272" d="M46.289,72.571,8.722,41.927a2.585,2.585,0,0,1,0-4.17L46.288,7.115a4.217,4.217,0,0,1,5.109,0L88.965,37.759a2.583,2.583,0,0,1,0,4.168L51.4,72.57a4.218,4.218,0,0,1-5.109,0M48.7,0a12.642,12.642,0,0,0-7.835,2.691L3.3,33.335a8.067,8.067,0,0,0,0,13.013L40.867,76.993a13.166,13.166,0,0,0,15.954,0L94.388,46.349a8.067,8.067,0,0,0,0-13.013L56.82,2.691A12.642,12.642,0,0,0,48.985,0Z" transform="translate(-0.001)" fill="#98baff"/>
    </clipPath>
    <clipPath id="clip-path-10">
      <path id="Path_875275" data-name="Path 875275" d="M44.962,72.924,7.4,42.282a3.659,3.659,0,0,1,0-5.9L44.961,5.738a5.97,5.97,0,0,1,7.232,0L89.76,36.383a3.657,3.657,0,0,1,0,5.9L52.193,72.924a5.97,5.97,0,0,1-7.231,0M41.66,3.046,4.094,33.689a7,7,0,0,0,0,11.284L41.662,75.619a11.426,11.426,0,0,0,13.833,0L93.062,44.973a6.994,6.994,0,0,0,0-11.282L55.493,3.046a11.416,11.416,0,0,0-13.833,0" transform="translate(-1.234 -0.712)" fill="#98baff"/>
    </clipPath>
    <clipPath id="clip-path-11">
      <rect id="Rectangle_403406" data-name="Rectangle 403406" width="38.332" height="22.221" fill="#0f398d"/>
    </clipPath>
    <clipPath id="clip-path-12">
      <rect id="Rectangle_403518" data-name="Rectangle 403518" width="82.49" height="80.524" fill="#cbdcff"/>
    </clipPath>
    <clipPath id="clip-path-13">
      <rect id="Rectangle_403232" data-name="Rectangle 403232" width="99" height="79.995" fill="#0f398d"/>
    </clipPath>
    <clipPath id="clip-path-14">
      <rect id="Rectangle_404833" data-name="Rectangle 404833" width="50.068" height="42.564" fill="#0c2d70"/>
    </clipPath>
  </defs>
  <g id="img20" transform="translate(-732 -6886)">
    <g id="Group_1101587" data-name="Group 1101587" transform="translate(732 6886)">
      <g id="Group_1100744" data-name="Group 1100744" transform="translate(0.004 7.098)">
        <g id="Group_1100514" data-name="Group 1100514" clip-path="url(#clip-path)">
          <g id="Group_1100495" data-name="Group 1100495" transform="translate(0 37.005)">
            <g id="Group_1100494" data-name="Group 1100494" clip-path="url(#clip-path-2)">
              <path id="Path_875399" data-name="Path 875399" d="M18.655,14.846,127.412,0,108.757,115.115,0,129.961Z" transform="translate(-39.284 50.577) rotate(-60)" fill="#61dfe4"/>
            </g>
          </g>
          <g id="Group_1100500" data-name="Group 1100500" transform="translate(0 0)">
            <g id="Group_1100499" data-name="Group 1100499" clip-path="url(#clip-path-3)">
              <g id="Group_1100498" data-name="Group 1100498" transform="translate(48.843 38.152)" opacity="0.3">
                <g id="Group_1100497" data-name="Group 1100497">
                  <g id="Group_1100496" data-name="Group 1100496" clip-path="url(#clip-path-4)">
                    <path id="Path_875269" data-name="Path 875269" d="M77.329,32.25,50.411,54.49,40.185,59.707V75.968a12.671,12.671,0,0,0,7.978-2.691L85.73,42.632a8.422,8.422,0,0,0,3.3-6.392c0-.1,0-.208,0-.311l.006,0V23.908l-2.153-1.692h-.225A12.151,12.151,0,0,1,77.329,32.25" transform="translate(-40.185 -22.217)" fill="#0f054c"/>
                  </g>
                </g>
              </g>
            </g>
          </g>
          <g id="Group_1100502" data-name="Group 1100502" transform="translate(4.024 2.882)">
            <g id="Group_1100501" data-name="Group 1100501" clip-path="url(#clip-path-5)">
              <path id="Path_875400" data-name="Path 875400" d="M17.015,13.147,113.324,0,96.309,105,0,118.145Z" transform="matrix(0.5, -0.866, 0.866, 0.5, -33.835, 42.279)" fill="#61dfe4"/>
            </g>
          </g>
          <g id="Group_1100507" data-name="Group 1100507" transform="translate(0 0)">
            <g id="Group_1100506" data-name="Group 1100506" clip-path="url(#clip-path-3)">
              <g id="Group_1100505" data-name="Group 1100505" transform="translate(4.024 2.881)" opacity="0.3">
                <g id="Group_1100504" data-name="Group 1100504">
                  <g id="Group_1100503" data-name="Group 1100503" clip-path="url(#clip-path-7)">
                    <path id="Path_875271" data-name="Path 875271" d="M48.13,3.241,43.942,1.677,34.642,9.4,3.311,35.8c1.733,4.413,3.459,9.253,6.664,11.368l35.6-29.041a4.062,4.062,0,0,1,2.555-.86Z" transform="translate(-3.311 -1.678)" fill="#0f054c"/>
                  </g>
                </g>
              </g>
            </g>
          </g>
          <g id="Group_1100509" data-name="Group 1100509" transform="translate(0.001)">
            <g id="Group_1100508" data-name="Group 1100508" clip-path="url(#clip-path-8)">
              <rect id="Rectangle_403413" data-name="Rectangle 403413" width="99.885" height="80.582" transform="translate(-1.099 0)" fill="#98baff"/>
            </g>
          </g>
          <g id="Group_1100511" data-name="Group 1100511" transform="translate(0 0)">
            <g id="Group_1100510" data-name="Group 1100510" clip-path="url(#clip-path-3)">
              <path id="Path_875273" data-name="Path 875273" d="M87.606,35.147,50.038,4.5a4.217,4.217,0,0,0-5.109,0L7.363,35.146a2.592,2.592,0,0,0-.935,2.833,2.846,2.846,0,0,1,.935-1.334L44.93,6a4.217,4.217,0,0,1,5.109,0L87.606,36.645a2.85,2.85,0,0,1,.935,1.336,2.592,2.592,0,0,0-.935-2.833" transform="translate(1.359 2.612)" fill="#fff"/>
              <path id="Path_875274" data-name="Path 875274" d="M94.388,29.4,56.821,60.039a13.166,13.166,0,0,1-15.954,0L3.3,29.395A8.537,8.537,0,0,1,.04,23.637,8.284,8.284,0,0,0,3.3,30.894L40.867,61.539a13.171,13.171,0,0,0,15.954,0L94.388,30.894a8.281,8.281,0,0,0,3.259-7.255A8.539,8.539,0,0,1,94.388,29.4" transform="translate(0.001 16.954)" fill="#fff"/>
            </g>
          </g>
          <g id="Group_1100513" data-name="Group 1100513" transform="translate(1.5 1.223)">
            <g id="Group_1100512" data-name="Group 1100512" clip-path="url(#clip-path-10)">
              <rect id="Rectangle_403415" data-name="Rectangle 403415" width="96.595" height="78.015" transform="translate(-0.954 0)" fill="#98baff"/>
            </g>
          </g>
        </g>
      </g>
      <g id="Group_1100747" data-name="Group 1100747" transform="translate(0 76.779)">
        <g id="Group_1100491" data-name="Group 1100491" transform="translate(0 0)" clip-path="url(#clip-path-11)">
          <path id="Path_875261" data-name="Path 875261" d="M30.025,21.071a1.151,1.151,0,1,1,1.151,1.15,1.151,1.151,0,0,1-1.151-1.15m-4.854,1.15a1.151,1.151,0,1,0-1.151-1.15,1.15,1.15,0,0,0,1.151,1.15m-6.005,0a1.151,1.151,0,1,0-1.151-1.15,1.15,1.15,0,0,0,1.151,1.15m-6.005,0a1.151,1.151,0,1,0-1.151-1.15,1.15,1.15,0,0,0,1.151,1.15m-6.005,0a1.151,1.151,0,1,0-1.151-1.15,1.15,1.15,0,0,0,1.151,1.15m-6.005,0A1.151,1.151,0,1,0,0,21.071a1.15,1.15,0,0,0,1.151,1.15m30.025-6.528a1.151,1.151,0,1,0-1.151-1.151,1.151,1.151,0,0,0,1.151,1.151m-6.005,0a1.151,1.151,0,1,0-1.151-1.151,1.151,1.151,0,0,0,1.151,1.151m-6.005,0a1.151,1.151,0,1,0-1.151-1.151,1.151,1.151,0,0,0,1.151,1.151m-6.005,0a1.151,1.151,0,1,0-1.151-1.151,1.151,1.151,0,0,0,1.151,1.151m-6.005,0a1.151,1.151,0,1,0-1.151-1.151,1.151,1.151,0,0,0,1.151,1.151m-6.005,0A1.151,1.151,0,1,0,0,14.542a1.151,1.151,0,0,0,1.151,1.151M31.176,9.165a1.151,1.151,0,1,0-1.151-1.151,1.151,1.151,0,0,0,1.151,1.151M36.03,21.071a1.151,1.151,0,1,1,1.151,1.15,1.151,1.151,0,0,1-1.151-1.15m1.151-5.378a1.151,1.151,0,1,0-1.151-1.151,1.151,1.151,0,0,0,1.151,1.151m0-6.528A1.151,1.151,0,1,0,36.03,8.014a1.151,1.151,0,0,0,1.151,1.151m-12.01,0A1.151,1.151,0,1,0,24.02,8.014a1.151,1.151,0,0,0,1.151,1.151m-6.005,0a1.151,1.151,0,1,0-1.151-1.151,1.151,1.151,0,0,0,1.151,1.151m-6.005,0A1.151,1.151,0,1,0,12.01,8.014a1.151,1.151,0,0,0,1.151,1.151m-6.005,0A1.151,1.151,0,1,0,6.005,8.014,1.151,1.151,0,0,0,7.156,9.165m-6.005,0A1.151,1.151,0,1,0,0,8.014,1.151,1.151,0,0,0,1.151,9.165M31.176,2.3a1.151,1.151,0,1,0-1.151-1.151A1.151,1.151,0,0,0,31.176,2.3m6.005,0A1.151,1.151,0,1,0,36.03,1.151,1.151,1.151,0,0,0,37.181,2.3m-12.01,0A1.151,1.151,0,1,0,24.02,1.151,1.151,1.151,0,0,0,25.171,2.3m-6.005,0a1.151,1.151,0,1,0-1.151-1.151A1.151,1.151,0,0,0,19.166,2.3m-6.005,0A1.151,1.151,0,1,0,12.01,1.151,1.151,1.151,0,0,0,13.161,2.3m-6.005,0A1.151,1.151,0,1,0,6.005,1.151,1.151,1.151,0,0,0,7.156,2.3m-6.005,0A1.151,1.151,0,1,0,0,1.151,1.151,1.151,0,0,0,1.151,2.3" transform="translate(0 0)" fill="#0f398d"/>
        </g>
      </g>
      <g id="Group_1100749" data-name="Group 1100749" transform="translate(7.664)">
        <g id="Group_1100748" data-name="Group 1100748" clip-path="url(#clip-path-12)">
          <path id="Path_875398" data-name="Path 875398" d="M8.527,0H73.888a8.471,8.471,0,0,1,8.564,8.374l-.043,42.7L46.453,79.117a10.488,10.488,0,0,1-10.493,0L-.184,49.467-.036,8.374A8.47,8.47,0,0,1,8.527,0" transform="translate(0.039 0)" fill="#cbdcff"/>
        </g>
      </g>
      <g id="Group_1100745" data-name="Group 1100745" transform="translate(0 1.529)">
        <g id="Group_1100096" data-name="Group 1100096" transform="translate(0 0)" clip-path="url(#clip-path-13)">
          <path id="Path_873771" data-name="Path 873771" d="M49.5,80a11.773,11.773,0,0,1-7.351-2.447L3.141,46.183a7.662,7.662,0,0,1,0-12.372L42.147,2.445a12.282,12.282,0,0,1,14.705,0L95.86,33.812a7.662,7.662,0,0,1,0,12.372L56.854,77.549A11.777,11.777,0,0,1,49.5,80M49.5.938a11.235,11.235,0,0,0-7.011,2.331L3.483,34.633a6.537,6.537,0,0,0,0,10.725L42.492,76.727a11.713,11.713,0,0,0,14.02,0L95.518,45.361a6.537,6.537,0,0,0,0-10.725L56.511,3.269A11.235,11.235,0,0,0,49.5.938" transform="translate(0 -0.001)" fill="#0f398d"/>
        </g>
      </g>
      <rect id="Rectangle_403516" data-name="Rectangle 403516" width="82.49" height="44.076" rx="9" transform="translate(7.664 0.529)" fill="#cbdcff"/>
    </g>
    <g id="Group_1101588" data-name="Group 1101588" transform="translate(752 6890.995)">
      <g id="Group_1099618" data-name="Group 1099618" transform="translate(0 0)">
        <rect id="Rectangle_401104" data-name="Rectangle 401104" width="53.877" height="54.526" transform="translate(0)" fill="none"/>
      </g>
      <g id="Group_1102761" data-name="Group 1102761" transform="translate(1.904 5.981)">
        <g id="Group_1102760" data-name="Group 1102760" clip-path="url(#clip-path-14)">
          <path id="Path_877881" data-name="Path 877881" d="M17.5,33.675a4.526,4.526,0,0,1,2.877-7.694c-1.315-1.72-1.88-3.9-3.081-5.677l-4.053-2.088c-1.252,1.558-2.3,5.326-4.563,5.575-1.908.21-3.072-1.046-4.66-1.859-.307-.077-.561.388-.907.546a1.865,1.865,0,0,1-2.57-2.32A25.207,25.207,0,0,1,2.188,17.3c.55-.767.986-1.073,1.958-.728.782.277,2.886,1.991,3.393,1.937a.661.661,0,0,0,.383-.229c.131-.127,1.631-2.559,1.671-2.713.118-.456-.178-1.366-.067-2.064.187-1.185,1.465-2.775,1.6-3.788.036-.279-.046-.135-.178-.194a6.829,6.829,0,0,0-1.74-.6,19.507,19.507,0,0,0-1.823,2.573c-.041.287.7.484.857.729L5.453,16.769,0,13.6,2.552,9.152c.335-.335.694.2,1.061.319.531.167.308-.049.522-.358A44.684,44.684,0,0,1,6.941,4.907c1.916-2,4.305.179,6.308.866a3.518,3.518,0,0,1,.087-1.1A27.649,27.649,0,0,1,14.766,1.1,1.848,1.848,0,0,1,17.01.075l5.318,1.565c.123.119-.006.231-.043.344a15.558,15.558,0,0,1-1.225,2.155c-.3.387-.743.585-.988.889-.653.811-.72,2.351-1.816,2.936a2.081,2.081,0,0,0,1.128.5c.457-.172,2.094-2.694,2.811-3.189a1.325,1.325,0,0,1,1-.259c1.211.039,2.567,1.662,2.049,2.937a40.2,40.2,0,0,1-3.12,4.137,5.976,5.976,0,0,1-.882.869c-1.288.723-3.048-.555-4.3-.925l-.937,2.174c.061.266,3.846,1.868,4.429,2.331,1.081.858,1.937,3.545,2.755,4.753.243.279.568-.006.865.008a1.961,1.961,0,0,1,1.814,1.917c-.041,1.608-2.084,1.876-2.991,2.827h4.5a4.579,4.579,0,0,1-.427-5.995,4.8,4.8,0,0,1,3.492-1.763h9.572V.331c0-.067.35-.272.465-.29,2.393.8,4.673,2,7.034,2.925.465.362.326.823-.155,1.082-1.61.865-4.251,1.2-5.844,2.038a.96.96,0,0,0-.374.251V18.286h8.32a1.733,1.733,0,0,1,.5.374c.439.883-.762.964-1.276,1.229a3.27,3.27,0,0,0-.855,5.155c.609.647,1.177.6,1.807.946.576.32.567,1.086-.172,1.185-2.562.342-5.912-.335-8.5,0a3.32,3.32,0,0,0-1.637,5.87c.638.478,2.372.61,1.7,1.669-.259.407-3.154.132-3.826.208-2.858.321-3.7,4.271-1.305,5.936.695.483,2.4.51,1.28,1.672l-26.505.031a4.442,4.442,0,0,1-2.766-7.594,5.683,5.683,0,0,1,2.771-1.3Zm3.129-31.4c-1.025.047-3.465-1.226-4.291-1.1-.565.084-.912,1.469-1.089,1.977.37.042.665-.26,1.033-.224,1.061.1,2.754,1.718,3.776.593.152-.168.712-1.1.572-1.243M41.151,1.52V4.9L45.53,3.52c-.013-.152-.172-.211-.288-.274-1.23-.664-2.825-1.08-4.091-1.727m-22.4,3.5c-.82-.02-2.04-.94-2.782-.854-.382.044-1.389.39-1.469.793a1.361,1.361,0,0,0,.661,1.586c1.948,1.317,2.943.469,3.59-1.524m-5,5.745c-.212-.295,1.327-2.636,1.066-3-1.707-.593-3.486-1.8-5.168-2.343-2.167-.7-2.68,1.85-3.733,3.226L7.3,9.525,8.82,7.41c.485.261,3.9,1.441,3.915,1.676l-1.363,3.066,3.441,1.626a17.966,17.966,0,0,0,1.319-3.247c.289-.208,3.558,1.624,4.3,1.5a12.284,12.284,0,0,0,2.552-3.174c-.059-.3-1.1-.857-1.294-1.2L19.858,9.88l-.162.035-3.612-1.5a27.047,27.047,0,0,0-1.33,2.69,2.756,2.756,0,0,1-1-.333m9.216-4.6c-1.293.354.71,1.748.834,1.727a.92.92,0,0,0,.435-.781c-.067-.258-.917-1.043-1.269-.946M5.118,9.653c-.656.783,1.495,1.635,1.5.938-.181-.2-1.347-1.047-1.5-.938m1.124,3.5c-.118-.107-2.149.491-2.507.321L2.8,11.155l-1.2,2.057,3.562,1.956Zm-1-1-1-.749c.063.878.2.882,1,.749m5.668,2.968a25,25,0,0,0,2.427,1.763c1.228.773,4.526,2.062,5.192,3.065.329.495,1.363,3.01,1.6,3.162s1.771-.86,2.074-1.07l-2.215-4.3-.692-.559-8.362-4.025a1.824,1.824,0,0,0-.024,1.965m-.477,1.437c-.21.016-1.425,2.4-1.945,2.783-1.365,1.007-2.465-.527-2.92-.42-.261.316-1.214,1.69-1.021,1.993a25.174,25.174,0,0,0,3.065,1.694,2.019,2.019,0,0,0,2.239-.9,43.5,43.5,0,0,0,2.277-3.987c0-.319-1.412-.836-1.7-1.161m-6.98,1.117c-.129.033-.193.147-.27.241a27.89,27.89,0,0,0-1.514,2.616.686.686,0,0,0,1.13.752c.589-.576,1.142-2.395,1.815-3.061a2.439,2.439,0,0,0-1.162-.548m43.7,1.862H29.828a5.134,5.134,0,0,0-.9.352,3.282,3.282,0,0,0-.125,5.677,5.438,5.438,0,0,0,1.15.477h17.2a5.342,5.342,0,0,1-1.376-2.753H31.142V22.164H45.718a6.033,6.033,0,0,1,1.439-2.628M23.728,22.569a29.264,29.264,0,0,0-2.917,1.722c-.151.238.513,1.309.952.948.5-.488,2.429-1.177,2.757-1.625.423-.578-.023-1.251-.792-1.045m14.545,4.6H20.319c-2.681,0-4.041,3.991-1.8,5.807a5.4,5.4,0,0,0,1.3.7H38.273a7.084,7.084,0,0,1-1.439-2.628H21.257V29.922H36.835a7.945,7.945,0,0,1,1.439-2.753m-3.628,7.757H10.309a7.9,7.9,0,0,0-1.181.571,3.278,3.278,0,0,0,.327,5.537,7.407,7.407,0,0,0,1.1.4H34.645a4.646,4.646,0,0,1-1.251-2.628H11.748V37.554H33.394a4.132,4.132,0,0,1,1.251-2.628" transform="translate(0 -0.001)" fill="#0c2d70"/>
        </g>
      </g>
    </g>
  </g>
</svg>
