<svg xmlns="http://www.w3.org/2000/svg" xmlns:xlink="http://www.w3.org/1999/xlink" width="99" height="99" viewBox="0 0 99 99">
  <defs>
    <clipPath id="clip-path">
      <rect id="Rectangle_403416" data-name="Rectangle 403416" width="97.687" height="91.902" fill="#d1f3f5"/>
    </clipPath>
    <clipPath id="clip-path-2">
      <path id="Path_875268" data-name="Path 875268" d="M1.5,23.675l-1.5.6V36.6a8.4,8.4,0,0,0,3.3,6.507L40.867,73.755a13.171,13.171,0,0,0,15.954,0L94.388,43.113a8.425,8.425,0,0,0,3.3-6.393c0-.1,0-.206,0-.309l.006,0V24.386l-2.354-1.849A12.143,12.143,0,0,1,85.987,32.73L59.069,54.97,47.32,60.964l-37.5-27.34.867-.708c-3.2-2.116-4.931-6.953-6.664-11.367Z" transform="translate(0 -21.549)" fill="#61dfe4"/>
    </clipPath>
    <clipPath id="clip-path-3">
      <rect id="Rectangle_403409" data-name="Rectangle 403409" width="97.687" height="91.903" fill="none"/>
    </clipPath>
    <clipPath id="clip-path-4">
      <rect id="Rectangle_403408" data-name="Rectangle 403408" width="48.843" height="53.75" fill="none"/>
    </clipPath>
    <clipPath id="clip-path-5">
      <path id="Path_875270" data-name="Path 875270" d="M34.642,9.4,3.311,35.8c1.733,4.413,3.46,9.251,6.664,11.367l35.6-29.041a4.219,4.219,0,0,1,5.109,0L85.662,46.66l-.388.323A12.143,12.143,0,0,0,94.62,36.789L55.364,5.942,43.942,1.678Z" transform="translate(-3.311 -1.678)" fill="#61dfe4"/>
    </clipPath>
    <clipPath id="clip-path-7">
      <rect id="Rectangle_403411" data-name="Rectangle 403411" width="44.819" height="45.491" fill="none"/>
    </clipPath>
    <clipPath id="clip-path-8">
      <path id="Path_875272" data-name="Path 875272" d="M46.289,72.571,8.722,41.927a2.585,2.585,0,0,1,0-4.17L46.288,7.115a4.217,4.217,0,0,1,5.109,0L88.965,37.759a2.583,2.583,0,0,1,0,4.168L51.4,72.57a4.218,4.218,0,0,1-5.109,0M48.7,0a12.642,12.642,0,0,0-7.835,2.691L3.3,33.335a8.067,8.067,0,0,0,0,13.013L40.867,76.993a13.166,13.166,0,0,0,15.954,0L94.388,46.349a8.067,8.067,0,0,0,0-13.013L56.82,2.691A12.642,12.642,0,0,0,48.985,0Z" transform="translate(-0.001)" fill="#98baff"/>
    </clipPath>
    <clipPath id="clip-path-10">
      <path id="Path_875275" data-name="Path 875275" d="M44.962,72.924,7.4,42.282a3.659,3.659,0,0,1,0-5.9L44.961,5.738a5.97,5.97,0,0,1,7.232,0L89.76,36.383a3.657,3.657,0,0,1,0,5.9L52.193,72.924a5.97,5.97,0,0,1-7.231,0M41.66,3.046,4.094,33.689a7,7,0,0,0,0,11.284L41.662,75.619a11.426,11.426,0,0,0,13.833,0L93.062,44.973a6.994,6.994,0,0,0,0-11.282L55.493,3.046a11.416,11.416,0,0,0-13.833,0" transform="translate(-1.234 -0.712)" fill="#98baff"/>
    </clipPath>
    <clipPath id="clip-path-11">
      <rect id="Rectangle_403406" data-name="Rectangle 403406" width="38.332" height="22.221" fill="#0f398d"/>
    </clipPath>
    <clipPath id="clip-path-12">
      <rect id="Rectangle_403518" data-name="Rectangle 403518" width="82.49" height="80.524" fill="#cbdcff"/>
    </clipPath>
    <clipPath id="clip-path-13">
      <rect id="Rectangle_403232" data-name="Rectangle 403232" width="99" height="79.995" fill="#0f398d"/>
    </clipPath>
    <clipPath id="clip-path-14">
      <rect id="Rectangle_404837" data-name="Rectangle 404837" width="52.238" height="52.212" fill="#0c2d70"/>
    </clipPath>
  </defs>
  <g id="img24" transform="translate(-1651.438 4715)">
    <g id="Group_1101593" data-name="Group 1101593" transform="translate(1651.438 -4715)">
      <g id="Group_1100744" data-name="Group 1100744" transform="translate(0.004 7.098)">
        <g id="Group_1100514" data-name="Group 1100514" clip-path="url(#clip-path)">
          <g id="Group_1100495" data-name="Group 1100495" transform="translate(0 37.005)">
            <g id="Group_1100494" data-name="Group 1100494" clip-path="url(#clip-path-2)">
              <path id="Path_875399" data-name="Path 875399" d="M18.655,14.846,127.412,0,108.757,115.115,0,129.961Z" transform="translate(-39.284 50.577) rotate(-60)" fill="#61dfe4"/>
            </g>
          </g>
          <g id="Group_1100500" data-name="Group 1100500" transform="translate(0 0)">
            <g id="Group_1100499" data-name="Group 1100499" clip-path="url(#clip-path-3)">
              <g id="Group_1100498" data-name="Group 1100498" transform="translate(48.843 38.152)" opacity="0.3">
                <g id="Group_1100497" data-name="Group 1100497">
                  <g id="Group_1100496" data-name="Group 1100496" clip-path="url(#clip-path-4)">
                    <path id="Path_875269" data-name="Path 875269" d="M77.329,32.25,50.411,54.49,40.185,59.707V75.968a12.671,12.671,0,0,0,7.978-2.691L85.73,42.632a8.422,8.422,0,0,0,3.3-6.392c0-.1,0-.208,0-.311l.006,0V23.908l-2.153-1.692h-.225A12.151,12.151,0,0,1,77.329,32.25" transform="translate(-40.185 -22.217)" fill="#0f054c"/>
                  </g>
                </g>
              </g>
            </g>
          </g>
          <g id="Group_1100502" data-name="Group 1100502" transform="translate(4.024 2.882)">
            <g id="Group_1100501" data-name="Group 1100501" clip-path="url(#clip-path-5)">
              <path id="Path_875400" data-name="Path 875400" d="M17.015,13.147,113.324,0,96.309,105,0,118.145Z" transform="matrix(0.5, -0.866, 0.866, 0.5, -33.835, 42.279)" fill="#61dfe4"/>
            </g>
          </g>
          <g id="Group_1100507" data-name="Group 1100507" transform="translate(0 0)">
            <g id="Group_1100506" data-name="Group 1100506" clip-path="url(#clip-path-3)">
              <g id="Group_1100505" data-name="Group 1100505" transform="translate(4.024 2.881)" opacity="0.3">
                <g id="Group_1100504" data-name="Group 1100504">
                  <g id="Group_1100503" data-name="Group 1100503" clip-path="url(#clip-path-7)">
                    <path id="Path_875271" data-name="Path 875271" d="M48.13,3.241,43.942,1.677,34.642,9.4,3.311,35.8c1.733,4.413,3.459,9.253,6.664,11.368l35.6-29.041a4.062,4.062,0,0,1,2.555-.86Z" transform="translate(-3.311 -1.678)" fill="#0f054c"/>
                  </g>
                </g>
              </g>
            </g>
          </g>
          <g id="Group_1100509" data-name="Group 1100509" transform="translate(0.001)">
            <g id="Group_1100508" data-name="Group 1100508" clip-path="url(#clip-path-8)">
              <rect id="Rectangle_403413" data-name="Rectangle 403413" width="99.885" height="80.582" transform="translate(-1.099 0)" fill="#98baff"/>
            </g>
          </g>
          <g id="Group_1100511" data-name="Group 1100511" transform="translate(0 0)">
            <g id="Group_1100510" data-name="Group 1100510" clip-path="url(#clip-path-3)">
              <path id="Path_875273" data-name="Path 875273" d="M87.606,35.147,50.038,4.5a4.217,4.217,0,0,0-5.109,0L7.363,35.146a2.592,2.592,0,0,0-.935,2.833,2.846,2.846,0,0,1,.935-1.334L44.93,6a4.217,4.217,0,0,1,5.109,0L87.606,36.645a2.85,2.85,0,0,1,.935,1.336,2.592,2.592,0,0,0-.935-2.833" transform="translate(1.359 2.612)" fill="#fff"/>
              <path id="Path_875274" data-name="Path 875274" d="M94.388,29.4,56.821,60.039a13.166,13.166,0,0,1-15.954,0L3.3,29.395A8.537,8.537,0,0,1,.04,23.637,8.284,8.284,0,0,0,3.3,30.894L40.867,61.539a13.171,13.171,0,0,0,15.954,0L94.388,30.894a8.281,8.281,0,0,0,3.259-7.255A8.539,8.539,0,0,1,94.388,29.4" transform="translate(0.001 16.954)" fill="#fff"/>
            </g>
          </g>
          <g id="Group_1100513" data-name="Group 1100513" transform="translate(1.5 1.223)">
            <g id="Group_1100512" data-name="Group 1100512" clip-path="url(#clip-path-10)">
              <rect id="Rectangle_403415" data-name="Rectangle 403415" width="96.595" height="78.015" transform="translate(-0.954 0)" fill="#98baff"/>
            </g>
          </g>
        </g>
      </g>
      <g id="Group_1100747" data-name="Group 1100747" transform="translate(0 76.779)">
        <g id="Group_1100491" data-name="Group 1100491" transform="translate(0 0)" clip-path="url(#clip-path-11)">
          <path id="Path_875261" data-name="Path 875261" d="M30.025,21.071a1.151,1.151,0,1,1,1.151,1.15,1.151,1.151,0,0,1-1.151-1.15m-4.854,1.15a1.151,1.151,0,1,0-1.151-1.15,1.15,1.15,0,0,0,1.151,1.15m-6.005,0a1.151,1.151,0,1,0-1.151-1.15,1.15,1.15,0,0,0,1.151,1.15m-6.005,0a1.151,1.151,0,1,0-1.151-1.15,1.15,1.15,0,0,0,1.151,1.15m-6.005,0a1.151,1.151,0,1,0-1.151-1.15,1.15,1.15,0,0,0,1.151,1.15m-6.005,0A1.151,1.151,0,1,0,0,21.071a1.15,1.15,0,0,0,1.151,1.15m30.025-6.528a1.151,1.151,0,1,0-1.151-1.151,1.151,1.151,0,0,0,1.151,1.151m-6.005,0a1.151,1.151,0,1,0-1.151-1.151,1.151,1.151,0,0,0,1.151,1.151m-6.005,0a1.151,1.151,0,1,0-1.151-1.151,1.151,1.151,0,0,0,1.151,1.151m-6.005,0a1.151,1.151,0,1,0-1.151-1.151,1.151,1.151,0,0,0,1.151,1.151m-6.005,0a1.151,1.151,0,1,0-1.151-1.151,1.151,1.151,0,0,0,1.151,1.151m-6.005,0A1.151,1.151,0,1,0,0,14.542a1.151,1.151,0,0,0,1.151,1.151M31.176,9.165a1.151,1.151,0,1,0-1.151-1.151,1.151,1.151,0,0,0,1.151,1.151M36.03,21.071a1.151,1.151,0,1,1,1.151,1.15,1.151,1.151,0,0,1-1.151-1.15m1.151-5.378a1.151,1.151,0,1,0-1.151-1.151,1.151,1.151,0,0,0,1.151,1.151m0-6.528A1.151,1.151,0,1,0,36.03,8.014a1.151,1.151,0,0,0,1.151,1.151m-12.01,0A1.151,1.151,0,1,0,24.02,8.014a1.151,1.151,0,0,0,1.151,1.151m-6.005,0a1.151,1.151,0,1,0-1.151-1.151,1.151,1.151,0,0,0,1.151,1.151m-6.005,0A1.151,1.151,0,1,0,12.01,8.014a1.151,1.151,0,0,0,1.151,1.151m-6.005,0A1.151,1.151,0,1,0,6.005,8.014,1.151,1.151,0,0,0,7.156,9.165m-6.005,0A1.151,1.151,0,1,0,0,8.014,1.151,1.151,0,0,0,1.151,9.165M31.176,2.3a1.151,1.151,0,1,0-1.151-1.151A1.151,1.151,0,0,0,31.176,2.3m6.005,0A1.151,1.151,0,1,0,36.03,1.151,1.151,1.151,0,0,0,37.181,2.3m-12.01,0A1.151,1.151,0,1,0,24.02,1.151,1.151,1.151,0,0,0,25.171,2.3m-6.005,0a1.151,1.151,0,1,0-1.151-1.151A1.151,1.151,0,0,0,19.166,2.3m-6.005,0A1.151,1.151,0,1,0,12.01,1.151,1.151,1.151,0,0,0,13.161,2.3m-6.005,0A1.151,1.151,0,1,0,6.005,1.151,1.151,1.151,0,0,0,7.156,2.3m-6.005,0A1.151,1.151,0,1,0,0,1.151,1.151,1.151,0,0,0,1.151,2.3" transform="translate(0 0)" fill="#0f398d"/>
        </g>
      </g>
      <g id="Group_1100749" data-name="Group 1100749" transform="translate(7.664)">
        <g id="Group_1100748" data-name="Group 1100748" clip-path="url(#clip-path-12)">
          <path id="Path_875398" data-name="Path 875398" d="M8.527,0H73.888a8.471,8.471,0,0,1,8.564,8.374l-.043,42.7L46.453,79.117a10.488,10.488,0,0,1-10.493,0L-.184,49.467-.036,8.374A8.47,8.47,0,0,1,8.527,0" transform="translate(0.039 0)" fill="#cbdcff"/>
        </g>
      </g>
      <g id="Group_1100745" data-name="Group 1100745" transform="translate(0 1.529)">
        <g id="Group_1100096" data-name="Group 1100096" transform="translate(0 0)" clip-path="url(#clip-path-13)">
          <path id="Path_873771" data-name="Path 873771" d="M49.5,80a11.773,11.773,0,0,1-7.351-2.447L3.141,46.183a7.662,7.662,0,0,1,0-12.372L42.147,2.445a12.282,12.282,0,0,1,14.705,0L95.86,33.812a7.662,7.662,0,0,1,0,12.372L56.854,77.549A11.777,11.777,0,0,1,49.5,80M49.5.938a11.235,11.235,0,0,0-7.011,2.331L3.483,34.633a6.537,6.537,0,0,0,0,10.725L42.492,76.727a11.713,11.713,0,0,0,14.02,0L95.518,45.361a6.537,6.537,0,0,0,0-10.725L56.511,3.269A11.235,11.235,0,0,0,49.5.938" transform="translate(0 -0.001)" fill="#0f398d"/>
        </g>
      </g>
      <rect id="Rectangle_403516" data-name="Rectangle 403516" width="82.49" height="44.076" rx="9" transform="translate(7.664 0.529)" fill="#cbdcff"/>
    </g>
    <g id="Group_1102768" data-name="Group 1102768" transform="translate(1674.819 -4705.696)">
      <g id="Group_1102767" data-name="Group 1102767" clip-path="url(#clip-path-14)">
        <path id="Path_877893" data-name="Path 877893" d="M108.37,26.05v1.827h9.854c.263,0,.576.613.578.849a1.594,1.594,0,0,1-.578.847H108.37v2.61h14.161c.256,0,.538-.468.579-.726a31.433,31.433,0,0,0,.009-4.43c-.056-.3-.859-.637-1.175-1.044-2.406-3.109,2.88-6.217,4.424-2.727.7,1.572-.174,2.876-1.532,3.661-.265,1.531.448,4.624-.411,5.854-.221.317-1.134,1.108-1.5,1.108H108.37v2.61H128.6c.019,0,0-.234.075-.375a2.608,2.608,0,1,1,0,2.577c-.08-.141-.056-.375-.075-.375H108.37v2.61h14.553c.458,0,1.557,1.062,1.734,1.529.514,1.353-.073,3.925.179,5.434,1.391.8,2.262,2.165,1.489,3.749a2.618,2.618,0,0,1-4.8-2.06c.286-.972,1.528-1.441,1.6-1.8a30.221,30.221,0,0,0-.013-4.432c-.036-.254-.368-.725-.576-.725H108.37v2.61h9.854a1.594,1.594,0,0,1,.578.847c0,.236-.315.849-.578.849H108.37v1.827h5.808a4.408,4.408,0,0,1,1.245.713c1.405,1.423.513,5.275.8,7.163,1.47.85,2.182,2.217,1.308,3.829-1.663,3.068-6.341.33-4.44-2.743.317-.513,1.228-.9,1.284-1.2-.142-1.655.19-3.608,0-5.224-.066-.573-.271-.781-.848-.848a48.572,48.572,0,0,0-5.417.07c-.264.12-.421.585-.878.688-1.937.436-5.55-.957-7.205-2.006a13.96,13.96,0,0,1-1.579-22.44c1.89-1.627,6.278-3.733,8.784-3.168.457.1.614.568.878.688a48.6,48.6,0,0,0,5.417.07c.578-.067.782-.276.848-.848.188-1.615-.144-3.569,0-5.224-.057-.3-.967-.682-1.284-1.2-1.823-2.947,2.512-5.79,4.4-2.829.976,1.534.2,3.115-1.264,3.915-.285,1.888.606,5.74-.8,7.163a4.408,4.408,0,0,1-1.245.713Zm7.774-10.4a.867.867,0,1,0-.868.867.868.868,0,0,0,.868-.867m8.7,8.717a.862.862,0,1,0-.862.862.862.862,0,0,0,.862-.862m-18.3.9a12.172,12.172,0,0,0,0,24.276Zm25.279,12.138a.872.872,0,1,0-.872.872.872.872,0,0,0,.872-.872M124.84,50.471a.862.862,0,1,0-.862.862.862.862,0,0,0,.862-.862m-8.7,8.7a.864.864,0,1,0-.864.864.864.864,0,0,0,.864-.864" transform="translate(-81.321 -11.31)" fill="#0c2d70"/>
        <path id="Path_877894" data-name="Path 877894" d="M24.281.031C25.926-.115,26.9.207,27.053,2.01a48.2,48.2,0,0,1,0,6.4c-.2,2.331-1.578,1.863-3.3,2.187-17.527,3.3-17.424,27.357-.888,30.831,1.93.406,3.966-.189,4.183,2.343a45.431,45.431,0,0,1-.019,6.647,1.848,1.848,0,0,1-1.741,1.783,9.657,9.657,0,0,1-2.039-.193c-2.027-.5-1.686-3.183-2.207-4.71a24.887,24.887,0,0,1-6.26-2.616c-1.736.795-2.958,2.911-5.085,1.692A22.257,22.257,0,0,1,5.878,42.5c-1.186-2.21.9-3.275,1.7-5.094a17.283,17.283,0,0,1-1.6-3.093c-.3-.748-.692-2.55-1-3.045-.066-.106-.074-.134-.2-.191-.566-.257-2.1-.253-2.886-.508A2.244,2.244,0,0,1,.251,28.943c-.343-1.341-.419-5.277.324-6.416.868-1.329,3.021-1.021,4.353-1.52a22.825,22.825,0,0,1,2.647-6.225c-.626-1.516-2.478-2.62-2-4.483C5.84,9.262,9.4,5.718,10.436,5.5c1.7-.353,2.944,1.317,4.3,2.037a24.545,24.545,0,0,1,6.311-2.652c.678-2.426.034-4.574,3.235-4.857m.94,1.658c-.56.208-1.62-.078-1.888.526-.354.8-.319,3.458-.76,4.006-1.483.6-3.024.886-4.526,1.541-.669.292-2.966,1.73-3.342,1.756-.666.046-2.684-2-3.455-2.281a.559.559,0,0,0-.421-.048,20.032,20.032,0,0,0-3.523,3.548.448.448,0,0,0-.042.35c.148.726,1.879,2.357,2.192,3.168a.834.834,0,0,1,.075.647,23.841,23.841,0,0,0-3.174,7.536c-.51.587-3.426.467-4.161.93-.377.237-.463,1.76-.476,2.265-.015.581.038,2.825.4,3.135.683.583,3.83.363,4.29,1.062a11.668,11.668,0,0,1,.5,1.848,26.85,26.85,0,0,0,.925,2.6c.341.776,1.562,2.5,1.692,3.013a.877.877,0,0,1-.075.647c-.278.719-2.36,2.834-2.194,3.433A18.919,18.919,0,0,0,10.829,45a.69.69,0,0,0,.523-.079c.723-.319,2.7-2.295,3.353-2.249.386.027,2.594,1.427,3.25,1.718,1.483.657,3.042,1.007,4.565,1.536.444.364.5,3.334.814,4.05.252.567,1.343.378,1.888.526V43.454a17.38,17.38,0,0,1,0-34.718Z" transform="translate(0 0)" fill="#0c2d70"/>
      </g>
    </g>
  </g>
</svg>
