<svg xmlns="http://www.w3.org/2000/svg" xmlns:xlink="http://www.w3.org/1999/xlink" width="400" height="275" viewBox="0 0 400 275">
  <defs>
    <clipPath id="clip-path">
      <rect id="Rectangle_404796" data-name="Rectangle 404796" width="400" height="233.442" fill="#61dfe4"/>
    </clipPath>
    <clipPath id="clip-path-2">
      <rect id="Rectangle_404824" data-name="Rectangle 404824" width="400" height="233.442" fill="none"/>
    </clipPath>
  </defs>
  <g id="img6" transform="translate(-180 -1345)">
    <rect id="Rectangle_403907" data-name="Rectangle 403907" width="400" height="275" transform="translate(180 1345)" fill="none"/>
    <g id="Group_1102746" data-name="Group 1102746" transform="translate(180 1366)">
      <g id="Group_1102743" data-name="Group 1102743">
        <g id="Group_1102742" data-name="Group 1102742" clip-path="url(#clip-path)">
          <path id="Path_877652" data-name="Path 877652" d="M394.27,166.609a47.75,47.75,0,0,1-7.348,13.916H34.275a57.68,57.68,0,0,1,6.9-26.542c6.772-12.713,26.2-20.912,26.474-34.932.355-18.291-17.727-30.83-21.615-47.558C41.809,53.3,49.247,31.9,61.291,18.664A58.176,58.176,0,0,1,110.638.35c20.8,2.255,37.248,16.013,57.593,20.22,48.812,10.087,88.915-22.678,136.48-19.14,16.919,1.342,33.636,12.376,42.948,26.827,11.733,18.216,5.971,39.337,12.2,58.865,4.448,13.939,18.325,21,26.7,32.01a52.1,52.1,0,0,1,7.709,47.477" transform="translate(-14.537 0)" fill="#ffe9ca"/>
        </g>
      </g>
      <g id="Group_1102745" data-name="Group 1102745">
        <g id="Group_1102744" data-name="Group 1102744" clip-path="url(#clip-path-2)">
          <line id="Line_3231" data-name="Line 3231" x2="399.136" transform="translate(0.432 180.525)" fill="none" stroke="#153e5f" stroke-linecap="round" stroke-linejoin="round" stroke-width="1.5"/>
          <path id="Path_877653" data-name="Path 877653" d="M580.9,268.112c8.594-2.854,14.119-10.911,14.277-11.006a97.282,97.282,0,0,0-12.364-2.31c13.428-2.5,19.2-11.048,19.472-11.261a83.947,83.947,0,0,0-12.051-3.358c8.306-7.792,13.169-19.58,13.189-19.588.163-.127-13.867,1.657-22.835,10.081-.574-3.977-1.148-7.818-1.862-11.4a29.8,29.8,0,0,0-13.345,20.138c-.677-4.065-1.3-8.016-1.983-11.717-.068,0-9.193,7.557-11.075,17.2-1.417,7,.449,11.077.443,11.048-2.173-2.792-4.219-5.625-6.14-8.45a55.264,55.264,0,0,0-5.541,20.5c-.674,13.011,4.51,20.773,4.5,20.634-.046.186,8.642.333,19.03-4.5a77.235,77.235,0,0,0,15.95-10.044c-3.439-1.568-6.9-3.133-10.326-4.714-.011.046,4.473.832,10.663-1.254" transform="translate(-229.46 -92.999)" fill="#a1c7f7"/>
          <path id="Path_877654" data-name="Path 877654" d="M603.749,227.166a184.722,184.722,0,0,0-51.7,61.3" transform="translate(-234.135 -96.346)" fill="none" stroke="#87b1e6" stroke-linecap="round" stroke-linejoin="round" stroke-width="0.75"/>
          <path id="Path_877655" data-name="Path 877655" d="M613.941,254.7c-.006-.038-7.288,2.179-14.461-.621-3.549-6.6-.875-14.052-.852-14.026" transform="translate(-253.472 -101.81)" fill="none" stroke="#87b1e6" stroke-linecap="round" stroke-linejoin="round" stroke-width="0.75"/>
          <path id="Path_877656" data-name="Path 877656" d="M591.412,279.84a21.661,21.661,0,0,1-12.832-1.17,18.207,18.207,0,0,1-3.424-12.413" transform="translate(-243.898 -112.925)" fill="none" stroke="#87b1e6" stroke-linecap="round" stroke-linejoin="round" stroke-width="0.75"/>
          <path id="Path_877657" data-name="Path 877657" d="M573.012,304.545a20.256,20.256,0,0,1-12.582-.373,18.874,18.874,0,0,1-4.474-12.208" transform="translate(-235.791 -123.828)" fill="none" stroke="#87b1e6" stroke-linecap="round" stroke-linejoin="round" stroke-width="0.75"/>
          <path id="Path_877658" data-name="Path 877658" d="M67.734,268.112c-8.594-2.854-14.119-10.911-14.277-11.006A97.282,97.282,0,0,1,65.82,254.8c-13.428-2.5-19.2-11.048-19.472-11.261A83.942,83.942,0,0,1,58.4,240.178c-8.306-7.792-13.169-19.58-13.189-19.588-.163-.127,13.867,1.657,22.835,10.081.574-3.977,1.148-7.818,1.862-11.4a29.8,29.8,0,0,1,13.345,20.138c.677-4.065,1.3-8.016,1.983-11.717.068,0,9.193,7.557,11.075,17.2,1.417,7-.449,11.077-.443,11.048,2.173-2.792,4.219-5.625,6.14-8.45a55.265,55.265,0,0,1,5.541,20.5c.674,13.011-4.51,20.773-4.5,20.634.046.186-8.642.333-19.03-4.5A77.2,77.2,0,0,1,68.072,274.08c3.438-1.568,6.9-3.133,10.325-4.714.011.046-4.473.832-10.663-1.254" transform="translate(-19.174 -92.999)" fill="#a1c7f7"/>
          <path id="Path_877659" data-name="Path 877659" d="M52.766,227.166a184.722,184.722,0,0,1,51.7,61.3" transform="translate(-22.379 -96.346)" fill="none" stroke="#87b1e6" stroke-linecap="round" stroke-linejoin="round" stroke-width="0.75"/>
          <path id="Path_877660" data-name="Path 877660" d="M68.643,254.7c.006-.038,7.288,2.179,14.461-.621,3.549-6.6.875-14.052.852-14.026" transform="translate(-29.113 -101.81)" fill="none" stroke="#87b1e6" stroke-linecap="round" stroke-linejoin="round" stroke-width="0.75"/>
          <path id="Path_877661" data-name="Path 877661" d="M91.14,279.84a21.661,21.661,0,0,0,12.832-1.17,18.2,18.2,0,0,0,3.424-12.413" transform="translate(-38.654 -112.925)" fill="none" stroke="#87b1e6" stroke-linecap="round" stroke-linejoin="round" stroke-width="0.75"/>
          <path id="Path_877662" data-name="Path 877662" d="M109.016,304.545a20.256,20.256,0,0,0,12.582-.373,18.875,18.875,0,0,0,4.474-12.208" transform="translate(-46.236 -123.828)" fill="none" stroke="#87b1e6" stroke-linecap="round" stroke-linejoin="round" stroke-width="0.75"/>
          <path id="Path_877663" data-name="Path 877663" d="M626.968,292.376a19.809,19.809,0,0,1-5.834,13.977c.005-.073.753-7.1.835-14.749.278-7.628-.124-14.467-.124-14.538a25.941,25.941,0,0,1,5.122,15.309" transform="translate(-263.435 -117.509)" fill="#87b1e6"/>
          <path id="Path_877664" data-name="Path 877664" d="M621.136,306.874c4.164-8.735,4.365-19.036.967-28.582" transform="translate(-263.437 -118.029)" fill="none" stroke="#a1c7f7" stroke-linecap="round" stroke-linejoin="round" stroke-width="0.5"/>
          <path id="Path_877665" data-name="Path 877665" d="M602.735,316.056a19.117,19.117,0,0,1-7.53,12.9c.014-.07,1.584-6.811,2.538-14.224,1.151-7.372,1.515-14.048,1.524-14.117a24.6,24.6,0,0,1,3.469,15.445" transform="translate(-252.438 -127.494)" fill="#87b1e6"/>
          <path id="Path_877666" data-name="Path 877666" d="M595.207,329.476c5.241-8,6.613-17.975,4.241-27.627" transform="translate(-252.44 -128.02)" fill="none" stroke="#a1c7f7" stroke-linecap="round" stroke-linejoin="round" stroke-width="0.5"/>
          <path id="Path_877667" data-name="Path 877667" d="M575.424,336.522a18.828,18.828,0,0,1-9.173,11.667c.023-.066,2.414-6.439,4.243-13.532,2.027-7.03,3.161-13.472,3.178-13.537a23.151,23.151,0,0,1,1.752,15.4" transform="translate(-240.158 -136.193)" fill="#87b1e6"/>
          <path id="Path_877668" data-name="Path 877668" d="M566.254,348.716a32.9,32.9,0,0,0,7.522-26.356" transform="translate(-240.16 -136.72)" fill="none" stroke="#a1c7f7" stroke-linecap="round" stroke-linejoin="round" stroke-width="0.5"/>
          <path id="Path_877669" data-name="Path 877669" d="M644.924,302.967a26.408,26.408,0,0,0-13.133,7.721,147.417,147.417,0,0,0,14.594-2.552,145.6,145.6,0,0,0,14.391-4.391,27.614,27.614,0,0,0-15.852-.779" transform="translate(-267.955 -128.155)" fill="#87b1e6"/>
          <path id="Path_877670" data-name="Path 877670" d="M631.791,311.852a63.62,63.62,0,0,1,28.241-6.942" transform="translate(-267.956 -129.319)" fill="none" stroke="#a1c7f7" stroke-linecap="round" stroke-linejoin="round" stroke-width="0.5"/>
          <path id="Path_877671" data-name="Path 877671" d="M621.521,329.905a27.225,27.225,0,0,0-14.222,5.964c.074,0,7.213.032,15.121-.781,7.881-.913,15.037-2.55,15.11-2.57a29.449,29.449,0,0,0-16.009-2.613" transform="translate(-257.568 -139.833)" fill="#87b1e6"/>
          <path id="Path_877672" data-name="Path 877672" d="M607.3,337.6a67.323,67.323,0,0,1,29.475-3.436" transform="translate(-257.568 -141.568)" fill="none" stroke="#a1c7f7" stroke-linecap="round" stroke-linejoin="round" stroke-width="0.5"/>
          <path id="Path_877673" data-name="Path 877673" d="M594.84,353.146a28.652,28.652,0,0,0-15.163,4.157c.075.008,7.345.858,15.483.98,8.124.021,15.582-.737,15.658-.748a31.243,31.243,0,0,0-15.978-4.389" transform="translate(-245.853 -149.776)" fill="#87b1e6"/>
          <path id="Path_877674" data-name="Path 877674" d="M579.677,359.191a71.869,71.869,0,0,1,30.383.06" transform="translate(-245.853 -151.665)" fill="none" stroke="#a1c7f7" stroke-linecap="round" stroke-linejoin="round" stroke-width="0.5"/>
          <path id="Path_877675" data-name="Path 877675" d="M541.461,342.935a142.918,142.918,0,0,0,63.169-50.171" transform="translate(-229.645 -124.167)" fill="none" stroke="#a1c7f7" stroke-linecap="round" stroke-linejoin="round" stroke-width="0.5"/>
          <path id="Path_877676" data-name="Path 877676" d="M656.344,261.934a53.52,53.52,0,0,0-5.191,13.134,29.5,29.5,0,0,0,9.543-10.09,34.231,34.231,0,0,0,4.151-13.939,50.007,50.007,0,0,0-8.5,10.9" transform="translate(-276.167 -106.471)" fill="#87b1e6"/>
          <path id="Path_877677" data-name="Path 877677" d="M651.153,275.52A147.054,147.054,0,0,0,664.568,252.1" transform="translate(-276.167 -106.923)" fill="none" stroke="#a1c7f7" stroke-linecap="round" stroke-linejoin="round" stroke-width="0.5"/>
          <path id="Path_877678" data-name="Path 877678" d="M63.323,292.376a19.808,19.808,0,0,0,5.834,13.977c-.005-.073-.753-7.1-.835-14.749-.278-7.628.124-14.467.124-14.538a25.936,25.936,0,0,0-5.122,15.309" transform="translate(-26.856 -117.509)" fill="#87b1e6"/>
          <path id="Path_877679" data-name="Path 877679" d="M71,306.874c-4.164-8.735-4.365-19.036-.967-28.582" transform="translate(-28.696 -118.029)" fill="none" stroke="#a1c7f7" stroke-linecap="round" stroke-linejoin="round" stroke-width="0.5"/>
          <path id="Path_877680" data-name="Path 877680" d="M86.177,316.056a19.117,19.117,0,0,0,7.53,12.9c-.014-.07-1.584-6.811-2.538-14.224-1.151-7.372-1.515-14.048-1.524-14.117a24.6,24.6,0,0,0-3.469,15.445" transform="translate(-36.474 -127.494)" fill="#87b1e6"/>
          <path id="Path_877681" data-name="Path 877681" d="M95.433,329.476c-5.241-8-6.613-17.975-4.241-27.627" transform="translate(-38.2 -128.02)" fill="none" stroke="#a1c7f7" stroke-linecap="round" stroke-linejoin="round" stroke-width="0.5"/>
          <path id="Path_877682" data-name="Path 877682" d="M111.936,336.522a18.828,18.828,0,0,0,9.173,11.667c-.022-.066-2.414-6.439-4.243-13.532-2.027-7.03-3.161-13.472-3.178-13.537a23.151,23.151,0,0,0-1.752,15.4" transform="translate(-47.202 -136.193)" fill="#87b1e6"/>
          <path id="Path_877683" data-name="Path 877683" d="M122.552,348.716a32.9,32.9,0,0,1-7.522-26.356" transform="translate(-48.645 -136.72)" fill="none" stroke="#a1c7f7" stroke-linecap="round" stroke-linejoin="round" stroke-width="0.5"/>
          <path id="Path_877684" data-name="Path 877684" d="M28.317,302.967a26.409,26.409,0,0,1,13.134,7.721,147.414,147.414,0,0,1-14.595-2.552,145.6,145.6,0,0,1-14.391-4.391,27.613,27.613,0,0,1,15.852-.779" transform="translate(-5.286 -128.155)" fill="#87b1e6"/>
          <path id="Path_877685" data-name="Path 877685" d="M42,311.852A63.62,63.62,0,0,0,13.76,304.91" transform="translate(-5.836 -129.319)" fill="none" stroke="#a1c7f7" stroke-linecap="round" stroke-linejoin="round" stroke-width="0.5"/>
          <path id="Path_877686" data-name="Path 877686" d="M50.8,329.905a27.225,27.225,0,0,1,14.222,5.964c-.074,0-7.213.032-15.121-.781-7.881-.913-15.037-2.55-15.11-2.57A29.449,29.449,0,0,1,50.8,329.905" transform="translate(-14.756 -139.833)" fill="#87b1e6"/>
          <path id="Path_877687" data-name="Path 877687" d="M65.584,337.6a67.323,67.323,0,0,0-29.475-3.436" transform="translate(-15.315 -141.568)" fill="none" stroke="#a1c7f7" stroke-linecap="round" stroke-linejoin="round" stroke-width="0.5"/>
          <path id="Path_877688" data-name="Path 877688" d="M76.813,353.146A28.652,28.652,0,0,1,91.977,357.3c-.075.008-7.345.858-15.483.98-8.124.021-15.582-.737-15.658-.748a31.243,31.243,0,0,1,15.978-4.389" transform="translate(-25.801 -149.776)" fill="#87b1e6"/>
          <path id="Path_877689" data-name="Path 877689" d="M92.537,359.191a71.869,71.869,0,0,0-30.383.06" transform="translate(-26.361 -151.665)" fill="none" stroke="#a1c7f7" stroke-linecap="round" stroke-linejoin="round" stroke-width="0.5"/>
          <path id="Path_877690" data-name="Path 877690" d="M106.606,342.935a142.919,142.919,0,0,1-63.169-50.171" transform="translate(-18.423 -124.167)" fill="none" stroke="#a1c7f7" stroke-linecap="round" stroke-linejoin="round" stroke-width="0.5"/>
          <path id="Path_877691" data-name="Path 877691" d="M28.161,261.934a53.517,53.517,0,0,1,5.191,13.134,29.5,29.5,0,0,1-9.543-10.09,34.231,34.231,0,0,1-4.151-13.939,50.01,50.01,0,0,1,8.5,10.9" transform="translate(-8.337 -106.471)" fill="#87b1e6"/>
          <path id="Path_877692" data-name="Path 877692" d="M33.558,275.52A147.059,147.059,0,0,1,20.143,252.1" transform="translate(-8.543 -106.923)" fill="none" stroke="#a1c7f7" stroke-linecap="round" stroke-linejoin="round" stroke-width="0.5"/>
          <path id="Path_877693" data-name="Path 877693" d="M608.329,142.069a15.083,15.083,0,1,0,15.083,15.083,15.077,15.077,0,0,0-15.083-15.083m0,25.13a10.047,10.047,0,1,1,10.047-10.047A10.041,10.041,0,0,1,608.329,167.2" transform="translate(-251.619 -60.254)" fill="#87b1e6"/>
          <rect id="Rectangle_404797" data-name="Rectangle 404797" width="7.436" height="5.477" transform="translate(353.001 78.146)" fill="#87b1e6"/>
          <rect id="Rectangle_404798" data-name="Rectangle 404798" width="7.436" height="5.478" transform="matrix(0.707, -0.707, 0.707, 0.707, 340.83, 86.267)" fill="#87b1e6"/>
          <rect id="Rectangle_404799" data-name="Rectangle 404799" width="5.477" height="7.436" transform="translate(337.968 93.179)" fill="#87b1e6"/>
          <rect id="Rectangle_404800" data-name="Rectangle 404800" width="5.478" height="7.437" transform="matrix(0.707, -0.707, 0.707, 0.707, 340.83, 107.527)" fill="#87b1e6"/>
          <rect id="Rectangle_404801" data-name="Rectangle 404801" width="7.436" height="5.477" transform="translate(353.001 110.171)" fill="#87b1e6"/>
          <rect id="Rectangle_404802" data-name="Rectangle 404802" width="7.437" height="5.478" transform="matrix(0.707, -0.707, 0.707, 0.707, 363.476, 108.912)" fill="#87b1e6"/>
          <rect id="Rectangle_404803" data-name="Rectangle 404803" width="5.477" height="7.436" transform="translate(369.993 93.179)" fill="#87b1e6"/>
          <rect id="Rectangle_404804" data-name="Rectangle 404804" width="5.478" height="7.437" transform="translate(363.475 84.882) rotate(-45)" fill="#87b1e6"/>
          <path id="Path_877694" data-name="Path 877694" d="M61.906,141.986A13.575,13.575,0,1,0,75.481,155.56a13.569,13.569,0,0,0-13.575-13.574m0,22.617a9.042,9.042,0,1,1,9.042-9.042,9.036,9.036,0,0,1-9.042,9.042" transform="translate(-20.508 -60.219)" fill="#87b1e6"/>
          <rect id="Rectangle_404805" data-name="Rectangle 404805" width="6.693" height="4.93" transform="translate(38.06 78.465)" fill="#87b1e6"/>
          <rect id="Rectangle_404806" data-name="Rectangle 404806" width="6.693" height="4.93" transform="translate(27.107 85.774) rotate(-45)" fill="#87b1e6"/>
          <rect id="Rectangle_404807" data-name="Rectangle 404807" width="4.93" height="6.693" transform="translate(24.53 91.994)" fill="#87b1e6"/>
          <rect id="Rectangle_404808" data-name="Rectangle 404808" width="4.93" height="6.693" transform="translate(27.107 104.908) rotate(-45)" fill="#87b1e6"/>
          <rect id="Rectangle_404809" data-name="Rectangle 404809" width="6.693" height="4.93" transform="translate(38.06 107.287)" fill="#87b1e6"/>
          <rect id="Rectangle_404810" data-name="Rectangle 404810" width="6.693" height="4.93" transform="translate(47.487 106.154) rotate(-45)" fill="#87b1e6"/>
          <rect id="Rectangle_404811" data-name="Rectangle 404811" width="4.93" height="6.693" transform="translate(53.352 91.994)" fill="#87b1e6"/>
          <rect id="Rectangle_404812" data-name="Rectangle 404812" width="4.93" height="6.693" transform="translate(47.487 84.527) rotate(-45)" fill="#87b1e6"/>
          <path id="Path_877695" data-name="Path 877695" d="M376.807,19.7A16.591,16.591,0,1,0,393.4,36.292,16.585,16.585,0,0,0,376.807,19.7m0,27.643a11.052,11.052,0,1,1,11.052-11.052,11.045,11.045,0,0,1-11.052,11.052" transform="translate(-152.787 -8.355)" fill="#87b1e6"/>
          <rect id="Rectangle_404813" data-name="Rectangle 404813" width="8.18" height="6.025" transform="translate(219.94 7.309)" fill="#87b1e6"/>
          <rect id="Rectangle_404814" data-name="Rectangle 404814" width="8.18" height="6.025" transform="translate(206.553 16.243) rotate(-45)" fill="#87b1e6"/>
          <rect id="Rectangle_404815" data-name="Rectangle 404815" width="6.025" height="8.18" transform="translate(203.403 23.845)" fill="#87b1e6"/>
          <rect id="Rectangle_404816" data-name="Rectangle 404816" width="6.025" height="8.18" transform="matrix(0.707, -0.707, 0.707, 0.707, 206.553, 39.629)" fill="#87b1e6"/>
          <rect id="Rectangle_404817" data-name="Rectangle 404817" width="8.18" height="6.025" transform="translate(219.94 42.537)" fill="#87b1e6"/>
          <rect id="Rectangle_404818" data-name="Rectangle 404818" width="8.18" height="6.025" transform="translate(231.462 41.153) rotate(-45)" fill="#87b1e6"/>
          <rect id="Rectangle_404819" data-name="Rectangle 404819" width="6.025" height="8.18" transform="translate(238.631 23.846)" fill="#87b1e6"/>
          <rect id="Rectangle_404820" data-name="Rectangle 404820" width="6.025" height="8.18" transform="matrix(0.707, -0.707, 0.707, 0.707, 231.462, 14.719)" fill="#87b1e6"/>
          <path id="Path_877696" data-name="Path 877696" d="M376.823,205.941h-224.1V74.505a6.829,6.829,0,0,1,6.829-6.829H369.994a6.829,6.829,0,0,1,6.829,6.829Z" transform="translate(-64.774 -28.703)" fill="#326290"/>
          <path id="Path_877697" data-name="Path 877697" d="M338.227,78.878h-13.4a.963.963,0,0,0,0,1.926h13.4a.963.963,0,1,0,0-1.926" transform="translate(-137.357 -33.454)" fill="#153e5f"/>
          <path id="Path_877698" data-name="Path 877698" d="M364.307,76.8a4.359,4.359,0,1,1-4.359-4.359,4.359,4.359,0,0,1,4.359,4.359" transform="translate(-150.812 -30.722)" fill="#153e5f"/>
          <path id="Path_877699" data-name="Path 877699" d="M363.579,78.833a1.6,1.6,0,1,1-1.6-1.6,1.6,1.6,0,0,1,1.6,1.6" transform="translate(-152.848 -32.758)" fill="#fff"/>
          <path id="Path_877700" data-name="Path 877700" d="M375.062,95.027V207.051a2.687,2.687,0,0,1-2.688,2.688h-205.4a2.687,2.687,0,0,1-2.688-2.688V95.027a2.687,2.687,0,0,1,2.688-2.688h205.4a2.687,2.687,0,0,1,2.688,2.688" transform="translate(-69.677 -39.163)" fill="#a1c7f7"/>
          <path id="Path_877701" data-name="Path 877701" d="M271.708,164.98a3.288,3.288,0,1,0-3.288,3.288,3.288,3.288,0,0,0,3.288-3.288" transform="translate(-112.448 -68.577)" fill="#d6e9fc"/>
          <path id="Path_877702" data-name="Path 877702" d="M254.275,188.332a3.288,3.288,0,1,0-3.288,3.288,3.288,3.288,0,0,0,3.288-3.288" transform="translate(-105.054 -78.481)" fill="#d6e9fc"/>
          <path id="Path_877703" data-name="Path 877703" d="M263.448,151.587V130.115H253.409" transform="translate(-107.476 -55.184)" fill="none" stroke="#d6e9fc" stroke-miterlimit="10" stroke-width="0.98"/>
          <path id="Path_877704" data-name="Path 877704" d="M230.266,205.413a3.288,3.288,0,1,1,3.288,3.288,3.288,3.288,0,0,1-3.288-3.288" transform="translate(-97.661 -85.725)" fill="#d6e9fc"/>
          <path id="Path_877705" data-name="Path 877705" d="M235.975,192.021V170.548h10.039" transform="translate(-100.082 -72.333)" fill="none" stroke="#d6e9fc" stroke-miterlimit="10" stroke-width="0.98"/>
          <path id="Path_877706" data-name="Path 877706" d="M230.266,147.487a3.288,3.288,0,1,1,3.288,3.288,3.288,3.288,0,0,1-3.288-3.288" transform="translate(-97.661 -61.158)" fill="#d6e9fc"/>
          <path id="Path_877707" data-name="Path 877707" d="M235.975,134.094V112.622h10.039" transform="translate(-100.082 -47.765)" fill="none" stroke="#d6e9fc" stroke-miterlimit="10" stroke-width="0.98"/>
          <path id="Path_877708" data-name="Path 877708" d="M212.832,166.129a3.288,3.288,0,1,1,3.288,3.288,3.288,3.288,0,0,1-3.288-3.288" transform="translate(-90.266 -69.064)" fill="#d6e9fc"/>
          <path id="Path_877709" data-name="Path 877709" d="M218.542,152.737V131.264h10.039" transform="translate(-92.688 -55.672)" fill="none" stroke="#d6e9fc" stroke-miterlimit="10" stroke-width="0.98"/>
          <line id="Line_3232" data-name="Line 3232" y2="56.674" transform="translate(145.933 53.176)" fill="none" stroke="#d6e9fc" stroke-miterlimit="10" stroke-width="0.98"/>
          <path id="Path_877710" data-name="Path 877710" d="M480.837,223.793a3.288,3.288,0,1,1-3.288-3.288,3.288,3.288,0,0,1,3.288,3.288" transform="translate(-201.144 -93.521)" fill="#d6e9fc"/>
          <path id="Path_877711" data-name="Path 877711" d="M463.4,200.441a3.288,3.288,0,1,1-3.288-3.288,3.288,3.288,0,0,1,3.288,3.288" transform="translate(-193.75 -83.617)" fill="#d6e9fc"/>
          <path id="Path_877712" data-name="Path 877712" d="M472.577,226.214v21.472H462.538" transform="translate(-196.172 -95.942)" fill="none" stroke="#d6e9fc" stroke-miterlimit="10" stroke-width="0.98"/>
          <path id="Path_877713" data-name="Path 877713" d="M498.271,207.067a3.288,3.288,0,1,1-3.288-3.288,3.288,3.288,0,0,1,3.288,3.288" transform="translate(-208.538 -86.427)" fill="#d6e9fc"/>
          <path id="Path_877714" data-name="Path 877714" d="M490.011,209.488V230.96H479.971" transform="translate(-203.566 -88.848)" fill="none" stroke="#d6e9fc" stroke-miterlimit="10" stroke-width="0.98"/>
          <path id="Path_877715" data-name="Path 877715" d="M439.395,183.359a3.288,3.288,0,1,0,3.288-3.288,3.288,3.288,0,0,0-3.288,3.288" transform="translate(-186.357 -76.372)" fill="#d6e9fc"/>
          <path id="Path_877716" data-name="Path 877716" d="M445.1,185.78v21.472h10.039" transform="translate(-188.778 -78.793)" fill="none" stroke="#d6e9fc" stroke-miterlimit="10" stroke-width="0.98"/>
          <path id="Path_877717" data-name="Path 877717" d="M439.395,241.286A3.288,3.288,0,1,0,442.683,238a3.288,3.288,0,0,0-3.288,3.288" transform="translate(-186.357 -100.94)" fill="#d6e9fc"/>
          <path id="Path_877718" data-name="Path 877718" d="M445.1,243.707v21.472h10.039" transform="translate(-188.778 -103.361)" fill="none" stroke="#d6e9fc" stroke-miterlimit="10" stroke-width="0.98"/>
          <line id="Line_3233" data-name="Line 3233" y1="53.753" transform="translate(266.366 116.824)" fill="none" stroke="#d6e9fc" stroke-miterlimit="10" stroke-width="0.98"/>
          <path id="Path_877719" data-name="Path 877719" d="M353.5,155.645a23.551,23.551,0,1,1-23.551-23.551A23.551,23.551,0,0,1,353.5,155.645" transform="translate(-129.95 -56.024)" fill="#fff"/>
          <path id="Path_877720" data-name="Path 877720" d="M351.886,177.618a23.55,23.55,0,0,1-34.833,0,17.619,17.619,0,0,1,12.007-14.19,9.321,9.321,0,1,1,10.814,0,17.617,17.617,0,0,1,12.012,14.19" transform="translate(-134.469 -62.146)" fill="#4192f2"/>
          <rect id="Rectangle_404821" data-name="Rectangle 404821" width="49.791" height="12.039" transform="translate(181.124 137.26)" fill="#fff"/>
          <path id="Path_877721" data-name="Path 877721" d="M367.286,249.811a.533.533,0,0,1-.533-.533v-6.6a.533.533,0,1,1,1.065,0v6.6a.533.533,0,0,1-.533.533" transform="translate(-155.548 -102.7)" fill="#153e5f"/>
          <path id="Path_877722" data-name="Path 877722" d="M363.235,249.556a.533.533,0,0,1-.377-.909l4.665-4.666a.533.533,0,0,1,.753.754l-4.665,4.666a.529.529,0,0,1-.377.156" transform="translate(-153.83 -103.411)" fill="#153e5f"/>
          <path id="Path_877723" data-name="Path 877723" d="M367.9,249.556a.53.53,0,0,1-.377-.156l-4.665-4.666a.533.533,0,0,1,.753-.754l4.665,4.666a.533.533,0,0,1-.377.909" transform="translate(-153.83 -103.411)" fill="#153e5f"/>
          <path id="Path_877724" data-name="Path 877724" d="M368.156,248.942h-6.6a.533.533,0,0,1,0-1.065h6.6a.533.533,0,1,1,0,1.065" transform="translate(-153.118 -105.13)" fill="#153e5f"/>
          <path id="Path_877725" data-name="Path 877725" d="M347.426,249.811a.533.533,0,0,1-.533-.533v-6.6a.533.533,0,1,1,1.065,0v6.6a.533.533,0,0,1-.533.533" transform="translate(-147.125 -102.7)" fill="#153e5f"/>
          <path id="Path_877726" data-name="Path 877726" d="M343.375,249.556a.533.533,0,0,1-.377-.909l4.665-4.666a.533.533,0,1,1,.753.754l-4.665,4.666a.53.53,0,0,1-.377.156" transform="translate(-145.407 -103.411)" fill="#153e5f"/>
          <path id="Path_877727" data-name="Path 877727" d="M348.041,249.556a.53.53,0,0,1-.377-.156L343,244.734a.533.533,0,0,1,.753-.754l4.665,4.666a.533.533,0,0,1-.377.909" transform="translate(-145.407 -103.411)" fill="#153e5f"/>
          <path id="Path_877728" data-name="Path 877728" d="M348.3,248.942h-6.6a.533.533,0,0,1,0-1.065h6.6a.533.533,0,0,1,0,1.065" transform="translate(-144.695 -105.13)" fill="#153e5f"/>
          <path id="Path_877729" data-name="Path 877729" d="M327.566,249.811a.533.533,0,0,1-.533-.533v-6.6a.533.533,0,1,1,1.065,0v6.6a.533.533,0,0,1-.533.533" transform="translate(-138.701 -102.7)" fill="#153e5f"/>
          <path id="Path_877730" data-name="Path 877730" d="M323.515,249.556a.533.533,0,0,1-.377-.909l4.665-4.666a.533.533,0,0,1,.753.754l-4.665,4.666a.53.53,0,0,1-.377.156" transform="translate(-136.984 -103.411)" fill="#153e5f"/>
          <path id="Path_877731" data-name="Path 877731" d="M328.181,249.556a.529.529,0,0,1-.377-.156l-4.665-4.666a.533.533,0,1,1,.753-.754l4.665,4.666a.533.533,0,0,1-.377.909" transform="translate(-136.984 -103.411)" fill="#153e5f"/>
          <path id="Path_877732" data-name="Path 877732" d="M328.436,248.942h-6.6a.533.533,0,1,1,0-1.065h6.6a.533.533,0,0,1,0,1.065" transform="translate(-136.272 -105.13)" fill="#153e5f"/>
          <path id="Path_877733" data-name="Path 877733" d="M387.146,249.811a.533.533,0,0,1-.533-.533v-6.6a.533.533,0,1,1,1.065,0v6.6a.533.533,0,0,1-.533.533" transform="translate(-163.971 -102.7)" fill="#153e5f"/>
          <path id="Path_877734" data-name="Path 877734" d="M383.094,249.556a.533.533,0,0,1-.377-.909l4.665-4.666a.533.533,0,0,1,.753.754l-4.665,4.666a.529.529,0,0,1-.377.156" transform="translate(-162.252 -103.411)" fill="#153e5f"/>
          <path id="Path_877735" data-name="Path 877735" d="M387.761,249.556a.529.529,0,0,1-.377-.156l-4.665-4.666a.533.533,0,1,1,.753-.754l4.665,4.666a.533.533,0,0,1-.377.909" transform="translate(-162.253 -103.411)" fill="#153e5f"/>
          <path id="Path_877736" data-name="Path 877736" d="M388.016,248.942h-6.6a.533.533,0,0,1,0-1.065h6.6a.533.533,0,0,1,0,1.065" transform="translate(-161.541 -105.13)" fill="#153e5f"/>
          <rect id="Rectangle_404822" data-name="Rectangle 404822" width="12.039" height="12.039" transform="translate(169.085 137.26)" fill="#f2a941"/>
          <path id="Path_877737" data-name="Path 877737" d="M304.693,247.047a2.382,2.382,0,1,1-2.381-2.381,2.381,2.381,0,0,1,2.381,2.381" transform="translate(-127.207 -103.768)" fill="#fdc563"/>
          <rect id="Rectangle_404823" data-name="Rectangle 404823" width="24.793" height="1.786" transform="translate(169.085 132.185)" fill="#153e5f"/>
          <path id="Path_877738" data-name="Path 877738" d="M101.119,389.521l2.99,4.29a10.727,10.727,0,0,0,8.742,4.835h260.07a10.726,10.726,0,0,0,8.742-4.835l2.99-4.29Z" transform="translate(-42.887 -165.204)" fill="#153e5f"/>
          <path id="Path_877739" data-name="Path 877739" d="M354.431,307.77h-224.1l-29.892,43.666c-1.461,2.134.378,4.793,3.315,4.793H381.009c2.936,0,4.775-2.659,3.315-4.793Z" transform="translate(-42.382 -130.532)" fill="#326290"/>
          <line id="Line_3234" data-name="Line 3234" x1="224.097" transform="translate(87.952 177.238)" fill="none" stroke="#153e5f" stroke-linecap="round" stroke-linejoin="round" stroke-width="0.75"/>
          <path id="Path_877740" data-name="Path 877740" d="M184.926,327.847H170.447c-.785,0-1.283-.231-1.112-.516l2.317-3.862a2.346,2.346,0,0,1,1.675-.49h14.067c.763,0,1.272.219,1.137.49l-1.927,3.862c-.142.285-.894.516-1.679.516" transform="translate(-71.804 -136.982)" fill="#153e5f"/>
          <path id="Path_877741" data-name="Path 877741" d="M185.618,326.608H171.2c-.781,0-1.278-.229-1.109-.512l2.3-3.83a2.339,2.339,0,0,1,1.667-.486h14.009c.76,0,1.268.217,1.133.486l-1.91,3.83c-.141.283-.889.512-1.671.512" transform="translate(-72.126 -136.474)" fill="#8ab5eb"/>
          <path id="Path_877742" data-name="Path 877742" d="M221.206,327.847H206.728c-.785,0-1.311-.231-1.175-.516l1.846-3.862c.13-.271.853-.49,1.616-.49h14.067c.763,0,1.3.219,1.2.49l-1.455,3.862c-.107.285-.831.516-1.616.516" transform="translate(-87.17 -136.982)" fill="#153e5f"/>
          <path id="Path_877743" data-name="Path 877743" d="M221.744,326.608H207.327c-.781,0-1.306-.229-1.171-.512l1.83-3.83c.128-.269.848-.486,1.608-.486H223.6c.76,0,1.293.217,1.193.486l-1.443,3.83c-.107.283-.826.512-1.608.512" transform="translate(-87.426 -136.474)" fill="#8ab5eb"/>
          <path id="Path_877744" data-name="Path 877744" d="M257.486,327.847H243.007c-.786,0-1.339-.231-1.238-.516l1.374-3.862c.1-.271.793-.49,1.556-.49h14.067c.763,0,1.326.219,1.257.49l-.984,3.862c-.073.285-.768.516-1.553.516" transform="translate(-102.534 -136.982)" fill="#153e5f"/>
          <path id="Path_877745" data-name="Path 877745" d="M257.869,326.608H243.452c-.781,0-1.334-.229-1.234-.512l1.363-3.83c.1-.269.789-.486,1.549-.486h14.009c.76,0,1.32.217,1.252.486l-.975,3.83c-.072.283-.764.512-1.546.512" transform="translate(-102.725 -136.474)" fill="#8ab5eb"/>
          <path id="Path_877746" data-name="Path 877746" d="M293.763,327.847H279.284c-.785,0-1.368-.231-1.3-.516l.9-3.862c.063-.271.733-.49,1.5-.49h14.068c.763,0,1.352.219,1.316.49l-.512,3.862c-.038.285-.705.516-1.49.516" transform="translate(-117.896 -136.982)" fill="#153e5f"/>
          <path id="Path_877747" data-name="Path 877747" d="M293.991,326.608H279.574c-.781,0-1.362-.229-1.3-.512l.895-3.83c.063-.269.73-.486,1.489-.486h14.009c.76,0,1.347.217,1.311.486l-.508,3.83c-.037.283-.7.512-1.483.512" transform="translate(-118.021 -136.474)" fill="#8ab5eb"/>
          <path id="Path_877748" data-name="Path 877748" d="M330.038,327.847H315.559c-.785,0-1.4-.231-1.364-.516l.431-3.862c.03-.271.673-.49,1.436-.49H330.13c.762,0,1.379.219,1.376.49l-.04,3.862c0,.285-.642.516-1.427.516" transform="translate(-133.256 -136.982)" fill="#153e5f"/>
          <path id="Path_877749" data-name="Path 877749" d="M330.112,326.608H315.695c-.781,0-1.39-.229-1.358-.512l.427-3.83c.03-.269.67-.486,1.43-.486H330.2c.76,0,1.373.217,1.37.486l-.04,3.83c0,.283-.639.512-1.421.512" transform="translate(-133.316 -136.474)" fill="#8ab5eb"/>
          <path id="Path_877750" data-name="Path 877750" d="M366.282,327.847H351.8c-.785,0-1.424-.231-1.427-.516l-.04-3.862c0-.271.613-.49,1.376-.49h14.068c.763,0,1.406.219,1.436.49l.431,3.862c.031.285-.58.516-1.364.516" transform="translate(-148.584 -136.982)" fill="#153e5f"/>
          <path id="Path_877751" data-name="Path 877751" d="M366.2,326.608H351.783c-.781,0-1.418-.229-1.421-.512l-.04-3.83c0-.269.611-.486,1.371-.486H365.7c.76,0,1.4.217,1.43.486l.427,3.83c.032.283-.576.512-1.358.512" transform="translate(-148.579 -136.474)" fill="#8ab5eb"/>
          <path id="Path_877752" data-name="Path 877752" d="M402.2,327.847H387.726c-.785,0-1.452-.231-1.49-.516l-.512-3.862c-.036-.271.553-.49,1.316-.49h14.068c.762,0,1.432.219,1.5.49l.9,3.862c.067.285-.516.516-1.3.516" transform="translate(-163.593 -136.982)" fill="#153e5f"/>
          <path id="Path_877753" data-name="Path 877753" d="M401.973,326.608H387.556c-.781,0-1.446-.229-1.483-.512l-.507-3.83c-.036-.269.551-.486,1.311-.486h14.009c.76,0,1.426.217,1.489.486l.9,3.83c.066.283-.514.512-1.3.512" transform="translate(-163.525 -136.474)" fill="#8ab5eb"/>
          <path id="Path_877754" data-name="Path 877754" d="M438.127,327.847H423.648c-.785,0-1.481-.231-1.553-.516l-.984-3.862c-.069-.271.494-.49,1.257-.49h14.067c.763,0,1.459.219,1.556.49l1.374,3.862c.1.285-.453.516-1.238.516" transform="translate(-178.6 -136.982)" fill="#153e5f"/>
          <path id="Path_877755" data-name="Path 877755" d="M437.742,326.608H423.325c-.781,0-1.474-.229-1.546-.512l-.976-3.83c-.069-.269.492-.486,1.252-.486h14.009c.76,0,1.453.217,1.549.486l1.363,3.83c.1.283-.451.512-1.234.512" transform="translate(-178.469 -136.474)" fill="#8ab5eb"/>
          <path id="Path_877756" data-name="Path 877756" d="M474.047,327.847H459.568c-.785,0-1.509-.231-1.616-.516l-1.455-3.862c-.1-.271.434-.49,1.2-.49H471.76c.763,0,1.486.219,1.616.49l1.845,3.862c.136.285-.39.516-1.175.516" transform="translate(-193.604 -136.982)" fill="#153e5f"/>
          <path id="Path_877757" data-name="Path 877757" d="M473.51,326.608H459.093c-.781,0-1.5-.229-1.608-.512l-1.443-3.83c-.1-.269.432-.486,1.192-.486h14.009c.76,0,1.479.217,1.607.486l1.831,3.83c.135.283-.389.512-1.171.512" transform="translate(-193.412 -136.474)" fill="#8ab5eb"/>
          <path id="Path_877758" data-name="Path 877758" d="M509.965,327.847H495.486c-.785,0-1.537-.231-1.679-.516l-1.927-3.862c-.135-.271.374-.49,1.137-.49h14.068a2.346,2.346,0,0,1,1.675.49l2.317,3.862c.171.285-.327.516-1.112.516" transform="translate(-208.607 -136.982)" fill="#153e5f"/>
          <path id="Path_877759" data-name="Path 877759" d="M509.277,326.608H494.86c-.781,0-1.53-.229-1.671-.512l-1.911-3.83c-.134-.269.374-.486,1.133-.486H506.42a2.339,2.339,0,0,1,1.667.486l2.3,3.83c.169.283-.327.512-1.109.512" transform="translate(-208.352 -136.474)" fill="#8ab5eb"/>
          <path id="Path_877760" data-name="Path 877760" d="M178.514,339.322H163.463c-.816,0-1.328-.25-1.143-.557l2.5-4.169a2.429,2.429,0,0,1,1.751-.528H181.18c.792,0,1.316.237,1.171.528l-2.08,4.169c-.153.307-.94.557-1.756.557" transform="translate(-68.827 -141.685)" fill="#153e5f"/>
          <path id="Path_877761" data-name="Path 877761" d="M179.263,337.982H164.278c-.813,0-1.323-.248-1.14-.553l2.479-4.132a2.413,2.413,0,0,1,1.743-.525H181.9c.789,0,1.312.234,1.167.525l-2.061,4.132c-.152.305-.935.553-1.747.553" transform="translate(-69.175 -141.136)" fill="#8ab5eb"/>
          <path id="Path_877762" data-name="Path 877762" d="M216.228,339.322H201.177c-.816,0-1.359-.25-1.212-.557l1.993-4.169c.14-.291.895-.528,1.687-.528h14.607c.792,0,1.345.237,1.235.528l-1.571,4.169c-.116.307-.872.557-1.688.557" transform="translate(-84.799 -141.685)" fill="#153e5f"/>
          <path id="Path_877763" data-name="Path 877763" d="M216.81,337.982H201.826c-.813,0-1.353-.248-1.207-.553l1.975-4.132c.138-.29.89-.525,1.679-.525h14.544c.789,0,1.34.234,1.231.525l-1.557,4.132c-.115.305-.867.553-1.68.553" transform="translate(-85.076 -141.136)" fill="#8ab5eb"/>
          <path id="Path_877764" data-name="Path 877764" d="M253.941,339.322H238.89c-.816,0-1.389-.25-1.28-.557l1.483-4.169c.1-.291.83-.528,1.622-.528h14.607c.792,0,1.374.237,1.3.528l-1.061,4.169c-.078.307-.8.557-1.62.557" transform="translate(-100.77 -141.685)" fill="#153e5f"/>
          <path id="Path_877765" data-name="Path 877765" d="M254.355,337.982H239.371c-.813,0-1.383-.248-1.274-.553l1.47-4.132c.1-.29.826-.525,1.614-.525h14.544c.788,0,1.368.234,1.295.525l-1.053,4.132c-.077.305-.8.553-1.612.553" transform="translate(-100.976 -141.136)" fill="#8ab5eb"/>
          <path id="Path_877766" data-name="Path 877766" d="M291.65,339.322H276.6c-.816,0-1.42-.25-1.348-.557l.974-4.169c.068-.291.765-.528,1.558-.528H292.39c.792,0,1.4.237,1.364.528l-.552,4.169c-.041.307-.736.557-1.552.557" transform="translate(-116.737 -141.685)" fill="#153e5f"/>
          <path id="Path_877767" data-name="Path 877767" d="M291.9,337.982H276.912c-.813,0-1.413-.248-1.342-.553l.966-4.132c.068-.29.762-.525,1.551-.525H292.63c.789,0,1.4.234,1.359.525l-.548,4.132c-.04.305-.732.553-1.545.553" transform="translate(-116.872 -141.136)" fill="#8ab5eb"/>
          <path id="Path_877768" data-name="Path 877768" d="M329.358,339.322H314.307c-.816,0-1.45-.25-1.416-.557l.465-4.169c.032-.291.7-.528,1.493-.528h14.607c.792,0,1.432.237,1.429.528l-.043,4.169c0,.307-.668.557-1.484.557" transform="translate(-132.703 -141.685)" fill="#153e5f"/>
          <path id="Path_877769" data-name="Path 877769" d="M329.437,337.982H314.453c-.813,0-1.444-.248-1.41-.553l.461-4.132c.032-.29.7-.525,1.486-.525h14.544c.788,0,1.425.234,1.422.525l-.043,4.132c0,.305-.665.553-1.477.553" transform="translate(-132.767 -141.136)" fill="#8ab5eb"/>
          <path id="Path_877770" data-name="Path 877770" d="M367.03,339.322H351.979c-.816,0-1.481-.25-1.483-.557l-.044-4.169c0-.291.636-.528,1.429-.528h14.607c.792,0,1.461.237,1.493.528l.465,4.169c.035.307-.6.557-1.416.557" transform="translate(-148.634 -141.685)" fill="#153e5f"/>
          <path id="Path_877771" data-name="Path 877771" d="M366.943,337.982H351.958c-.813,0-1.474-.248-1.477-.553l-.043-4.132c0-.29.634-.525,1.422-.525H366.4c.788,0,1.454.234,1.486.525l.461,4.132c.034.305-.6.553-1.41.553" transform="translate(-148.628 -141.136)" fill="#8ab5eb"/>
          <path id="Path_877772" data-name="Path 877772" d="M404.358,339.322H389.307c-.816,0-1.511-.25-1.552-.557L387.2,334.6c-.039-.291.572-.528,1.364-.528h14.607c.792,0,1.49.237,1.558.528l.974,4.169c.072.307-.532.557-1.348.557" transform="translate(-164.22 -141.685)" fill="#153e5f"/>
          <path id="Path_877773" data-name="Path 877773" d="M404.107,337.982H389.122c-.813,0-1.5-.248-1.544-.553l-.548-4.132c-.038-.29.57-.525,1.359-.525h14.544c.789,0,1.483.234,1.551.525l.966,4.132c.071.305-.53.553-1.342.553" transform="translate(-164.147 -141.136)" fill="#8ab5eb"/>
          <path id="Path_877774" data-name="Path 877774" d="M441.684,339.322H426.633c-.816,0-1.542-.25-1.62-.557l-1.062-4.169c-.074-.291.508-.528,1.3-.528h14.607c.792,0,1.519.237,1.622.528l1.483,4.169c.109.307-.464.557-1.28.557" transform="translate(-179.804 -141.685)" fill="#153e5f"/>
          <path id="Path_877775" data-name="Path 877775" d="M441.269,337.982H426.285c-.813,0-1.535-.248-1.612-.553L423.62,333.3c-.074-.29.506-.525,1.295-.525h14.544c.788,0,1.511.234,1.614.525l1.47,4.132c.109.305-.462.553-1.274.553" transform="translate(-179.663 -141.136)" fill="#8ab5eb"/>
          <path id="Path_877776" data-name="Path 877776" d="M479.008,339.322H463.957c-.816,0-1.572-.25-1.688-.557L460.7,334.6c-.11-.291.443-.528,1.235-.528H476.54c.792,0,1.547.237,1.687.528l1.993,4.169c.147.307-.4.557-1.212.557" transform="translate(-195.386 -141.685)" fill="#153e5f"/>
          <path id="Path_877777" data-name="Path 877777" d="M478.429,337.982H463.444c-.813,0-1.565-.248-1.68-.553l-1.557-4.132c-.109-.29.442-.525,1.231-.525h14.544c.789,0,1.54.234,1.679.525l1.975,4.132c.146.305-.394.553-1.207.553" transform="translate(-195.178 -141.136)" fill="#8ab5eb"/>
          <path id="Path_877778" data-name="Path 877778" d="M516.329,339.322H501.278c-.816,0-1.6-.25-1.756-.557l-2.08-4.169c-.146-.291.379-.528,1.171-.528H513.22a2.428,2.428,0,0,1,1.751.528l2.5,4.169c.185.307-.327.557-1.143.557" transform="translate(-210.965 -141.685)" fill="#153e5f"/>
          <path id="Path_877779" data-name="Path 877779" d="M515.587,337.982H500.6c-.813,0-1.6-.248-1.747-.553l-2.062-4.132c-.145-.29.378-.525,1.167-.525H512.5a2.414,2.414,0,0,1,1.743.525l2.479,4.132c.183.305-.327.553-1.14.553" transform="translate(-210.69 -141.136)" fill="#8ab5eb"/>
          <path id="Path_877780" data-name="Path 877780" d="M190.867,317.2H176.919c-.757,0-1.241-.215-1.082-.479l2.153-3.588a2.281,2.281,0,0,1,1.606-.456h13.566c.736,0,1.231.2,1.105.456l-1.79,3.588c-.132.264-.852.479-1.608.479" transform="translate(-74.563 -132.615)" fill="#153e5f"/>
          <path id="Path_877781" data-name="Path 877781" d="M191.51,316.053H177.619c-.754,0-1.236-.213-1.079-.475l2.135-3.559a2.272,2.272,0,0,1,1.6-.452h13.512c.733,0,1.226.2,1.1.452l-1.775,3.559c-.131.262-.848.475-1.6.475" transform="translate(-74.862 -132.142)" fill="#8ab5eb"/>
          <path id="Path_877782" data-name="Path 877782" d="M225.82,317.2H211.872c-.757,0-1.267-.215-1.141-.479l1.715-3.588c.12-.252.814-.456,1.55-.456h13.566c.736,0,1.255.2,1.16.456l-1.352,3.588c-.1.264-.794.479-1.55.479" transform="translate(-89.367 -132.615)" fill="#153e5f"/>
          <path id="Path_877783" data-name="Path 877783" d="M226.32,316.053H212.429c-.754,0-1.262-.213-1.138-.475l1.7-3.559c.119-.25.81-.452,1.543-.452h13.512c.732,0,1.25.2,1.156.452l-1.342,3.559c-.1.262-.789.475-1.542.475" transform="translate(-89.605 -132.142)" fill="#8ab5eb"/>
          <path id="Path_877784" data-name="Path 877784" d="M260.771,317.2H246.823c-.757,0-1.293-.215-1.2-.479l1.276-3.588c.09-.252.759-.456,1.494-.456h13.566c.736,0,1.28.2,1.216.456l-.914,3.588c-.067.264-.735.479-1.492.479" transform="translate(-104.17 -132.615)" fill="#153e5f"/>
          <path id="Path_877785" data-name="Path 877785" d="M261.128,316.053H247.237c-.753,0-1.288-.213-1.194-.475l1.266-3.559c.089-.25.755-.452,1.488-.452h13.512c.733,0,1.275.2,1.211.452l-.906,3.559c-.067.262-.732.475-1.485.475" transform="translate(-104.347 -132.142)" fill="#8ab5eb"/>
          <path id="Path_877786" data-name="Path 877786" d="M295.721,317.2H281.772c-.757,0-1.319-.215-1.258-.479l.839-3.588c.059-.252.7-.456,1.439-.456h13.567c.735,0,1.3.2,1.272.456l-.476,3.588c-.035.264-.677.479-1.433.479" transform="translate(-118.97 -132.615)" fill="#153e5f"/>
          <path id="Path_877787" data-name="Path 877787" d="M295.934,316.053H282.043c-.754,0-1.315-.213-1.253-.475l.832-3.559c.059-.25.7-.452,1.433-.452h13.512c.733,0,1.3.2,1.266.452l-.472,3.559c-.035.262-.674.475-1.427.475" transform="translate(-119.087 -132.142)" fill="#8ab5eb"/>
          <path id="Path_877788" data-name="Path 877788" d="M330.669,317.2H316.721c-.757,0-1.346-.215-1.316-.479l.4-3.588c.028-.252.647-.456,1.383-.456h13.567c.735,0,1.33.2,1.327.456l-.037,3.588c0,.264-.618.479-1.375.479" transform="translate(-133.769 -132.615)" fill="#153e5f"/>
          <path id="Path_877789" data-name="Path 877789" d="M330.737,316.053H316.846c-.753,0-1.34-.213-1.311-.475l.4-3.559c.028-.25.644-.452,1.377-.452h13.512c.733,0,1.325.2,1.322.452l-.037,3.559c0,.262-.616.475-1.369.475" transform="translate(-133.825 -132.142)" fill="#8ab5eb"/>
          <path id="Path_877790" data-name="Path 877790" d="M365.587,317.2H351.639c-.757,0-1.372-.215-1.375-.479l-.037-3.588c0-.252.591-.456,1.327-.456H365.12c.735,0,1.354.2,1.383.456l.4,3.588c.029.264-.56.479-1.316.479" transform="translate(-148.539 -132.615)" fill="#153e5f"/>
          <path id="Path_877791" data-name="Path 877791" d="M365.512,316.053H351.621c-.754,0-1.367-.213-1.369-.475l-.037-3.559c0-.25.589-.452,1.322-.452h13.512c.733,0,1.349.2,1.378.452l.4,3.559c.029.262-.557.475-1.311.475" transform="translate(-148.533 -132.142)" fill="#8ab5eb"/>
          <path id="Path_877792" data-name="Path 877792" d="M400.208,317.2H386.26c-.757,0-1.4-.215-1.433-.479l-.476-3.588c-.033-.252.536-.456,1.272-.456h13.567c.735,0,1.38.2,1.439.456l.838,3.588c.062.264-.5.479-1.258.479" transform="translate(-163.011 -132.615)" fill="#153e5f"/>
          <path id="Path_877793" data-name="Path 877793" d="M399.992,316.053H386.1c-.753,0-1.392-.213-1.426-.475l-.472-3.559c-.033-.25.534-.452,1.267-.452h13.512c.733,0,1.374.2,1.432.452l.832,3.559c.061.262-.5.475-1.253.475" transform="translate(-162.947 -132.142)" fill="#8ab5eb"/>
          <path id="Path_877794" data-name="Path 877794" d="M434.828,317.2H420.88c-.757,0-1.424-.215-1.492-.479l-.914-3.588c-.064-.252.48-.456,1.216-.456h13.566c.735,0,1.4.2,1.494.456l1.276,3.588c.094.264-.442.479-1.2.479" transform="translate(-177.481 -132.615)" fill="#153e5f"/>
          <path id="Path_877795" data-name="Path 877795" d="M434.471,316.053H420.58c-.754,0-1.418-.213-1.485-.475l-.906-3.559c-.064-.25.479-.452,1.212-.452h13.512c.732,0,1.4.2,1.487.452l1.266,3.559c.093.262-.442.475-1.195.475" transform="translate(-177.36 -132.142)" fill="#8ab5eb"/>
          <path id="Path_877796" data-name="Path 877796" d="M469.446,317.2H455.5c-.757,0-1.451-.215-1.55-.479l-1.352-3.588c-.1-.252.424-.456,1.16-.456h13.566c.735,0,1.429.2,1.55.456l1.715,3.588c.126.264-.385.479-1.141.479" transform="translate(-191.951 -132.615)" fill="#153e5f"/>
          <path id="Path_877797" data-name="Path 877797" d="M468.948,316.053H455.057c-.753,0-1.444-.213-1.543-.475l-1.341-3.559c-.094-.25.423-.452,1.156-.452h13.512c.733,0,1.423.2,1.543.452l1.7,3.559c.126.262-.384.475-1.137.475" transform="translate(-191.771 -132.142)" fill="#8ab5eb"/>
          <path id="Path_877798" data-name="Path 877798" d="M504.062,317.2H490.113c-.757,0-1.477-.215-1.608-.479l-1.79-3.588c-.126-.252.369-.456,1.105-.456h13.566a2.282,2.282,0,0,1,1.606.456l2.153,3.588c.158.264-.326.479-1.082.479" transform="translate(-206.418 -132.615)" fill="#153e5f"/>
          <path id="Path_877799" data-name="Path 877799" d="M503.423,316.053H489.532c-.753,0-1.47-.213-1.6-.475l-1.775-3.559c-.125-.25.368-.452,1.1-.452h13.512a2.273,2.273,0,0,1,1.6.452l2.135,3.559c.157.262-.326.475-1.079.475" transform="translate(-206.181 -132.142)" fill="#8ab5eb"/>
          <path id="Path_877800" data-name="Path 877800" d="M171.577,351.729H155.906c-.849,0-1.376-.271-1.176-.6l2.708-4.513a2.508,2.508,0,0,1,1.834-.572h15.19c.824,0,1.364.256,1.206.572l-2.251,4.513c-.166.333-.991.6-1.841.6" transform="translate(-65.606 -146.762)" fill="#153e5f"/>
          <path id="Path_877801" data-name="Path 877801" d="M172.387,350.279h-15.6c-.846,0-1.371-.268-1.172-.6l2.683-4.473a2.5,2.5,0,0,1,1.825-.566h15.121c.82,0,1.358.253,1.2.566l-2.232,4.473c-.165.331-.984.6-1.83.6" transform="translate(-65.983 -146.169)" fill="#8ab5eb"/>
          <path id="Path_877802" data-name="Path 877802" d="M210.841,351.729H195.171c-.849,0-1.409-.271-1.25-.6l2.157-4.513c.151-.316.941-.572,1.765-.572h15.189c.824,0,1.4.256,1.276.572l-1.7,4.513c-.126.333-.916.6-1.766.6" transform="translate(-82.234 -146.762)" fill="#153e5f"/>
          <path id="Path_877803" data-name="Path 877803" d="M211.471,350.279h-15.6c-.846,0-1.4-.268-1.246-.6l2.138-4.473c.15-.313.935-.566,1.755-.566h15.122c.82,0,1.389.253,1.272.566l-1.686,4.473c-.124.331-.911.6-1.757.6" transform="translate(-82.534 -146.169)" fill="#8ab5eb"/>
          <path id="Path_877804" data-name="Path 877804" d="M250.1,351.729H234.433c-.849,0-1.442-.271-1.323-.6l1.606-4.513c.113-.316.871-.572,1.695-.572H251.6c.824,0,1.426.256,1.346.572l-1.149,4.513c-.085.333-.843.6-1.693.6" transform="translate(-98.86 -146.762)" fill="#153e5f"/>
          <path id="Path_877805" data-name="Path 877805" d="M250.552,350.279h-15.6c-.846,0-1.436-.268-1.318-.6l1.591-4.473c.111-.313.866-.566,1.686-.566h15.121c.821,0,1.421.253,1.341.566l-1.139,4.473c-.084.331-.838.6-1.684.6" transform="translate(-99.084 -146.169)" fill="#8ab5eb"/>
          <path id="Path_877806" data-name="Path 877806" d="M289.364,351.729H273.693c-.849,0-1.475-.271-1.4-.6l1.054-4.513c.074-.316.8-.572,1.625-.572h15.19c.824,0,1.458.256,1.416.572l-.6,4.513c-.044.333-.769.6-1.619.6" transform="translate(-115.484 -146.762)" fill="#153e5f"/>
          <path id="Path_877807" data-name="Path 877807" d="M289.63,350.279h-15.6c-.846,0-1.469-.268-1.392-.6l1.046-4.473c.073-.313.8-.566,1.617-.566h15.121c.82,0,1.451.253,1.41.566l-.593,4.473c-.044.331-.765.6-1.611.6" transform="translate(-115.63 -146.169)" fill="#8ab5eb"/>
          <path id="Path_877808" data-name="Path 877808" d="M328.622,351.729H312.951c-.849,0-1.508-.271-1.471-.6l.5-4.513c.036-.316.732-.572,1.555-.572h15.19c.823,0,1.489.256,1.485.572l-.047,4.513c0,.333-.7.6-1.545.6" transform="translate(-132.104 -146.762)" fill="#153e5f"/>
          <path id="Path_877809" data-name="Path 877809" d="M328.707,350.279h-15.6c-.846,0-1.5-.268-1.465-.6l.5-4.473c.035-.313.728-.566,1.548-.566h15.122c.82,0,1.482.253,1.479.566l-.047,4.473c0,.331-.692.6-1.538.6" transform="translate(-132.174 -146.169)" fill="#8ab5eb"/>
          <path id="Path_877810" data-name="Path 877810" d="M367.841,351.729H352.17c-.849,0-1.542-.271-1.545-.6l-.047-4.513c0-.316.662-.572,1.486-.572h15.189c.824,0,1.52.256,1.555.572l.5,4.513c.037.333-.621.6-1.471.6" transform="translate(-148.687 -146.762)" fill="#153e5f"/>
          <path id="Path_877811" data-name="Path 877811" d="M367.746,350.279h-15.6c-.846,0-1.534-.268-1.538-.6l-.047-4.473c0-.313.659-.566,1.479-.566h15.122c.82,0,1.513.253,1.548.566l.5,4.473c.037.331-.619.6-1.465.6" transform="translate(-148.681 -146.169)" fill="#8ab5eb"/>
          <path id="Path_877812" data-name="Path 877812" d="M406.688,351.729H391.017c-.849,0-1.574-.271-1.619-.6l-.6-4.513c-.042-.316.592-.572,1.415-.572h15.19c.824,0,1.551.256,1.625.572l1.055,4.513c.078.333-.548.6-1.4.6" transform="translate(-164.897 -146.762)" fill="#153e5f"/>
          <path id="Path_877813" data-name="Path 877813" d="M406.416,350.279h-15.6c-.846,0-1.567-.268-1.611-.6l-.593-4.473c-.041-.313.59-.566,1.41-.566h15.121c.82,0,1.544.253,1.618.566l1.045,4.473c.077.331-.546.6-1.392.6" transform="translate(-164.818 -146.169)" fill="#8ab5eb"/>
          <path id="Path_877814" data-name="Path 877814" d="M445.531,351.729H429.861c-.849,0-1.608-.271-1.693-.6l-1.149-4.513c-.081-.316.522-.572,1.346-.572h15.19c.824,0,1.583.256,1.695.572l1.606,4.513c.119.333-.473.6-1.323.6" transform="translate(-181.104 -146.762)" fill="#153e5f"/>
          <path id="Path_877815" data-name="Path 877815" d="M445.082,350.279h-15.6c-.846,0-1.6-.268-1.684-.6l-1.139-4.473c-.08-.313.521-.566,1.341-.566h15.121c.82,0,1.575.253,1.686.566l1.592,4.473c.117.331-.473.6-1.319.6" transform="translate(-180.953 -146.169)" fill="#8ab5eb"/>
          <path id="Path_877816" data-name="Path 877816" d="M484.373,351.729H468.7c-.849,0-1.641-.271-1.766-.6l-1.7-4.513c-.119-.316.453-.572,1.276-.572H481.7c.824,0,1.614.256,1.764.572l2.157,4.513c.16.333-.4.6-1.25.6" transform="translate(-197.309 -146.762)" fill="#153e5f"/>
          <path id="Path_877817" data-name="Path 877817" d="M483.746,350.279h-15.6c-.846,0-1.633-.268-1.757-.6l-1.686-4.473c-.117-.313.452-.566,1.272-.566H481.1c.82,0,1.606.253,1.755.566l2.138,4.473c.158.331-.4.6-1.246.6" transform="translate(-197.084 -146.169)" fill="#8ab5eb"/>
          <path id="Path_877818" data-name="Path 877818" d="M523.212,351.729H507.541c-.849,0-1.674-.271-1.84-.6l-2.252-4.513c-.158-.316.382-.572,1.206-.572h15.189a2.509,2.509,0,0,1,1.835.572l2.708,4.513c.2.333-.326.6-1.176.6" transform="translate(-213.512 -146.762)" fill="#153e5f"/>
          <path id="Path_877819" data-name="Path 877819" d="M522.408,350.279h-15.6c-.846,0-1.665-.268-1.83-.6l-2.232-4.473c-.156-.313.382-.566,1.2-.566h15.122a2.5,2.5,0,0,1,1.824.566l2.684,4.473c.2.331-.326.6-1.172.6" transform="translate(-213.215 -146.169)" fill="#8ab5eb"/>
          <path id="Path_877820" data-name="Path 877820" d="M353.831,375.166H289.476c-1.57,0-2.748-.547-2.632-1.219l2.191-12.69c.1-.586,1.361-1.057,2.815-1.057h59.606c1.454,0,2.715.472,2.815,1.057l2.191,12.69c.116.672-1.062,1.219-2.632,1.219" transform="translate(-121.653 -152.768)" fill="#8ab5eb"/>
          <path id="Path_877821" data-name="Path 877821" d="M482.813,95.828l-15.746,14.9q-5.258-4.171-10.417-8.315c-9.158-7.352-13.651-16.49-12.913-25.839,1.325-17.446,2.491-34.891,2.879-52.364l3.841-2.886Z" transform="translate(-188.165 -9.046)" fill="#f2a941"/>
          <path id="Path_877822" data-name="Path 877822" d="M513.913,182.615l-3.842,2.879c-8.855-6.582-17.413-13.256-25.767-19.9l15.746-14.9Z" transform="translate(-205.404 -63.913)" fill="#153e5f"/>
          <path id="Path_877823" data-name="Path 877823" d="M499.5.836c-15.365,3.935-30.708,7.873-46.214,11.8C452.9,30.113,451.735,47.561,450.407,65c-.734,9.351,3.759,18.49,12.916,25.843,11.656,9.348,23.611,18.865,36.178,28.212,12.564-9.347,24.516-18.864,36.17-28.212,9.156-7.352,13.65-16.493,12.916-25.843-1.328-17.443-2.5-34.891-2.879-52.365C530.2,8.709,514.863,4.772,499.5.836" transform="translate(-190.994 -0.355)" fill="#fdc563"/>
          <path id="Path_877824" data-name="Path 877824" d="M547.2,69.458c-1.173-15.409-2.312-31.888-2.79-48.6-12.2-3.1-40.985-10.475-40.985-10.475S474.465,17.8,462.434,20.859c-.479,16.706-1.618,33.19-2.791,48.612-.595,7.576,3.291,15.131,10.938,21.271,10.331,8.286,21.327,17.054,32.845,25.716,11.5-8.654,22.5-17.425,32.835-25.714,7.65-6.143,11.535-13.7,10.939-21.286" transform="translate(-194.919 -4.404)" fill="#4192f2"/>
          <path id="Path_877825" data-name="Path 877825" d="M478.68,98.455c10.331,8.286,21.327,17.054,32.845,25.716,11.5-8.654,22.5-17.426,32.835-25.714,7.649-6.143,11.535-13.7,10.939-21.286-1.173-15.409-2.312-31.888-2.79-48.6Z" transform="translate(-203.018 -12.118)" fill="#307ad1"/>
          <path id="Path_877826" data-name="Path 877826" d="M461.3,56.7c.814-11.611,1.515-23.665,1.864-35.839,12.03-3.059,40.991-10.478,40.991-10.478s28.785,7.374,40.983,10.478c.35,12.175,1.05,24.228,1.857,35.839" transform="translate(-195.645 -4.403)" fill="none" stroke="#153e5f" stroke-linecap="round" stroke-linejoin="round" stroke-width="0.75"/>
          <path id="Path_877827" data-name="Path 877827" d="M540.029,66.456h-4.214V52.166a12.182,12.182,0,0,0-24.365,0V66.456h-4.214V52.166a16.4,16.4,0,0,1,32.793,0Z" transform="translate(-215.129 -15.171)" fill="#326290"/>
          <path id="Path_877828" data-name="Path 877828" d="M557.635,78.436v33.625a1.89,1.89,0,0,1-1.895,1.895H535.713V76.541H555.74a1.9,1.9,0,0,1,1.895,1.895" transform="translate(-227.207 -32.463)" fill="#f2a941"/>
          <path id="Path_877829" data-name="Path 877829" d="M519.563,76.541v37.414H499.528a1.89,1.89,0,0,1-1.895-1.895V78.436a1.9,1.9,0,0,1,1.895-1.895Z" transform="translate(-211.056 -32.463)" fill="#fdc563"/>
          <path id="Path_877830" data-name="Path 877830" d="M537.381,111.9l-4.389-10.321a5.567,5.567,0,1,0-3.921,0L524.682,111.9Z" transform="translate(-222.529 -38.513)" fill="#153e5f"/>
          <path id="Path_877831" data-name="Path 877831" d="M161.753,65.273a43.945,43.945,0,1,1-43.945-43.945,43.945,43.945,0,0,1,43.945,43.945" transform="translate(-31.327 -9.046)" fill="#4192f2"/>
          <path id="Path_877832" data-name="Path 877832" d="M190.985,149.986,208.84,156.3l-6.313-17.855Z" transform="translate(-81.001 -58.717)" fill="#4192f2"/>
          <circle id="Ellipse_11631" data-name="Ellipse 11631" cx="33.878" cy="33.878" r="33.878" transform="translate(52.603 22.349)" fill="none" stroke="#fff" stroke-miterlimit="10" stroke-width="1.96"/>
          <path id="Path_877833" data-name="Path 877833" d="M155.165,72.687c0,18.71-8.483,33.878-18.947,33.878S117.272,91.4,117.272,72.687s8.483-33.878,18.946-33.878S155.165,53.977,155.165,72.687Z" transform="translate(-49.737 -16.46)" fill="none" stroke="#fff" stroke-miterlimit="10" stroke-width="1.96"/>
          <path id="Path_877834" data-name="Path 877834" d="M112.833,52.175a33.907,33.907,0,0,0,43.011,0" transform="translate(-47.855 -22.128)" fill="none" stroke="#fff" stroke-miterlimit="10" stroke-width="1.96"/>
          <path id="Path_877835" data-name="Path 877835" d="M155.844,137.436a33.907,33.907,0,0,0-43.011,0" transform="translate(-47.855 -55.027)" fill="none" stroke="#fff" stroke-miterlimit="10" stroke-width="1.96"/>
          <line id="Line_3235" data-name="Line 3235" x2="67.757" transform="translate(52.603 56.228)" fill="none" stroke="#fff" stroke-miterlimit="10" stroke-width="1.96"/>
          <line id="Line_3236" data-name="Line 3236" y1="67.757" transform="translate(86.484 22.349)" fill="none" stroke="#fff" stroke-miterlimit="10" stroke-width="1.96"/>
          <path id="Path_877836" data-name="Path 877836" d="M281.147,44.854a22.395,22.395,0,1,1-22.395-22.395,22.395,22.395,0,0,1,22.395,22.395" transform="translate(-100.244 -9.525)" fill="#fff"/>
          <path id="Path_877837" data-name="Path 877837" d="M276.282,74.44a3.936,3.936,0,1,1-3.936-3.936,3.935,3.935,0,0,1,3.936,3.936" transform="translate(-113.838 -29.902)" fill="#326290"/>
          <path id="Path_877838" data-name="Path 877838" d="M279.113,47.214l-1.9,1.881c-2.614-3.68-7.5-5.964-12.771-5.964s-10.156,2.284-12.77,5.964l-1.9-1.881c3.152-4.161,8.729-6.732,14.674-6.732s11.522,2.571,14.675,6.732" transform="translate(-105.93 -17.169)" fill="#326290"/>
          <path id="Path_877839" data-name="Path 877839" d="M278.1,55.475l-1.792,1.772a12.744,12.744,0,0,0-18.056,0l-1.792-1.772a15.27,15.27,0,0,1,21.639,0" transform="translate(-108.769 -21.622)" fill="#326290"/>
          <path id="Path_877840" data-name="Path 877840" d="M277.046,63.844l-1.706,1.683a8.8,8.8,0,0,0-10.3,0l-1.714-1.695a10.715,10.715,0,0,1,6.864-2.354,10.832,10.832,0,0,1,6.856,2.366" transform="translate(-111.682 -26.074)" fill="#326290"/>
          <path id="Path_877841" data-name="Path 877841" d="M558.169,234.012a20.155,20.155,0,1,1-20.155-20.155,20.155,20.155,0,0,1,20.155,20.155" transform="translate(-219.635 -90.701)" fill="#fff"/>
          <path id="Path_877842" data-name="Path 877842" d="M543.136,230.27v21.407l16.815-10.7Z" transform="translate(-230.355 -97.662)" fill="#4192f2"/>
          <path id="Path_877843" data-name="Path 877843" d="M141.805,215.9a24.634,24.634,0,1,1-24.634-24.634A24.634,24.634,0,0,1,141.805,215.9" transform="translate(-39.247 -81.122)" fill="#fff"/>
          <path id="Path_877844" data-name="Path 877844" d="M118.905,230.431A4.91,4.91,0,1,1,114,225.522a4.91,4.91,0,0,1,4.909,4.909" transform="translate(-46.266 -95.649)" fill="#fdc563"/>
          <path id="Path_877845" data-name="Path 877845" d="M147.841,212.691a4.91,4.91,0,1,1-4.909-4.909,4.91,4.91,0,0,1,4.909,4.909" transform="translate(-58.538 -88.125)" fill="#fdc563"/>
          <path id="Path_877846" data-name="Path 877846" d="M147.841,248.171a4.91,4.91,0,1,1-4.909-4.909,4.91,4.91,0,0,1,4.909,4.909" transform="translate(-58.538 -103.172)" fill="#fdc563"/>
          <path id="Path_877847" data-name="Path 877847" d="M134.275,216.307l-16.663,10.216,16.663,10.216" transform="translate(-49.882 -91.74)" fill="none" stroke="#fdc563" stroke-miterlimit="10" stroke-width="2.698"/>
        </g>
      </g>
    </g>
  </g>
</svg>
