<svg id="img7" xmlns="http://www.w3.org/2000/svg" xmlns:xlink="http://www.w3.org/1999/xlink" width="123" height="123" viewBox="0 0 123 123">
  <defs>
    <clipPath id="clip-path">
      <rect id="Rectangle_403416" data-name="Rectangle 403416" width="121.687" height="91.902" fill="#d1f3f5"/>
    </clipPath>
    <clipPath id="clip-path-2">
      <path id="Path_875268" data-name="Path 875268" d="M1.868,23.675,0,24.271V36.6c0,2.356,1.37,4.712,4.109,6.507l46.8,30.644c5.479,3.587,14.394,3.587,19.874,0l46.8-30.643c2.7-1.765,4.064-4.075,4.108-6.393,0-.1,0-.206-.006-.309l.008,0V24.386l-2.933-1.849c-.828,5.676-6.718,9.416-11.642,10.194L73.581,54.97,58.946,60.964,12.235,33.623l1.08-.708c-3.991-2.116-6.143-6.953-8.3-11.367Z" transform="translate(0 -21.549)" fill="#61dfe4"/>
    </clipPath>
    <clipPath id="clip-path-3">
      <rect id="Rectangle_403409" data-name="Rectangle 403409" width="121.687" height="91.903" fill="none"/>
    </clipPath>
    <clipPath id="clip-path-4">
      <rect id="Rectangle_403408" data-name="Rectangle 403408" width="60.844" height="53.75" fill="none"/>
    </clipPath>
    <clipPath id="clip-path-5">
      <path id="Path_875270" data-name="Path 875270" d="M42.339,9.4,3.311,35.8c2.159,4.413,4.311,9.251,8.3,11.367L55.958,18.128a6.31,6.31,0,0,1,6.364,0L105.894,46.66l-.483.323c4.924-.778,10.813-4.518,11.642-10.194L68.153,5.942,53.925,1.678Z" transform="translate(-3.311 -1.678)" fill="#61dfe4"/>
    </clipPath>
    <clipPath id="clip-path-7">
      <rect id="Rectangle_403411" data-name="Rectangle 403411" width="55.83" height="45.491" fill="none"/>
    </clipPath>
    <clipPath id="clip-path-8">
      <path id="Path_875272" data-name="Path 875272" d="M57.662,72.571l-46.8-30.644a2.309,2.309,0,0,1,0-4.17L57.66,7.115a6.306,6.306,0,0,1,6.364,0l46.8,30.644a2.308,2.308,0,0,1,0,4.168L64.025,72.57a6.308,6.308,0,0,1-6.364,0M60.664,0A18.357,18.357,0,0,0,50.9,2.691L4.109,33.335c-5.478,3.587-5.478,9.426,0,13.013l46.8,30.644c5.479,3.589,14.394,3.589,19.874,0l46.8-30.644c5.478-3.586,5.478-9.426,0-13.013L70.779,2.691A18.357,18.357,0,0,0,61.02,0Z" transform="translate(-0.001)" fill="#98baff"/>
    </clipPath>
    <clipPath id="clip-path-10">
      <path id="Path_875275" data-name="Path 875275" d="M55.706,72.924,8.909,42.282c-2.483-1.628-2.483-4.274,0-5.9L55.7,5.738a8.927,8.927,0,0,1,9.009,0l46.8,30.644c2.483,1.626,2.483,4.273,0,5.9l-46.8,30.643a8.927,8.927,0,0,1-9.007,0M51.592,3.046,4.8,33.689C.046,36.8.047,41.863,4.8,44.973L51.6,75.619c4.75,3.108,12.479,3.108,17.232,0l46.8-30.646c4.75-3.108,4.75-8.171,0-11.282L68.824,3.046a17.071,17.071,0,0,0-17.232,0" transform="translate(-1.234 -0.712)" fill="#98baff"/>
    </clipPath>
    <clipPath id="clip-path-11">
      <rect id="Rectángulo_47325" data-name="Rectángulo 47325" width="65.588" height="70.277" fill="#0c2d70"/>
    </clipPath>
    <clipPath id="clip-path-12">
      <rect id="Rectangle_403406" data-name="Rectangle 403406" width="41.824" height="24.245" fill="#fff"/>
    </clipPath>
    <clipPath id="clip-path-13">
      <rect id="Rectangle_403518" data-name="Rectangle 403518" width="102.859" height="104.692" fill="#fff"/>
    </clipPath>
    <clipPath id="clip-path-14">
      <rect id="Rectangle_403232" data-name="Rectangle 403232" width="123" height="80.836" fill="#61dfe4"/>
    </clipPath>
    <clipPath id="clip-path-15">
      <rect id="Rectangle_404825" data-name="Rectangle 404825" width="63.678" height="63.649" fill="#0c2d70"/>
    </clipPath>
  </defs>
  <g id="Group_1100744" data-name="Group 1100744" transform="translate(0.004 31.098)">
    <g id="Group_1100514" data-name="Group 1100514" clip-path="url(#clip-path)">
      <g id="Group_1100495" data-name="Group 1100495" transform="translate(0 37.005)">
        <g id="Group_1100494" data-name="Group 1100494" clip-path="url(#clip-path-2)">
          <path id="Path_875399" data-name="Path 875399" d="M7.554,6.012,121.412,0l-7.554,134.342L0,140.354Z" transform="translate(-30.284 45.381) rotate(-60)" fill="#61dfe4"/>
        </g>
      </g>
      <g id="Group_1100500" data-name="Group 1100500" transform="translate(0 0)">
        <g id="Group_1100499" data-name="Group 1100499" clip-path="url(#clip-path-3)">
          <g id="Group_1100498" data-name="Group 1100498" transform="translate(60.843 38.152)" opacity="0.3">
            <g id="Group_1100497" data-name="Group 1100497">
              <g id="Group_1100496" data-name="Group 1100496" clip-path="url(#clip-path-4)">
                <path id="Path_875269" data-name="Path 875269" d="M86.455,32.25,52.923,54.49,40.185,59.707V75.968a18.428,18.428,0,0,0,9.938-2.691l46.8-30.644c2.7-1.765,4.064-4.073,4.108-6.392,0-.1,0-.208-.006-.311l.008,0V23.908l-2.681-1.692h-.28c-.914,5.586-6.736,9.263-11.613,10.034" transform="translate(-40.185 -22.217)" fill="#0f054c"/>
              </g>
            </g>
          </g>
        </g>
      </g>
      <g id="Group_1100502" data-name="Group 1100502" transform="translate(5.013 2.882)">
        <g id="Group_1100501" data-name="Group 1100501" clip-path="url(#clip-path-5)">
          <path id="Path_875400" data-name="Path 875400" d="M6.89,5.324,107.716,0l-6.89,122.535L0,127.859Z" transform="matrix(0.5, -0.866, 0.866, 0.5, -25.423, 37.422)" fill="#61dfe4"/>
        </g>
      </g>
      <g id="Group_1100507" data-name="Group 1100507" transform="translate(0 0)">
        <g id="Group_1100506" data-name="Group 1100506" clip-path="url(#clip-path-3)">
          <g id="Group_1100505" data-name="Group 1100505" transform="translate(5.013 2.881)" opacity="0.3">
            <g id="Group_1100504" data-name="Group 1100504">
              <g id="Group_1100503" data-name="Group 1100503" clip-path="url(#clip-path-7)">
                <path id="Path_875271" data-name="Path 875271" d="M59.141,3.241,53.925,1.677,42.339,9.4,3.311,35.8c2.159,4.413,4.309,9.253,8.3,11.368L55.958,18.128a5.908,5.908,0,0,1,3.183-.86Z" transform="translate(-3.311 -1.678)" fill="#0f054c"/>
              </g>
            </g>
          </g>
        </g>
      </g>
      <g id="Group_1100509" data-name="Group 1100509" transform="translate(0.001)">
        <g id="Group_1100508" data-name="Group 1100508" clip-path="url(#clip-path-8)">
          <rect id="Rectangle_403413" data-name="Rectangle 403413" width="124.425" height="80.582" transform="translate(-1.369 0)" fill="#98baff"/>
        </g>
      </g>
      <g id="Group_1100511" data-name="Group 1100511" transform="translate(0 0)">
        <g id="Group_1100510" data-name="Group 1100510" clip-path="url(#clip-path-3)">
          <path id="Path_875273" data-name="Path 875273" d="M107.579,35.147,60.782,4.5a6.306,6.306,0,0,0-6.364,0L7.621,35.146a2.323,2.323,0,0,0-1.164,2.833,2.931,2.931,0,0,1,1.164-1.334L54.418,6a6.306,6.306,0,0,1,6.364,0l46.8,30.644a2.935,2.935,0,0,1,1.164,1.336,2.322,2.322,0,0,0-1.164-2.833" transform="translate(3.244 2.612)" fill="#fff"/>
          <path id="Path_875274" data-name="Path 875274" d="M117.577,29.4,70.78,60.039c-5.479,3.589-14.394,3.589-19.874,0L4.109,29.395A8.3,8.3,0,0,1,.049,23.637c-.321,2.6,1.03,5.272,4.061,7.257l46.8,30.644c5.479,3.587,14.394,3.587,19.874,0l46.8-30.644c3.03-1.983,4.38-4.655,4.059-7.255a8.3,8.3,0,0,1-4.059,5.758" transform="translate(0.001 16.954)" fill="#fff"/>
        </g>
      </g>
      <g id="Group_1100513" data-name="Group 1100513" transform="translate(1.868 1.223)">
        <g id="Group_1100512" data-name="Group 1100512" clip-path="url(#clip-path-10)">
          <rect id="Rectangle_403415" data-name="Rectangle 403415" width="120.326" height="78.015" transform="translate(-1.188 0)" fill="#98baff"/>
        </g>
      </g>
    </g>
  </g>
  <g id="Group_1100746" data-name="Group 1100746" transform="translate(24.709 10.596)">
    <g id="Group_1099618" data-name="Group 1099618" transform="translate(0 0)">
      <rect id="Rectangle_401104" data-name="Rectangle 401104" width="70.823" height="71.676" fill="none"/>
    </g>
    <g id="Grupo_156261" data-name="Grupo 156261" transform="translate(1.419 0.419)">
      <rect id="Rectángulo_47312" data-name="Rectángulo 47312" width="9.366" height="4.683" transform="translate(5.878 22.272)" fill="#0c2d70"/>
      <path id="Trazado_198297" data-name="Trazado 198297" d="M10.008,59.838h9.36l-4.683,5.853Z" transform="translate(-4.128 -24.68)" fill="#0c2d70"/>
      <g id="Grupo_156260" data-name="Grupo 156260" transform="translate(0 0)">
        <g id="Grupo_156259" data-name="Grupo 156259" clip-path="url(#clip-path-11)">
          <path id="Trazado_198298" data-name="Trazado 198298" d="M25.947,73.186a9.36,9.36,0,1,0,9.361-9.36,9.36,9.36,0,0,0-9.361,9.36m9.363,7.025a6.983,6.983,0,0,1-3.41-.887l3.974-4.967h6.356A7.029,7.029,0,0,1,35.31,80.21Zm6.925-8.2H36.484V66.268a7.035,7.035,0,0,1,5.749,5.748Zm-8.09-5.748v6.507l-4.063,5.08a7.008,7.008,0,0,1,4.063-11.589" transform="translate(-10.702 -26.324)" fill="#0c2d70"/>
          <rect id="Rectángulo_47313" data-name="Rectángulo 47313" width="2.342" height="2.342" transform="translate(15.245 58.566)" fill="#0c2d70"/>
          <rect id="Rectángulo_47314" data-name="Rectángulo 47314" width="14.049" height="2.342" transform="translate(19.929 58.566)" fill="#0c2d70"/>
          <rect id="Rectángulo_47315" data-name="Rectángulo 47315" width="18.732" height="2.342" transform="translate(15.245 63.25)" fill="#0c2d70"/>
          <rect id="Rectángulo_47316" data-name="Rectángulo 47316" width="2.342" height="2.342" transform="translate(41.002 58.566)" fill="#0c2d70"/>
          <rect id="Rectángulo_47317" data-name="Rectángulo 47317" width="14.049" height="2.342" transform="translate(45.686 58.566)" fill="#0c2d70"/>
          <rect id="Rectángulo_47318" data-name="Rectángulo 47318" width="18.732" height="2.342" transform="translate(41.002 63.25)" fill="#0c2d70"/>
          <rect id="Rectángulo_47319" data-name="Rectángulo 47319" width="2.342" height="2.342" transform="translate(43.343 11.733)" fill="#0c2d70"/>
          <rect id="Rectángulo_47320" data-name="Rectángulo 47320" width="11.708" height="2.342" transform="translate(48.027 11.733)" fill="#0c2d70"/>
          <rect id="Rectángulo_47321" data-name="Rectángulo 47321" width="16.391" height="2.342" transform="translate(43.343 16.416)" fill="#0c2d70"/>
          <rect id="Rectángulo_47322" data-name="Rectángulo 47322" width="2.342" height="2.342" transform="translate(43.343 24.612)" fill="#0c2d70"/>
          <rect id="Rectángulo_47323" data-name="Rectángulo 47323" width="11.708" height="2.342" transform="translate(48.027 24.612)" fill="#0c2d70"/>
          <rect id="Rectángulo_47324" data-name="Rectángulo 47324" width="16.391" height="2.342" transform="translate(43.343 29.295)" fill="#0c2d70"/>
          <path id="Trazado_198299" data-name="Trazado 198299" d="M72.951,82.552H87a1.17,1.17,0,0,0,1.17-1.171V72.02A1.17,1.17,0,0,0,87,70.849H83.489V65a1.17,1.17,0,0,0-1.17-1.171H77.635A1.17,1.17,0,0,0,76.464,65v3.509H72.952a1.17,1.17,0,0,0-1.17,1.171V81.389a1.17,1.17,0,0,0,1.169,1.164M85.83,80.218H83.489V73.19H85.83ZM78.808,66.167h2.342V80.218H78.808ZM74.125,70.85h2.341v9.36H74.124Z" transform="translate(-29.607 -26.324)" fill="#0c2d70"/>
          <path id="Trazado_198300" data-name="Trazado 198300" d="M43.061,27.348H57.111a1.17,1.17,0,0,0,1.17-1.17V19.152a1.17,1.17,0,0,0-1.17-1.17H43.061a1.17,1.17,0,0,0-1.171,1.17v7.025a1.17,1.17,0,0,0,1.169,1.171Zm1.17-7.026H55.944v4.685H44.232Z" transform="translate(-17.278 -7.416)" fill="#0c2d70"/>
          <path id="Trazado_198301" data-name="Trazado 198301" d="M43.061,49.272H57.111a1.17,1.17,0,0,0,1.17-1.17V41.078a1.17,1.17,0,0,0-1.17-1.171H43.061a1.17,1.17,0,0,0-1.171,1.171V48.1a1.17,1.17,0,0,0,1.171,1.17m1.17-7.024H55.944v4.683H44.232Z" transform="translate(-17.278 -16.459)" fill="#0c2d70"/>
          <path id="Trazado_198302" data-name="Trazado 198302" d="M4.705,19.321V35.152a1.172,1.172,0,0,0,.256.732l4.426,5.535V69.107a1.171,1.171,0,0,0,1.171,1.17H64.417a1.17,1.17,0,0,0,1.17-1.17V5.882a1.17,1.17,0,0,0-1.17-1.171h-45.1A10.538,10.538,0,1,0,4.705,19.321m9.361,6.469H7.052V23.445H14.07Zm-3.5,13.347L8.315,36.324h4.5ZM7.051,28.131H9.392v5.854H7.051Zm7.026,5.854H11.734V28.131h2.342ZM63.249,7.055V67.937H11.734V41.42l4.426-5.533a1.172,1.172,0,0,0,.256-.732V19.321A10.476,10.476,0,0,0,20.485,7.055ZM10.564,2.37a8.2,8.2,0,0,1,4.1,15.286,1.17,1.17,0,0,0-.587,1.013v2.437H11.734V14.566L14.9,11.394,13.249,9.738l-2.686,2.685L7.878,9.738,6.223,11.393l3.169,3.17V21.1H7.051V18.667a1.168,1.168,0,0,0-.586-1.013,8.2,8.2,0,0,1,4.1-15.286Z" transform="translate(0 0)" fill="#0c2d70"/>
        </g>
      </g>
    </g>
  </g>
  <g id="Group_1100747" data-name="Group 1100747" transform="translate(0 98.755)">
    <g id="Group_1100491" data-name="Group 1100491" transform="translate(0 0)" clip-path="url(#clip-path-12)">
      <path id="Path_875261" data-name="Path 875261" d="M32.76,22.99a1.256,1.256,0,1,1,1.256,1.255A1.256,1.256,0,0,1,32.76,22.99m-5.3,1.255a1.255,1.255,0,1,0-1.256-1.255,1.255,1.255,0,0,0,1.256,1.255m-6.552,0a1.255,1.255,0,1,0-1.256-1.255,1.255,1.255,0,0,0,1.256,1.255m-6.552,0A1.255,1.255,0,1,0,13.1,22.99a1.255,1.255,0,0,0,1.256,1.255m-6.552,0A1.255,1.255,0,1,0,6.552,22.99a1.255,1.255,0,0,0,1.256,1.255m-6.552,0A1.255,1.255,0,1,0,0,22.99a1.255,1.255,0,0,0,1.256,1.255m32.76-7.123a1.256,1.256,0,1,0-1.256-1.256,1.256,1.256,0,0,0,1.256,1.256m-6.552,0a1.256,1.256,0,1,0-1.256-1.256,1.256,1.256,0,0,0,1.256,1.256m-6.552,0a1.256,1.256,0,1,0-1.256-1.256,1.256,1.256,0,0,0,1.256,1.256m-6.552,0A1.256,1.256,0,1,0,13.1,15.867a1.256,1.256,0,0,0,1.256,1.256m-6.552,0a1.256,1.256,0,1,0-1.256-1.256,1.256,1.256,0,0,0,1.256,1.256m-6.552,0A1.256,1.256,0,1,0,0,15.867a1.256,1.256,0,0,0,1.256,1.256M34.016,10A1.256,1.256,0,1,0,32.76,8.744,1.256,1.256,0,0,0,34.016,10m5.3,12.99a1.256,1.256,0,1,1,1.256,1.255,1.256,1.256,0,0,1-1.256-1.255m1.256-5.868a1.256,1.256,0,1,0-1.256-1.256,1.256,1.256,0,0,0,1.256,1.256m0-7.123a1.256,1.256,0,1,0-1.256-1.256A1.256,1.256,0,0,0,40.568,10m-13.1,0a1.256,1.256,0,1,0-1.256-1.256A1.256,1.256,0,0,0,27.464,10m-6.552,0a1.256,1.256,0,1,0-1.256-1.256A1.256,1.256,0,0,0,20.912,10M14.36,10A1.256,1.256,0,1,0,13.1,8.744,1.256,1.256,0,0,0,14.36,10M7.808,10A1.256,1.256,0,1,0,6.552,8.744,1.256,1.256,0,0,0,7.808,10M1.256,10A1.256,1.256,0,1,0,0,8.744,1.256,1.256,0,0,0,1.256,10m32.76-7.489A1.256,1.256,0,1,0,32.76,1.256a1.256,1.256,0,0,0,1.256,1.256m6.552,0a1.256,1.256,0,1,0-1.256-1.256,1.256,1.256,0,0,0,1.256,1.256m-13.1,0a1.256,1.256,0,1,0-1.256-1.256,1.256,1.256,0,0,0,1.256,1.256m-6.552,0a1.256,1.256,0,1,0-1.256-1.256,1.256,1.256,0,0,0,1.256,1.256m-6.552,0A1.256,1.256,0,1,0,13.1,1.256,1.256,1.256,0,0,0,14.36,2.511m-6.552,0A1.256,1.256,0,1,0,6.552,1.256,1.256,1.256,0,0,0,7.808,2.511m-6.552,0A1.256,1.256,0,1,0,0,1.256,1.256,1.256,0,0,0,1.256,2.511" transform="translate(0 0)" fill="#fff"/>
    </g>
  </g>
  <g id="Group_1100749" data-name="Group 1100749" transform="translate(9.418)">
    <g id="Group_1100748" data-name="Group 1100748" clip-path="url(#clip-path-13)">
      <path id="Path_875398" data-name="Path 875398" d="M10.682,0h81.5a10.785,10.785,0,0,1,10.678,10.888l-.134,62.524L57.973,102.864a12.616,12.616,0,0,1-13.084,0L-.2,73.333,0,10.888A10.784,10.784,0,0,1,10.682,0" transform="translate(-0.001 0)" fill="#fff"/>
    </g>
  </g>
  <g id="Group_1100745" data-name="Group 1100745" transform="translate(0 17.918)">
    <g id="Group_1100096" data-name="Group 1100096" transform="translate(0 0)" clip-path="url(#clip-path-14)">
      <path id="Path_873771" data-name="Path 873771" d="M61.5,80.838a16.933,16.933,0,0,1-9.134-2.472L3.9,46.669C1.386,45.023,0,42.8,0,40.417s1.386-4.606,3.9-6.25L52.365,2.47C57.4-.823,65.6-.823,70.635,2.47l48.464,31.7c2.517,1.645,3.9,3.865,3.9,6.25s-1.386,4.606-3.9,6.252L70.637,78.365A16.938,16.938,0,0,1,61.5,80.838m0-79.89A16.161,16.161,0,0,0,52.79,3.3L4.328,35C2.084,36.467.85,38.39.85,40.417s1.234,3.952,3.478,5.419l48.465,31.7c4.8,3.139,12.616,3.139,17.419,0l48.462-31.7c2.244-1.467,3.478-3.391,3.478-5.419s-1.234-3.952-3.478-5.419L70.21,3.3A16.161,16.161,0,0,0,61.5.948" transform="translate(0 -0.001)" fill="#61dfe4"/>
    </g>
  </g>
  <rect id="Rectangle_403516" data-name="Rectangle 403516" width="102.859" height="51.446" transform="translate(9.418 16.158)" fill="#fff"/>
  <g id="Group_1102749" data-name="Group 1102749" transform="translate(29.661 12.455)">
    <g id="Group_1102748" data-name="Group 1102748" clip-path="url(#clip-path-15)">
      <path id="Path_877848" data-name="Path 877848" d="M272.218,183.1a4.645,4.645,0,1,1,.168,6.549c-.525-.475-1.246-2.1-1.511-2.19-1.3-.447-5.56,1-5.056-1.6.285-1.471,3.938-.582,5.057-.868a21.142,21.142,0,0,1,1.342-1.9m5.61,3.151a2.243,2.243,0,1,0-2.243,2.243,2.243,2.243,0,0,0,2.243-2.243" transform="translate(-216.605 -148.027)" fill="#0c2d70"/>
      <path id="Path_877849" data-name="Path 877849" d="M278.929,112.36c4.63,4.622-3.042,11.293-7,5.978a11.016,11.016,0,0,1-.684-1.443c-.425-.377-4.88.628-5.266-.745-.808-2.88,3.54-1.2,4.984-1.706.2-.071.825-1.459,1.13-1.831a4.563,4.563,0,0,1,6.832-.254m-1.038,3.229a2.241,2.241,0,1,0-2.241,2.241,2.241,2.241,0,0,0,2.241-2.241" transform="translate(-216.691 -90.419)" fill="#0c2d70"/>
      <path id="Path_877850" data-name="Path 877850" d="M96.924,92.817c6.749-.019,11.943-.194,19-.052a5.791,5.791,0,0,1,5.462,4.9c.208,6.715.3,13.044.007,19.25-.129,2.771-2.8,4.957-5.469,5.077-6.148.277-11.533.168-18.506.01a5.9,5.9,0,0,1-5.819-5.467c-.235-5.818.065-12.574.018-18.481a5.981,5.981,0,0,1,5.309-5.237m-.007,2.4A3.435,3.435,0,0,0,94,98.4c-.05,5.747.066,11.838-.006,17.771a3.587,3.587,0,0,0,3.424,3.421c6.949.157,12.357.5,18.145,0a3.448,3.448,0,0,0,3.426-3.05c.571-5.831.179-12.356,0-18.515a3.307,3.307,0,0,0-3.244-2.861c-7.2-.128-11.924.036-18.821.046" transform="translate(-74.576 -75.557)" fill="#0c2d70"/>
      <path id="Path_877851" data-name="Path 877851" d="M123.763,143.983c-.32.6-.807,2.511-1.453,2.707-1.132.345-1.972-.248-1.789-1.4l5.089-11.4c1.078-1.33,2.577-1.022,3.442.389,1.868,3.046,2.9,7.6,4.773,10.774a1.3,1.3,0,0,1-2.03,1.47c-.478-.332-.923-2.41-1.334-2.551Zm1.265-2.251h4.44l-.044-.6-2.086-4.579c-.372-.008-.485.41-.622.673-.275.525-1.915,4.282-1.688,4.51" transform="translate(-98.202 -108.43)" fill="#0c2d70"/>
      <path id="Path_877852" data-name="Path 877852" d="M204.145,133.075a1.378,1.378,0,0,1,1.537,1.165c-.321,3.577.4,7.8-.005,11.3a1.3,1.3,0,0,1-2.6,0,76.536,76.536,0,0,1,0-11.109,1.454,1.454,0,0,1,1.066-1.355" transform="translate(-165.341 -108.44)" fill="#0c2d70"/>
      <path id="Path_877853" data-name="Path 877853" d="M117.005,9.133c-.337.379.532,4.729-.618,5.222-2.921,1.253-1.394-3.686-1.833-4.941-.071-.2-1.459-.825-1.831-1.13a4.668,4.668,0,1,1,4.94.681c-.194.1-.615.118-.658.167m.934-4.4A2.239,2.239,0,1,0,115.7,6.974a2.239,2.239,0,0,0,2.239-2.239" transform="translate(-90.529 -0.049)" fill="#0c2d70"/>
      <path id="Path_877854" data-name="Path 877854" d="M184.969,9.085a9.969,9.969,0,0,1-1.261-.5,4.664,4.664,0,1,1,5.822-.628c-.448.464-2.007,1.127-2.1,1.411-.422,1.227.994,5.865-1.752,5.022-1.359-.417-.3-4.846-.7-5.309m3.491-4.422A2.243,2.243,0,1,0,186.217,6.9a2.243,2.243,0,0,0,2.243-2.243" transform="translate(-147.988 0)" fill="#0c2d70"/>
      <path id="Path_877855" data-name="Path 877855" d="M9.208,186.242c.405.354,4.721-.529,5.216.625,1.253,2.921-3.686,1.394-4.941,1.833-.2.071-.825,1.459-1.13,1.831-3.262,3.978-9.879.322-7.82-4.86,1.311-3.3,5.944-3.661,7.988-.868.24.327.627,1.386.687,1.439m-2.165,1.312A2.239,2.239,0,1,0,4.8,189.793a2.239,2.239,0,0,0,2.239-2.239" transform="translate(-0.117 -149.084)" fill="#0c2d70"/>
      <path id="Path_877856" data-name="Path 877856" d="M9.084,118.167a9.981,9.981,0,0,1-.5,1.261,4.664,4.664,0,1,1-.628-5.822c.464.448,1.127,2.007,1.411,2.1,1.227.422,5.865-.995,5.022,1.752-.417,1.358-4.846.3-5.309.7M6.9,116.917a2.243,2.243,0,1,0-2.244,2.244A2.244,2.244,0,0,0,6.9,116.917" transform="translate(0 -91.505)" fill="#0c2d70"/>
      <path id="Path_877857" data-name="Path 877857" d="M117.888,271.048c.042.048.473.073.661.164a4.648,4.648,0,0,1,1.359,7.541c-4.351,4.233-10.842-2.169-6.58-6.58.448-.464,2.007-1.127,2.1-1.411.422-1.227-.994-5.865,1.752-5.022,1.357.417.3,4.853.7,5.309m.994,4.427a2.24,2.24,0,1,0-2.24,2.24,2.24,2.24,0,0,0,2.24-2.24" transform="translate(-91.226 -216.49)" fill="#0c2d70"/>
      <path id="Path_877858" data-name="Path 877858" d="M188.459,266.165c.6.6-.067,3.92.253,4.835.084.24,1.288.713,1.628.962,4.264,3.121.662,10.107-4.657,7.988-4.038-1.609-3.423-7.559.611-8.763.151-1.189-.385-4.045.349-4.933a1.6,1.6,0,0,1,1.816-.088m1.351,9.517a2.241,2.241,0,1,0-2.241,2.241,2.241,2.241,0,0,0,2.241-2.241" transform="translate(-149.096 -216.723)" fill="#0c2d70"/>
    </g>
  </g>
</svg>
