<svg xmlns="http://www.w3.org/2000/svg" xmlns:xlink="http://www.w3.org/1999/xlink" width="158.686" height="187.331" viewBox="0 0 158.686 187.331">
  <defs>
    <clipPath id="clip-path">
      <path id="Path_873688" data-name="Path 873688" d="M2.436,23.994,0,24.677v14.18c0,2.711,1.787,5.418,5.359,7.481L66.386,81.574c7.145,4.125,18.771,4.125,25.916,0l61.025-35.234c3.514-2.028,5.3-4.683,5.357-7.349,0-.118,0-.239-.008-.357l.01,0V24.812l-3.824-2.126c-1.08,6.523-8.76,10.824-15.181,11.718L95.953,59.974,76.868,66.865,15.955,35.43l1.408-.813c-5.2-2.431-8.01-7.994-10.826-13.069Z" transform="translate(0 -21.548)" fill="#61dfe4"/>
    </clipPath>
    <clipPath id="clip-path-2">
      <rect id="Rectangle_403226" data-name="Rectangle 403226" width="158.686" height="136.663" fill="none"/>
    </clipPath>
    <clipPath id="clip-path-3">
      <rect id="Rectangle_403225" data-name="Rectangle 403225" width="79.343" height="61.8" fill="none"/>
    </clipPath>
    <clipPath id="clip-path-4">
      <path id="Path_873690" data-name="Path 873690" d="M66.383,3.094,5.358,38.325c-7.143,4.127-7.143,10.838,0,14.964L66.385,88.523c7.145,4.125,18.771,4.125,25.918,0L153.327,53.29c7.143-4.125,7.143-10.838,0-14.962L92.3,3.094A26.5,26.5,0,0,0,79.342,0,26.489,26.489,0,0,0,66.383,3.094" transform="translate(-0.001)" fill="#d1f3f5"/>
    </clipPath>
    <clipPath id="clip-path-6">
      <rect id="Rectangle_403403" data-name="Rectangle 403403" width="84.122" height="107.661" fill="none"/>
    </clipPath>
    <clipPath id="clip-path-7">
      <rect id="Rectangle_403402" data-name="Rectangle 403402" width="84.123" height="107.661" fill="none"/>
    </clipPath>
    <clipPath id="clip-path-8">
      <rect id="Rectangle_403400" data-name="Rectangle 403400" width="35.9" height="51.644" fill="none"/>
    </clipPath>
    <clipPath id="clip-path-9">
      <rect id="Rectangle_403401" data-name="Rectangle 403401" width="22.243" height="15.817" fill="none"/>
    </clipPath>
    <clipPath id="clip-path-10">
      <rect id="Rectangle_404783" data-name="Rectangle 404783" width="51.606" height="64.325" fill="none"/>
    </clipPath>
    <clipPath id="clip-path-12">
      <path id="Path_877498" data-name="Path 877498" d="M56.535,77.97c1.769,2.187,4.825,2.978,6.826,1.766a3.339,3.339,0,0,0,1.025-.956A5.782,5.782,0,0,1,62.58,80.5a5.389,5.389,0,0,1-3.518.758,4.843,4.843,0,0,1-3.168-1.769,5.227,5.227,0,0,1-1.123-3.583,5.591,5.591,0,0,1,1.159-3.129,4.362,4.362,0,0,0,.606,5.194" transform="translate(-54.766 -72.776)" fill="none"/>
    </clipPath>
    <linearGradient id="linear-gradient" x1="-3.14" y1="0.17" x2="-3.08" y2="0.17" gradientUnits="objectBoundingBox">
      <stop offset="0" stop-color="#343338"/>
      <stop offset="0.136" stop-color="#343338"/>
      <stop offset="0.567" stop-color="#625e65"/>
      <stop offset="1" stop-color="#625e65"/>
    </linearGradient>
    <clipPath id="clip-path-14">
      <path id="Path_877500" data-name="Path 877500" d="M53.029,50.985c1.446,1.788,3.946,2.435,5.583,1.444a2.734,2.734,0,0,0,.839-.783c-.556.8-11.115,16.038-14.386,21.025a3.344,3.344,0,0,1-1.026.957c-2,1.211-5.057.421-6.826-1.766-1.45-1.792-1.585-3.966-.485-5.359,3.814-4.586,15.3-19.135,15.9-19.9a3.519,3.519,0,0,0,.4,4.383" transform="translate(-36 -46.602)" fill="none"/>
    </clipPath>
    <linearGradient id="linear-gradient-2" x1="-0.593" y1="0.107" x2="-0.572" y2="0.107" gradientUnits="objectBoundingBox">
      <stop offset="0" stop-color="#343338"/>
      <stop offset="0.136" stop-color="#343338"/>
      <stop offset="0.567" stop-color="#625e65"/>
      <stop offset="0.614" stop-color="#8a878d"/>
      <stop offset="0.705" stop-color="#8a878d"/>
      <stop offset="0.749" stop-color="#625e65"/>
      <stop offset="1" stop-color="#625e65"/>
    </linearGradient>
    <clipPath id="clip-path-15">
      <path id="Path_877501" data-name="Path 877501" d="M35.111,45.525c1.72,2.127,4.694,2.9,6.641,1.719a3.267,3.267,0,0,0,.941-.852l-2.912,3.934a3.271,3.271,0,0,1-.941.851c-1.948,1.179-4.921.409-6.642-1.719-1.384-1.711-1.537-3.779-.532-5.136l2.912-3.934c-1.005,1.358-.852,3.426.532,5.137" transform="translate(-31.019 -40.388)" fill="none"/>
    </clipPath>
    <linearGradient id="linear-gradient-3" x1="-1.268" y1="-1.13" x2="-1.223" y2="-1.13" gradientUnits="objectBoundingBox">
      <stop offset="0" stop-color="#a8a4b5"/>
      <stop offset="0.136" stop-color="#a8a4b5"/>
      <stop offset="0.567" stop-color="#dbd3e2"/>
      <stop offset="1" stop-color="#dbd3e2"/>
    </linearGradient>
    <clipPath id="clip-path-16">
      <path id="Path_877502" data-name="Path 877502" d="M16.239,8.031c-.179.246-.347.5-.5.77-3.474,5.947-1.187,16.762,5.393,24.764.3.36.6.709.94,1.091,5.584,6.177,12.281,8.393,16.678,5.839L34.059,43.22c-4.4,2.554-11.094.338-16.678-5.839-.343-.381-.644-.729-.941-1.09-6.578-8-8.867-18.818-5.392-24.765a9.168,9.168,0,0,1,.5-.77A7.778,7.778,0,0,1,13.939,8.57l4.688-2.725a7.781,7.781,0,0,0-2.389,2.186" transform="translate(-9.434 -5.845)" fill="none"/>
    </clipPath>
    <linearGradient id="linear-gradient-4" x1="0.045" y1="-0.35" x2="0.06" y2="-0.35" gradientUnits="objectBoundingBox">
      <stop offset="0" stop-color="#e4deea"/>
      <stop offset="0.062" stop-color="#e4deea"/>
      <stop offset="0.149" stop-color="#dbd3e2"/>
      <stop offset="0.737" stop-color="#a8a4b5"/>
      <stop offset="1" stop-color="#a8a4b5"/>
    </linearGradient>
    <clipPath id="clip-path-18">
      <rect id="Rectangle_404776" data-name="Rectangle 404776" width="29.131" height="36.728" fill="none"/>
    </clipPath>
    <clipPath id="clip-path-19">
      <rect id="Rectangle_404777" data-name="Rectangle 404777" width="23.937" height="31.331" fill="none"/>
    </clipPath>
    <clipPath id="clip-path-20">
      <path id="Path_877505" data-name="Path 877505" d="M24.535,8.22q.542.6,1.069,1.242c5.345,6.5,8.3,14.569,8.318,21.276v.1a15.169,15.169,0,0,1-2.514,8.945,9.235,9.235,0,0,1-2.836,2.594L23.886,45.1A9.242,9.242,0,0,0,26.721,42.5c4.956-6.817,2.357-20.391-5.8-30.317q-.528-.643-1.069-1.243C13.209,3.571,5.232.921,0,3.962L4.687,1.237A9.491,9.491,0,0,1,9.513,0c4.67,0,10.2,2.864,15.022,8.22" transform="translate(0 0)" fill="none"/>
    </clipPath>
    <linearGradient id="linear-gradient-5" x1="0.197" y1="-0.303" x2="0.211" y2="-0.303" gradientUnits="objectBoundingBox">
      <stop offset="0" stop-color="#a8a4b5"/>
      <stop offset="0.136" stop-color="#a8a4b5"/>
      <stop offset="0.567" stop-color="#dbd3e2"/>
      <stop offset="0.824" stop-color="#e4deea"/>
      <stop offset="1" stop-color="#e4deea"/>
    </linearGradient>
    <clipPath id="clip-path-22">
      <path id="Path_877507" data-name="Path 877507" d="M36.906,41.489a9.052,9.052,0,0,0,.5-.77c3.474-5.948,1.187-16.763-5.393-24.765-.3-.36-.6-.708-.94-1.09C24.345,7.417,16,5.727,12.01,11.21a9.168,9.168,0,0,0-.5.77C8.032,17.928,10.32,28.744,16.9,36.746c.3.361.6.709.941,1.09,4.053,4.484,8.694,6.88,12.614,6.881a7.675,7.675,0,0,0,6.452-3.228M31.14,14.764c.342.379.643.728.948,1.1a31.988,31.988,0,0,1,6.519,13.263c1.007,4.666.616,8.857-1.1,11.8-.16.274-.335.541-.517.793a7.92,7.92,0,0,1-6.664,3.336c-4.138,0-8.806-2.539-12.808-6.967-.342-.379-.642-.728-.948-1.1a31.974,31.974,0,0,1-6.52-13.264c-1.007-4.666-.615-8.856,1.1-11.8.161-.275.335-.542.517-.793A7.922,7.922,0,0,1,18.333,7.8c4.137,0,8.8,2.539,12.807,6.967" transform="translate(-9.5 -7.797)" fill="none"/>
    </clipPath>
    <linearGradient id="linear-gradient-6" x1="1.169" y1="1.536" x2="1.146" y2="1.536" gradientUnits="objectBoundingBox">
      <stop offset="0" stop-color="#e4deea"/>
      <stop offset="0.135" stop-color="#e4deea"/>
      <stop offset="0.319" stop-color="#cac5d3"/>
      <stop offset="0.511" stop-color="#b7b2c2"/>
      <stop offset="0.708" stop-color="#aba7b8"/>
      <stop offset="0.916" stop-color="#a8a4b5"/>
      <stop offset="1" stop-color="#a8a4b5"/>
    </linearGradient>
    <clipPath id="clip-path-23">
      <path id="Path_877508" data-name="Path 877508" d="M37.843,43.255c4.883-6.716,2.283-20.173-5.795-30-.347-.421-.7-.836-1.061-1.234C26.333,6.855,20.928,3.89,16.159,3.89A8.853,8.853,0,0,0,8.71,7.615c-4.883,6.716-2.283,20.173,5.795,30,.345.419.7.835,1.061,1.233,4.654,5.169,10.058,8.134,14.827,8.134a8.854,8.854,0,0,0,7.45-3.724M31.312,11.774q.542.6,1.069,1.243c8.162,9.926,10.761,23.5,5.8,30.317C33.443,49.856,23.5,47.828,15.5,38.945q-.54-.6-1.069-1.242C6.271,27.776,3.672,14.2,8.629,7.386a9.115,9.115,0,0,1,7.66-3.832c4.67,0,10.2,2.863,15.022,8.22" transform="translate(-6.115 -3.554)" fill="none"/>
    </clipPath>
    <linearGradient id="linear-gradient-7" x1="1.057" y1="1.33" x2="1.037" y2="1.33" gradientUnits="objectBoundingBox">
      <stop offset="0" stop-color="#a8a4b5"/>
      <stop offset="0.084" stop-color="#a8a4b5"/>
      <stop offset="0.142" stop-color="#aeaaba"/>
      <stop offset="0.432" stop-color="#cbc6d4"/>
      <stop offset="0.683" stop-color="#ddd7e4"/>
      <stop offset="0.865" stop-color="#e4deea"/>
      <stop offset="1" stop-color="#e4deea"/>
    </linearGradient>
  </defs>
  <g id="banner-principal-decorativo-1" transform="translate(-863.965 -139.692)">
    <g id="Group_1100088" data-name="Group 1100088" transform="translate(863.965 190.359)">
      <g id="Group_1100090" data-name="Group 1100090">
        <g id="Group_1100077" data-name="Group 1100077" transform="translate(0 42.545)">
          <g id="Group_1100076" data-name="Group 1100076" clip-path="url(#clip-path)">
            <rect id="Rectangle_403224" data-name="Rectangle 403224" width="134.899" height="169.502" transform="matrix(0.5, -0.866, 0.866, 0.5, -27.778, 48.114)" fill="#61dfe4"/>
          </g>
        </g>
        <g id="Group_1100082" data-name="Group 1100082" transform="translate(0 0)">
          <g id="Group_1100081" data-name="Group 1100081" clip-path="url(#clip-path-2)">
            <g id="Group_1100080" data-name="Group 1100080" transform="translate(79.343 43.864)" opacity="0.3">
              <g id="Group_1100079" data-name="Group 1100079">
                <g id="Group_1100078" data-name="Group 1100078" clip-path="url(#clip-path-3)">
                  <path id="Path_873689" data-name="Path 873689" d="M100.523,33.753,56.8,59.323l-16.611,6v18.7a26.5,26.5,0,0,0,12.96-3.094L114.17,45.69c3.514-2.03,5.3-4.683,5.357-7.349,0-.118,0-.239-.008-.357l.01,0V24.161l-3.5-1.945h-.365c-1.191,6.423-8.784,10.652-15.144,11.537" transform="translate(-40.186 -22.217)" fill="#0f054c"/>
                </g>
              </g>
            </g>
          </g>
        </g>
        <g id="Group_1100084" data-name="Group 1100084" transform="translate(0.001)">
          <g id="Group_1100083" data-name="Group 1100083" clip-path="url(#clip-path-4)">
            <rect id="Rectangle_403227" data-name="Rectangle 403227" width="162.256" height="92.648" transform="translate(-1.786 0)" fill="#d1f3f5"/>
          </g>
        </g>
        <g id="Group_1100086" data-name="Group 1100086" transform="translate(0 0)">
          <g id="Group_1100085" data-name="Group 1100085" clip-path="url(#clip-path-2)">
            <path id="Path_873691" data-name="Path 873691" d="M153.325,30.258,92.3,65.492c-7.145,4.125-18.771,4.125-25.916,0L5.358,30.258C2.164,28.414.4,26.053.063,23.636c-.419,2.989,1.343,6.063,5.3,8.344L66.384,67.213c7.145,4.125,18.771,4.127,25.916,0l61.025-35.232c3.951-2.282,5.714-5.355,5.293-8.344-.338,2.417-2.1,4.776-5.293,6.62" transform="translate(0.002 23.031)" fill="#fff"/>
          </g>
        </g>
      </g>
      <g id="Group_1100486" data-name="Group 1100486" transform="translate(45.558 -50.668)">
        <g id="Group_1100485" data-name="Group 1100485" transform="translate(0 0.001)" clip-path="url(#clip-path-6)">
          <path id="Path_875197" data-name="Path 875197" d="M75.371,61.146l.888-1.537L67.1,54.324l-5.326,2.867L2.152,22.766,1.264,24.3l60.484,34.92,5.326-2.867Z" transform="translate(6.436 2.943)" fill="#b0e645"/>
          <path id="Path_875198" data-name="Path 875198" d="M69.714,74.99l.888-1.537L17.17,42.6,9.5,31.139V15.992H7.727V31.678l8.2,12.257Z" transform="translate(4.795 2.068)" fill="#b0e645"/>
          <path id="Path_875199" data-name="Path 875199" d="M73.343,85.221l.888-1.537L62.483,76.9l-2.449-6.008L21.436,48.61l-6.984-9.268V23.329H12.678V39.935l7.558,10.03L58.62,72.127l2.448,6.008Z" transform="translate(-4.426 3.016)" fill="#b0e645"/>
          <g id="Group_1100484" data-name="Group 1100484" transform="translate(0 0)">
            <g id="Group_1100483" data-name="Group 1100483" clip-path="url(#clip-path-7)">
              <path id="Path_875200" data-name="Path 875200" d="M16.339,79.054c0,1.613-1.138,2.262-2.543,1.45a5.6,5.6,0,0,1-2.544-4.387c0-1.613,1.138-2.262,2.544-1.45a5.6,5.6,0,0,1,2.543,4.387" transform="translate(55.076 9.609)" fill="#b0e645"/>
              <path id="Path_875201" data-name="Path 875201" d="M11.234,69.3c0,1.611-1.138,2.261-2.544,1.45a5.6,5.6,0,0,1-2.543-4.387c0-1.613,1.138-2.262,2.543-1.45A5.6,5.6,0,0,1,11.234,69.3" transform="translate(65.946 8.348)" fill="#b0e645"/>
              <path id="Path_875202" data-name="Path 875202" d="M5.087,57.47c0,1.613-1.138,2.262-2.544,1.45A5.6,5.6,0,0,1,0,54.533c0-1.611,1.138-2.262,2.543-1.45A5.6,5.6,0,0,1,5.087,57.47" transform="translate(79.035 6.818)" fill="#b0e645"/>
              <rect id="Rectangle_403397" data-name="Rectangle 403397" width="1.774" height="44.041" transform="translate(50.901 24.227)" fill="#b0e645"/>
              <rect id="Rectangle_403398" data-name="Rectangle 403398" width="1.774" height="44.041" transform="translate(42.105 3.268)" fill="#b0e645"/>
              <rect id="Rectangle_403399" data-name="Rectangle 403399" width="1.774" height="44.041" transform="translate(33.256 12.479)" fill="#b0e645"/>
              <path id="Path_875203" data-name="Path 875203" d="M31.467,23.3c0,1.613-1.138,2.262-2.544,1.45a5.6,5.6,0,0,1-2.543-4.387c0-1.613,1.138-2.262,2.543-1.45A5.6,5.6,0,0,1,31.467,23.3" transform="translate(22.864 2.4)" fill="#b0e645"/>
              <path id="Path_875204" data-name="Path 875204" d="M39.256,4.737c0,1.613-1.138,2.262-2.544,1.45A5.6,5.6,0,0,1,34.169,1.8c0-1.611,1.138-2.262,2.543-1.45a5.6,5.6,0,0,1,2.544,4.387" transform="translate(6.279 0)" fill="#b0e645"/>
              <path id="Path_875205" data-name="Path 875205" d="M47.092,12.893c0,1.613-1.139,2.261-2.544,1.45a5.6,5.6,0,0,1-2.543-4.387c0-1.613,1.138-2.262,2.543-1.45a5.6,5.6,0,0,1,2.544,4.387" transform="translate(-10.406 1.055)" fill="#b0e645"/>
              <path id="Path_875206" data-name="Path 875206" d="M45.311,95.235h1.774V88.3l-3.169-7.336V50.208H42.142V81.333l3.169,7.337Z" transform="translate(-10.553 6.492)" fill="#b0e645"/>
              <path id="Path_875207" data-name="Path 875207" d="M51.056,98.071H52.83V87.435L57.29,82.4V48.889H55.516V81.729l-4.46,5.032Z" transform="translate(-30.825 6.321)" fill="#b0e645"/>
              <path id="Path_875208" data-name="Path 875208" d="M56.918,85.767h1.774V80.389l3.929-4.282V40.172H60.847V75.416L56.918,79.7Z" transform="translate(-42.777 5.194)" fill="#b0e645"/>
              <path id="Path_875209" data-name="Path 875209" d="M45.762,91.728c0,1.613-1.139,2.262-2.544,1.45a5.6,5.6,0,0,1-2.543-4.387c0-1.613,1.138-2.262,2.543-1.45a5.606,5.606,0,0,1,2.544,4.387" transform="translate(-7.574 11.247)" fill="#b0e645"/>
              <path id="Path_875210" data-name="Path 875210" d="M58.625,94.283c0,1.613-1.139,2.262-2.544,1.45a5.6,5.6,0,0,1-2.543-4.387c0-1.613,1.138-2.262,2.543-1.45a5.6,5.6,0,0,1,2.544,4.387" transform="translate(-34.963 11.578)" fill="#b0e645"/>
              <path id="Path_875211" data-name="Path 875211" d="M64.018,82.136c0,1.611-1.138,2.262-2.544,1.45A5.6,5.6,0,0,1,58.93,79.2c0-1.613,1.138-2.262,2.543-1.45a5.6,5.6,0,0,1,2.544,4.387" transform="translate(-46.444 10.007)" fill="#b0e645"/>
              <path id="Path_875212" data-name="Path 875212" d="M55.759,70.258,22.306,50.943c-3.356-1.938-6.077-7.136-6.077-11.611V21.841c0-4.475,2.72-6.532,6.077-4.594L55.759,36.562c3.356,1.937,6.077,7.136,6.077,11.61V65.664c0,4.475-2.72,6.532-6.077,4.594" transform="translate(3.959 2.136)" fill="#4079c7"/>
              <path id="Path_875213" data-name="Path 875213" d="M17.479,22.56v17.5a13.451,13.451,0,0,0,.51,3.554c.941,3.394,3.078,6.619,5.563,8.055L53.377,68.887,57.01,70.98c3.354,1.939,6.078-.12,6.078-4.591v-17.5c0-4.471-2.724-9.67-6.078-11.609L27.607,20.31l-3.691-2.133-.364-.209a5.558,5.558,0,0,0-1.61-.638c-2.574-.547-4.463,1.5-4.463,5.23" transform="translate(1.296 2.23)" fill="#7ec2e9"/>
              <path id="Path_875214" data-name="Path 875214" d="M19.086,25.453l9.3,39.062,9.354,5.4c1.665.958,3.17.938,4.268.128L33.352,33.69Z" transform="translate(20.565 3.291)" fill="#58b0e1"/>
              <path id="Path_875215" data-name="Path 875215" d="M39.844,20.35l7.713,32.407,12.384,7.151L50.649,20.847l-4.986-2.879c-2.743-1.583-5.059-.5-5.819,2.382" transform="translate(-20.814 2.229)" fill="#58b0e1"/>
              <path id="Path_875216" data-name="Path 875216" d="M17.481,20.99,63.018,47.28v7.067L17.481,28.057Z" transform="translate(1.363 2.714)" fill="#3f3739"/>
              <path id="Path_875217" data-name="Path 875217" d="M29.282,32.28l27.544,15.9v4.265l-27.544-15.9Z" transform="translate(-5.77 4.174)" fill="#cce5f7"/>
              <path id="Path_875218" data-name="Path 875218" d="M19.534,49.307V51.66A3.24,3.24,0,0,0,21,54.2l5.15,2.973c.811.469,1.47.093,1.47-.838V53.978a3.243,3.243,0,0,0-1.47-2.535L21,48.469c-.812-.469-1.47-.093-1.47.838" transform="translate(34.439 6.241)" fill="#cce5f7"/>
              <path id="Path_875219" data-name="Path 875219" d="M19.534,49.709l2.678,7.273h0c.811.469,1.47.093,1.47-.838V55.7L22,51.134Z" transform="translate(38.379 6.427)" fill="#f7f99a"/>
              <path id="Path_875220" data-name="Path 875220" d="M23.021,49.307v.434l1.686,4.58,2.466,1.423L24.5,48.471l0,0c-.812-.469-1.47-.093-1.47.838" transform="translate(30.952 6.241)" fill="#c4f99a"/>
              <path id="Path_875221" data-name="Path 875221" d="M52.554,39.508l-5.718-3.3V34.424l5.718,3.3Z" transform="translate(-21.323 4.451)" fill="#547765"/>
              <g id="Group_1100479" data-name="Group 1100479" transform="translate(18.774 19.472)" style="mix-blend-mode: multiply;isolation: isolate">
                <g id="Group_1100478" data-name="Group 1100478">
                  <g id="Group_1100477" data-name="Group 1100477" clip-path="url(#clip-path-8)">
                    <path id="Path_875222" data-name="Path 875222" d="M26.36,42.668c-.037-.178-.065-.357-.1-.535-.019-.113-.042-.226-.059-.338-.032-.226-.054-.451-.075-.675-.006-.064-.016-.131-.021-.2q-.032-.437-.033-.867V33.068h0V22.56c0-3.727,1.89-5.775,4.463-5.23.067.035.129.071.2.106q.911.506,1.779,1.038v-.3L36.2,20.311v1.073l1.983,1.788,1.265,1.141V40.791l16.448,9.5c3.356,1.939,6.076,7.135,6.076,11.611v6.988L32.153,51.668c-2.486-1.438-4.62-4.663-5.561-8.056l0,0c-.007-.025-.011-.05-.018-.075-.04-.145-.071-.289-.106-.435s-.072-.288-.1-.433" transform="translate(-26.076 -17.242)" fill="#4d7c83"/>
                  </g>
                </g>
              </g>
              <path id="Path_875223" data-name="Path 875223" d="M69.1,83.966,35.649,64.651c-3.356-1.938-6.077-7.136-6.077-11.611V35.549c0-4.475,2.72-6.532,6.077-4.594L69.1,50.27c3.356,1.937,6.077,7.136,6.077,11.61V79.372c0,4.474-2.72,6.532-6.077,4.594" transform="translate(-24.452 3.908)" fill="#aa1510"/>
              <path id="Path_875224" data-name="Path 875224" d="M30.824,36.275V53.762c0,4.477,2.72,9.676,6.082,11.615l1.89,1.1,12.385,7.151L61,79.288l9.356,5.4c1.663.959,3.172.936,4.268.129,1.118-.824,1.81-2.466,1.81-4.724V62.6c0-4.475-2.719-9.675-6.078-11.609l-4.383-2.528-12.9-7.449L51.7,40.227l-9.817-5.669-4.981-2.88c-2.746-1.579-5.06-.5-5.82,2.383a8.438,8.438,0,0,0-.252,1.9c-.01.1-.01.2-.01.311" transform="translate(-27.12 4.002)" fill="#f93d36"/>
              <path id="Path_875225" data-name="Path 875225" d="M32.426,39.165l9.3,39.062,9.354,5.4c1.665.958,3.17.938,4.268.128L46.692,47.4Z" transform="translate(-7.84 5.064)" fill="#ff5046"/>
              <path id="Path_875226" data-name="Path 875226" d="M53.184,34.062,60.9,66.47,73.281,73.62,63.989,34.559,59,31.681c-2.743-1.583-5.059-.5-5.819,2.382" transform="translate(-49.219 4.002)" fill="#ff5046"/>
              <path id="Path_875227" data-name="Path 875227" d="M36.407,63.208l6.4,3.7v2.16l-6.4-3.7Z" transform="translate(0.201 8.172)" fill="#ffd8a5"/>
              <path id="Path_875228" data-name="Path 875228" d="M35.559,69.223l6.149,3.549v1.173L35.559,70.4Z" transform="translate(2.257 8.95)" fill="#ffd8a5"/>
              <path id="Path_875229" data-name="Path 875229" d="M42.349,65.007l6.727,3.884v1.173L42.349,66.18Z" transform="translate(-12.779 8.405)" fill="#ffd8a5"/>
              <path id="Path_875230" data-name="Path 875230" d="M44.257,58.675l6.4,3.7v2.16l-6.4-3.7Z" transform="translate(-16.516 7.586)" fill="#ffd8a5"/>
              <path id="Path_875231" data-name="Path 875231" d="M52.108,54.143l6.4,3.7V60l-6.4-3.7Z" transform="translate(-33.232 7)" fill="#ffd8a5"/>
              <path id="Path_875232" data-name="Path 875232" d="M59.959,49.61l6.4,3.7v2.16l-6.4-3.7Z" transform="translate(-49.948 6.414)" fill="#ffd8a5"/>
              <path id="Path_875233" data-name="Path 875233" d="M63.517,39.787l2.94,1.7c1.177.679,2.13-.042,2.13-1.61a5.1,5.1,0,0,0-2.13-4.071l-2.94-1.7c-1.177-.679-2.13.042-2.13,1.611a5.1,5.1,0,0,0,2.13,4.07" transform="translate(-53.788 4.377)" fill="#4aa9e3"/>
              <path id="Path_875234" data-name="Path 875234" d="M61.8,41.52l1.491.861c1.177.679,2.13-.042,2.13-1.61a5.1,5.1,0,0,0-2.13-4.071L61.8,35.838c-1.177-.679-2.13.042-2.13,1.612a5.1,5.1,0,0,0,2.13,4.07" transform="translate(-48.679 4.601)" fill="#f2f9fd"/>
              <path id="Path_875235" data-name="Path 875235" d="M34.847,62.521l5.16,2.979c.7.407,1.275-.025,1.275-.964v-2.1A3.053,3.053,0,0,0,40.007,60l-5.16-2.979c-.7-.407-1.276.025-1.276.964v2.1a3.054,3.054,0,0,0,1.276,2.437" transform="translate(4.929 7.353)" fill="#ffe53b"/>
              <path id="Path_875236" data-name="Path 875236" d="M35.831,58.363v-.855l.242.139V58.5l2.562,1.479v-.856l.242.139V61l2.4,1.389v.277l-2.4-1.389v1.479l2.4,1.388v.278l-2.4-1.389v1.733l-.242-.139V63.77l-2.562-1.479v.856l-.242-.14V61.273l-2.261-1.3v-.278L35.831,61V59.518L33.57,58.213v-.277l2.261,1.305Zm.242,3.05v.6l2.562,1.479V62.015l-2.562-1.479Zm0-2.033v.877l2.562,1.48V60.259L36.073,58.78Z" transform="translate(4.931 7.435)" fill="#bd7806"/>
              <g id="Group_1100482" data-name="Group 1100482" transform="translate(3.713 34.952)" style="mix-blend-mode: multiply;isolation: isolate">
                <g id="Group_1100481" data-name="Group 1100481">
                  <g id="Group_1100480" data-name="Group 1100480" clip-path="url(#clip-path-9)">
                    <path id="Path_875237" data-name="Path 875237" d="M51.759,34.061c.759-2.883,3.074-3.962,5.82-2.383l4.981,2.88,9.818,5.669,1.371.791v5.75L69.2,45.741l-2.377-.879-3.354-1.246-2.7-1a49.169,49.169,0,0,1-5.212-3.013l-4.051-3.642a8.435,8.435,0,0,1,.253-1.9" transform="translate(-51.506 -30.95)" fill="#a17c83"/>
                  </g>
                </g>
              </g>
              <path id="Path_875238" data-name="Path 875238" d="M53.592,10.9V30.626L59,35.49A49.372,49.372,0,0,0,64.211,38.5l8.429,3.121,4.552-2.655L74.059,20.957c-1.614-1.073.439,1.875-1.42.943l-8.429-4.867L59,14.024Z" transform="translate(-53.591 1.41)" fill="#edc02b"/>
              <path id="Path_875239" data-name="Path 875239" d="M59.729,10.9v4.259a98.578,98.578,0,0,0,4.344,17.962q.412,1.093.784,2.114l.28.252A49.371,49.371,0,0,0,70.348,38.5L76.4,40.744q-.517-1.433-1.109-3.011c-3.021-7.99-4.462-18.778-4.462-18.778s-.667-1.057-1.933-2.762l-3.757-2.169Z" transform="translate(-59.728 1.41)" fill="#fbd635"/>
              <path id="Path_875240" data-name="Path 875240" d="M76.672,33.79,76.2,22.423s-6.376-2.521-7.835-3.151a32.084,32.084,0,0,1-5.493-3.207A73.47,73.47,0,0,1,57.622,10.9l19.05,11Z" transform="translate(-57.622 1.41)" fill="#fdff75"/>
              <path id="Path_875241" data-name="Path 875241" d="M53.591,11.207,59,16.074a49.754,49.754,0,0,0,5.211,3.008L72.642,22.2,75.6,20.481l1.591-.928-1.266-1.141-4.142-3.727q-1.575-1.047-3.312-2.007c-.618-.343-1.254-.679-1.9-1.005L63.71,10.614,58.142,8.552Z" transform="translate(-53.59 1.106)" fill="#ffe53b"/>
              <path id="Path_875242" data-name="Path 875242" d="M58.143,38.015V18.292l-4.551,2.654V40.669Z" transform="translate(-34.542 2.365)" fill="#c07506"/>
              <path id="Path_875243" data-name="Path 875243" d="M53.591,17.283l.268,2.068h3.647l1.592-.928-1.266-1.139Z" transform="translate(-35.495 2.235)" fill="#dbae27"/>
              <path id="Path_875244" data-name="Path 875244" d="M61.313,10.377l.27,2.065H71.721c-.618-.344-1.255-.68-1.9-1.005l-2.861-1.06Z" transform="translate(-56.839 1.342)" fill="#dbae27"/>
              <path id="Path_875245" data-name="Path 875245" d="M56.47,12.662v-5.3a6.438,6.438,0,0,1,9.657-5.575l.657.379a13.611,13.611,0,0,1,6.787,11.755V20.4h0a.927.927,0,0,1-.544.75,2.883,2.883,0,0,1-2.608,0,.906.906,0,0,1-.535-.754V13.923a9.914,9.914,0,0,0-4.943-8.561l-.657-.379a2.751,2.751,0,0,0-4.126,2.382v5.3a.923.923,0,0,1-.544.759,2.884,2.884,0,0,1-2.61,0,.9.9,0,0,1-.533-.77" transform="translate(-53.22 0.119)" fill="#edc02b"/>
              <path id="Path_875246" data-name="Path 875246" d="M66.584,20.4h0V13.923A13.61,13.61,0,0,0,59.8,2.168l-.657-.379A6.441,6.441,0,0,0,56.47.943a6.386,6.386,0,0,1,3.767.846l.657.379a13.61,13.61,0,0,1,6.787,11.755V20.4h0a.928.928,0,0,1-.544.751,2.224,2.224,0,0,1-.553.217Z" transform="translate(-47.331 0.119)" fill="#c07506"/>
              <path id="Path_875247" data-name="Path 875247" d="M67.114,8.467c0-3.575,2.736-4.1,2.473-3.947A2.72,2.72,0,0,0,68.212,6.9v5.3h0a.922.922,0,0,1-.543.759,2.242,2.242,0,0,1-.553.217Z" transform="translate(-61.275 0.582)" fill="#c07506"/>
              <path id="Path_875248" data-name="Path 875248" d="M63.534,9.008S63.956,4,66.8,2.73a6.62,6.62,0,0,1,5.493,0,5.519,5.519,0,0,0-5.045-1.049c-3.054,1.133-3.713,3.835-3.713,7.327" transform="translate(-59.918 0.191)" fill="#fdff75"/>
            </g>
          </g>
        </g>
      </g>
      <g id="Group_1102717" data-name="Group 1102717" transform="translate(29.006 -7.331)">
        <g id="Group_1102716" data-name="Group 1102716" transform="translate(0 0.001)" clip-path="url(#clip-path-10)">
          <g id="Group_1102689" data-name="Group 1102689" transform="translate(0 0)">
            <g id="Group_1102688" data-name="Group 1102688" clip-path="url(#clip-path-10)">
              <path id="Path_877497" data-name="Path 877497" d="M65.745,72.476c-.061.077-.118.153-.173.229.038-.056.079-.111.121-.165l.052-.064" transform="translate(-64.409 -16.914)" fill="#282c44"/>
            </g>
          </g>
          <g id="Group_1102691" data-name="Group 1102691" transform="translate(0 55.792)">
            <g id="Group_1102690" data-name="Group 1102690" clip-path="url(#clip-path-12)">
              <rect id="Rectangle_404771" data-name="Rectangle 404771" width="12.86" height="12.958" transform="translate(4.126 13.431) rotate(-131)" fill="url(#linear-gradient)"/>
            </g>
          </g>
          <g id="Group_1102693" data-name="Group 1102693" transform="translate(0 0)">
            <g id="Group_1102692" data-name="Group 1102692" clip-path="url(#clip-path-10)">
              <path id="Path_877499" data-name="Path 877499" d="M54.706,80.586h0c.016-.023.032-.047.047-.07-.015.024-.03.046-.046.069" transform="translate(-45.085 -18.79)" fill="#282c44"/>
            </g>
          </g>
          <g id="Group_1102695" data-name="Group 1102695" transform="translate(0.557 35.726)">
            <g id="Group_1102694" data-name="Group 1102694" clip-path="url(#clip-path-14)">
              <rect id="Rectangle_404773" data-name="Rectangle 404773" width="36.157" height="36.918" transform="matrix(-0.788, -0.616, 0.616, -0.788, 14.421, 39.794)" fill="url(#linear-gradient-2)"/>
            </g>
          </g>
          <g id="Group_1102697" data-name="Group 1102697" transform="translate(16.151 30.963)">
            <g id="Group_1102696" data-name="Group 1102696" clip-path="url(#clip-path-15)">
              <rect id="Rectangle_404774" data-name="Rectangle 404774" width="16.85" height="16.839" transform="matrix(-0.788, -0.616, 0.616, -0.788, 7.114, 17.806)" fill="url(#linear-gradient-3)"/>
            </g>
          </g>
          <g id="Group_1102699" data-name="Group 1102699" transform="translate(15.061 4.481)">
            <g id="Group_1102698" data-name="Group 1102698" clip-path="url(#clip-path-16)">
              <rect id="Rectangle_404775" data-name="Rectangle 404775" width="50.166" height="46.962" transform="translate(5.933 53.428) rotate(-120)" fill="url(#linear-gradient-4)"/>
            </g>
          </g>
          <g id="Group_1102707" data-name="Group 1102707" transform="translate(0 0)">
            <g id="Group_1102706" data-name="Group 1102706" clip-path="url(#clip-path-10)">
              <g id="Group_1102702" data-name="Group 1102702" transform="translate(16.627 5.262)" opacity="0.65">
                <g id="Group_1102701" data-name="Group 1102701">
                  <g id="Group_1102700" data-name="Group 1102700" clip-path="url(#clip-path-18)">
                    <path id="Path_877503" data-name="Path 877503" d="M28.852,13.785C22.081,6.3,13.732,4.6,9.746,10.088a9.182,9.182,0,0,0-.5.771c-3.474,5.947-1.187,16.763,5.393,24.764q.445.542.9,1.046c6.771,7.489,15.12,9.181,19.107,3.7q.269-.37.5-.771c3.474-5.948,1.187-16.762-5.393-24.764q-.445-.542-.9-1.046" transform="translate(-7.629 -6.863)" fill="#5191bb"/>
                  </g>
                </g>
              </g>
              <g id="Group_1102705" data-name="Group 1102705" transform="translate(18.248 8.614)" style="mix-blend-mode: screen;isolation: isolate">
                <g id="Group_1102704" data-name="Group 1102704">
                  <g id="Group_1102703" data-name="Group 1102703" clip-path="url(#clip-path-19)">
                    <path id="Path_877504" data-name="Path 877504" d="M13.722,13.478q.208-.355.447-.685a7.382,7.382,0,0,1,.846-.974c3.9-1.7,9.47.356,14.182,5.568q.406.45.8.93c5.847,7.111,7.88,16.722,4.792,22.008q-.208.355-.447.685a7.445,7.445,0,0,1-.847.976c-3.9,1.694-9.469-.356-14.181-5.569q-.406-.45-.8-.931c-5.847-7.111-7.88-16.722-4.792-22.008" transform="translate(-12.287 -11.236)" fill="#2b454e"/>
                  </g>
                </g>
              </g>
            </g>
          </g>
          <g id="Group_1102709" data-name="Group 1102709" transform="translate(17.683 0)">
            <g id="Group_1102708" data-name="Group 1102708" clip-path="url(#clip-path-20)">
              <rect id="Rectangle_404779" data-name="Rectangle 404779" width="56.018" height="51.927" transform="translate(8.481 59.787) rotate(-120)" fill="url(#linear-gradient-5)"/>
            </g>
          </g>
          <g id="Group_1102711" data-name="Group 1102711" transform="translate(0 0)">
            <g id="Group_1102710" data-name="Group 1102710" clip-path="url(#clip-path-10)">
              <path id="Path_877506" data-name="Path 877506" d="M8.628,7.386C3.672,14.2,6.27,27.776,14.432,37.7q.529.643,1.069,1.243c8,8.884,17.942,10.911,22.684,4.388,4.956-6.818,2.357-20.391-5.8-30.318q-.529-.642-1.069-1.242C23.312,2.89,13.37.863,8.628,7.386m7.219,28.37c-6.579-8-8.867-18.817-5.393-24.764a9.059,9.059,0,0,1,.5-.771c3.986-5.483,12.336-3.793,19.067,3.654.343.381.643.729.94,1.09,6.579,8,8.867,18.817,5.392,24.764a9.182,9.182,0,0,1-.5.771c-3.987,5.484-12.335,3.793-19.067-3.654-.343-.381-.643-.729-.94-1.09" transform="translate(6.22 -0.829)" fill="#dbd3e2"/>
            </g>
          </g>
          <g id="Group_1102713" data-name="Group 1102713" transform="translate(14.668 5.977)">
            <g id="Group_1102712" data-name="Group 1102712" clip-path="url(#clip-path-22)">
              <rect id="Rectangle_404781" data-name="Rectangle 404781" width="32.852" height="39.326" transform="translate(-1.468 -2.07)" fill="url(#linear-gradient-6)"/>
            </g>
          </g>
          <g id="Group_1102715" data-name="Group 1102715" transform="translate(12.334 2.725)">
            <g id="Group_1102714" data-name="Group 1102714" clip-path="url(#clip-path-23)">
              <rect id="Rectangle_404782" data-name="Rectangle 404782" width="39.469" height="46.303" transform="translate(-2.443 -0.001)" fill="url(#linear-gradient-7)"/>
            </g>
          </g>
        </g>
      </g>
    </g>
  </g>
</svg>
