<svg xmlns="http://www.w3.org/2000/svg" xmlns:xlink="http://www.w3.org/1999/xlink" width="160.617" height="93.186" viewBox="0 0 160.617 93.186">
  <defs>
    <clipPath id="clip-path">
      <rect id="Rectangle_403232" data-name="Rectangle 403232" width="160.617" height="93.186" fill="#61dfe4"/>
    </clipPath>
  </defs>
  <g id="banner-principal-decorativo-2" transform="translate(0 -0.001)">
    <g id="Group_1100096" data-name="Group 1100096" transform="translate(0 0.001)" clip-path="url(#clip-path)">
      <path id="Path_873771" data-name="Path 873771" d="M80.311,93.187a24.377,24.377,0,0,1-11.927-2.85L5.1,53.8C1.81,51.9,0,49.341,0,46.591s1.81-5.309,5.1-7.205L68.38,2.848c6.579-3.8,17.279-3.8,23.858,0l63.285,36.54c3.286,1.9,5.1,4.455,5.1,7.205s-1.81,5.309-5.1,7.207L92.24,90.337a24.384,24.384,0,0,1-11.929,2.85m0-92.094A23.266,23.266,0,0,0,68.935,3.808L5.651,40.344c-2.93,1.693-4.541,3.911-4.541,6.247s1.611,4.556,4.541,6.247l63.287,36.54C75.206,93,85.413,93,91.685,89.379L154.968,52.84c2.93-1.691,4.541-3.909,4.541-6.247s-1.611-4.556-4.541-6.247L91.683,3.808A23.266,23.266,0,0,0,80.309,1.093" transform="translate(0 -0.001)" fill="#61dfe4"/>
    </g>
  </g>
</svg>
