<svg xmlns="http://www.w3.org/2000/svg" xmlns:xlink="http://www.w3.org/1999/xlink" width="400" height="214" viewBox="0 0 400 214">
  <defs>
    <clipPath id="clip-path">
      <rect id="Rectangle_404793" data-name="Rectangle 404793" width="398.013" height="213.333" fill="none"/>
    </clipPath>
    <clipPath id="clip-path-2">
      <rect id="Rectangle_404792" data-name="Rectangle 404792" width="398.013" height="213.334" fill="none"/>
    </clipPath>
    <clipPath id="clip-path-3">
      <rect id="Rectangle_404791" data-name="Rectangle 404791" width="90.831" height="28.711" fill="none"/>
    </clipPath>
  </defs>
  <g id="img10" transform="translate(-285 -4021)">
    <rect id="Rectangle_403847" data-name="Rectangle 403847" width="400" height="214" transform="translate(285 4021)" fill="none"/>
    <g id="Group_1102736" data-name="Group 1102736" transform="translate(286 4021)">
      <g id="Group_1102735" data-name="Group 1102735" transform="translate(0 0)" clip-path="url(#clip-path)">
        <g id="Group_1102734" data-name="Group 1102734" transform="translate(0 0)">
          <g id="Group_1102733" data-name="Group 1102733" clip-path="url(#clip-path-2)">
            <path id="Path_877528" data-name="Path 877528" d="M174.783,212.56s-47.257-33.937-25.722-78.226,60.514,23.31,87.684-39.2S270-15.238,342.33,4.5s42.68,71.546,80.535,76.749,67.765,23.965,50.417,64.533S499,212.995,499,212.995Z" transform="translate(-122.214 0.002)" fill="#cbdcff"/>
            <path id="Path_877529" data-name="Path 877529" d="M602.692,1356.46s-1.6-4.177-21.963-5.3-39.305-10.134-72.894-8.826-61.459,9.513-99.693,7-62.174.69-70.75,3.218-44.067-.593-46.689,4.038Z" transform="translate(-247.691 -1143.611)" fill="#a8d29f"/>
            <path id="Path_877530" data-name="Path 877530" d="M1205.53,640.061l-9.314,110.746s-.976,6.713,4.018,6.725c8.21.02,40.865,0,40.865,0s-6.179-1.4-6.1-4.542c.088-3.706,10.886-113.977,10.886-113.977Z" transform="translate(-1024.848 -544.464)" fill="#4a75cb"/>
            <path id="Path_877531" data-name="Path 877531" d="M1222.722,743.951c-1.615,0-32.8.1-40.8,0-3.485-.043-4.1-3.1-4.125-5.075a9.9,9.9,0,0,1,.106-1.648l.242-2.878.617-7.336.545-6.482.7-8.329.59-7.03,6.618-78.692,40.351-1.047s-4.548,46.148-7.764,79.739c-.359,3.743-.7,7.331-1.017,10.681q-.154,1.6-.3,3.133c-.3,3.179-.571,6.1-.808,8.674-.125,1.358-.24,2.62-.345,3.776-.41,4.53-.651,7.423-.654,7.973a4.668,4.668,0,0,0,.078.9c.662,3.529,5.354,3.645,5.961,3.645" transform="translate(-1003.821 -532.893)" fill="#afcdfb"/>
            <path id="Path_877532" data-name="Path 877532" d="M752.35,238.8H558.625l22.687,91.13,3.106,12.48,10.567,42.446H791.3Z" transform="translate(-475.937 -203.467)" fill="#afcdfb"/>
            <path id="Path_877533" data-name="Path 877533" d="M1888.547,238.8l-3.144,1.048,35.325,148.179,4.18-3.17Z" transform="translate(-1805.859 -203.466)" fill="#4a75cb"/>
            <path id="Path_877534" data-name="Path 877534" d="M558.63,1229.1h195.1l5.388-3.17H562.811Z" transform="translate(-443.762 -1044.545)" fill="#4a75cb"/>
            <rect id="Rectangle_404790" data-name="Rectangle 404790" width="42.243" height="2.008" transform="translate(183.382 211.102)" fill="#4a75cb"/>
            <path id="Path_877535" data-name="Path 877535" d="M1278.151,1243.034l-.218,1.535-40.258,8.133.291-6.608.814-3.81Z" transform="translate(-1063.265 -1058.475)" fill="#4a75cb"/>
            <path id="Path_877536" data-name="Path 877536" d="M1254.543,1354.432c-1.615,0-32.966.056-40.961-.047-3.485-.043-4.1-3.1-4.125-5.075l39.54-7.439c-.41,4.53-.651,7.423-.654,7.973a4.66,4.66,0,0,0,.078.9c.662,3.529,5.516,3.692,6.122,3.692" transform="translate(-1035.482 -1143.327)" fill="#699dee"/>
            <g id="Group_1102732" data-name="Group 1102732" transform="translate(111.901 152.679)" opacity="0.2">
              <g id="Group_1102731" data-name="Group 1102731">
                <g id="Group_1102730" data-name="Group 1102730" clip-path="url(#clip-path-3)">
                  <path id="Path_877537" data-name="Path 877537" d="M1410.647,1031.908l-83.685,28.694-7.147-28.711Z" transform="translate(-1319.815 -1031.891)" fill="#699dee"/>
                </g>
              </g>
            </g>
            <path id="Path_877538" data-name="Path 877538" d="M804.025,238.8H610.3l29.2,117.346,195.828.037Z" transform="translate(-527.613 -203.466)" fill="#699dee"/>
            <path id="Path_877539" data-name="Path 877539" d="M1196.7,1102.416a6.638,6.638,0,0,0-6.226-5.212,4.171,4.171,0,0,0-4.2,5.212,6.639,6.639,0,0,0,6.226,5.212,4.171,4.171,0,0,0,4.2-5.212" transform="translate(-974.292 -934.861)" fill="#4a75cb"/>
            <path id="Path_877540" data-name="Path 877540" d="M879.161,387.3H697.777l-20.541-81.83-1.575-6.275-1.344-5.353-3.15-12.551h178.77l3.46,12.551,1.476,5.353,1.73,6.275Z" transform="translate(-580.454 -239.675)" fill="#fff"/>
            <path id="Path_877541" data-name="Path 877541" d="M1024.071,281.3H845.3l3.15,12.551h179.08Z" transform="translate(-754.588 -239.674)" fill="#afcdfb"/>
            <path id="Path_877542" data-name="Path 877542" d="M2006.622,309.026a1.185,1.185,0,0,0-1.178,1.569,2.143,2.143,0,0,0,1.96,1.569,1.185,1.185,0,0,0,1.178-1.569,2.143,2.143,0,0,0-1.96-1.569" transform="translate(-1907.336 -263.302)" fill="#e9f3fe"/>
            <path id="Path_877543" data-name="Path 877543" d="M1971.388,309.026a1.185,1.185,0,0,0-1.178,1.569,2.143,2.143,0,0,0,1.96,1.569,1.186,1.186,0,0,0,1.178-1.569,2.143,2.143,0,0,0-1.96-1.569" transform="translate(-1866.889 -263.302)" fill="#e9f3fe"/>
            <path id="Path_877544" data-name="Path 877544" d="M1935.41,310.595a2.143,2.143,0,0,0-1.96-1.569,1.186,1.186,0,0,0-1.178,1.569,2.144,2.144,0,0,0,1.96,1.569,1.186,1.186,0,0,0,1.178-1.569" transform="translate(-1823.338 -263.302)" fill="#e9f3fe"/>
            <path id="Path_877545" data-name="Path 877545" d="M1489.1,861.315A8.105,8.105,0,1,1,1481,869.42a8.105,8.105,0,0,1,8.105-8.105" transform="translate(-1318.325 -733.874)" fill="#aed3ff"/>
            <path id="Path_877546" data-name="Path 877546" d="M1625.985,885.494h13.427a.885.885,0,1,1,0,1.769h-13.427a.885.885,0,0,1,0-1.769" transform="translate(-1482.735 -754.476)" fill="#599dad"/>
            <path id="Path_877547" data-name="Path 877547" d="M1625.985,910.115h13.427a.885.885,0,1,1,0,1.769h-13.427a.885.885,0,0,1,0-1.769" transform="translate(-1482.735 -775.454)" fill="#599dad"/>
            <path id="Path_877548" data-name="Path 877548" d="M1625.985,934.737h13.427a.885.885,0,1,1,0,1.77h-13.427a.885.885,0,0,1,0-1.77" transform="translate(-1482.735 -796.433)" fill="#599dad"/>
            <path id="Path_877549" data-name="Path 877549" d="M1493.045,872.565h-7.421v-7.421a7.421,7.421,0,0,1,7.421,7.421" transform="translate(-1314.845 -737.137)" fill="#86d1cd"/>
            <path id="Path_877550" data-name="Path 877550" d="M1485.624,916.914h14.842a7.421,7.421,0,0,1-14.842,0" transform="translate(-1322.266 -781.247)" fill="#aed3ff"/>
            <path id="Path_877551" data-name="Path 877551" d="M1497.5,889.514h4.027a.417.417,0,1,1,0,.833H1497.5a.417.417,0,1,1,0-.833" transform="translate(-1325.436 -757.901)" fill="#599dad"/>
            <path id="Path_877552" data-name="Path 877552" d="M1497.5,899.761h.917a.417.417,0,1,1,0,.833h-.917a.417.417,0,0,1,0-.833" transform="translate(-1322.326 -766.632)" fill="#599dad"/>
            <path id="Path_877553" data-name="Path 877553" d="M1537.909,929.175h4.028a.417.417,0,0,1,0,.833h-4.028a.417.417,0,1,1,0-.833" transform="translate(-1371.827 -791.694)" fill="#599dad"/>
            <path id="Path_877554" data-name="Path 877554" d="M1537.908,939.422h.917a.417.417,0,1,1,0,.833h-.917a.417.417,0,0,1,0-.833" transform="translate(-1368.717 -800.425)" fill="#599dad"/>
            <path id="Path_877555" data-name="Path 877555" d="M1185.958,869.421a8.105,8.105,0,1,0-8.105,8.105,8.105,8.105,0,0,0,8.105-8.105" transform="translate(-961.021 -733.875)" fill="#86d1cd"/>
            <path id="Path_877556" data-name="Path 877556" d="M1328.162,887.263h-13.427a.885.885,0,1,1,0-1.77h13.427a.885.885,0,0,1,0,1.77" transform="translate(-1125.431 -754.475)" fill="#599dad"/>
            <path id="Path_877557" data-name="Path 877557" d="M1314.734,910.115h13.427a.885.885,0,1,1,0,1.769h-13.427a.885.885,0,1,1,0-1.769" transform="translate(-1125.43 -775.454)" fill="#599dad"/>
            <path id="Path_877558" data-name="Path 877558" d="M1314.734,934.737h13.427a.885.885,0,1,1,0,1.77h-13.427a.885.885,0,1,1,0-1.77" transform="translate(-1125.43 -796.433)" fill="#599dad"/>
            <path id="Path_877559" data-name="Path 877559" d="M1178.354,916.44l7.42-.094c0,.031,0,.063,0,.094a7.422,7.422,0,0,1-11.4,6.263Z" transform="translate(-961.522 -780.763)" fill="#aed3ff"/>
            <path id="Path_877560" data-name="Path 877560" d="M1196.756,932.777h4.028a.417.417,0,0,1,0,.833h-4.028a.417.417,0,1,1,0-.833" transform="translate(-980.197 -794.763)" fill="#599dad"/>
            <path id="Path_877561" data-name="Path 877561" d="M1196.756,943.024h.917a.417.417,0,0,1,0,.833h-.917a.417.417,0,1,1,0-.833" transform="translate(-977.087 -803.494)" fill="#599dad"/>
            <path id="Path_877562" data-name="Path 877562" d="M872.006,869.421a8.105,8.105,0,1,0-8.105,8.105,8.105,8.105,0,0,0,8.105-8.105" transform="translate(-600.617 -733.875)" fill="#aed3ff"/>
            <path id="Path_877563" data-name="Path 877563" d="M867.842,865.944a7.421,7.421,0,0,1,3.562,13.932c-1.189-2.2-3.562-6.511-3.562-6.511l-3.514,6.537a7.421,7.421,0,0,1,3.514-13.958" transform="translate(-604.558 -737.818)" fill="#86d1cd"/>
            <path id="Path_877564" data-name="Path 877564" d="M1000.784,885.494h13.427a.885.885,0,1,1,0,1.769h-13.427a.885.885,0,0,1,0-1.769" transform="translate(-765.028 -754.476)" fill="#599dad"/>
            <path id="Path_877565" data-name="Path 877565" d="M1000.784,910.115h13.427a.885.885,0,1,1,0,1.769h-13.427a.885.885,0,0,1,0-1.769" transform="translate(-765.028 -775.454)" fill="#599dad"/>
            <path id="Path_877566" data-name="Path 877566" d="M1000.784,934.737h13.427a.885.885,0,1,1,0,1.77h-13.427a.885.885,0,0,1,0-1.77" transform="translate(-765.028 -796.433)" fill="#599dad"/>
            <path id="Path_877567" data-name="Path 877567" d="M882.8,892.141h4.027a.417.417,0,0,1,0,.833H882.8a.417.417,0,1,1,0-.833" transform="translate(-619.794 -760.139)" fill="#599dad"/>
            <path id="Path_877568" data-name="Path 877568" d="M882.8,902.389h.917a.417.417,0,0,1,0,.833H882.8a.417.417,0,0,1,0-.833" transform="translate(-616.684 -768.871)" fill="#599dad"/>
            <path id="Path_877569" data-name="Path 877569" d="M1334.017,529.655h-67.645a3.015,3.015,0,0,1-2.928-2.3l-10.764-43.881a3.015,3.015,0,0,1,2.928-3.733h67.434a3.015,3.015,0,0,1,2.925,2.284l10.975,43.881a3.015,3.015,0,0,1-2.925,3.747" transform="translate(-1124.354 -408.76)" fill="#d2e4ff"/>
            <path id="Path_877570" data-name="Path 877570" d="M1266.862,673.276s10.6-8.125,20.045-1.022,22.194.63,27.812,0c9.766-1.095,18.458,2.2,21.7,5.816l2.716,10.869h-68.425Z" transform="translate(-1128.564 -570.306)" fill="#86d1cd"/>
            <path id="Path_877571" data-name="Path 877571" d="M1702.194,550.731h-.527l-4.163-16.914h.527Z" transform="translate(-1555.344 -454.833)" fill="#fff"/>
            <path id="Path_877572" data-name="Path 877572" d="M1550.1,599.771h-.528l-4.19-16.931h.527Z" transform="translate(-1380.744 -496.603)" fill="#fff"/>
            <path id="Path_877573" data-name="Path 877573" d="M1412.091,573.908h-.528l-4.212-16.922h.527Z" transform="translate(-1222.31 -474.573)" fill="#fff"/>
            <path id="Path_877574" data-name="Path 877574" d="M1683.828,546.279h-4.041a.6.6,0,0,1-.548-.44.334.334,0,0,1,.331-.439h4.041a.6.6,0,0,1,.547.439.333.333,0,0,1-.331.44" transform="translate(-1534.617 -464.702)" fill="#fff"/>
            <path id="Path_877575" data-name="Path 877575" d="M1681.19,556.974h-4.042a.6.6,0,0,1-.548-.44.334.334,0,0,1,.331-.44h4.041a.6.6,0,0,1,.547.44.334.334,0,0,1-.331.44" transform="translate(-1531.589 -473.815)" fill="#fff"/>
            <path id="Path_877576" data-name="Path 877576" d="M1531.641,604.532H1527.6a.6.6,0,0,1-.549-.44.334.334,0,0,1,.331-.44h4.043a.6.6,0,0,1,.549.44.333.333,0,0,1-.33.44" transform="translate(-1359.912 -514.335)" fill="#fff"/>
            <path id="Path_877577" data-name="Path 877577" d="M1529.043,615.018H1525a.6.6,0,0,1-.549-.44.334.334,0,0,1,.331-.44h4.044a.6.6,0,0,1,.549.44.334.334,0,0,1-.33.44" transform="translate(-1356.929 -523.27)" fill="#fff"/>
            <path id="Path_877578" data-name="Path 877578" d="M1395.653,561.43h-4.042a.6.6,0,0,1-.549-.44.333.333,0,0,1,.33-.44h4.042a.6.6,0,0,1,.549.44.333.333,0,0,1-.33.44" transform="translate(-1203.803 -477.611)" fill="#fff"/>
            <path id="Path_877579" data-name="Path 877579" d="M1393.042,571.909H1389a.6.6,0,0,1-.549-.44.333.333,0,0,1,.33-.44h4.042a.6.6,0,0,1,.549.44.333.333,0,0,1-.33.44" transform="translate(-1200.805 -486.539)" fill="#fff"/>
            <path id="Path_877580" data-name="Path 877580" d="M904.033,565.262H893.4l-11.016-43.728h10.339Z" transform="translate(-636.579 -444.368)" fill="#86d1cd"/>
            <path id="Path_877581" data-name="Path 877581" d="M992.486,634.227H981.857l-7.92-31.752h10.629Z" transform="translate(-738.577 -513.332)" fill="#86d1cd"/>
            <path id="Path_877582" data-name="Path 877582" d="M1089.26,517.227H1078.63l-13.145-52.07h10.629Z" transform="translate(-848.896 -396.332)" fill="#86d1cd"/>
            <path id="Path_877583" data-name="Path 877583" d="M1173.115,499.873a2.5,2.5,0,1,0-2.5-2.5,2.5,2.5,0,0,0,2.5,2.5m0-4.031a1.532,1.532,0,1,1-1.532,1.532,1.534,1.534,0,0,1,1.532-1.532" transform="translate(-950.806 -421.652)" fill="#2b478b"/>
            <path id="Path_877584" data-name="Path 877584" d="M1284.922,451.771a.484.484,0,0,0,.342-.826l-7.795-7.795h-85.555a.484.484,0,0,0,0,.968h85.154l7.511,7.511a.482.482,0,0,0,.342.142" transform="translate(-1063.678 -377.581)" fill="#2b478b"/>
            <path id="Path_877585" data-name="Path 877585" d="M1261.226,399.315H1342.1a2.685,2.685,0,1,0,0-5.37h-80.877a2.685,2.685,0,1,0,0,5.37" transform="translate(-1132.989 -335.656)" fill="#86d1cd"/>
            <path id="Path_877586" data-name="Path 877586" d="M407.542,1344.071l-1.888,7.952-2.828-.016-.1-7.936Z" transform="translate(-69.116 -1145.202)" fill="#e49963"/>
            <path id="Path_877587" data-name="Path 877587" d="M570.966,1340.334l-5.372,7.614-2.094-2.688,3.233-5.971Z" transform="translate(-256.329 -1141.126)" fill="#e49963"/>
            <path id="Path_877588" data-name="Path 877588" d="M298.7,632.723a5.478,5.478,0,0,1,2.965-.567,1.386,1.386,0,0,0-.625-.3,4.6,4.6,0,0,1,1.64.428c7.059-2.72,8.168,7.674,8.02,10.088s2.372,3.2,6.045,5.105c7.007,3.63,7.623,8.491,7.623,8.491-.054.032-.112.069-.172.11-.348-.589-1.063-1.7-1.667-1.862a25.058,25.058,0,0,1,.971,2.365c-2.067,1.573-5.934,5.057-8.63,7.527a3.961,3.961,0,0,0-.183-1.53l-.333,2.005c-1.442,1.326-2.437,2.259-2.437,2.259.178-1.951-8.825-12.249-13.523-15.333a13.577,13.577,0,0,1-1.58-4.891,12.838,12.838,0,0,0,.961,4.425c-3.978-3.661-1.662-16.854.926-18.324" transform="translate(29.905 -538.35)" fill="#163560"/>
            <path id="Path_877589" data-name="Path 877589" d="M424.353,725.81a6.509,6.509,0,0,0,3.992.729A5.181,5.181,0,0,0,431,723.989c-.687-.136-.885-1.08-.87-5.134l-.31.061L424.6,719.95s.119,1.643.122,3.19c0,1.3-.075,2.531-.373,2.67" transform="translate(-95.777 -612.493)" fill="#e49963"/>
            <path id="Path_877590" data-name="Path 877590" d="M435.217,642.068a4.172,4.172,0,0,0-5.807-.14,22.633,22.633,0,0,1,5.807.14" transform="translate(-100.739 -545.993)" fill="#e58638"/>
            <path id="Path_877591" data-name="Path 877591" d="M432.334,720.3s.119,1.643.122,3.19c2.92-.082,4.464-2.747,5.1-4.223Z" transform="translate(-103.508 -612.845)" fill="#d68d5d"/>
            <path id="Path_877592" data-name="Path 877592" d="M424.606,653.676a15.348,15.348,0,0,0,1.9-4.486c.262-1.476-.49-6.948-5.989-6.16a7.472,7.472,0,0,0-3.1,1.171c-1.194.806-2.917,2.547-.99,7.322l.5,1.613Z" transform="translate(-90.021 -547.821)" fill="#163560"/>
            <path id="Path_877593" data-name="Path 877593" d="M407.975,1020.825l2.767.084,2.995.092a59.108,59.108,0,0,0,10.8-20.046q.136-.43.287-.871c2.123-6.191,6.525-13.963,8.845-21,.369-1.12.7-2.175,1-3.173.1-.32.188-.634.276-.943a74.6,74.6,0,0,0,2.661-14.006l-16.751.134a312.24,312.24,0,0,1-12.874,59.728" transform="translate(-99.951 -818.778)" fill="#2b478b"/>
            <path id="Path_877594" data-name="Path 877594" d="M361.883,771.807c.042,7.971-1.169,11.391-1.169,11.391a22.509,22.509,0,0,0,15.7.962c.1-.032,7.058-1.62,7.058-1.62-.143-.323-1.411-5.694-1.55-5.99-1.8-3.865-3.166-5.559-3.38-6.748a25.269,25.269,0,0,1-.207-6.678,53.583,53.583,0,0,1,2.067-10.487,54.523,54.523,0,0,1-6.915-2.364,5.4,5.4,0,0,1-3.73,1.384c-1.7-.038-2.249-.765-2.161-1.558-1.81,1.007-3.253,1.958-3.253,1.958-1.538,2.671-4.657,5.265-4.883,9.363-.056,1.008,2.426,10.164,2.427,10.387" transform="translate(-38.64 -639.114)" fill="#e7f1fd"/>
            <path id="Path_877595" data-name="Path 877595" d="M481.146,759.965c2.459-2.872,8.83-9.1,15.4-9.866l-5.673,11.052a4.89,4.89,0,0,1-2,3,32.918,32.918,0,0,1-9.347,3.9,49.114,49.114,0,0,1-8.387-5.095c-1.52-1.114-4.192-5.363-4.192-5.363l.721-2.411s4.536,2.536,6.156,3.267c.923.417,3.049,1.412,4.547,2.116a2.338,2.338,0,0,0,2.77-.6" transform="translate(-167.628 -639.114)" fill="#86d1cd"/>
            <path id="Path_877596" data-name="Path 877596" d="M429.242,669.013s6.91.114,6.915-4.19.9-7.188-3.512-7.443-5.271,1.387-5.622,2.823.422,8.67,2.219,8.81" transform="translate(-101.392 -560.09)" fill="#e49963"/>
            <path id="Path_877597" data-name="Path 877597" d="M411.925,651.518s1.892,5.05,4.8,5.8,4.163-.031,4.163-.031a14.464,14.464,0,0,1-1.728-5.1s-5.8-3.064-7.23-.66" transform="translate(-83.819 -554.335)" fill="#163560"/>
            <path id="Path_877598" data-name="Path 877598" d="M472.8,654.847a6.1,6.1,0,0,0-1.757,2.223c-.345,1.1-.5,3.353-1.157,3.276,0,0-1.425-3.432.177-5.374,1.7-2.059,2.738-.125,2.738-.125" transform="translate(-144.224 -557.254)" fill="#163560"/>
            <path id="Path_877599" data-name="Path 877599" d="M668.137,766.8a4.313,4.313,0,0,0-4.834-3.015c-.443.139-1.737.655-.91,2.04.61,1.021.874.494,1.833,1.867a3.056,3.056,0,0,0,3.19,1.518Z" transform="translate(-368.092 -650.734)" fill="#e49963"/>
            <path id="Path_877600" data-name="Path 877600" d="M415.768,1394.811a7.66,7.66,0,0,0,.36,3.26s.463,2.109-1.614,2.148-2.587-.157-2.352-1.45.683-3.53.683-3.53Z" transform="translate(-79.135 -1188.434)" fill="#e49963"/>
            <path id="Path_877601" data-name="Path 877601" d="M410.885,1419.584s.044.028.13.069h4.066a.95.95,0,0,0,.115-.069,10.2,10.2,0,0,0-.149-3.049c-2.353,2.156-3.824-.054-3.824-.054a11.029,11.029,0,0,0-.338,3.1" transform="translate(-78.054 -1206.898)" fill="#e58638"/>
            <path id="Path_877602" data-name="Path 877602" d="M594.716,1386.059a51.983,51.983,0,0,0,5.005-6.413l2.847,1.459-6.365,5.978-1.489-.2Z" transform="translate(-292.549 -1175.513)" fill="#e49963"/>
            <path id="Path_877603" data-name="Path 877603" d="M589.836,1396.668h5.24a7.446,7.446,0,0,0,1.562-2.422,2.567,2.567,0,0,1,1.734-1.159v3.54h1.087l1.03-3.763c.677-1.246.054-2.376-.424-3.36-.555,0-2.047.378-4.876,3.566a3.707,3.707,0,0,1-2.976,1.388.279.279,0,0,1-.042.022,3.8,3.8,0,0,0-2.334,2.187" transform="translate(-290.046 -1183.912)" fill="#e58638"/>
            <path id="Path_877604" data-name="Path 877604" d="M477.218,750.1s-4,9.876-4.116,11.875-.47,32.685-.47,32.685.235,1.411-2.469.823a9.082,9.082,0,0,1-3.41-1.176s2.587-18.929,1.881-25.513,5.408-17.323,5.408-17.323Z" transform="translate(-148.266 -639.114)" fill="#86d1cd"/>
            <path id="Path_877605" data-name="Path 877605" d="M425.958,1090.787l2.995.092a59.109,59.109,0,0,0,10.8-20.046q.136-.431.287-.871c2.123-6.192,6.525-13.963,8.845-21,.369-1.12.7-2.175,1-3.173.1-.32.188-.634.276-.943l-2.467-1.872s-7.406,11.993-9.7,23.279c-1.992,9.8-9.968,21.6-12.032,24.533" transform="translate(-115.167 -888.657)" fill="#233862"/>
            <path id="Path_877606" data-name="Path 877606" d="M359.31,1048.978c-.042,5.488.235,18.107.95,23.33h2.653c1.466,0,2.2-.021,2.2-.021,1.793-9.083,3.069-16.6,4-23.074.762-5.314,1.439-9.87,1.96-13.793.524-3.947.889-7.252,1.019-10.044.02-.44.035-.868.043-1.283s.011-.823.007-1.217l-14.473-1.411c.182,9.616,1.67,24.322,1.646,27.512" transform="translate(-27.046 -870.329)" fill="#2b478b"/>
            <path id="Path_877607" data-name="Path 877607" d="M358.017,1094.829c1.466,0,2.2-.021,2.2-.021,1.793-9.083,3.069-16.6,4-23.074.762-5.314,1.439-9.87,1.96-13.793.524-3.947.889-7.252,1.019-10.044l-5.311,3.124s3.39,1.2,2.1,10.249-4.16,32.277-5.96,33.559" transform="translate(-22.15 -892.85)" fill="#233862"/>
            <path id="Path_877608" data-name="Path 877608" d="M341.121,795.232s1.019,3.684,4.547,3.213a42.515,42.515,0,0,0,8.543-2.587s-1.507-4.763-3.381-11.02c-2.269-7.575-5.078-17.341-6.4-23.5a38.109,38.109,0,0,1-.72-4.2l-2.926-5.678s-4.363,9.793-4.6,12.262,4.938,31.51,4.938,31.51" transform="translate(-5.938 -640.273)" fill="#86d1cd"/>
            <path id="Path_877609" data-name="Path 877609" d="M372.8,763.354l-3.862-11.894a59.6,59.6,0,0,1,7.327,2.685s1.53,1.973,2.477,6.525c0,0,1,10.929-1.233,14.926,0,0-7.054,1.411-18.342-2.469v-2.587s12.345.647,14.873.941Z" transform="translate(-34.1 -640.273)" fill="#e49963"/>
            <path id="Path_877610" data-name="Path 877610" d="M359.032,825.774c.158,4,1.1,11.758,9.485,15.911.022.01.045.022.067.032-2.269-7.575-5.078-17.341-6.4-23.5-1.54,2.3-3.236,5.357-3.15,7.557" transform="translate(-23.693 -697.153)" fill="#599dad"/>
            <path id="Path_877611" data-name="Path 877611" d="M357.051,751.46s7.159.5,8.884,4.345,2.273,16.617.078,20.38c0,0-3.022.86-8.366-.139l-.2-.038s-1.7-4.174-.176-5c0,0,4.507.235,4.037-1.254s-4.259-18.3-4.259-18.3" transform="translate(-22.208 -640.273)" fill="#86d1cd"/>
            <path id="Path_877612" data-name="Path 877612" d="M490.6,856.827a6.175,6.175,0,0,1-1.193-2.409,2.619,2.619,0,0,0-2.558-2.342c-1.7-.223-2.427-.247-2.423.231a12.668,12.668,0,0,0,3.823,5.814c2.436,1.995,2.352-1.294,2.352-1.294" transform="translate(-164.261 -725.872)" fill="#e49963"/>
            <path id="Path_877613" data-name="Path 877613" d="M721.73,626.033a.324.324,0,0,1-.169-.048l-45.278-27.532a.326.326,0,0,1,.339-.557L721.9,625.428a.326.326,0,0,1-.17.6" transform="translate(-424.083 -509.39)" fill="#163560"/>
            <path id="Path_877614" data-name="Path 877614" d="M2008.179,1002.555a21.969,21.969,0,0,0,.763,4.207,15.062,15.062,0,0,0,2.823,3.227c.724.42-.442-2.817-.295-3.447s.6,1.15.915,1.191.237-1.56.248-2.142-1.553-2.022-2.1-3.263-2.351.227-2.351.227" transform="translate(-1911.754 -853.598)" fill="#ffb27d"/>
            <path id="Path_877615" data-name="Path 877615" d="M1704.478,750.949l.813-1.534s-.4-2.734,3.022-4.463a1.671,1.671,0,0,1,1.958.511c.651.941-1.24.771-1.139,2.379a2.959,2.959,0,0,1-1.725,3.077l-.879,1.018Z" transform="translate(-1564.59 -634.62)" fill="#ffb27d"/>
            <path id="Path_877616" data-name="Path 877616" d="M1722.316,758.381a27.133,27.133,0,0,0,19.128,19.154c5.053,1.473,16.532-15.163,16.532-15.163s-.4-1.534-2.932-1.181c0,0-11.177,7.4-12.584,8.2-1.249.713-9.46-9.169-13.2-10.763a9.554,9.554,0,0,0-6.941-.25" transform="translate(-1614.798 -645.72)" fill="#e58638"/>
            <path id="Path_877617" data-name="Path 877617" d="M2046.437,1369.809s-2.008,1.833-1.616,3.135,2.2,2.17,2.449,3.761,1.224,2.459,2.106,2.459h4.2s.648-1.12-.918-1.458-2.158-2.208-2.06-3.944a30.6,30.6,0,0,0-.147-4.051l-3.33-.772Z" transform="translate(-1958.243 -1166.392)" fill="#233862"/>
            <path id="Path_877618" data-name="Path 877618" d="M1847.735,1397.546s-.36,4.171.521,4.6l11.282-.023s0-1.3-1.812-1.592-5-1.35-5.534-3.714-4.457.723-4.457.723" transform="translate(-1734.906 -1189.389)" fill="#233862"/>
            <path id="Path_877619" data-name="Path 877619" d="M1879.686,1002.843s-.595,7.31-1.294,16.1c-.951,11.937-2.094,26.6-2.207,29.378-.2,4.823-.98,12.539-.98,12.539s-1.86,1.833-5.583,1.061a124.53,124.53,0,0,1-4.266-22.668l-.044-.576c-.882-11.864-2.253-36.845-2.253-36.845Z" transform="translate(-1757.331 -853.599)" fill="#2b478b"/>
            <path id="Path_877620" data-name="Path 877620" d="M1879.686,1002.843s-.595,7.31-1.294,16.1l-13.036,20.31-.044-.576c-.882-11.864-2.253-36.845-2.253-36.845Z" transform="translate(-1757.331 -853.599)" fill="#233862"/>
            <path id="Path_877621" data-name="Path 877621" d="M1912.868,987.048s-10.726,26.476-17.779,38.918-9.257,15.914-9.257,15.914-4.04-1.592-4.408-2.677c0,0,2.7-24.02,7.42-29.876,2.669-3.309,5.8-13.238,5.951-16.71s.955-10.344.955-10.344Z" transform="translate(-1793.231 -836.936)" fill="#2b478b"/>
            <path id="Path_877622" data-name="Path 877622" d="M1899.479,688.144s7.257,3.5,11.441,2.2a9.873,9.873,0,0,0-2.832-2.266c.145-.84.257-1.569.322-2.187a20.186,20.186,0,0,0,.177-2.234l-2.8-2.2-2.655-2.107a10.7,10.7,0,0,1-3.653,8.794" transform="translate(-1793.954 -578.833)" fill="#ffb27d"/>
            <path id="Path_877623" data-name="Path 877623" d="M1858.982,766.688c-.016.444.934.951,1.352,1.141a29.645,29.645,0,0,0,9.285,2.63c3.878.4,8.464-.476,10.041-.444a.656.656,0,0,0,.435-.174c.113-.079.193-4.753.113-10.632,0-.238,0-.476-.016-.713v-.079c-.032-2.3-.113-4.706-.225-7.114a79.044,79.044,0,0,0-1.352-13.215,14.327,14.327,0,0,0-4.538-7.13l-1.448-1.268a6.959,6.959,0,0,1-4.506-.538c-1.673-.808-3.476-1.68-3.766-1.458-2.188,1.6-3.669,5.2-4.457,9.792a50.956,50.956,0,0,0-.66,8.714c0,1.141.032,2.314.1,3.47a109.4,109.4,0,0,1-.225,14.878c-.064.919-.113,1.632-.129,2.139" transform="translate(-1757.282 -619.994)" fill="#ee9849"/>
            <path id="Path_877624" data-name="Path 877624" d="M1916.268,822.99c25.413-.051,4.687-27.576,4.687-27.576l-4.117-1.337a79.933,79.933,0,0,0-.477,9.31c0,1.219.023,2.472.07,3.707.279,6.7,0,12.527-.163,15.9" transform="translate(-1814.439 -676.585)" fill="#e58638"/>
            <path id="Path_877625" data-name="Path 877625" d="M1915.248,693.751a9.618,9.618,0,0,0,5.326,4.278,20.212,20.212,0,0,0,.177-2.234l-2.8-2.2Z" transform="translate(-1806.119 -590.969)" fill="#ed985f"/>
            <path id="Path_877626" data-name="Path 877626" d="M1905.77,642.88s-6.923,1.132-7.573-3.123-1.981-6.977,2.412-7.879,5.5.593,6.07,1.962.876,8.637-.908,9.041" transform="translate(-1789.861 -538.15)" fill="#ffb27d"/>
            <path id="Path_877627" data-name="Path 877627" d="M1882.9,616.478c-.062-.072-.207-.13-.53-.148a1.314,1.314,0,0,1,.6-.17,1.624,1.624,0,0,1,1.078-1.436.968.968,0,0,0-.469.7c.894-.918,2.81-1.587,8.116-1.168,6.993.552,4.688,5.029,3.783,5.563s-3.184-.93-4.87-.8-2.008,2.571-2.58,2.906-.347-.257-1.121-.607-.848.933-.625,1.767-.84,1.934-.84,1.934l-1.075-1.158c-1.075-1.158-2.088-6.061-1.6-7.106l.13-.28" transform="translate(-1777.078 -523.26)" fill="#2c3a64"/>
            <path id="Path_877628" data-name="Path 877628" d="M1957.482,727.658s-4.38,2.074-6.481,5.263c-3.258,4.946-7.034,22.974-7.1,24.643s2.756,13.455,2.756,13.455,2.866-.189,3.606-1.635c0,0-.573-12.11-.21-12.888S1962,740.252,1960.7,736.952s-3.214-9.294-3.214-9.294" transform="translate(-1850.405 -619.993)" fill="#ee9849"/>
            <path id="Path_877629" data-name="Path 877629" d="M1724.559,759.256s-.238-.941.415-1.364,1.253-1.573,1.528-1.417c.57.323-.312,1.326-.151,2.578.057.438-.964,1.587-1.792.2" transform="translate(-1583.843 -644.534)" fill="#ffb27d"/>
            <path id="Path_877630" data-name="Path 877630" d="M397.659,1437.747H.355a.354.354,0,1,1,0-.709h397.3a.354.354,0,1,1,0,.709" transform="translate(0 -1224.413)" fill="#283250"/>
          </g>
        </g>
      </g>
    </g>
  </g>
</svg>
