<svg xmlns="http://www.w3.org/2000/svg" xmlns:xlink="http://www.w3.org/1999/xlink" width="123" height="123" viewBox="0 0 123 123">
  <defs>
    <clipPath id="clip-path">
      <rect id="Rectangle_403416" data-name="Rectangle 403416" width="121.687" height="91.902" fill="#d1f3f5"/>
    </clipPath>
    <clipPath id="clip-path-2">
      <path id="Path_875268" data-name="Path 875268" d="M1.868,23.675,0,24.271V36.6c0,2.356,1.37,4.712,4.109,6.507l46.8,30.644c5.479,3.587,14.394,3.587,19.874,0l46.8-30.643c2.7-1.765,4.064-4.075,4.108-6.393,0-.1,0-.206-.006-.309l.008,0V24.386l-2.933-1.849c-.828,5.676-6.718,9.416-11.642,10.194L73.581,54.97,58.946,60.964,12.235,33.623l1.08-.708c-3.991-2.116-6.143-6.953-8.3-11.367Z" transform="translate(0 -21.549)" fill="#61dfe4"/>
    </clipPath>
    <clipPath id="clip-path-3">
      <rect id="Rectangle_403409" data-name="Rectangle 403409" width="121.687" height="91.903" fill="none"/>
    </clipPath>
    <clipPath id="clip-path-4">
      <rect id="Rectangle_403408" data-name="Rectangle 403408" width="60.844" height="53.75" fill="none"/>
    </clipPath>
    <clipPath id="clip-path-5">
      <path id="Path_875270" data-name="Path 875270" d="M42.339,9.4,3.311,35.8c2.159,4.413,4.311,9.251,8.3,11.367L55.958,18.128a6.31,6.31,0,0,1,6.364,0L105.894,46.66l-.483.323c4.924-.778,10.813-4.518,11.642-10.194L68.153,5.942,53.925,1.678Z" transform="translate(-3.311 -1.678)" fill="#61dfe4"/>
    </clipPath>
    <clipPath id="clip-path-7">
      <rect id="Rectangle_403411" data-name="Rectangle 403411" width="55.83" height="45.491" fill="none"/>
    </clipPath>
    <clipPath id="clip-path-8">
      <path id="Path_875272" data-name="Path 875272" d="M57.662,72.571l-46.8-30.644a2.309,2.309,0,0,1,0-4.17L57.66,7.115a6.306,6.306,0,0,1,6.364,0l46.8,30.644a2.308,2.308,0,0,1,0,4.168L64.025,72.57a6.308,6.308,0,0,1-6.364,0M60.664,0A18.357,18.357,0,0,0,50.9,2.691L4.109,33.335c-5.478,3.587-5.478,9.426,0,13.013l46.8,30.644c5.479,3.589,14.394,3.589,19.874,0l46.8-30.644c5.478-3.586,5.478-9.426,0-13.013L70.779,2.691A18.357,18.357,0,0,0,61.02,0Z" transform="translate(-0.001)" fill="#98baff"/>
    </clipPath>
    <clipPath id="clip-path-10">
      <path id="Path_875275" data-name="Path 875275" d="M55.706,72.924,8.909,42.282c-2.483-1.628-2.483-4.274,0-5.9L55.7,5.738a8.927,8.927,0,0,1,9.009,0l46.8,30.644c2.483,1.626,2.483,4.273,0,5.9l-46.8,30.643a8.927,8.927,0,0,1-9.007,0M51.592,3.046,4.8,33.689C.046,36.8.047,41.863,4.8,44.973L51.6,75.619c4.75,3.108,12.479,3.108,17.232,0l46.8-30.646c4.75-3.108,4.75-8.171,0-11.282L68.824,3.046a17.071,17.071,0,0,0-17.232,0" transform="translate(-1.234 -0.712)" fill="#98baff"/>
    </clipPath>
    <clipPath id="clip-path-11">
      <rect id="Rectángulo_47325" data-name="Rectángulo 47325" width="65.588" height="70.277" fill="#0c2d70"/>
    </clipPath>
    <clipPath id="clip-path-12">
      <rect id="Rectangle_403406" data-name="Rectangle 403406" width="41.824" height="24.245" fill="#fff"/>
    </clipPath>
    <clipPath id="clip-path-13">
      <rect id="Rectangle_403518" data-name="Rectangle 403518" width="102.859" height="104.692" fill="#fff"/>
    </clipPath>
    <clipPath id="clip-path-14">
      <rect id="Rectangle_403232" data-name="Rectangle 403232" width="123" height="80.836" fill="#61dfe4"/>
    </clipPath>
    <clipPath id="clip-path-15">
      <rect id="Rectangle_404832" data-name="Rectangle 404832" width="58.807" height="58.569" fill="#0c2d70"/>
    </clipPath>
  </defs>
  <g id="img11" transform="translate(-4462.841 9760.745)">
    <g id="Group_1101518" data-name="Group 1101518" transform="translate(4462.841 -9760.745)">
      <g id="Group_1100744" data-name="Group 1100744" transform="translate(0.004 31.098)">
        <g id="Group_1100514" data-name="Group 1100514" clip-path="url(#clip-path)">
          <g id="Group_1100495" data-name="Group 1100495" transform="translate(0 37.005)">
            <g id="Group_1100494" data-name="Group 1100494" clip-path="url(#clip-path-2)">
              <path id="Path_875399" data-name="Path 875399" d="M7.554,6.012,121.412,0l-7.554,134.342L0,140.354Z" transform="translate(-30.284 45.381) rotate(-60)" fill="#61dfe4"/>
            </g>
          </g>
          <g id="Group_1100500" data-name="Group 1100500" transform="translate(0 0)">
            <g id="Group_1100499" data-name="Group 1100499" clip-path="url(#clip-path-3)">
              <g id="Group_1100498" data-name="Group 1100498" transform="translate(60.843 38.152)" opacity="0.3">
                <g id="Group_1100497" data-name="Group 1100497">
                  <g id="Group_1100496" data-name="Group 1100496" clip-path="url(#clip-path-4)">
                    <path id="Path_875269" data-name="Path 875269" d="M86.455,32.25,52.923,54.49,40.185,59.707V75.968a18.428,18.428,0,0,0,9.938-2.691l46.8-30.644c2.7-1.765,4.064-4.073,4.108-6.392,0-.1,0-.208-.006-.311l.008,0V23.908l-2.681-1.692h-.28c-.914,5.586-6.736,9.263-11.613,10.034" transform="translate(-40.185 -22.217)" fill="#0f054c"/>
                  </g>
                </g>
              </g>
            </g>
          </g>
          <g id="Group_1100502" data-name="Group 1100502" transform="translate(5.013 2.882)">
            <g id="Group_1100501" data-name="Group 1100501" clip-path="url(#clip-path-5)">
              <path id="Path_875400" data-name="Path 875400" d="M6.89,5.324,107.716,0l-6.89,122.535L0,127.859Z" transform="matrix(0.5, -0.866, 0.866, 0.5, -25.423, 37.422)" fill="#61dfe4"/>
            </g>
          </g>
          <g id="Group_1100507" data-name="Group 1100507" transform="translate(0 0)">
            <g id="Group_1100506" data-name="Group 1100506" clip-path="url(#clip-path-3)">
              <g id="Group_1100505" data-name="Group 1100505" transform="translate(5.013 2.881)" opacity="0.3">
                <g id="Group_1100504" data-name="Group 1100504">
                  <g id="Group_1100503" data-name="Group 1100503" clip-path="url(#clip-path-7)">
                    <path id="Path_875271" data-name="Path 875271" d="M59.141,3.241,53.925,1.677,42.339,9.4,3.311,35.8c2.159,4.413,4.309,9.253,8.3,11.368L55.958,18.128a5.908,5.908,0,0,1,3.183-.86Z" transform="translate(-3.311 -1.678)" fill="#0f054c"/>
                  </g>
                </g>
              </g>
            </g>
          </g>
          <g id="Group_1100509" data-name="Group 1100509" transform="translate(0.001)">
            <g id="Group_1100508" data-name="Group 1100508" clip-path="url(#clip-path-8)">
              <rect id="Rectangle_403413" data-name="Rectangle 403413" width="124.425" height="80.582" transform="translate(-1.369 0)" fill="#98baff"/>
            </g>
          </g>
          <g id="Group_1100511" data-name="Group 1100511" transform="translate(0 0)">
            <g id="Group_1100510" data-name="Group 1100510" clip-path="url(#clip-path-3)">
              <path id="Path_875273" data-name="Path 875273" d="M107.579,35.147,60.782,4.5a6.306,6.306,0,0,0-6.364,0L7.621,35.146a2.323,2.323,0,0,0-1.164,2.833,2.931,2.931,0,0,1,1.164-1.334L54.418,6a6.306,6.306,0,0,1,6.364,0l46.8,30.644a2.935,2.935,0,0,1,1.164,1.336,2.322,2.322,0,0,0-1.164-2.833" transform="translate(3.244 2.612)" fill="#fff"/>
              <path id="Path_875274" data-name="Path 875274" d="M117.577,29.4,70.78,60.039c-5.479,3.589-14.394,3.589-19.874,0L4.109,29.395A8.3,8.3,0,0,1,.049,23.637c-.321,2.6,1.03,5.272,4.061,7.257l46.8,30.644c5.479,3.587,14.394,3.587,19.874,0l46.8-30.644c3.03-1.983,4.38-4.655,4.059-7.255a8.3,8.3,0,0,1-4.059,5.758" transform="translate(0.001 16.954)" fill="#fff"/>
            </g>
          </g>
          <g id="Group_1100513" data-name="Group 1100513" transform="translate(1.868 1.223)">
            <g id="Group_1100512" data-name="Group 1100512" clip-path="url(#clip-path-10)">
              <rect id="Rectangle_403415" data-name="Rectangle 403415" width="120.326" height="78.015" transform="translate(-1.188 0)" fill="#98baff"/>
            </g>
          </g>
        </g>
      </g>
      <g id="Group_1100746" data-name="Group 1100746" transform="translate(24.709 10.596)">
        <g id="Group_1099618" data-name="Group 1099618" transform="translate(0 0)">
          <rect id="Rectangle_401104" data-name="Rectangle 401104" width="70.823" height="71.676" fill="none"/>
        </g>
        <g id="Grupo_156261" data-name="Grupo 156261" transform="translate(1.419 0.419)">
          <rect id="Rectángulo_47312" data-name="Rectángulo 47312" width="9.366" height="4.683" transform="translate(5.878 22.272)" fill="#0c2d70"/>
          <path id="Trazado_198297" data-name="Trazado 198297" d="M10.008,59.838h9.36l-4.683,5.853Z" transform="translate(-4.128 -24.68)" fill="#0c2d70"/>
          <g id="Grupo_156260" data-name="Grupo 156260" transform="translate(0 0)">
            <g id="Grupo_156259" data-name="Grupo 156259" clip-path="url(#clip-path-11)">
              <path id="Trazado_198298" data-name="Trazado 198298" d="M25.947,73.186a9.36,9.36,0,1,0,9.361-9.36,9.36,9.36,0,0,0-9.361,9.36m9.363,7.025a6.983,6.983,0,0,1-3.41-.887l3.974-4.967h6.356A7.029,7.029,0,0,1,35.31,80.21Zm6.925-8.2H36.484V66.268a7.035,7.035,0,0,1,5.749,5.748Zm-8.09-5.748v6.507l-4.063,5.08a7.008,7.008,0,0,1,4.063-11.589" transform="translate(-10.702 -26.324)" fill="#0c2d70"/>
              <rect id="Rectángulo_47313" data-name="Rectángulo 47313" width="2.342" height="2.342" transform="translate(15.245 58.566)" fill="#0c2d70"/>
              <rect id="Rectángulo_47314" data-name="Rectángulo 47314" width="14.049" height="2.342" transform="translate(19.929 58.566)" fill="#0c2d70"/>
              <rect id="Rectángulo_47315" data-name="Rectángulo 47315" width="18.732" height="2.342" transform="translate(15.245 63.25)" fill="#0c2d70"/>
              <rect id="Rectángulo_47316" data-name="Rectángulo 47316" width="2.342" height="2.342" transform="translate(41.002 58.566)" fill="#0c2d70"/>
              <rect id="Rectángulo_47317" data-name="Rectángulo 47317" width="14.049" height="2.342" transform="translate(45.686 58.566)" fill="#0c2d70"/>
              <rect id="Rectángulo_47318" data-name="Rectángulo 47318" width="18.732" height="2.342" transform="translate(41.002 63.25)" fill="#0c2d70"/>
              <rect id="Rectángulo_47319" data-name="Rectángulo 47319" width="2.342" height="2.342" transform="translate(43.343 11.733)" fill="#0c2d70"/>
              <rect id="Rectángulo_47320" data-name="Rectángulo 47320" width="11.708" height="2.342" transform="translate(48.027 11.733)" fill="#0c2d70"/>
              <rect id="Rectángulo_47321" data-name="Rectángulo 47321" width="16.391" height="2.342" transform="translate(43.343 16.416)" fill="#0c2d70"/>
              <rect id="Rectángulo_47322" data-name="Rectángulo 47322" width="2.342" height="2.342" transform="translate(43.343 24.612)" fill="#0c2d70"/>
              <rect id="Rectángulo_47323" data-name="Rectángulo 47323" width="11.708" height="2.342" transform="translate(48.027 24.612)" fill="#0c2d70"/>
              <rect id="Rectángulo_47324" data-name="Rectángulo 47324" width="16.391" height="2.342" transform="translate(43.343 29.295)" fill="#0c2d70"/>
              <path id="Trazado_198299" data-name="Trazado 198299" d="M72.951,82.552H87a1.17,1.17,0,0,0,1.17-1.171V72.02A1.17,1.17,0,0,0,87,70.849H83.489V65a1.17,1.17,0,0,0-1.17-1.171H77.635A1.17,1.17,0,0,0,76.464,65v3.509H72.952a1.17,1.17,0,0,0-1.17,1.171V81.389a1.17,1.17,0,0,0,1.169,1.164M85.83,80.218H83.489V73.19H85.83ZM78.808,66.167h2.342V80.218H78.808ZM74.125,70.85h2.341v9.36H74.124Z" transform="translate(-29.607 -26.324)" fill="#0c2d70"/>
              <path id="Trazado_198300" data-name="Trazado 198300" d="M43.061,27.348H57.111a1.17,1.17,0,0,0,1.17-1.17V19.152a1.17,1.17,0,0,0-1.17-1.17H43.061a1.17,1.17,0,0,0-1.171,1.17v7.025a1.17,1.17,0,0,0,1.169,1.171Zm1.17-7.026H55.944v4.685H44.232Z" transform="translate(-17.278 -7.416)" fill="#0c2d70"/>
              <path id="Trazado_198301" data-name="Trazado 198301" d="M43.061,49.272H57.111a1.17,1.17,0,0,0,1.17-1.17V41.078a1.17,1.17,0,0,0-1.17-1.171H43.061a1.17,1.17,0,0,0-1.171,1.171V48.1a1.17,1.17,0,0,0,1.171,1.17m1.17-7.024H55.944v4.683H44.232Z" transform="translate(-17.278 -16.459)" fill="#0c2d70"/>
              <path id="Trazado_198302" data-name="Trazado 198302" d="M4.705,19.321V35.152a1.172,1.172,0,0,0,.256.732l4.426,5.535V69.107a1.171,1.171,0,0,0,1.171,1.17H64.417a1.17,1.17,0,0,0,1.17-1.17V5.882a1.17,1.17,0,0,0-1.17-1.171h-45.1A10.538,10.538,0,1,0,4.705,19.321m9.361,6.469H7.052V23.445H14.07Zm-3.5,13.347L8.315,36.324h4.5ZM7.051,28.131H9.392v5.854H7.051Zm7.026,5.854H11.734V28.131h2.342ZM63.249,7.055V67.937H11.734V41.42l4.426-5.533a1.172,1.172,0,0,0,.256-.732V19.321A10.476,10.476,0,0,0,20.485,7.055ZM10.564,2.37a8.2,8.2,0,0,1,4.1,15.286,1.17,1.17,0,0,0-.587,1.013v2.437H11.734V14.566L14.9,11.394,13.249,9.738l-2.686,2.685L7.878,9.738,6.223,11.393l3.169,3.17V21.1H7.051V18.667a1.168,1.168,0,0,0-.586-1.013,8.2,8.2,0,0,1,4.1-15.286Z" transform="translate(0 0)" fill="#0c2d70"/>
            </g>
          </g>
        </g>
      </g>
      <g id="Group_1100747" data-name="Group 1100747" transform="translate(0 98.755)">
        <g id="Group_1100491" data-name="Group 1100491" transform="translate(0 0)" clip-path="url(#clip-path-12)">
          <path id="Path_875261" data-name="Path 875261" d="M32.76,22.99a1.256,1.256,0,1,1,1.256,1.255A1.256,1.256,0,0,1,32.76,22.99m-5.3,1.255a1.255,1.255,0,1,0-1.256-1.255,1.255,1.255,0,0,0,1.256,1.255m-6.552,0a1.255,1.255,0,1,0-1.256-1.255,1.255,1.255,0,0,0,1.256,1.255m-6.552,0A1.255,1.255,0,1,0,13.1,22.99a1.255,1.255,0,0,0,1.256,1.255m-6.552,0A1.255,1.255,0,1,0,6.552,22.99a1.255,1.255,0,0,0,1.256,1.255m-6.552,0A1.255,1.255,0,1,0,0,22.99a1.255,1.255,0,0,0,1.256,1.255m32.76-7.123a1.256,1.256,0,1,0-1.256-1.256,1.256,1.256,0,0,0,1.256,1.256m-6.552,0a1.256,1.256,0,1,0-1.256-1.256,1.256,1.256,0,0,0,1.256,1.256m-6.552,0a1.256,1.256,0,1,0-1.256-1.256,1.256,1.256,0,0,0,1.256,1.256m-6.552,0A1.256,1.256,0,1,0,13.1,15.867a1.256,1.256,0,0,0,1.256,1.256m-6.552,0a1.256,1.256,0,1,0-1.256-1.256,1.256,1.256,0,0,0,1.256,1.256m-6.552,0A1.256,1.256,0,1,0,0,15.867a1.256,1.256,0,0,0,1.256,1.256M34.016,10A1.256,1.256,0,1,0,32.76,8.744,1.256,1.256,0,0,0,34.016,10m5.3,12.99a1.256,1.256,0,1,1,1.256,1.255,1.256,1.256,0,0,1-1.256-1.255m1.256-5.868a1.256,1.256,0,1,0-1.256-1.256,1.256,1.256,0,0,0,1.256,1.256m0-7.123a1.256,1.256,0,1,0-1.256-1.256A1.256,1.256,0,0,0,40.568,10m-13.1,0a1.256,1.256,0,1,0-1.256-1.256A1.256,1.256,0,0,0,27.464,10m-6.552,0a1.256,1.256,0,1,0-1.256-1.256A1.256,1.256,0,0,0,20.912,10M14.36,10A1.256,1.256,0,1,0,13.1,8.744,1.256,1.256,0,0,0,14.36,10M7.808,10A1.256,1.256,0,1,0,6.552,8.744,1.256,1.256,0,0,0,7.808,10M1.256,10A1.256,1.256,0,1,0,0,8.744,1.256,1.256,0,0,0,1.256,10m32.76-7.489A1.256,1.256,0,1,0,32.76,1.256a1.256,1.256,0,0,0,1.256,1.256m6.552,0a1.256,1.256,0,1,0-1.256-1.256,1.256,1.256,0,0,0,1.256,1.256m-13.1,0a1.256,1.256,0,1,0-1.256-1.256,1.256,1.256,0,0,0,1.256,1.256m-6.552,0a1.256,1.256,0,1,0-1.256-1.256,1.256,1.256,0,0,0,1.256,1.256m-6.552,0A1.256,1.256,0,1,0,13.1,1.256,1.256,1.256,0,0,0,14.36,2.511m-6.552,0A1.256,1.256,0,1,0,6.552,1.256,1.256,1.256,0,0,0,7.808,2.511m-6.552,0A1.256,1.256,0,1,0,0,1.256,1.256,1.256,0,0,0,1.256,2.511" transform="translate(0 0)" fill="#fff"/>
        </g>
      </g>
      <g id="Group_1100749" data-name="Group 1100749" transform="translate(9.418)">
        <g id="Group_1100748" data-name="Group 1100748" clip-path="url(#clip-path-13)">
          <path id="Path_875398" data-name="Path 875398" d="M10.682,0h81.5a10.785,10.785,0,0,1,10.678,10.888l-.134,62.524L57.973,102.864a12.616,12.616,0,0,1-13.084,0L-.2,73.333,0,10.888A10.784,10.784,0,0,1,10.682,0" transform="translate(-0.001 0)" fill="#fff"/>
        </g>
      </g>
      <g id="Group_1100745" data-name="Group 1100745" transform="translate(0 17.918)">
        <g id="Group_1100096" data-name="Group 1100096" transform="translate(0 0)" clip-path="url(#clip-path-14)">
          <path id="Path_873771" data-name="Path 873771" d="M61.5,80.838a16.933,16.933,0,0,1-9.134-2.472L3.9,46.669C1.386,45.023,0,42.8,0,40.417s1.386-4.606,3.9-6.25L52.365,2.47C57.4-.823,65.6-.823,70.635,2.47l48.464,31.7c2.517,1.645,3.9,3.865,3.9,6.25s-1.386,4.606-3.9,6.252L70.637,78.365A16.938,16.938,0,0,1,61.5,80.838m0-79.89A16.161,16.161,0,0,0,52.79,3.3L4.328,35C2.084,36.467.85,38.39.85,40.417s1.234,3.952,3.478,5.419l48.465,31.7c4.8,3.139,12.616,3.139,17.419,0l48.462-31.7c2.244-1.467,3.478-3.391,3.478-5.419s-1.234-3.952-3.478-5.419L70.21,3.3A16.161,16.161,0,0,0,61.5.948" transform="translate(0 -0.001)" fill="#61dfe4"/>
        </g>
      </g>
      <rect id="Rectangle_403516" data-name="Rectangle 403516" width="102.859" height="52.446" transform="translate(9.418 15.158)" fill="#fff"/>
    </g>
    <g id="Group_1101519" data-name="Group 1101519" transform="translate(4491.917 -9747.75)">
      <g id="Group_1099618-2" data-name="Group 1099618" transform="translate(0 0)">
        <rect id="Rectangle_401104-2" data-name="Rectangle 401104" width="64.848" height="65.629" transform="translate(0)" fill="none"/>
      </g>
      <g id="Group_1102757" data-name="Group 1102757" transform="translate(3.021 3)">
        <g id="Group_1102756" data-name="Group 1102756" clip-path="url(#clip-path-15)">
          <path id="Path_877878" data-name="Path 877878" d="M207.154,257.534a1.5,1.5,0,0,1,0-1.49,14.645,14.645,0,0,1,3.948-.19.981.981,0,0,1,0,1.871,14.657,14.657,0,0,1-3.948-.19" transform="translate(-174.585 -215.793)" fill="#0c2d70"/>
          <path id="Path_877879" data-name="Path 877879" d="M9.851,47.071c3.132.182,6.607-.572,9.492.91a8.375,8.375,0,0,1,4.273,6.833v3.519a8.17,8.17,0,0,1,11.575,0V54.814c0-3.461,3.537-7.743,7.117-7.743h6.648V43.864c0-.513,1.153-.989,1.557-.461,2.228,2.1,4.845,3.992,7.048,6.09.671.639,1.586,1.281.871,2.283L50.669,58.56c-.464.519-1.714.178-1.714-.462V54.892c-1.8.205-5.551-.853-5.795,1.791-.367,3.973.475,8.763-.006,12.663-.2,1.633-1.855,1.631-2.024.174.275-4.15-.354-8.738,0-12.835a4,4,0,0,1,3.226-3.657,35.61,35.61,0,0,1,5.765,0c1.119.159.749,1.672.946,2.487l5.078-4.6L50.99,46.445c-.011.77.158,2.3-.776,2.588-3.683.569-8.6-1.187-11.43,1.866-3.493,3.767.157,12.053-2.746,16.962-.152.257-.8.951-.691,1.106a14.048,14.048,0,0,1,6.542,5.582c.154.228.655,1.559.963,1.3a1.412,1.412,0,0,1,.228-.471c.389-.405.844-.883,1.257-1.252.277-.247,1.268-.8,1.312-1.034.019-.1-.509-1.339-.563-1.74-.99-7.316,10.727-7.658,9.643.183-.053.387-.639,1.5-.542,1.661.071.12,1.772,1.256,2.2,1.714,2.638,2.824,3.8,9.43-.1,11.637-1.757.994-7.729.877-9.921.728a7.219,7.219,0,0,1-2.262-.476v4.927a6.559,6.559,0,0,1-.783,1.876,3.9,3.9,0,0,1-1.964,1.321c-3.315.517-8.6-2.2-12.021-2.642-3.187.457-9.129,3.343-12.14,2.578a4.115,4.115,0,0,1-2.5-3.133V86.8a7.217,7.217,0,0,1-2.261.476c-2.192.149-8.164.265-9.921-.728-3.9-2.207-2.736-8.813-.1-11.637.427-.458,2.129-1.593,2.2-1.714.1-.165-.488-1.274-.542-1.661-.4-2.887,1.3-5.567,4.307-5.832a4.981,4.981,0,0,1,4.773,7.389,23.851,23.851,0,0,1,2.569,2.285c.209.219.224.732.551.374.235-.258.47-.952.7-1.3a13.967,13.967,0,0,1,6.479-5.489c.108-.155-.539-.849-.691-1.106-2.909-4.92.752-13.136-2.746-16.962-2.787-3.048-7.782-1.3-11.43-1.865-.98-.3-.762-1.777-.776-2.589L2.663,50.92l5.078,4.6c.2-.815-.172-2.328.946-2.487a35.065,35.065,0,0,1,5.9.023,3.989,3.989,0,0,1,3.094,3.788c.331,4.445-.267,9.29,0,13.779-.333,1.4-2.031,1.165-2.041-.321l-.07-14.164c-1.1-2.044-3.816-.992-5.718-1.243V58.1c0,.64-1.25.98-1.714.462L.376,51.776c-.716-1,.2-1.644.871-2.283,2.2-2.1,4.82-3.99,7.048-6.09.4-.529,1.557-.053,1.557.461Zm25.41,16.665A5.858,5.858,0,1,0,29.4,69.594a5.858,5.858,0,0,0,5.858-5.858M11.792,70.579A2.922,2.922,0,1,0,8.87,73.5a2.922,2.922,0,0,0,2.922-2.922m41.066,0A2.922,2.922,0,1,0,49.936,73.5a2.922,2.922,0,0,0,2.922-2.922M22.521,81.873c.246.856-.182,2.838,0,3.832l13.654-3.438c.172-.072.221-1.1,1.246-.917,1.007.179.58,1.041.817,1.542.075.159.762.558,1.015.862a4.011,4.011,0,0,1-1.241,6.1l-4.7,1.478c1.966.184,5.744,2.054,7.549,1.686a1.567,1.567,0,0,0,1.217-1.6,78.014,78.014,0,0,0-.01-10.329A12.853,12.853,0,0,0,36.8,71.97c-.6-.427-2.591-1.658-3.249-1.592-.212.021-1.407.71-1.964.858a8.044,8.044,0,0,1-5.425-.359c-.467-.176-.607-.543-1.177-.474-1.418.171-4.254,2.467-5.207,3.57-4.465,5.167-2.726,11.467-3.038,17.745.218,1.184,1.285,1.515,2.375,1.3,5.522-1.885,12.116-2.69,17.515-4.695a2.047,2.047,0,0,0-.582-4.035L20.836,88.18a.954.954,0,0,1-1.144-1.148c.079-.842.9-.728.958-.962.248-1.025-.82-5.573,1.36-4.628a1.681,1.681,0,0,1,.511.431M6.175,74.654C5.389,74.6,3.413,76.674,3,77.365c-1.4,2.322-1.869,7.482,1.77,7.872a56.664,56.664,0,0,0,8.291,0,3.909,3.909,0,0,0,1.487-.546c.324-.366.1-2.456.156-3.128.077-1,.666-2.8.345-3.635-.371-.966-2.286-3.065-3.306-3.254-.264-.049-1.144.528-1.567.639a5.138,5.138,0,0,1-2.636-.041c-.37-.1-1.287-.613-1.362-.618M55.937,84.4c1.447-1.447.881-5.275-.07-6.934a7.455,7.455,0,0,0-2.428-2.42c-1.16-.644-.988-.091-2.17.229a5.138,5.138,0,0,1-2.636.041c-.423-.111-1.3-.688-1.567-.639-.99.183-2.944,2.311-3.306,3.254-.321.836.268,2.632.345,3.635.066.855-.141,2.047,0,2.815.092.5,1.177.807,1.643.86a57.129,57.129,0,0,0,8.141.006,3.478,3.478,0,0,0,2.048-.845" transform="translate(0 -36.42)" fill="#0c2d70"/>
          <path id="Path_877880" data-name="Path 877880" d="M149.6,9.712c-.184.184.191,4.443-.032,5.208-.206.7-1.435.936-1.769.269a32.215,32.215,0,0,1-.069-4.623c-.011-.782-.377-1.434.033-2.3.374-.791,1.75-.469,2.462-.664-1.411-1.434-2.652-3.3-4.061-4.7-.171-.17-.358-.491-.628-.318L141.151,7.6c1.279.227,2.47-.267,2.658,1.407.205,1.827-.124,4.042-.033,5.911-.673,1.149-2,.694-2-.593V9.712h-3.206c-.383,0-.894-.888-.672-1.289L144.949.218a1.322,1.322,0,0,1,1.511.04l7.015,8.166c.222.4-.289,1.289-.672,1.289Z" transform="translate(-116.283 0)" fill="#0c2d70"/>
        </g>
      </g>
    </g>
  </g>
</svg>
