<svg xmlns="http://www.w3.org/2000/svg" xmlns:xlink="http://www.w3.org/1999/xlink" width="295" height="247" viewBox="0 0 295 247">
  <defs>
    <clipPath id="clip-path">
      <rect id="Rectangle_404858" data-name="Rectangle 404858" width="295" height="234.935" fill="none"/>
    </clipPath>
    <clipPath id="clip-path-2">
      <rect id="Rectangle_404842" data-name="Rectangle 404842" width="295" height="234.935" fill="#ffe9ca"/>
    </clipPath>
    <clipPath id="clip-path-3">
      <rect id="Rectangle_404839" data-name="Rectangle 404839" width="43.182" height="82.449" fill="none"/>
    </clipPath>
    <clipPath id="clip-path-4">
      <rect id="Rectangle_404840" data-name="Rectangle 404840" width="40.767" height="77.801" fill="none"/>
    </clipPath>
    <clipPath id="clip-path-5">
      <rect id="Rectangle_404841" data-name="Rectangle 404841" width="44.442" height="84.873" fill="none"/>
    </clipPath>
    <clipPath id="clip-path-7">
      <rect id="Rectangle_404843" data-name="Rectangle 404843" width="67.213" height="39.273" fill="none"/>
    </clipPath>
    <clipPath id="clip-path-9">
      <rect id="Rectangle_404845" data-name="Rectangle 404845" width="68.93" height="22.826" fill="none"/>
    </clipPath>
    <clipPath id="clip-path-10">
      <rect id="Rectangle_404846" data-name="Rectangle 404846" width="73.062" height="37.801" fill="none"/>
    </clipPath>
    <clipPath id="clip-path-11">
      <rect id="Rectangle_404847" data-name="Rectangle 404847" width="28.456" height="45.609" fill="none"/>
    </clipPath>
    <clipPath id="clip-path-12">
      <rect id="Rectangle_404852" data-name="Rectangle 404852" width="40.983" height="13.426" fill="none"/>
    </clipPath>
    <clipPath id="clip-path-13">
      <rect id="Rectangle_404853" data-name="Rectangle 404853" width="23.605" height="19.976" fill="none"/>
    </clipPath>
    <clipPath id="clip-path-14">
      <rect id="Rectangle_404854" data-name="Rectangle 404854" width="26.898" height="11.268" fill="none"/>
    </clipPath>
    <clipPath id="clip-path-15">
      <rect id="Rectangle_404856" data-name="Rectangle 404856" width="12.273" height="10.138" fill="none"/>
    </clipPath>
  </defs>
  <g id="img26" transform="translate(-180 -7255)">
    <rect id="Rectangle_404032" data-name="Rectangle 404032" width="295" height="247" transform="translate(180 7255)" fill="none"/>
    <g id="Group_1102811" data-name="Group 1102811" transform="translate(180 7261)">
      <g id="Group_1102810" data-name="Group 1102810" clip-path="url(#clip-path)">
        <g id="Group_1102781" data-name="Group 1102781">
          <g id="Group_1102780" data-name="Group 1102780" clip-path="url(#clip-path-2)">
            <path id="Path_877910" data-name="Path 877910" d="M94.217,178.007a11.594,11.594,0,0,1-10.211-.807c-4.155-2.465-6.88-7.115-9.262-11.395-3.121-5.613-6-10.347-11.432-13.306-3.916-2.133-8.085-3.324-11.812-6.82-4.336-4.067-6.384-9.793-7.054-14.561-.775-5.558.046-10.592-1.835-16.516a21.887,21.887,0,0,0-6.08-9.526c-2.149-2-4.455-3.666-6.591-5.687-6.893-6.519-9.089-15.639-5.526-19.806,2.248-4.9,8.548-5.893,15.519-1.021,5.578,3.9,8.678,10.083,12.655,15.646,4.3,6.02,8.934,8.441,14.382,10.57,3.707,1.446,7.651,2.849,11.237,6,3.607,3.169,5.81,7.444,7.6,11.591,2.191,5.066,4.116,11,8.745,14.96,2.482,2.119,5.206,3.368,7.669,5.593a25.587,25.587,0,0,1,4.372,5.271c6.6,10.416,3.936,19.548-1.269,24a33.3,33.3,0,0,1-11.107,5.81" transform="translate(-7.022 -23.284)" fill="#cedcfd"/>
            <path id="Path_877911" data-name="Path 877911" d="M41,90.419q8.834,12.69,17.784,25.3l-11.231-5.864c-.719-.375-1.191.793-.478,1.164l12.937,6.754a.571.571,0,0,0,.292.066q7.517,10.572,15.122,21.081l-20.2-6.642c-.766-.252-1.248.911-.478,1.164l21.556,7.09a.631.631,0,0,0,.3.022q7.046,9.741,14.177,19.419l-16.583-6.159c-.759-.282-1.238.882-.479,1.164l18.406,6.836q4.769,6.49,9.566,12.958L85.057,168.4c-.756-.29-1.235.875-.478,1.164l16.833,6.442a.593.593,0,0,0,.786-.371.677.677,0,0,0,.182.053q5.529,7.454,11.1,14.874c.488.648,1.477-.129.99-.776q-5.642-7.5-11.231-15.044A147.878,147.878,0,0,0,106.2,156.9a.63.63,0,0,0-1.249-.151,148.01,148.01,0,0,1-2.7,16.649q-4.467-6.028-8.913-12.069a.548.548,0,0,0-.381-.554l-.032-.012c-.14-.189-.277-.381-.416-.57q1.018-9.1,2.037-18.207a.63.63,0,0,0-1.249-.151q-.942,8.427-1.885,16.854-7.034-9.581-14.017-19.2l1.994-19.676a.63.63,0,0,0-1.249-.151q-.928,9.149-1.854,18.3-7.723-10.689-15.371-21.432a.588.588,0,0,0,.136-.312l1.111-9.436a.63.63,0,0,0-1.249-.151q-.5,4.25-1,8.5-9.018-12.7-17.92-25.487c-.464-.666-1.452.113-.99.776" transform="translate(-12.63 -27.616)" fill="#faedec"/>
            <path id="Path_877912" data-name="Path 877912" d="M71.7,251.254c-6.565-1.992-13.233-4-20.152-4.291s-14.243,1.359-19.182,5.795-6.734,12.009-2.92,17.263c4.533,6.244,14.122,6.9,22.351,7.137,11.51.331,24.457,1.754,31.473,10.049,3.595,4.249,5.086,9.8,9,13.8,6.7,6.853,18.455,7.215,28.226,4.885s18.953-6.8,28.976-7.91c11.182-1.238,22.307,1.81,33.446,3.276,38.308,5.041,77.127-5.707,100.582-33.832,3.451-4.139,6.676-9.484,4.5-14.274a18.166,18.166,0,0,0-17.071-10.113c-17.715.94-35.528,1.46-53.172-.173-15.783-1.461-31.186-5.219-46.85-7.495-37.131-5.4-63.634,4.643-99.213,15.882" transform="translate(-8.463 -72.252)" fill="#ffc168"/>
            <path id="Path_877913" data-name="Path 877913" d="M339.629,182.023c1.739-4.153,3.511-8.5,3.183-12.99-.3-4.16-.37-8.8-1.65-12.767a33.788,33.788,0,0,1-1.43-12.359c.779-13.062,6.3-12.523,8.38-11.87,2.044.641,3.269,2.567,3.9,5.883.507,2.667.6,15.507,4.4,13.012,4.394-2.889,2.2-15.968,2.262-20.45.1-6.7,1.686-14.1,5.978-19.412,2.116-2.619,5.484-4.82,8.7-3.818a7.79,7.79,0,0,1,4.295,4.03c2.815,5.379,1.762,11.586.352,17.205-.59,2.349-6.591,13.72-.484,11.76,1.459-.468,12.417-12.168,15.2-2.234.981,3.5-2.439,7.773-8.061,13.328-3.511,3.468-16.985,13.19-15.637,17.019s8.479-3.724,8.656,3.768c.1,4.2-4.846,8-8.271,10.114-1.629,1.008-3.454,1.689-5.014,2.8-1.851,1.319-3.928,4.142-2.029,6.284.829.936,2.2,1.255,3,2.218a3.559,3.559,0,0,1,.33,3.607,8.23,8.23,0,0,1-2.4,2.918c-6.207,5.269-14.7,7.28-22.83,6.936s-16.021-2.846-23.633-5.734" transform="translate(-97.883 -33.058)" fill="#a5b9f6"/>
            <g id="Group_1102773" data-name="Group 1102773" transform="translate(246.077 81.313)" opacity="0.25">
              <g id="Group_1102772" data-name="Group 1102772">
                <g id="Group_1102771" data-name="Group 1102771" clip-path="url(#clip-path-3)">
                  <path id="Path_877914" data-name="Path 877914" d="M383.97,118.164s-1.648,44.264-23.589,75.093" transform="translate(-357.414 -117.818)" fill="none" stroke="#fff" stroke-linecap="round" stroke-linejoin="round" stroke-width="1"/>
                  <path id="Path_877915" data-name="Path 877915" d="M407.1,156.5s-12.812,13.624-24.544,17.113" transform="translate(-364.265 -129.663)" fill="none" stroke="#fff" stroke-linecap="round" stroke-linejoin="round" stroke-width="1"/>
                  <path id="Path_877916" data-name="Path 877916" d="M360.1,151.475c.281,6.876,2.6,25.832,10.4,33.945" transform="translate(-357.328 -128.11)" fill="none" stroke="#fff" stroke-linecap="round" stroke-linejoin="round" stroke-width="1"/>
                  <path id="Path_877917" data-name="Path 877917" d="M387.416,204.481s-4.959,5.833-22.356,10.577" transform="translate(-358.859 -144.485)" fill="none" stroke="#fff" stroke-linecap="round" stroke-linejoin="round" stroke-width="1"/>
                  <path id="Path_877918" data-name="Path 877918" d="M374.352,234.5s-8.894,3.022-17.765-.5" transform="translate(-356.241 -153.605)" fill="none" stroke="#fff" stroke-linecap="round" stroke-linejoin="round" stroke-width="1"/>
                </g>
              </g>
            </g>
            <path id="Path_877919" data-name="Path 877919" d="M315.559,226.5H278.692c-7.193,0-6.026-8.531,13.987-4.735-4.91-2.245-4.939-5.249-4.522-6.052a3.121,3.121,0,0,1,2.612-1.139c2.546.218,4.478,1.779,6.708,3.025a14.32,14.32,0,0,1-6.379-12.251,5.087,5.087,0,0,1,1.3-3.638,5.381,5.381,0,0,1,4.338-1.39c2.7.536,7.665,5.045,9.644,6.959C296.3,198,292.458,183.384,298.914,180.05c10.868-5.613,19.079,26.184,19.079,26.184s-5.406-23.893,3.661-24.034,1.7,27.757,1.7,27.757" transform="translate(-84.854 -55.42)" fill="#a5b9f6"/>
            <path id="Path_877920" data-name="Path 877920" d="M50.226,205.341c-1.64-3.917-3.312-8.017-3-12.252.287-3.924.348-8.3,1.556-12.041a31.859,31.859,0,0,0,1.348-11.656c-.735-12.32-5.941-11.811-7.9-11.2-1.928.6-3.084,2.421-3.678,5.549-.478,2.516-.567,14.626-4.148,12.272-4.144-2.724-2.072-15.06-2.133-19.287-.091-6.322-1.591-13.3-5.639-18.308-2-2.471-5.173-4.546-8.2-3.6a7.346,7.346,0,0,0-4.051,3.8c-2.656,5.072-1.662,10.927-.332,16.227.556,2.216,6.216,12.941.456,11.092C13.122,165.5,2.786,154.463.157,163.834c-.926,3.3,2.3,7.331,7.6,12.57,3.312,3.271,16.019,12.44,14.749,16.052s-8-3.513-8.163,3.553c-.093,3.958,4.57,7.541,7.8,9.539,1.536.951,3.258,1.593,4.729,2.642,1.745,1.244,3.7,3.906,1.914,5.927-.782.882-2.079,1.183-2.832,2.092a3.357,3.357,0,0,0-.311,3.4,7.766,7.766,0,0,0,2.259,2.752c5.854,4.969,13.86,6.866,21.532,6.542s15.11-2.684,22.289-5.409" transform="translate(0 -41.58)" fill="#a5b9f6"/>
            <g id="Group_1102776" data-name="Group 1102776" transform="translate(5.395 99.936)" opacity="0.25">
              <g id="Group_1102775" data-name="Group 1102775">
                <g id="Group_1102774" data-name="Group 1102774" clip-path="url(#clip-path-4)">
                  <path id="Path_877921" data-name="Path 877921" d="M30.525,145.113s1.554,41.748,22.249,70.825" transform="translate(-14.825 -144.767)" fill="none" stroke="#fff" stroke-linecap="round" stroke-linejoin="round" stroke-width="1"/>
                  <path id="Path_877922" data-name="Path 877922" d="M8.306,181.273s12.084,12.849,23.148,16.14" transform="translate(-7.961 -155.939)" fill="none" stroke="#fff" stroke-linecap="round" stroke-linejoin="round" stroke-width="1"/>
                  <path id="Path_877923" data-name="Path 877923" d="M58.595,176.53c-.265,6.485-2.452,24.364-9.811,32.016" transform="translate(-20.466 -154.473)" fill="none" stroke="#fff" stroke-linecap="round" stroke-linejoin="round" stroke-width="1"/>
                  <path id="Path_877924" data-name="Path 877924" d="M27.8,226.523s4.677,5.5,21.085,9.975" transform="translate(-13.982 -169.918)" fill="none" stroke="#fff" stroke-linecap="round" stroke-linejoin="round" stroke-width="1"/>
                  <path id="Path_877925" data-name="Path 877925" d="M42.053,254.838s8.388,2.85,16.755-.474" transform="translate(-18.387 -178.52)" fill="none" stroke="#fff" stroke-linecap="round" stroke-linejoin="round" stroke-width="1"/>
                </g>
              </g>
            </g>
            <path id="Path_877926" data-name="Path 877926" d="M83.274,247.287h34.771c6.784,0,5.683-8.046-13.192-4.466,4.631-2.117,4.658-4.951,4.265-5.707a2.942,2.942,0,0,0-2.464-1.075c-2.4.206-4.223,1.678-6.327,2.853a13.509,13.509,0,0,0,6.017-11.555,4.8,4.8,0,0,0-1.229-3.431,5.076,5.076,0,0,0-4.09-1.312c-2.547.506-7.23,4.759-9.1,6.564,9.511-8.749,13.132-22.533,7.043-25.678-10.25-5.294-17.994,24.7-17.994,24.7s5.1-22.535-3.453-22.667-1.6,26.179-1.6,26.179" transform="translate(-22.633 -62.67)" fill="#a5b9f6"/>
            <path id="Path_877927" data-name="Path 877927" d="M168.188,126.095c-1.791-4.276-3.616-8.752-3.278-13.375.313-4.284.38-9.058,1.7-13.146a34.769,34.769,0,0,0,1.472-12.725c-.8-13.449-6.486-12.894-8.628-12.222-2.1.66-3.366,2.643-4.015,6.057-.522,2.747-.619,15.967-4.529,13.4-4.525-2.974-2.262-16.442-2.328-21.056-.1-6.9-1.737-14.516-6.157-19.987-2.178-2.7-5.647-4.962-8.956-3.931a8.018,8.018,0,0,0-4.421,4.15c-2.9,5.538-1.814,11.929-.363,17.715.607,2.419,6.786,14.127.5,12.109-1.5-.482-12.785-12.529-15.655-2.3-1.01,3.6,2.512,8,8.3,13.722,3.614,3.571,17.487,13.581,16.1,17.525s-8.73-3.835-8.912,3.879c-.1,4.321,4.989,8.233,8.515,10.415,1.679,1.038,3.557,1.739,5.164,2.884,1.9,1.358,4.043,4.265,2.088,6.47-.854.964-2.269,1.292-3.091,2.284a3.664,3.664,0,0,0-.34,3.713,8.488,8.488,0,0,0,2.466,3c6.392,5.426,15.131,7.5,23.507,7.142s16.5-2.93,24.334-5.905" transform="translate(-35.02 -15.093)" fill="#a5b9f6"/>
            <g id="Group_1102779" data-name="Group 1102779" transform="translate(84.256 41.354)" opacity="0.25">
              <g id="Group_1102778" data-name="Group 1102778">
                <g id="Group_1102777" data-name="Group 1102777" clip-path="url(#clip-path-5)">
                  <path id="Path_877928" data-name="Path 877928" d="M146.679,60.342s1.7,45.576,24.289,77.319" transform="translate(-129.571 -59.996)" fill="none" stroke="#fff" stroke-linecap="round" stroke-linejoin="round" stroke-width="1"/>
                  <path id="Path_877929" data-name="Path 877929" d="M122.423,99.819s13.192,14.027,25.271,17.621" transform="translate(-122.077 -72.193)" fill="none" stroke="#fff" stroke-linecap="round" stroke-linejoin="round" stroke-width="1"/>
                  <path id="Path_877930" data-name="Path 877930" d="M177.323,94.64c-.29,7.08-2.676,26.6-10.711,34.952" transform="translate(-135.729 -70.593)" fill="none" stroke="#fff" stroke-linecap="round" stroke-linejoin="round" stroke-width="1"/>
                  <path id="Path_877931" data-name="Path 877931" d="M143.7,149.218s5.106,6.006,23.018,10.89" transform="translate(-128.651 -87.454)" fill="none" stroke="#fff" stroke-linecap="round" stroke-linejoin="round" stroke-width="1"/>
                  <path id="Path_877932" data-name="Path 877932" d="M159.264,180.13s9.157,3.112,18.292-.517" transform="translate(-133.459 -96.844)" fill="none" stroke="#fff" stroke-linecap="round" stroke-linejoin="round" stroke-width="1"/>
                </g>
              </g>
            </g>
            <path id="Path_877933" data-name="Path 877933" d="M204.265,171.887h37.96c7.407,0,6.205-8.783-14.4-4.875,5.055-2.311,5.085-5.405,4.656-6.231a3.214,3.214,0,0,0-2.69-1.173c-2.62.225-4.611,1.832-6.907,3.115a14.749,14.749,0,0,0,6.569-12.615,5.238,5.238,0,0,0-1.342-3.746,5.54,5.54,0,0,0-4.466-1.432c-2.781.551-7.893,5.194-9.931,7.166,10.382-9.55,14.336-24.6,7.689-28.032-11.191-5.779-19.644,26.96-19.644,26.96s5.566-24.6-3.77-24.746-1.746,28.58-1.746,28.58" transform="translate(-59.729 -38.117)" fill="#a5b9f6"/>
            <path id="Path_877934" data-name="Path 877934" d="M217.059,69.412A121.942,121.942,0,0,1,275.9,156.338c.162,1.106-2.149-.085-2.359-.161a88.328,88.328,0,0,1-57.737-85.94c.022-.6.639-1.184,1.25-.825" transform="translate(-66.652 -21.41)" fill="#cedcfd"/>
            <path id="Path_877935" data-name="Path 877935" d="M222.1,83.8l42.821,60.062-19.645-11.6c-.668-.395-1.349.607-.677,1l22.052,13.025,13.178,18.484c.453.635,1.368-.16.919-.789l-12.952-18.167a.509.509,0,0,0-.27-.415l-.046-.028L223.016,83.013c-.453-.635-1.368.16-.919.789" transform="translate(-68.578 -25.574)" fill="#faedec"/>
            <path id="Path_877936" data-name="Path 877936" d="M234.093,121.48a.606.606,0,0,0-.677,1l18.127,11.964a.606.606,0,0,0,.677-1L234.093,121.48" transform="translate(-72.03 -37.498)" fill="#faedec"/>
            <path id="Path_877937" data-name="Path 877937" d="M234.927,92.358l1.8,13.167L221.267,93.89c-.623-.469-1.3.537-.677,1l16.336,12.293c.594.448,1.222-.443.74-.932a.589.589,0,0,0,.3-.612l-1.849-13.517c-.106-.774-1.294-.538-1.189.232" transform="translate(-68.073 -28.314)" fill="#faedec"/>
            <path id="Path_877938" data-name="Path 877938" d="M261.364,115.038l-.654,15.167a.606.606,0,0,0,1.209.077l.654-15.167a.606.606,0,0,0-1.209-.077" transform="translate(-80.544 -35.371)" fill="#faedec"/>
            <path id="Path_877939" data-name="Path 877939" d="M282.5,150.059a54.374,54.374,0,0,1,1.283,13.814c-.028.777,1.181.859,1.209.077a55.565,55.565,0,0,0-1.3-14.123.606.606,0,0,0-1.189.232" transform="translate(-87.272 -46.143)" fill="#faedec"/>
            <path id="Path_877940" data-name="Path 877940" d="M249.932,146.966c-2.441-3.073-4.653-7.149-3.557-12.932,1.183-6.214,5.694-11.643,9.9-16.482,5.52-6.344,10.067-12,11.288-20.006.881-5.771.49-11.436,3.133-17.583,3.075-7.151,9.212-12.225,14.784-15.175,6.5-3.432,13.062-4.664,19.518-9.62a28.657,28.657,0,0,0,9.018-11.731c1.509-3.539,2.528-7.12,4.065-10.65,4.954-11.393,15.2-18.161,21.924-15.632,7.039.583,11.066,7.9,8.174,18.653-2.315,8.6-8.547,15.179-13.625,22.555-5.5,7.976-6.411,14.762-6.6,22.419-.128,5.209-.1,10.691-2.385,16.512-2.295,5.853-6.575,10.472-10.885,14.521-5.261,4.956-11.709,9.971-14.521,17.435-1.5,4-1.827,7.911-3.468,11.935a33.523,33.523,0,0,1-4.54,7.734c-9.884,12.765-22.314,13.557-30.116,9.134-4.665-2.64-8.658-6.746-12.1-11.087" transform="translate(-76.026 -5.137)" fill="#cedcfd"/>
            <path id="Path_877941" data-name="Path 877941" d="M336.741,40.99Q325.053,57.522,313.52,74.16q1.107-8.221,2.213-16.442c.142-1.052-1.506-1.113-1.647-.07l-2.549,18.94a.735.735,0,0,0,.049.388q-9.667,13.968-19.218,28.015l-.823-27.828c-.031-1.056-1.678-1.131-1.646-.07q.438,14.85.878,29.7a.826.826,0,0,0,.108.386q-8.852,13.016-17.59,26.11.1-11.582.191-23.164c.009-1.06-1.638-1.131-1.646-.07q-.107,12.855-.214,25.709-5.864,8.764-11.691,17.554l.424-23.332a.825.825,0,0,0-1.647-.07q-.215,11.8-.429,23.6a.776.776,0,0,0,.807.8.887.887,0,0,0,.017.248q-6.714,10.13-13.365,20.3c-.581.889.817,1.762,1.4.874q6.722-10.29,13.518-20.533a193.7,193.7,0,0,0,23.285-4.312.825.825,0,0,0-.37-1.606,193.4,193.4,0,0,1-21.7,4.1q5.431-8.185,10.888-16.352a.716.716,0,0,0,.512-.717c0-.015,0-.03,0-.045.171-.256.345-.511.516-.766l23.325-5.607a.825.825,0,0,0-.37-1.606l-21.591,5.191q8.662-12.931,17.393-25.815l25.114-6.314a.825.825,0,0,0-.37-1.606l-23.356,5.873q9.719-14.272,19.538-28.476a.765.765,0,0,0,.444.028l12.114-2.837a.824.824,0,0,0-.37-1.605l-10.912,2.556q11.62-16.765,23.394-33.423c.614-.868-.786-1.737-1.4-.874" transform="translate(-75.878 -12.553)" fill="#faedec"/>
          </g>
        </g>
        <path id="Path_877942" data-name="Path 877942" d="M326.345,234.114l-76.457,44.542-.831-16.984,76.513-43.4Z" transform="translate(-76.944 -67.434)" fill="#bf4d17"/>
        <path id="Path_877943" data-name="Path 877943" d="M213.644,253.573,134.431,229.1,219.2,192.06l70.957,18.116Z" transform="translate(-41.531 -59.335)" fill="#ff6822"/>
        <path id="Path_877944" data-name="Path 877944" d="M135.252,262.457l79.213,24.469-.821-16.793L134.43,245.665Z" transform="translate(-41.531 -75.896)" fill="#fff"/>
        <path id="Path_877945" data-name="Path 877945" d="M134.514,247.381l79.213,24.469-.084-1.717L134.43,245.664Z" transform="translate(-41.531 -75.896)" fill="#bf4d17"/>
        <path id="Path_877946" data-name="Path 877946" d="M135.595,269.473l79.213,24.469-.084-1.717L135.51,267.755Z" transform="translate(-41.865 -82.721)" fill="#bf4d17"/>
        <path id="Path_877947" data-name="Path 877947" d="M241.742,294.65l5.595,1.682-.663-13.549-5.6-1.73Z" transform="translate(-74.477 -86.829)" fill="#8f3b14"/>
        <path id="Path_877948" data-name="Path 877948" d="M145.5,263.461l2.677-1.544,2.918,3.226-.232-4.723-5.6-1.73Z" transform="translate(-44.878 -79.92)" fill="#8f3b14"/>
        <path id="Path_877949" data-name="Path 877949" d="M315.269,204.139l-67.067,39-.717-14.666,67.139-37.518Z" transform="translate(-76.458 -58.994)" fill="#fff"/>
        <path id="Path_877950" data-name="Path 877950" d="M314.687,192.232,247.56,230l-.075-1.524,67.139-37.518Z" transform="translate(-76.458 -58.994)" fill="#4c7ed6"/>
        <path id="Path_877951" data-name="Path 877951" d="M315.608,210.832l-67.1,38.26-.075-1.524,67.115-38.012Z" transform="translate(-76.75 -64.74)" fill="#4c7ed6"/>
        <g id="Group_1102786" data-name="Group 1102786">
          <g id="Group_1102785" data-name="Group 1102785" clip-path="url(#clip-path)">
            <g id="Group_1102784" data-name="Group 1102784" transform="translate(171.756 147.551)" style="mix-blend-mode: multiply;isolation: isolate">
              <g id="Group_1102783" data-name="Group 1102783">
                <g id="Group_1102782" data-name="Group 1102782" clip-path="url(#clip-path-7)">
                  <path id="Path_877952" data-name="Path 877952" d="M315.753,214.3l-66.729,38.484-.483-2.442,64.52-36.831Z" transform="translate(-248.54 -213.515)" fill="#e2d6d6"/>
                </g>
              </g>
            </g>
          </g>
        </g>
        <path id="Path_877953" data-name="Path 877953" d="M283.915,183.981l-62.34-15.6-73.492,32.08,3.2,4.309-.161-3.292L216.776,221.5Z" transform="translate(-45.749 -52.02)" fill="#6ca0fa"/>
        <g id="Group_1102809" data-name="Group 1102809">
          <g id="Group_1102808" data-name="Group 1102808" clip-path="url(#clip-path)">
            <path id="Path_877954" data-name="Path 877954" d="M150.933,230.587l66.4,20.511a.271.271,0,0,0,.361-.252L217,236.713l-64.964-20.067a2.456,2.456,0,0,0-3.276,2.292l.467,9.561a2.345,2.345,0,0,0,1.7,2.088" transform="translate(-45.958 -66.894)" fill="#fff"/>
            <path id="Path_877955" data-name="Path 877955" d="M233.284,254.35l2.312-1.334,2.519,2.786-.2-7.92-4.839-1.493Z" transform="translate(-72.007 -76.12)" fill="#4c7ed6"/>
            <path id="Path_877956" data-name="Path 877956" d="M154.316,231.1l-5.52-1.692-.714-14.6,5.52,1.692Z" transform="translate(-45.749 -66.361)" fill="#4c7ed6"/>
            <path id="Path_877957" data-name="Path 877957" d="M149.981,229.8l-1.184-.391-.714-14.6,1.184.391Z" transform="translate(-45.749 -66.361)" fill="#4c7ed6"/>
            <path id="Path_877958" data-name="Path 877958" d="M148.155,216.285l68.694,21.038-.073-1.482L148.082,214.8Z" transform="translate(-45.749 -66.361)" fill="#4c7ed6"/>
            <path id="Path_877959" data-name="Path 877959" d="M149.051,235.344,217.81,256.6l-.073-1.483-68.766-21.177Z" transform="translate(-46.023 -72.275)" fill="#4c7ed6"/>
            <g id="Group_1102789" data-name="Group 1102789" transform="translate(103.309 163.999)" style="mix-blend-mode: multiply;isolation: isolate">
              <g id="Group_1102788" data-name="Group 1102788">
                <g id="Group_1102787" data-name="Group 1102787" clip-path="url(#clip-path-9)">
                  <path id="Path_877960" data-name="Path 877960" d="M149.494,238.613l68.93,21.528-.532-2.5-65.635-20.328Z" transform="translate(-149.494 -237.315)" fill="#e2d6d6"/>
                </g>
              </g>
            </g>
            <path id="Path_877961" data-name="Path 877961" d="M159.665,186.185c2.37,3.227-.334,11.926-6.94,21.56a87.4,87.4,0,0,1-27.267,25.423c-24.6,14.373-48.881,13.769-53.489,7.278L49.04,206.8l89.091-52.057s21.36,31.21,21.533,31.445" transform="translate(-15.15 -47.806)" fill="#3d3a3a"/>
            <path id="Path_877962" data-name="Path 877962" d="M183.472,135.009,134.814,200.9l-2.6-3.819,48.8-65.685Z" transform="translate(-40.846 -40.593)" fill="#333030"/>
            <path id="Path_877963" data-name="Path 877963" d="M147,131.395l-26.62,35.832L98.2,197.08,25.216,213.5l-3.1.5,51.821-65.044Z" transform="translate(-6.832 -40.593)" fill="#3d3a3a"/>
            <path id="Path_877964" data-name="Path 877964" d="M24.451,246.8l76.356-16.52L98.2,226.445,22.11,243.361Z" transform="translate(-6.831 -69.958)" fill="#333030"/>
            <g id="Group_1102792" data-name="Group 1102792" transform="translate(67.102 90.802)" style="mix-blend-mode: multiply;isolation: isolate">
              <g id="Group_1102791" data-name="Group 1102791">
                <g id="Group_1102790" data-name="Group 1102790" clip-path="url(#clip-path-10)">
                  <path id="Path_877965" data-name="Path 877965" d="M170.163,131.395l-26.62,35.832-1.452,1.969c4.318-28.238-44.99-20.244-44.99-20.244Z" transform="translate(-97.101 -131.395)" fill="#e2d6d6"/>
                </g>
              </g>
            </g>
            <g id="Group_1102795" data-name="Group 1102795" transform="translate(116.904 114.33)" style="mix-blend-mode: multiply;isolation: isolate">
              <g id="Group_1102794" data-name="Group 1102794">
                <g id="Group_1102793" data-name="Group 1102793" clip-path="url(#clip-path-11)">
                  <path id="Path_877966" data-name="Path 877966" d="M196.777,189.491c2.37,3.227-.334,11.926-6.94,21.56,0,0,2.057-13.217-3.5-21.373-7.392-10.847-17.169-9.2-17.169-9.2l11.058-15.032s16.379,23.813,16.553,24.048" transform="translate(-169.166 -165.442)" fill="#eee1e1"/>
                </g>
              </g>
            </g>
            <path id="Path_877967" data-name="Path 877967" d="M115.879,184.887a1.542,1.542,0,0,1,.041,1.476,6.832,6.832,0,0,1-2.95,2.978c-2.348,1.372-4.852,1.6-5.595.514-.546-.8.01-2.088,1.276-3.256a9.263,9.263,0,0,1,1.633-1.2c2.348-1.372,4.852-1.6,5.595-.513" transform="translate(-33.108 -56.907)" fill="#ff6822"/>
            <path id="Path_877968" data-name="Path 877968" d="M99.168,188.789,75.355,220.184s-4.766,4.493-8.519,15.976" transform="translate(-20.648 -58.325)" fill="none" stroke="#ff6822" stroke-miterlimit="10" stroke-width="2.241"/>
            <path id="Path_877969" data-name="Path 877969" d="M116.543,184.887a1.542,1.542,0,0,1,.041,1.476,7.288,7.288,0,0,0-7.269.237,9.263,9.263,0,0,1,1.633-1.2c2.348-1.372,4.852-1.6,5.595-.513" transform="translate(-33.772 -56.907)" fill="#bf4d17"/>
            <path id="Path_877970" data-name="Path 877970" d="M72.957,270.654c1.9,7.74,1.971,14.317.168,14.7s-4.808-5.585-6.706-13.325-1.972-14.317-.168-14.7c.5-.106,1.1.279,1.731,1.054,1.659,2.02,3.6,6.682,4.975,12.27" transform="translate(-20.064 -79.494)" fill="#ff6822"/>
            <path id="Path_877971" data-name="Path 877971" d="M73.561,271.132c1.9,7.74,1.971,14.317.168,14.7.092-17.14-6.83-25.508-6.83-25.508l1.688-1.458c1.659,2.02,3.6,6.682,4.975,12.27" transform="translate(-20.668 -79.973)" fill="#bf4d17"/>
            <path id="Path_877972" data-name="Path 877972" d="M68.785,255.993a2.967,2.967,0,0,1-1.072,3.033,3.439,3.439,0,0,1-1.454.682,3.373,3.373,0,0,1-4.012-2.344,2.972,2.972,0,0,1,1-2.976,3.426,3.426,0,0,1,1.526-.739,3.372,3.372,0,0,1,4.012,2.343" transform="translate(-19.205 -78.339)" fill="#ff6822"/>
            <path id="Path_877973" data-name="Path 877973" d="M69.269,255.993a2.967,2.967,0,0,1-1.072,3.033,2.32,2.32,0,0,1-.142-.39c-1.117-4.039-3.679-4.256-4.325-4.248a3.426,3.426,0,0,1,1.526-.739,3.372,3.372,0,0,1,4.012,2.343" transform="translate(-19.689 -78.339)" fill="#bf4d17"/>
            <rect id="Rectangle_404848" data-name="Rectangle 404848" width="10.788" height="84.39" transform="matrix(0.956, -0.293, 0.293, 0.956, 219.181, 93.65)" fill="#ebc827"/>
            <rect id="Rectangle_404849" data-name="Rectangle 404849" width="1.198" height="84.72" transform="translate(222.236 92.368) rotate(-17.035)" fill="#3d3a3a"/>
            <rect id="Rectangle_404850" data-name="Rectangle 404850" width="1.198" height="84.72" transform="translate(225.101 91.49) rotate(-17.035)" fill="#3d3a3a"/>
            <rect id="Rectangle_404851" data-name="Rectangle 404851" width="11.044" height="2.151" transform="translate(243.56 174.096) rotate(-17.035)" fill="#3d3a3a"/>
            <path id="Path_877974" data-name="Path 877974" d="M362.449,254.651l-5.4,1.653a2.7,2.7,0,0,1-3.372-1.791l-.324-1.057,10.56-3.235.323,1.057a2.7,2.7,0,0,1-1.791,3.372" transform="translate(-109.166 -77.303)" fill="#ff6822"/>
            <path id="Path_877975" data-name="Path 877975" d="M327.486,127.693l-10.314,3.16L319,123.63l.808-3.2,2.36,2.231Z" transform="translate(-97.987 -37.205)" fill="#fbe5c6"/>
            <path id="Path_877976" data-name="Path 877976" d="M322.992,122.659l-3.168.97.808-3.2Z" transform="translate(-98.807 -37.205)" fill="#3d3a3a"/>
            <path id="Path_877977" data-name="Path 877977" d="M84.189,58.8h0a1.827,1.827,0,0,0-.585-2.516L72.961,49.661a1.827,1.827,0,0,0-2.516.586L69.479,51.8,68.7,53.05l-15.557,25a1.826,1.826,0,0,0,.585,2.515l36.963,23a1.826,1.826,0,0,0,2.515-.585l15.371-24.7a1.827,1.827,0,0,0-.585-2.516l-23.22-14.45a1.827,1.827,0,0,1-.585-2.516" transform="translate(-16.333 -15.257)" fill="#d1b223"/>
            <path id="Path_877978" data-name="Path 877978" d="M90.692,105.713l-36.963-23a1.827,1.827,0,0,1-.586-2.516l18.1-23a1.827,1.827,0,0,1,2.516-.586l36.963,23a1.827,1.827,0,0,1,.586,2.516l-18.1,23a1.827,1.827,0,0,1-2.516.586" transform="translate(-16.333 -17.403)" fill="#ebc827"/>
            <g id="Group_1102798" data-name="Group 1102798" transform="translate(155.955 128.595)" style="mix-blend-mode: multiply;isolation: isolate">
              <g id="Group_1102797" data-name="Group 1102797">
                <g id="Group_1102796" data-name="Group 1102796" clip-path="url(#clip-path-12)">
                  <path id="Path_877979" data-name="Path 877979" d="M230.255,188.38c-1.65-1.3-4.323.371-4.555,2.46s1.2,4.021,2.875,5.295c4.966,3.787,11.8,3.563,18.038,3.167l11.3-.718c2.909-.185,6.223-.585,7.9-2.97,1.932-2.748.347-6.931-2.606-8.535s-6.662-1.1-9.708.316c-2.681,1.247-5.155,3.18-8.1,3.483-5.233.54-12.449-4.844-17.284-2.768" transform="translate(-225.675 -186.084)" fill="#f2e5e5"/>
                </g>
              </g>
            </g>
            <path id="Path_877980" data-name="Path 877980" d="M286.831,74.574c-1.039.245-4.759.3-8.222.577-.679-1.934-1.732-6.161-3.233-11.523a7.291,7.291,0,0,0-3.512-3.775c-1.053-.467-2.63.393-2.175,2.437a46.553,46.553,0,0,0,1.882,6.476c1.835,5.211,3.162,7.708,3.993,8.945a1.946,1.946,0,0,0,.424.574,1.017,1.017,0,0,0,.308.238,1.966,1.966,0,0,0,1.122.3c3.193-.122,2.978-.229,7.079-1.448,2.847-.848,2.383-.226,2.952-.962.463-.6.223-2.03-.616-1.834" transform="translate(-83.293 -18.453)" fill="#bf4d17"/>
            <path id="Path_877981" data-name="Path 877981" d="M255.426,68.878a50,50,0,0,1,1.284,8.148,20.37,20.37,0,0,1-.437,6.038c-.246,1.194-.565,2.373-.92,3.54-.134.442-1.264,4-1.332,4.387l16.534,1.13c.063-3.25-2.931-13.678.017-20.1,2.041-4.446-.247-4.743-1.545-8.648-.319-.956-2.627-2.875-3.556-3.177a9.419,9.419,0,0,0-1.522-.321c-2.783-.417-8.613-2-9.5,1.943A17.476,17.476,0,0,0,255,67.464q.233.7.423,1.414" transform="translate(-78.478 -18.293)" fill="#ff6822"/>
            <path id="Path_877982" data-name="Path 877982" d="M264.634,139.024a7.2,7.2,0,0,0,.044-.931,12.654,12.654,0,0,0,.09-1.66c-.018-2.5.3-13.187.466-19.567a101.349,101.349,0,0,0,.115-10.539l-16.533-1.13a28.491,28.491,0,0,0-1,6.043c-.448,2.5-2.92,20.512-3.589,23.816-.035.171-.061.332-.088.494-3.587,5.374-6.284,25.824-6.955,29.365-.089.471.174.439.457.4.827-.1.534-.889,1.7-.739.614.079.733.938.733.938,1.608-4.741,6.991-21.424,9.445-26.427a6.365,6.365,0,0,0,.634-2.056c1.974-5.507,5.106-15,5.99-19.091.471,4.686,1.574,15.27,2.533,20.218-2.168,6.706.088,20.835-.257,28.869.948-1.354,1.775-1.642,2.153-1.587a1.362,1.362,0,0,1,.912.6c.61-10.778,2.536-21.466,3.149-27.018" transform="translate(-73.272 -32.5)" fill="#072c6e"/>
            <path id="Path_877983" data-name="Path 877983" d="M271.109,192.9a5.65,5.65,0,0,0,2.221,1.935c1.213.644,3.846,1.088,2.34,1.479a8.827,8.827,0,0,1-4.064-.223,17.7,17.7,0,0,0-2.729-.352c-1.352-.1-1.356-.185-1.07-1.7.395-2.084,2.774-2.368,3.3-1.14" transform="translate(-82.69 -59.368)" fill="#21103f"/>
            <path id="Path_877984" data-name="Path 877984" d="M239.81,191.707c.164.38.241,2.172,1.453,2.817s3.847,1.087,2.34,1.479a8.828,8.828,0,0,1-4.064-.223c-.86-.2-.934-1.156-1.959-1.234-1.352-.1-1.357-.186-1.07-1.7.394-2.084,2.773-2.367,3.3-1.14" transform="translate(-73.02 -59.001)" fill="#21103f"/>
            <path id="Path_877985" data-name="Path 877985" d="M259.371,70.181c.23.132.459.267.688.4l-1.351,4.164c.2-1.357.424-2.887.663-4.564" transform="translate(-79.925 -21.682)" fill="#ff4d2c"/>
            <path id="Path_877986" data-name="Path 877986" d="M261.6,49.6c-.032.178-.577,3.978-.828,6.907-.123,1.435.821,2.87,1.853,2.975l.046,0a2.56,2.56,0,0,0,2.3-2.541c.011-2.563.312-5.166.319-5.207Z" transform="translate(-80.561 -15.324)" fill="#d68952"/>
            <path id="Path_877987" data-name="Path 877987" d="M259.369,41.879c.1,3.285.149,4.013,1.482,5.446a7.708,7.708,0,0,0,4.876,2.289c1.67.115,3.028-1.565,3.5-2.919a23.776,23.776,0,0,0,.949-8.328,5.283,5.283,0,0,0-4.5-4.334c-2.3-.158-6.555-.18-6.3,7.845" transform="translate(-80.126 -10.503)" fill="#eb975a"/>
            <path id="Path_877988" data-name="Path 877988" d="M265.971,35.49a5.965,5.965,0,0,0-2.428-2.312,6.514,6.514,0,0,0-5.878-.686c-.583-.226-1.184-.43-1.793-.6l.042-.077c-.035-.019-3.519-1.9-6.328-.656-1.56.693-2.626,2.207-3.166,4.5l.084.02a5.88,5.88,0,0,0,.057,3.783c.454,1.211,1.294,2.25,1.739,3.465a5.248,5.248,0,0,1-2.558,6.687,2.8,2.8,0,0,0,3.238-.106c.973-.628,1.6-2.012,2.493-2.754,1.491-1.243,1.395-4.927,3.33-4.786l2.939-2c2.364-.52,5.3-1.2,6.922-2.518a3.042,3.042,0,0,1,1.332,1.463c.277.972.641-2.012-.024-3.42m-16.81-3.24a5.825,5.825,0,0,0-2.323,2.566,5.4,5.4,0,0,1,2.817-3.5c2.184-.969,4.8.014,5.776.456a8.352,8.352,0,0,0-6.27.477" transform="translate(-75.92 -9.494)" fill="#0f0f0f"/>
            <path id="Path_877989" data-name="Path 877989" d="M259.7,44.768c.384,1.16.2,2.263-.4,2.464s-1.411-.576-1.8-1.737-.2-2.263.4-2.464,1.411.576,1.8,1.736" transform="translate(-79.491 -13.285)" fill="#eb975a"/>
            <path id="Path_877990" data-name="Path 877990" d="M288.986,84.475,279.3,86.563V73.632l9.684-2.087Z" transform="translate(-86.288 -22.103)" fill="#e0d4d4"/>
            <path id="Path_877991" data-name="Path 877991" d="M274.255,83.3a6,6,0,0,1,2.523-1.3c.715-.073-.5.883-1.052,1.388s-2.126.426-1.471-.09" transform="translate(-84.68 -25.331)" fill="#eb975a"/>
            <path id="Path_877992" data-name="Path 877992" d="M275.278,83.59c2.018-.321,3.04-.824,3.968-.473s-.41,1.647-1.1,1.865-3.094,1.151-3.812.683-.551-1.837.94-2.075" transform="translate(-84.627 -25.641)" fill="#eb975a"/>
            <path id="Path_877993" data-name="Path 877993" d="M267.137,76.412c-1.057.2-7.413-.039-11.094.055.232-2.24.878-6.205,1.557-11.157a7.3,7.3,0,0,0-1.72-4.861c-.781-.847-2.569-.686-2.965,1.371a46.439,46.439,0,0,0-.852,6.69c-.455,6.451-.072,9.219.244,10.439a1.094,1.094,0,0,0,.487.643,2.027,2.027,0,0,0,1.471.636,27.491,27.491,0,0,0,8.868-1.094c3-.742,3.93-.051,4.557-.788.509-.6.33-2.1-.551-1.935" transform="translate(-77.808 -18.527)" fill="#bf4d17"/>
            <path id="Path_877994" data-name="Path 877994" d="M293.153,81.191a7.153,7.153,0,0,1,.316-2.24c.158-.451.665-.778,1.038-.375a3.545,3.545,0,0,1,.645,2.466,2.466,2.466,0,0,1-1.223,1.347c-.505.223-.779-.265-.776-1.2" transform="translate(-90.567 -24.219)" fill="#eb975a"/>
            <path id="Path_877995" data-name="Path 877995" d="M336.486,69.553l-4.9-4.34,28.5-7.9-9.93,24.074-7.989-7.157-3.327,3.058Z" transform="translate(-102.441 -17.706)" fill="#6ca0fa"/>
            <g id="Group_1102801" data-name="Group 1102801" transform="translate(234.045 39.606)" style="mix-blend-mode: multiply;isolation: isolate">
              <g id="Group_1102800" data-name="Group 1102800">
                <g id="Group_1102799" data-name="Group 1102799" clip-path="url(#clip-path-13)">
                  <path id="Path_877996" data-name="Path 877996" d="M362.281,57.312,344.362,74.229l-3.327,3.059-2.359-7.736Z" transform="translate(-338.676 -57.312)" fill="#a9b3d1"/>
                </g>
              </g>
            </g>
            <path id="Path_877997" data-name="Path 877997" d="M112.266,25.149l3.068-5.781L85.869,21.953,103.6,41.024l4.976-9.5,4.189,1.7Z" transform="translate(-26.528 -5.984)" fill="#ff6822"/>
            <g id="Group_1102804" data-name="Group 1102804" transform="translate(59.34 15.969)" style="mix-blend-mode: multiply;isolation: isolate">
              <g id="Group_1102803" data-name="Group 1102803">
                <g id="Group_1102802" data-name="Group 1102802" clip-path="url(#clip-path-14)">
                  <path id="Path_877998" data-name="Path 877998" d="M85.869,23.108l22.71,9.568,4.189,1.7-.5-8.072Z" transform="translate(-85.869 -23.108)" fill="#a9b3d1"/>
                </g>
              </g>
            </g>
            <path id="Path_877999" data-name="Path 877999" d="M336.312,90.351l-1.2.695" transform="translate(-103.531 -27.913)" fill="none" stroke="#a5b9f6" stroke-linecap="round" stroke-linejoin="round" stroke-width="0.75"/>
            <path id="Path_878000" data-name="Path 878000" d="M318.851,97.3a45.46,45.46,0,0,0-7.747,6.368c-4.426,4.662-7.543,10.973-6.909,17.369.383,3.864,2.077,7.453,3.491,11.07s2.584,7.526,1.86,11.34a10,10,0,0,1-3,5.4" transform="translate(-93.953 -30.061)" fill="none" stroke="#a5b9f6" stroke-linecap="round" stroke-linejoin="round" stroke-width="0.75" stroke-dasharray="3.786 11.359"/>
            <path id="Path_878001" data-name="Path 878001" d="M302.077,174.548a6.236,6.236,0,0,1-1.373.137" transform="translate(-92.9 -53.925)" fill="none" stroke="#a5b9f6" stroke-linecap="round" stroke-linejoin="round" stroke-width="0.75"/>
            <rect id="Rectangle_404855" data-name="Rectangle 404855" width="17.929" height="1.414" transform="translate(119.212 53.082) rotate(-67.045)" fill="#3d3a3a"/>
            <path id="Path_878002" data-name="Path 878002" d="M162.648,90.778h0a3.6,3.6,0,0,1-1.911-4.721l6.5-15.329a3.6,3.6,0,1,1,6.632,2.811L167.37,88.867a3.6,3.6,0,0,1-4.721,1.911" transform="translate(-49.57 -21.172)" fill="#6ca0fa"/>
            <path id="Path_878003" data-name="Path 878003" d="M202.276,28.873a18.249,18.249,0,1,1-9.683-23.922A18.248,18.248,0,0,1,202.276,28.873Z" transform="translate(-51.661 -1.081)" fill="none" stroke="#4c7ed6" stroke-miterlimit="10" stroke-width="7"/>
            <path id="Path_878004" data-name="Path 878004" d="M201.158,28.583A15.581,15.581,0,1,1,192.89,8.158a15.581,15.581,0,0,1,8.268,20.425" transform="translate(-52.899 -2.138)" fill="#d0eaff"/>
            <g id="Group_1102807" data-name="Group 1102807" transform="translate(125.589 8.521)" opacity="0.35">
              <g id="Group_1102806" data-name="Group 1102806">
                <g id="Group_1102805" data-name="Group 1102805" clip-path="url(#clip-path-15)">
                  <path id="Path_878005" data-name="Path 878005" d="M194.007,17.4c0,2.8-2.748,5.069-6.137,5.069s-6.136-2.269-6.136-5.069,2.747-5.069,6.136-5.069,6.137,2.269,6.137,5.069" transform="translate(-181.734 -12.331)" fill="#fff"/>
                </g>
              </g>
            </g>
          </g>
        </g>
      </g>
    </g>
  </g>
</svg>
