<svg xmlns="http://www.w3.org/2000/svg" xmlns:xlink="http://www.w3.org/1999/xlink" width="99" height="99" viewBox="0 0 99 99">
  <defs>
    <clipPath id="clip-path">
      <rect id="Rectangle_403416" data-name="Rectangle 403416" width="97.687" height="91.902" fill="#d1f3f5"/>
    </clipPath>
    <clipPath id="clip-path-2">
      <path id="Path_875268" data-name="Path 875268" d="M1.5,23.675l-1.5.6V36.6a8.4,8.4,0,0,0,3.3,6.507L40.867,73.755a13.171,13.171,0,0,0,15.954,0L94.388,43.113a8.425,8.425,0,0,0,3.3-6.393c0-.1,0-.206,0-.309l.006,0V24.386l-2.354-1.849A12.143,12.143,0,0,1,85.987,32.73L59.069,54.97,47.32,60.964l-37.5-27.34.867-.708c-3.2-2.116-4.931-6.953-6.664-11.367Z" transform="translate(0 -21.549)" fill="#61dfe4"/>
    </clipPath>
    <clipPath id="clip-path-3">
      <rect id="Rectangle_403409" data-name="Rectangle 403409" width="97.687" height="91.903" fill="none"/>
    </clipPath>
    <clipPath id="clip-path-4">
      <rect id="Rectangle_403408" data-name="Rectangle 403408" width="48.843" height="53.75" fill="none"/>
    </clipPath>
    <clipPath id="clip-path-5">
      <path id="Path_875270" data-name="Path 875270" d="M34.642,9.4,3.311,35.8c1.733,4.413,3.46,9.251,6.664,11.367l35.6-29.041a4.219,4.219,0,0,1,5.109,0L85.662,46.66l-.388.323A12.143,12.143,0,0,0,94.62,36.789L55.364,5.942,43.942,1.678Z" transform="translate(-3.311 -1.678)" fill="#61dfe4"/>
    </clipPath>
    <clipPath id="clip-path-7">
      <rect id="Rectangle_403411" data-name="Rectangle 403411" width="44.819" height="45.491" fill="none"/>
    </clipPath>
    <clipPath id="clip-path-8">
      <path id="Path_875272" data-name="Path 875272" d="M46.289,72.571,8.722,41.927a2.585,2.585,0,0,1,0-4.17L46.288,7.115a4.217,4.217,0,0,1,5.109,0L88.965,37.759a2.583,2.583,0,0,1,0,4.168L51.4,72.57a4.218,4.218,0,0,1-5.109,0M48.7,0a12.642,12.642,0,0,0-7.835,2.691L3.3,33.335a8.067,8.067,0,0,0,0,13.013L40.867,76.993a13.166,13.166,0,0,0,15.954,0L94.388,46.349a8.067,8.067,0,0,0,0-13.013L56.82,2.691A12.642,12.642,0,0,0,48.985,0Z" transform="translate(-0.001)" fill="#98baff"/>
    </clipPath>
    <clipPath id="clip-path-10">
      <path id="Path_875275" data-name="Path 875275" d="M44.962,72.924,7.4,42.282a3.659,3.659,0,0,1,0-5.9L44.961,5.738a5.97,5.97,0,0,1,7.232,0L89.76,36.383a3.657,3.657,0,0,1,0,5.9L52.193,72.924a5.97,5.97,0,0,1-7.231,0M41.66,3.046,4.094,33.689a7,7,0,0,0,0,11.284L41.662,75.619a11.426,11.426,0,0,0,13.833,0L93.062,44.973a6.994,6.994,0,0,0,0-11.282L55.493,3.046a11.416,11.416,0,0,0-13.833,0" transform="translate(-1.234 -0.712)" fill="#98baff"/>
    </clipPath>
    <clipPath id="clip-path-11">
      <rect id="Rectangle_403406" data-name="Rectangle 403406" width="38.332" height="22.221" fill="#0f398d"/>
    </clipPath>
    <clipPath id="clip-path-12">
      <rect id="Rectangle_403518" data-name="Rectangle 403518" width="82.49" height="80.524" fill="#cbdcff"/>
    </clipPath>
    <clipPath id="clip-path-13">
      <rect id="Rectangle_403232" data-name="Rectangle 403232" width="99" height="79.995" fill="#0f398d"/>
    </clipPath>
    <clipPath id="clip-path-14">
      <rect id="Rectangle_404836" data-name="Rectangle 404836" width="52.219" height="53.186" fill="#0c2d70"/>
    </clipPath>
  </defs>
  <g id="img23" transform="translate(-1422.438 4715)">
    <g id="Group_1101595" data-name="Group 1101595" transform="translate(1422.438 -4715)">
      <g id="Group_1100744" data-name="Group 1100744" transform="translate(0.004 7.098)">
        <g id="Group_1100514" data-name="Group 1100514" clip-path="url(#clip-path)">
          <g id="Group_1100495" data-name="Group 1100495" transform="translate(0 37.005)">
            <g id="Group_1100494" data-name="Group 1100494" clip-path="url(#clip-path-2)">
              <path id="Path_875399" data-name="Path 875399" d="M18.655,14.846,127.412,0,108.757,115.115,0,129.961Z" transform="translate(-39.284 50.577) rotate(-60)" fill="#61dfe4"/>
            </g>
          </g>
          <g id="Group_1100500" data-name="Group 1100500" transform="translate(0 0)">
            <g id="Group_1100499" data-name="Group 1100499" clip-path="url(#clip-path-3)">
              <g id="Group_1100498" data-name="Group 1100498" transform="translate(48.843 38.152)" opacity="0.3">
                <g id="Group_1100497" data-name="Group 1100497">
                  <g id="Group_1100496" data-name="Group 1100496" clip-path="url(#clip-path-4)">
                    <path id="Path_875269" data-name="Path 875269" d="M77.329,32.25,50.411,54.49,40.185,59.707V75.968a12.671,12.671,0,0,0,7.978-2.691L85.73,42.632a8.422,8.422,0,0,0,3.3-6.392c0-.1,0-.208,0-.311l.006,0V23.908l-2.153-1.692h-.225A12.151,12.151,0,0,1,77.329,32.25" transform="translate(-40.185 -22.217)" fill="#0f054c"/>
                  </g>
                </g>
              </g>
            </g>
          </g>
          <g id="Group_1100502" data-name="Group 1100502" transform="translate(4.024 2.882)">
            <g id="Group_1100501" data-name="Group 1100501" clip-path="url(#clip-path-5)">
              <path id="Path_875400" data-name="Path 875400" d="M17.015,13.147,113.324,0,96.309,105,0,118.145Z" transform="matrix(0.5, -0.866, 0.866, 0.5, -33.835, 42.279)" fill="#61dfe4"/>
            </g>
          </g>
          <g id="Group_1100507" data-name="Group 1100507" transform="translate(0 0)">
            <g id="Group_1100506" data-name="Group 1100506" clip-path="url(#clip-path-3)">
              <g id="Group_1100505" data-name="Group 1100505" transform="translate(4.024 2.881)" opacity="0.3">
                <g id="Group_1100504" data-name="Group 1100504">
                  <g id="Group_1100503" data-name="Group 1100503" clip-path="url(#clip-path-7)">
                    <path id="Path_875271" data-name="Path 875271" d="M48.13,3.241,43.942,1.677,34.642,9.4,3.311,35.8c1.733,4.413,3.459,9.253,6.664,11.368l35.6-29.041a4.062,4.062,0,0,1,2.555-.86Z" transform="translate(-3.311 -1.678)" fill="#0f054c"/>
                  </g>
                </g>
              </g>
            </g>
          </g>
          <g id="Group_1100509" data-name="Group 1100509" transform="translate(0.001)">
            <g id="Group_1100508" data-name="Group 1100508" clip-path="url(#clip-path-8)">
              <rect id="Rectangle_403413" data-name="Rectangle 403413" width="99.885" height="80.582" transform="translate(-1.099 0)" fill="#98baff"/>
            </g>
          </g>
          <g id="Group_1100511" data-name="Group 1100511" transform="translate(0 0)">
            <g id="Group_1100510" data-name="Group 1100510" clip-path="url(#clip-path-3)">
              <path id="Path_875273" data-name="Path 875273" d="M87.606,35.147,50.038,4.5a4.217,4.217,0,0,0-5.109,0L7.363,35.146a2.592,2.592,0,0,0-.935,2.833,2.846,2.846,0,0,1,.935-1.334L44.93,6a4.217,4.217,0,0,1,5.109,0L87.606,36.645a2.85,2.85,0,0,1,.935,1.336,2.592,2.592,0,0,0-.935-2.833" transform="translate(1.359 2.612)" fill="#fff"/>
              <path id="Path_875274" data-name="Path 875274" d="M94.388,29.4,56.821,60.039a13.166,13.166,0,0,1-15.954,0L3.3,29.395A8.537,8.537,0,0,1,.04,23.637,8.284,8.284,0,0,0,3.3,30.894L40.867,61.539a13.171,13.171,0,0,0,15.954,0L94.388,30.894a8.281,8.281,0,0,0,3.259-7.255A8.539,8.539,0,0,1,94.388,29.4" transform="translate(0.001 16.954)" fill="#fff"/>
            </g>
          </g>
          <g id="Group_1100513" data-name="Group 1100513" transform="translate(1.5 1.223)">
            <g id="Group_1100512" data-name="Group 1100512" clip-path="url(#clip-path-10)">
              <rect id="Rectangle_403415" data-name="Rectangle 403415" width="96.595" height="78.015" transform="translate(-0.954 0)" fill="#98baff"/>
            </g>
          </g>
        </g>
      </g>
      <g id="Group_1100747" data-name="Group 1100747" transform="translate(0 76.779)">
        <g id="Group_1100491" data-name="Group 1100491" transform="translate(0 0)" clip-path="url(#clip-path-11)">
          <path id="Path_875261" data-name="Path 875261" d="M30.025,21.071a1.151,1.151,0,1,1,1.151,1.15,1.151,1.151,0,0,1-1.151-1.15m-4.854,1.15a1.151,1.151,0,1,0-1.151-1.15,1.15,1.15,0,0,0,1.151,1.15m-6.005,0a1.151,1.151,0,1,0-1.151-1.15,1.15,1.15,0,0,0,1.151,1.15m-6.005,0a1.151,1.151,0,1,0-1.151-1.15,1.15,1.15,0,0,0,1.151,1.15m-6.005,0a1.151,1.151,0,1,0-1.151-1.15,1.15,1.15,0,0,0,1.151,1.15m-6.005,0A1.151,1.151,0,1,0,0,21.071a1.15,1.15,0,0,0,1.151,1.15m30.025-6.528a1.151,1.151,0,1,0-1.151-1.151,1.151,1.151,0,0,0,1.151,1.151m-6.005,0a1.151,1.151,0,1,0-1.151-1.151,1.151,1.151,0,0,0,1.151,1.151m-6.005,0a1.151,1.151,0,1,0-1.151-1.151,1.151,1.151,0,0,0,1.151,1.151m-6.005,0a1.151,1.151,0,1,0-1.151-1.151,1.151,1.151,0,0,0,1.151,1.151m-6.005,0a1.151,1.151,0,1,0-1.151-1.151,1.151,1.151,0,0,0,1.151,1.151m-6.005,0A1.151,1.151,0,1,0,0,14.542a1.151,1.151,0,0,0,1.151,1.151M31.176,9.165a1.151,1.151,0,1,0-1.151-1.151,1.151,1.151,0,0,0,1.151,1.151M36.03,21.071a1.151,1.151,0,1,1,1.151,1.15,1.151,1.151,0,0,1-1.151-1.15m1.151-5.378a1.151,1.151,0,1,0-1.151-1.151,1.151,1.151,0,0,0,1.151,1.151m0-6.528A1.151,1.151,0,1,0,36.03,8.014a1.151,1.151,0,0,0,1.151,1.151m-12.01,0A1.151,1.151,0,1,0,24.02,8.014a1.151,1.151,0,0,0,1.151,1.151m-6.005,0a1.151,1.151,0,1,0-1.151-1.151,1.151,1.151,0,0,0,1.151,1.151m-6.005,0A1.151,1.151,0,1,0,12.01,8.014a1.151,1.151,0,0,0,1.151,1.151m-6.005,0A1.151,1.151,0,1,0,6.005,8.014,1.151,1.151,0,0,0,7.156,9.165m-6.005,0A1.151,1.151,0,1,0,0,8.014,1.151,1.151,0,0,0,1.151,9.165M31.176,2.3a1.151,1.151,0,1,0-1.151-1.151A1.151,1.151,0,0,0,31.176,2.3m6.005,0A1.151,1.151,0,1,0,36.03,1.151,1.151,1.151,0,0,0,37.181,2.3m-12.01,0A1.151,1.151,0,1,0,24.02,1.151,1.151,1.151,0,0,0,25.171,2.3m-6.005,0a1.151,1.151,0,1,0-1.151-1.151A1.151,1.151,0,0,0,19.166,2.3m-6.005,0A1.151,1.151,0,1,0,12.01,1.151,1.151,1.151,0,0,0,13.161,2.3m-6.005,0A1.151,1.151,0,1,0,6.005,1.151,1.151,1.151,0,0,0,7.156,2.3m-6.005,0A1.151,1.151,0,1,0,0,1.151,1.151,1.151,0,0,0,1.151,2.3" transform="translate(0 0)" fill="#0f398d"/>
        </g>
      </g>
      <g id="Group_1100749" data-name="Group 1100749" transform="translate(7.664)">
        <g id="Group_1100748" data-name="Group 1100748" clip-path="url(#clip-path-12)">
          <path id="Path_875398" data-name="Path 875398" d="M8.527,0H73.888a8.471,8.471,0,0,1,8.564,8.374l-.043,42.7L46.453,79.117a10.488,10.488,0,0,1-10.493,0L-.184,49.467-.036,8.374A8.47,8.47,0,0,1,8.527,0" transform="translate(0.039 0)" fill="#cbdcff"/>
        </g>
      </g>
      <g id="Group_1100745" data-name="Group 1100745" transform="translate(0 1.529)">
        <g id="Group_1100096" data-name="Group 1100096" transform="translate(0 0)" clip-path="url(#clip-path-13)">
          <path id="Path_873771" data-name="Path 873771" d="M49.5,80a11.773,11.773,0,0,1-7.351-2.447L3.141,46.183a7.662,7.662,0,0,1,0-12.372L42.147,2.445a12.282,12.282,0,0,1,14.705,0L95.86,33.812a7.662,7.662,0,0,1,0,12.372L56.854,77.549A11.777,11.777,0,0,1,49.5,80M49.5.938a11.235,11.235,0,0,0-7.011,2.331L3.483,34.633a6.537,6.537,0,0,0,0,10.725L42.492,76.727a11.713,11.713,0,0,0,14.02,0L95.518,45.361a6.537,6.537,0,0,0,0-10.725L56.511,3.269A11.235,11.235,0,0,0,49.5.938" transform="translate(0 -0.001)" fill="#0f398d"/>
        </g>
      </g>
      <rect id="Rectangle_403516" data-name="Rectangle 403516" width="82.49" height="44.076" rx="9" transform="translate(7.664 0.529)" fill="#cbdcff"/>
    </g>
    <g id="Group_1102766" data-name="Group 1102766" transform="translate(1445.829 -4705.623)">
      <g id="Group_1102766-2" data-name="Group 1102766" clip-path="url(#clip-path-14)">
        <path id="Path_877889" data-name="Path 877889" d="M30.366,3.881c.7.209,1.435.313,2.137.529.549.169,3.207,1.271,3.388,1.268.39-.007,1.308-2.161,2.327-2.319,1.047-.162,1.754.57,2.563,1.112A28.023,28.023,0,0,1,44.219,7.05,2.189,2.189,0,0,1,44.4,8.588c-.138.611-1.171,1.475-1.409,2.01a17.861,17.861,0,0,0,1.823,2.419c.562.778,1.038,1.618,1.524,2.446,1.234-.263,3.091-1.334,4,.1A49.819,49.819,0,0,1,52.2,21.094c.264,1.907-1.946,2.058-3.191,2.622a18.957,18.957,0,0,1-.018,5.69c1.058.69,3.242.62,3.189,2.432a37.834,37.834,0,0,1-1.591,5.082c-1,2.357-2.331,1.245-4.24.807a28.385,28.385,0,0,1-3.36,4.593c-.174.336,1.163,1.624,1.338,2.086.553,1.46-.527,2.051-1.491,2.808a33.122,33.122,0,0,1-3.339,2.4c-1.134.558-1.709.155-2.443-.673-.332-.376-.836-1.472-1.269-1.412a25.1,25.1,0,0,1-5.416,1.776c-.128,1.271.452,3.181-1.148,3.7a36.084,36.084,0,0,1-5.9.1c-1.947-.3-1.294-2.493-1.523-3.835-.834-.182-1.673-.373-2.487-.631-.489-.155-2.814-1.135-2.978-1.132-.366.007-1.323,2.092-2.209,2.3-1.137.263-1.7-.382-2.544-.953a26.615,26.615,0,0,1-3.682-2.881c-.605-1.5.739-2.355,1.347-3.526a26.45,26.45,0,0,1-3.359-4.72c-1.161.243-2.947,1.248-3.9.073a12.264,12.264,0,0,1-.933-2.485A25.125,25.125,0,0,1,0,31.738c.113-1.68,2.065-1.666,3.213-2.265a17.79,17.79,0,0,1,.072-5.808c-1.527-.559-3.413-.591-3.141-2.734A29.751,29.751,0,0,1,2.111,15.38c1.032-1.2,2.526-.121,3.763.082a29.954,29.954,0,0,1,3.41-4.677c-.7-1.224-2.327-2.439-1.087-3.91a55.687,55.687,0,0,1,4.615-3.354c1.085-.488,1.674-.064,2.357.722.32.368.8,1.48,1.27,1.414a24.488,24.488,0,0,1,5.415-1.777C22,2.577,21.36.713,23,.176A33.176,33.176,0,0,1,28.646.064c2.183.21,1.641,2.238,1.72,3.817M28.708,1.848h-5.2V4.378a4.385,4.385,0,0,1-.475.755c-.569.533-2.113.658-2.911.918a33.735,33.735,0,0,1-3.8,1.41c-1.69.054-2.242-2.4-2.841-2.312A40.891,40.891,0,0,0,9.771,7.864c-.443.471.569,1.223.865,1.733a1.948,1.948,0,0,1,.406,1.446c-.122.73-1.678,2.253-2.212,2.988-.509.7-1.434,2.539-2,2.918-1.288.856-2.238-.31-3.535-.323L1.769,21.321c1.176.635,2.988.506,3.149,2.2a12.735,12.735,0,0,1-.143,1.634c-.027,1.593.064,3.172.11,4.76-.251,1.353-2.043,1.473-3.112,1.879l1.518,4.771c1.339-.023,2.316-1.23,3.611-.262A20.149,20.149,0,0,1,8.83,39.159c.517.713,2.112,2.294,2.215,2.99.175,1.186-1.611,2.653-1.419,3.038.272.545,3.35,2.256,3.976,2.848.257-.021,1.231-2.074,2.077-2.269,1.128-.26,2.489.668,3.566,1.025.826.274,4.267.835,4.267,1.885v2.666h5.2V48.812a4.385,4.385,0,0,1,.475-.755c.569-.533,2.113-.658,2.911-.918a33.735,33.735,0,0,1,3.8-1.41c1.69-.054,2.242,2.4,2.841,2.312a40.873,40.873,0,0,0,3.718-2.716c.447-.476-.626-1.283-.917-1.818-.986-1.81.623-2.612,1.589-3.936.464-.636,1.925-3.167,2.353-3.389,1.21-.628,3.02.655,3.452.376.207-.134,1.274-4.133,1.524-4.7-1.018-.446-2.91-.565-3.141-1.925a8.184,8.184,0,0,1,.135-1.765c.033-1.673-.117-3.332-.078-5,.38-1.451,2.949-1.374,3.069-1.853l-1.477-4.626c-1.266-.137-2.157,1.09-3.481.31-.565-.333-1.936-2.765-2.5-3.52-.482-.649-1.612-1.617-1.773-2.329-.3-1.323,1.04-2.039,1.442-3.149L38.619,5.154c-1.078.951-1.258,2.488-3.009,2.3-.651-.069-2.814-1.091-3.687-1.373S29.958,5.807,29.25,5.2a2.664,2.664,0,0,1-.543-.688Z" transform="translate(0 0.001)" fill="#0c2d70"/>
        <path id="Path_877890" data-name="Path 877890" d="M116.754,137.874a4.437,4.437,0,0,1,2.393,1.64c.341-.5.834-.576,1.3-.887a3.008,3.008,0,1,1,3.831.067,3.466,3.466,0,0,1,2.443,3.369c.073.833.146,3.973-.2,4.551a1.087,1.087,0,0,1-.333.351l-6.34.062c-.24.067.165.72-.833.829a60.6,60.6,0,0,1-8.485.006c-.779-.067-.724-.124-.967-.834-1.867-.169-4.2.253-6.007.015a.765.765,0,0,1-.665-.429c-.331-.552-.278-3.5-.222-4.3.116-1.663.729-3.131,2.466-3.619a3,3,0,1,1,3.831-.067c.462.31.955.388,1.3.887a4.437,4.437,0,0,1,2.393-1.64c-3.368-2.8.116-7.992,3.872-5.716a3.514,3.514,0,0,1,.23,5.716m-.354-2.8a1.7,1.7,0,1,0-1.7,1.7,1.7,1.7,0,0,0,1.7-1.7m-8.12,1.287A1.276,1.276,0,1,0,107,137.633a1.276,1.276,0,0,0,1.275-1.276m15.4,0a1.276,1.276,0,1,0-1.276,1.276,1.276,1.276,0,0,0,1.276-1.276m-5.557,9.859V141.5a2.725,2.725,0,0,0-1.412-1.869,7.507,7.507,0,0,0-3.823-.084,2.7,2.7,0,0,0-1.6,1.953v4.717ZM104.449,141.5c-.205,1.021.152,2.665,0,3.76h5.059v-3.9c0-.332-.758-.976-1.118-1.07-1.148-.3-3.638-.3-3.941,1.206m20.508,3.76V141.5c0-.371-.83-1.132-1.226-1.235-.707-.184-2.793-.171-3.359.341a4.573,4.573,0,0,0-.474.757v3.9Z" transform="translate(-88.594 -113.604)" fill="#0c2d70"/>
        <path id="Path_877891" data-name="Path 877891" d="M98.894,148.945a12.761,12.761,0,0,0,4.786,2.392c14.239,3.979,25.7-11.237,18.469-23.912l1.49-.9a17.986,17.986,0,0,1-23.016,25.548c-.839-.391-2.108-1.391-2.756-1.619-.332-.117-.132.12-.1.236.185.656.563,1.323.705,2.007-.06.24-1.328.526-1.628.627l-1.754-5.028c-.07-.633.257-.92.861-.991,1.549-.182,3.453.124,5.042.022.417.136.156,1.25.224,1.622Z" transform="translate(-82.082 -109.225)" fill="#0c2d70"/>
        <path id="Path_877892" data-name="Path 877892" d="M86.609,67.868l-1.091-.754A16.31,16.31,0,0,0,61.2,83.5a16.53,16.53,0,0,0,2.164,6.027l-1.5.9a21.261,21.261,0,0,1-2.29-6.121,18,18,0,0,1,24.759-19.7L87.84,66.5l-.821-2.321,1.562-.538c.153.038.17.2.226.321a35.656,35.656,0,0,1,1.6,4.555c.048.338-.076,1.128-.447,1.128H84.422c.034-.308-.129-1.777.205-1.777Z" transform="translate(-51.203 -54.534)" fill="#0c2d70"/>
      </g>
    </g>
  </g>
</svg>
