<svg xmlns="http://www.w3.org/2000/svg" xmlns:xlink="http://www.w3.org/1999/xlink" width="99" height="99" viewBox="0 0 99 99">
  <defs>
    <clipPath id="clip-path">
      <rect id="Rectangle_403416" data-name="Rectangle 403416" width="97.687" height="91.902" fill="#d1f3f5"/>
    </clipPath>
    <clipPath id="clip-path-2">
      <path id="Path_875268" data-name="Path 875268" d="M1.5,23.675l-1.5.6V36.6a8.4,8.4,0,0,0,3.3,6.507L40.867,73.755a13.171,13.171,0,0,0,15.954,0L94.388,43.113a8.425,8.425,0,0,0,3.3-6.393c0-.1,0-.206,0-.309l.006,0V24.386l-2.354-1.849A12.143,12.143,0,0,1,85.987,32.73L59.069,54.97,47.32,60.964l-37.5-27.34.867-.708c-3.2-2.116-4.931-6.953-6.664-11.367Z" transform="translate(0 -21.549)" fill="#61dfe4"/>
    </clipPath>
    <clipPath id="clip-path-3">
      <rect id="Rectangle_403409" data-name="Rectangle 403409" width="97.687" height="91.903" fill="none"/>
    </clipPath>
    <clipPath id="clip-path-4">
      <rect id="Rectangle_403408" data-name="Rectangle 403408" width="48.843" height="53.75" fill="none"/>
    </clipPath>
    <clipPath id="clip-path-5">
      <path id="Path_875270" data-name="Path 875270" d="M34.642,9.4,3.311,35.8c1.733,4.413,3.46,9.251,6.664,11.367l35.6-29.041a4.219,4.219,0,0,1,5.109,0L85.662,46.66l-.388.323A12.143,12.143,0,0,0,94.62,36.789L55.364,5.942,43.942,1.678Z" transform="translate(-3.311 -1.678)" fill="#61dfe4"/>
    </clipPath>
    <clipPath id="clip-path-7">
      <rect id="Rectangle_403411" data-name="Rectangle 403411" width="44.819" height="45.491" fill="none"/>
    </clipPath>
    <clipPath id="clip-path-8">
      <path id="Path_875272" data-name="Path 875272" d="M46.289,72.571,8.722,41.927a2.585,2.585,0,0,1,0-4.17L46.288,7.115a4.217,4.217,0,0,1,5.109,0L88.965,37.759a2.583,2.583,0,0,1,0,4.168L51.4,72.57a4.218,4.218,0,0,1-5.109,0M48.7,0a12.642,12.642,0,0,0-7.835,2.691L3.3,33.335a8.067,8.067,0,0,0,0,13.013L40.867,76.993a13.166,13.166,0,0,0,15.954,0L94.388,46.349a8.067,8.067,0,0,0,0-13.013L56.82,2.691A12.642,12.642,0,0,0,48.985,0Z" transform="translate(-0.001)" fill="#98baff"/>
    </clipPath>
    <clipPath id="clip-path-10">
      <path id="Path_875275" data-name="Path 875275" d="M44.962,72.924,7.4,42.282a3.659,3.659,0,0,1,0-5.9L44.961,5.738a5.97,5.97,0,0,1,7.232,0L89.76,36.383a3.657,3.657,0,0,1,0,5.9L52.193,72.924a5.97,5.97,0,0,1-7.231,0M41.66,3.046,4.094,33.689a7,7,0,0,0,0,11.284L41.662,75.619a11.426,11.426,0,0,0,13.833,0L93.062,44.973a6.994,6.994,0,0,0,0-11.282L55.493,3.046a11.416,11.416,0,0,0-13.833,0" transform="translate(-1.234 -0.712)" fill="#98baff"/>
    </clipPath>
    <clipPath id="clip-path-11">
      <rect id="Rectangle_403406" data-name="Rectangle 403406" width="38.332" height="22.221" fill="#0f398d"/>
    </clipPath>
    <clipPath id="clip-path-12">
      <rect id="Rectangle_403518" data-name="Rectangle 403518" width="82.49" height="80.524" fill="#cbdcff"/>
    </clipPath>
    <clipPath id="clip-path-13">
      <rect id="Rectangle_403232" data-name="Rectangle 403232" width="99" height="79.995" fill="#0f398d"/>
    </clipPath>
    <clipPath id="clip-path-14">
      <rect id="Rectangle_404835" data-name="Rectangle 404835" width="50.129" height="44.045" fill="#0c2d70"/>
    </clipPath>
  </defs>
  <g id="img22" transform="translate(-1191 -6886)">
    <g id="Group_1101591" data-name="Group 1101591" transform="translate(1191 6886)">
      <g id="Group_1100744" data-name="Group 1100744" transform="translate(0.004 7.098)">
        <g id="Group_1100514" data-name="Group 1100514" clip-path="url(#clip-path)">
          <g id="Group_1100495" data-name="Group 1100495" transform="translate(0 37.005)">
            <g id="Group_1100494" data-name="Group 1100494" clip-path="url(#clip-path-2)">
              <path id="Path_875399" data-name="Path 875399" d="M18.655,14.846,127.412,0,108.757,115.115,0,129.961Z" transform="translate(-39.284 50.577) rotate(-60)" fill="#61dfe4"/>
            </g>
          </g>
          <g id="Group_1100500" data-name="Group 1100500" transform="translate(0 0)">
            <g id="Group_1100499" data-name="Group 1100499" clip-path="url(#clip-path-3)">
              <g id="Group_1100498" data-name="Group 1100498" transform="translate(48.843 38.152)" opacity="0.3">
                <g id="Group_1100497" data-name="Group 1100497">
                  <g id="Group_1100496" data-name="Group 1100496" clip-path="url(#clip-path-4)">
                    <path id="Path_875269" data-name="Path 875269" d="M77.329,32.25,50.411,54.49,40.185,59.707V75.968a12.671,12.671,0,0,0,7.978-2.691L85.73,42.632a8.422,8.422,0,0,0,3.3-6.392c0-.1,0-.208,0-.311l.006,0V23.908l-2.153-1.692h-.225A12.151,12.151,0,0,1,77.329,32.25" transform="translate(-40.185 -22.217)" fill="#0f054c"/>
                  </g>
                </g>
              </g>
            </g>
          </g>
          <g id="Group_1100502" data-name="Group 1100502" transform="translate(4.024 2.882)">
            <g id="Group_1100501" data-name="Group 1100501" clip-path="url(#clip-path-5)">
              <path id="Path_875400" data-name="Path 875400" d="M17.015,13.147,113.324,0,96.309,105,0,118.145Z" transform="matrix(0.5, -0.866, 0.866, 0.5, -33.835, 42.279)" fill="#61dfe4"/>
            </g>
          </g>
          <g id="Group_1100507" data-name="Group 1100507" transform="translate(0 0)">
            <g id="Group_1100506" data-name="Group 1100506" clip-path="url(#clip-path-3)">
              <g id="Group_1100505" data-name="Group 1100505" transform="translate(4.024 2.881)" opacity="0.3">
                <g id="Group_1100504" data-name="Group 1100504">
                  <g id="Group_1100503" data-name="Group 1100503" clip-path="url(#clip-path-7)">
                    <path id="Path_875271" data-name="Path 875271" d="M48.13,3.241,43.942,1.677,34.642,9.4,3.311,35.8c1.733,4.413,3.459,9.253,6.664,11.368l35.6-29.041a4.062,4.062,0,0,1,2.555-.86Z" transform="translate(-3.311 -1.678)" fill="#0f054c"/>
                  </g>
                </g>
              </g>
            </g>
          </g>
          <g id="Group_1100509" data-name="Group 1100509" transform="translate(0.001)">
            <g id="Group_1100508" data-name="Group 1100508" clip-path="url(#clip-path-8)">
              <rect id="Rectangle_403413" data-name="Rectangle 403413" width="99.885" height="80.582" transform="translate(-1.099 0)" fill="#98baff"/>
            </g>
          </g>
          <g id="Group_1100511" data-name="Group 1100511" transform="translate(0 0)">
            <g id="Group_1100510" data-name="Group 1100510" clip-path="url(#clip-path-3)">
              <path id="Path_875273" data-name="Path 875273" d="M87.606,35.147,50.038,4.5a4.217,4.217,0,0,0-5.109,0L7.363,35.146a2.592,2.592,0,0,0-.935,2.833,2.846,2.846,0,0,1,.935-1.334L44.93,6a4.217,4.217,0,0,1,5.109,0L87.606,36.645a2.85,2.85,0,0,1,.935,1.336,2.592,2.592,0,0,0-.935-2.833" transform="translate(1.359 2.612)" fill="#fff"/>
              <path id="Path_875274" data-name="Path 875274" d="M94.388,29.4,56.821,60.039a13.166,13.166,0,0,1-15.954,0L3.3,29.395A8.537,8.537,0,0,1,.04,23.637,8.284,8.284,0,0,0,3.3,30.894L40.867,61.539a13.171,13.171,0,0,0,15.954,0L94.388,30.894a8.281,8.281,0,0,0,3.259-7.255A8.539,8.539,0,0,1,94.388,29.4" transform="translate(0.001 16.954)" fill="#fff"/>
            </g>
          </g>
          <g id="Group_1100513" data-name="Group 1100513" transform="translate(1.5 1.223)">
            <g id="Group_1100512" data-name="Group 1100512" clip-path="url(#clip-path-10)">
              <rect id="Rectangle_403415" data-name="Rectangle 403415" width="96.595" height="78.015" transform="translate(-0.954 0)" fill="#98baff"/>
            </g>
          </g>
        </g>
      </g>
      <g id="Group_1100747" data-name="Group 1100747" transform="translate(0 76.779)">
        <g id="Group_1100491" data-name="Group 1100491" transform="translate(0 0)" clip-path="url(#clip-path-11)">
          <path id="Path_875261" data-name="Path 875261" d="M30.025,21.071a1.151,1.151,0,1,1,1.151,1.15,1.151,1.151,0,0,1-1.151-1.15m-4.854,1.15a1.151,1.151,0,1,0-1.151-1.15,1.15,1.15,0,0,0,1.151,1.15m-6.005,0a1.151,1.151,0,1,0-1.151-1.15,1.15,1.15,0,0,0,1.151,1.15m-6.005,0a1.151,1.151,0,1,0-1.151-1.15,1.15,1.15,0,0,0,1.151,1.15m-6.005,0a1.151,1.151,0,1,0-1.151-1.15,1.15,1.15,0,0,0,1.151,1.15m-6.005,0A1.151,1.151,0,1,0,0,21.071a1.15,1.15,0,0,0,1.151,1.15m30.025-6.528a1.151,1.151,0,1,0-1.151-1.151,1.151,1.151,0,0,0,1.151,1.151m-6.005,0a1.151,1.151,0,1,0-1.151-1.151,1.151,1.151,0,0,0,1.151,1.151m-6.005,0a1.151,1.151,0,1,0-1.151-1.151,1.151,1.151,0,0,0,1.151,1.151m-6.005,0a1.151,1.151,0,1,0-1.151-1.151,1.151,1.151,0,0,0,1.151,1.151m-6.005,0a1.151,1.151,0,1,0-1.151-1.151,1.151,1.151,0,0,0,1.151,1.151m-6.005,0A1.151,1.151,0,1,0,0,14.542a1.151,1.151,0,0,0,1.151,1.151M31.176,9.165a1.151,1.151,0,1,0-1.151-1.151,1.151,1.151,0,0,0,1.151,1.151M36.03,21.071a1.151,1.151,0,1,1,1.151,1.15,1.151,1.151,0,0,1-1.151-1.15m1.151-5.378a1.151,1.151,0,1,0-1.151-1.151,1.151,1.151,0,0,0,1.151,1.151m0-6.528A1.151,1.151,0,1,0,36.03,8.014a1.151,1.151,0,0,0,1.151,1.151m-12.01,0A1.151,1.151,0,1,0,24.02,8.014a1.151,1.151,0,0,0,1.151,1.151m-6.005,0a1.151,1.151,0,1,0-1.151-1.151,1.151,1.151,0,0,0,1.151,1.151m-6.005,0A1.151,1.151,0,1,0,12.01,8.014a1.151,1.151,0,0,0,1.151,1.151m-6.005,0A1.151,1.151,0,1,0,6.005,8.014,1.151,1.151,0,0,0,7.156,9.165m-6.005,0A1.151,1.151,0,1,0,0,8.014,1.151,1.151,0,0,0,1.151,9.165M31.176,2.3a1.151,1.151,0,1,0-1.151-1.151A1.151,1.151,0,0,0,31.176,2.3m6.005,0A1.151,1.151,0,1,0,36.03,1.151,1.151,1.151,0,0,0,37.181,2.3m-12.01,0A1.151,1.151,0,1,0,24.02,1.151,1.151,1.151,0,0,0,25.171,2.3m-6.005,0a1.151,1.151,0,1,0-1.151-1.151A1.151,1.151,0,0,0,19.166,2.3m-6.005,0A1.151,1.151,0,1,0,12.01,1.151,1.151,1.151,0,0,0,13.161,2.3m-6.005,0A1.151,1.151,0,1,0,6.005,1.151,1.151,1.151,0,0,0,7.156,2.3m-6.005,0A1.151,1.151,0,1,0,0,1.151,1.151,1.151,0,0,0,1.151,2.3" transform="translate(0 0)" fill="#0f398d"/>
        </g>
      </g>
      <g id="Group_1100749" data-name="Group 1100749" transform="translate(7.664)">
        <g id="Group_1100748" data-name="Group 1100748" clip-path="url(#clip-path-12)">
          <path id="Path_875398" data-name="Path 875398" d="M8.527,0H73.888a8.471,8.471,0,0,1,8.564,8.374l-.043,42.7L46.453,79.117a10.488,10.488,0,0,1-10.493,0L-.184,49.467-.036,8.374A8.47,8.47,0,0,1,8.527,0" transform="translate(0.039 0)" fill="#cbdcff"/>
        </g>
      </g>
      <g id="Group_1100745" data-name="Group 1100745" transform="translate(0 1.529)">
        <g id="Group_1100096" data-name="Group 1100096" transform="translate(0 0)" clip-path="url(#clip-path-13)">
          <path id="Path_873771" data-name="Path 873771" d="M49.5,80a11.773,11.773,0,0,1-7.351-2.447L3.141,46.183a7.662,7.662,0,0,1,0-12.372L42.147,2.445a12.282,12.282,0,0,1,14.705,0L95.86,33.812a7.662,7.662,0,0,1,0,12.372L56.854,77.549A11.777,11.777,0,0,1,49.5,80M49.5.938a11.235,11.235,0,0,0-7.011,2.331L3.483,34.633a6.537,6.537,0,0,0,0,10.725L42.492,76.727a11.713,11.713,0,0,0,14.02,0L95.518,45.361a6.537,6.537,0,0,0,0-10.725L56.511,3.269A11.235,11.235,0,0,0,49.5.938" transform="translate(0 -0.001)" fill="#0f398d"/>
        </g>
      </g>
      <rect id="Rectangle_403516" data-name="Rectangle 403516" width="82.49" height="44.076" rx="9" transform="translate(7.664 0.529)" fill="#cbdcff"/>
    </g>
    <g id="Group_1102765" data-name="Group 1102765" transform="translate(1214.935 6899)">
      <g id="Group_1102764" data-name="Group 1102764" clip-path="url(#clip-path-14)">
        <path id="Path_877886" data-name="Path 877886" d="M22.84,9.786c.617-.2,1.541-.959,2.164-.986.69-.029,1.628.755,2.3.986V6.65a1.349,1.349,0,0,1,.365-.611l4.722-2.8c-.035-1.456.619-3.013,2.227-3.208a2.583,2.583,0,0,1,1.54,4.884,2.714,2.714,0,0,1-2.905-.4c-1.131.9-3.075,1.55-4.132,2.423a.571.571,0,0,0-.281.416A16.844,16.844,0,0,0,28.828,10c.026.191.027.367.206.491l5.654,1.8V8.74c0-.142.322-.419.452-.523,1.252-1,3.222-1.732,4.567-2.681.252-1.044.007-1.664.829-2.516,2.789-2.892,6.631,2.315,3.009,4.124-1.169.584-1.97.17-3.015-.363L36.423,9.22c-.455.441-.074,2.682-.207,3.4.09.389,3.954.523,4.409,1.055.536.626-.13,3.71.425,4.207a18.517,18.517,0,0,0,1.772.7,14.56,14.56,0,0,0,1.333.75,16.661,16.661,0,0,1,2.024-.5c4.368.143,5.494,6.3,1.43,7.838-.374.142-.9.113-1.2.329-.248.178-1,1.479-1.332,1.874A19.252,19.252,0,0,1,41.283,32.2c-.672.454-2.391,1.234-2.824,1.636s-1.5,2.564-2.1,3.336c-2.222,2.844-7.157,6.187-10.723,6.839-1.161.212-3.077-.643-4.184-1.126a21.175,21.175,0,0,1-6.375-4.219,22.617,22.617,0,0,1-7.425-1.636c-.393-.166-1.427-.848-1.639-.881-.243-.038-1.129.369-1.636.4-4.707.309-5.952-6-2.081-7.655.426-.182,1.221-.227,1.446-.366.1-.065.72-1.189.92-1.45a18.876,18.876,0,0,1,4.589-4.053c.095-1.7-.1-3.38-.076-5.094,0-.329.138-.635.151-.964a16.6,16.6,0,0,1,.067-3.139.908.908,0,0,1,.453-.384c.523-.209,4.007-.511,4.08-.827-.134-.712.218-2.852-.134-3.334L9.61,6.781c-1.083.561-1.915.96-3.1.309C3.068,5.2,6.764.278,9.534,2.95c1.048,1.01.563,2.211.9,2.586,1.345.949,3.316,1.68,4.567,2.681.13.1.452.381.452.523v3.554l5.836-1.831A22.964,22.964,0,0,0,21.3,7.35a.571.571,0,0,0-.281-.416c-1.058-.872-3-1.527-4.132-2.423a2.714,2.714,0,0,1-2.905.4A2.583,2.583,0,0,1,15.526.026c1.608.2,2.262,1.753,2.227,3.208l4.722,2.8a1.349,1.349,0,0,1,.365.611Zm-6.692-7.2a1.065,1.065,0,1,0-1.065,1.065,1.064,1.064,0,0,0,1.065-1.065m19.974,0a1.065,1.065,0,1,0-1.065,1.065,1.065,1.065,0,0,0,1.065-1.065M8.807,4.822A1.068,1.068,0,1,0,7.74,5.89,1.068,1.068,0,0,0,8.807,4.822m34.662,0A1.068,1.068,0,1,0,42.4,5.89a1.068,1.068,0,0,0,1.068-1.068m-4.188,9.988a45.166,45.166,0,0,1-14.163-4.436A46.872,46.872,0,0,1,10.86,14.811c-.265,7.591-.519,16.471,5.013,22.363a44.665,44.665,0,0,0,19.368-3.487c.738-.321,1.79-.63,2.164-1.321,1.424-2.628,1.947-8.472,2.028-11.493.055-2.035-.087-4.042-.153-6.062m3.96,10.956a4.118,4.118,0,0,1-.329-5.309,5.528,5.528,0,0,0-1.95-.914c-.17,4.029-.213,8.178-1.674,11.986.218.21,3.03-2.006,3.347-2.3s2.277-2.319,2.089-2.579a3.417,3.417,0,0,1-1.484-.888m5.383-2.848a2.5,2.5,0,1,0-2.5,2.5,2.5,2.5,0,0,0,2.5-2.5M9.458,24.841c-.091-.113-1.459.984-1.606,1.111a16.377,16.377,0,0,0-2.428,2.724,4.309,4.309,0,0,1,1.8,6.477,17.423,17.423,0,0,0,6.412,1.813c-2.662-3.451-3.8-7.83-4.182-12.125M6.516,32.567A2.493,2.493,0,1,0,4.023,35.06a2.493,2.493,0,0,0,2.493-2.493M35.8,35.155a52.4,52.4,0,0,1-18.119,3.692,18.169,18.169,0,0,0,5.642,3.139,11.922,11.922,0,0,0,1.573.53,16.182,16.182,0,0,0,3.985-1.388,18.742,18.742,0,0,0,5.947-4.507c.138-.16,1.1-1.345.971-1.467" transform="translate(0 0)" fill="#0c2d70"/>
        <path id="Path_877887" data-name="Path 877887" d="M112.86,110.6c1.461-.166,2.25.242,2.6,1.679.756.116,2.915-.24,3.453.143s.059,1.384-.408,1.384h-3.136v1.673h3.276c.64,0,.6,1.533.139,1.533h-3.415v1.812h3.415c.213,0,.375.537.363.766-.072,1.356-2.855.5-3.69.785-.373.128-.051,1.385-1.544,1.522-4.193.386-8.984-.3-13.241-.015-1.09-.172-.969-1.4-1.28-1.507-.864-.3-3.781.633-3.69-.924.011-.191.2-.628.362-.628h3.415v-1.812H96.063c-.461,0-.5-1.533.139-1.533h3.276v-1.673H96.342c-.466,0-.957-.992-.408-1.384s2.7-.027,3.452-.143c.35-1.437,1.14-1.846,2.6-1.679v-2.3a5.988,5.988,0,0,1,1.95-3.347,5.487,5.487,0,0,1,8.2,1.421,7.885,7.885,0,0,1,.722,1.926Zm-1.533,0v-2.161a5.817,5.817,0,0,0-.585-1.366,3.877,3.877,0,0,0-6.686.089,5.83,5.83,0,0,0-.535,1.277V110.6Zm2.509,1.533H101.012v8.224h12.824Z" transform="translate(-82.353 -89.248)" fill="#0c2d70"/>
        <path id="Path_877888" data-name="Path 877888" d="M158.808,174.318a.786.786,0,0,1,.853.853c-.126.8-4.181,3.753-4.957,4.536-.4.121-.539-.012-.813-.246-.186-.159-1.908-2.493-1.956-2.651-.241-.776.362-1.184,1.1-.954.425.132,1.221,1.995,1.679,1.914.763-.521,3.412-3.345,4.093-3.452" transform="translate(-130.71 -150.014)" fill="#0c2d70"/>
      </g>
    </g>
  </g>
</svg>
