<svg xmlns="http://www.w3.org/2000/svg" xmlns:xlink="http://www.w3.org/1999/xlink" width="99" height="99" viewBox="0 0 99 99">
  <defs>
    <clipPath id="clip-path">
      <rect id="Rectangle_403416" data-name="Rectangle 403416" width="97.687" height="91.902" fill="#d1f3f5"/>
    </clipPath>
    <clipPath id="clip-path-2">
      <path id="Path_875268" data-name="Path 875268" d="M1.5,23.675l-1.5.6V36.6a8.4,8.4,0,0,0,3.3,6.507L40.867,73.755a13.171,13.171,0,0,0,15.954,0L94.388,43.113a8.425,8.425,0,0,0,3.3-6.393c0-.1,0-.206,0-.309l.006,0V24.386l-2.354-1.849A12.143,12.143,0,0,1,85.987,32.73L59.069,54.97,47.32,60.964l-37.5-27.34.867-.708c-3.2-2.116-4.931-6.953-6.664-11.367Z" transform="translate(0 -21.549)" fill="#61dfe4"/>
    </clipPath>
    <clipPath id="clip-path-3">
      <rect id="Rectangle_403409" data-name="Rectangle 403409" width="97.687" height="91.903" fill="none"/>
    </clipPath>
    <clipPath id="clip-path-4">
      <rect id="Rectangle_403408" data-name="Rectangle 403408" width="48.843" height="53.75" fill="none"/>
    </clipPath>
    <clipPath id="clip-path-5">
      <path id="Path_875270" data-name="Path 875270" d="M34.642,9.4,3.311,35.8c1.733,4.413,3.46,9.251,6.664,11.367l35.6-29.041a4.219,4.219,0,0,1,5.109,0L85.662,46.66l-.388.323A12.143,12.143,0,0,0,94.62,36.789L55.364,5.942,43.942,1.678Z" transform="translate(-3.311 -1.678)" fill="#61dfe4"/>
    </clipPath>
    <clipPath id="clip-path-7">
      <rect id="Rectangle_403411" data-name="Rectangle 403411" width="44.819" height="45.491" fill="none"/>
    </clipPath>
    <clipPath id="clip-path-8">
      <path id="Path_875272" data-name="Path 875272" d="M46.289,72.571,8.722,41.927a2.585,2.585,0,0,1,0-4.17L46.288,7.115a4.217,4.217,0,0,1,5.109,0L88.965,37.759a2.583,2.583,0,0,1,0,4.168L51.4,72.57a4.218,4.218,0,0,1-5.109,0M48.7,0a12.642,12.642,0,0,0-7.835,2.691L3.3,33.335a8.067,8.067,0,0,0,0,13.013L40.867,76.993a13.166,13.166,0,0,0,15.954,0L94.388,46.349a8.067,8.067,0,0,0,0-13.013L56.82,2.691A12.642,12.642,0,0,0,48.985,0Z" transform="translate(-0.001)" fill="#98baff"/>
    </clipPath>
    <clipPath id="clip-path-10">
      <path id="Path_875275" data-name="Path 875275" d="M44.962,72.924,7.4,42.282a3.659,3.659,0,0,1,0-5.9L44.961,5.738a5.97,5.97,0,0,1,7.232,0L89.76,36.383a3.657,3.657,0,0,1,0,5.9L52.193,72.924a5.97,5.97,0,0,1-7.231,0M41.66,3.046,4.094,33.689a7,7,0,0,0,0,11.284L41.662,75.619a11.426,11.426,0,0,0,13.833,0L93.062,44.973a6.994,6.994,0,0,0,0-11.282L55.493,3.046a11.416,11.416,0,0,0-13.833,0" transform="translate(-1.234 -0.712)" fill="#98baff"/>
    </clipPath>
    <clipPath id="clip-path-11">
      <rect id="Rectangle_403406" data-name="Rectangle 403406" width="38.332" height="22.221" fill="#0f398d"/>
    </clipPath>
    <clipPath id="clip-path-12">
      <rect id="Rectangle_403518" data-name="Rectangle 403518" width="82.49" height="80.524" fill="#cbdcff"/>
    </clipPath>
    <clipPath id="clip-path-13">
      <rect id="Rectangle_403232" data-name="Rectangle 403232" width="99" height="79.995" fill="#0f398d"/>
    </clipPath>
    <clipPath id="clip-path-14">
      <rect id="Rectangle_404838" data-name="Rectangle 404838" width="47.531" height="46.715" fill="#0c2d70"/>
    </clipPath>
  </defs>
  <g id="img25" transform="translate(-1881.438 4715)">
    <g id="Group_1101594" data-name="Group 1101594" transform="translate(1881.438 -4715)">
      <g id="Group_1100744" data-name="Group 1100744" transform="translate(0.004 7.098)">
        <g id="Group_1100514" data-name="Group 1100514" clip-path="url(#clip-path)">
          <g id="Group_1100495" data-name="Group 1100495" transform="translate(0 37.005)">
            <g id="Group_1100494" data-name="Group 1100494" clip-path="url(#clip-path-2)">
              <path id="Path_875399" data-name="Path 875399" d="M18.655,14.846,127.412,0,108.757,115.115,0,129.961Z" transform="translate(-39.284 50.577) rotate(-60)" fill="#61dfe4"/>
            </g>
          </g>
          <g id="Group_1100500" data-name="Group 1100500" transform="translate(0 0)">
            <g id="Group_1100499" data-name="Group 1100499" clip-path="url(#clip-path-3)">
              <g id="Group_1100498" data-name="Group 1100498" transform="translate(48.843 38.152)" opacity="0.3">
                <g id="Group_1100497" data-name="Group 1100497">
                  <g id="Group_1100496" data-name="Group 1100496" clip-path="url(#clip-path-4)">
                    <path id="Path_875269" data-name="Path 875269" d="M77.329,32.25,50.411,54.49,40.185,59.707V75.968a12.671,12.671,0,0,0,7.978-2.691L85.73,42.632a8.422,8.422,0,0,0,3.3-6.392c0-.1,0-.208,0-.311l.006,0V23.908l-2.153-1.692h-.225A12.151,12.151,0,0,1,77.329,32.25" transform="translate(-40.185 -22.217)" fill="#0f054c"/>
                  </g>
                </g>
              </g>
            </g>
          </g>
          <g id="Group_1100502" data-name="Group 1100502" transform="translate(4.024 2.882)">
            <g id="Group_1100501" data-name="Group 1100501" clip-path="url(#clip-path-5)">
              <path id="Path_875400" data-name="Path 875400" d="M17.015,13.147,113.324,0,96.309,105,0,118.145Z" transform="matrix(0.5, -0.866, 0.866, 0.5, -33.835, 42.279)" fill="#61dfe4"/>
            </g>
          </g>
          <g id="Group_1100507" data-name="Group 1100507" transform="translate(0 0)">
            <g id="Group_1100506" data-name="Group 1100506" clip-path="url(#clip-path-3)">
              <g id="Group_1100505" data-name="Group 1100505" transform="translate(4.024 2.881)" opacity="0.3">
                <g id="Group_1100504" data-name="Group 1100504">
                  <g id="Group_1100503" data-name="Group 1100503" clip-path="url(#clip-path-7)">
                    <path id="Path_875271" data-name="Path 875271" d="M48.13,3.241,43.942,1.677,34.642,9.4,3.311,35.8c1.733,4.413,3.459,9.253,6.664,11.368l35.6-29.041a4.062,4.062,0,0,1,2.555-.86Z" transform="translate(-3.311 -1.678)" fill="#0f054c"/>
                  </g>
                </g>
              </g>
            </g>
          </g>
          <g id="Group_1100509" data-name="Group 1100509" transform="translate(0.001)">
            <g id="Group_1100508" data-name="Group 1100508" clip-path="url(#clip-path-8)">
              <rect id="Rectangle_403413" data-name="Rectangle 403413" width="99.885" height="80.582" transform="translate(-1.099 0)" fill="#98baff"/>
            </g>
          </g>
          <g id="Group_1100511" data-name="Group 1100511" transform="translate(0 0)">
            <g id="Group_1100510" data-name="Group 1100510" clip-path="url(#clip-path-3)">
              <path id="Path_875273" data-name="Path 875273" d="M87.606,35.147,50.038,4.5a4.217,4.217,0,0,0-5.109,0L7.363,35.146a2.592,2.592,0,0,0-.935,2.833,2.846,2.846,0,0,1,.935-1.334L44.93,6a4.217,4.217,0,0,1,5.109,0L87.606,36.645a2.85,2.85,0,0,1,.935,1.336,2.592,2.592,0,0,0-.935-2.833" transform="translate(1.359 2.612)" fill="#fff"/>
              <path id="Path_875274" data-name="Path 875274" d="M94.388,29.4,56.821,60.039a13.166,13.166,0,0,1-15.954,0L3.3,29.395A8.537,8.537,0,0,1,.04,23.637,8.284,8.284,0,0,0,3.3,30.894L40.867,61.539a13.171,13.171,0,0,0,15.954,0L94.388,30.894a8.281,8.281,0,0,0,3.259-7.255A8.539,8.539,0,0,1,94.388,29.4" transform="translate(0.001 16.954)" fill="#fff"/>
            </g>
          </g>
          <g id="Group_1100513" data-name="Group 1100513" transform="translate(1.5 1.223)">
            <g id="Group_1100512" data-name="Group 1100512" clip-path="url(#clip-path-10)">
              <rect id="Rectangle_403415" data-name="Rectangle 403415" width="96.595" height="78.015" transform="translate(-0.954 0)" fill="#98baff"/>
            </g>
          </g>
        </g>
      </g>
      <g id="Group_1100747" data-name="Group 1100747" transform="translate(0 76.779)">
        <g id="Group_1100491" data-name="Group 1100491" transform="translate(0 0)" clip-path="url(#clip-path-11)">
          <path id="Path_875261" data-name="Path 875261" d="M30.025,21.071a1.151,1.151,0,1,1,1.151,1.15,1.151,1.151,0,0,1-1.151-1.15m-4.854,1.15a1.151,1.151,0,1,0-1.151-1.15,1.15,1.15,0,0,0,1.151,1.15m-6.005,0a1.151,1.151,0,1,0-1.151-1.15,1.15,1.15,0,0,0,1.151,1.15m-6.005,0a1.151,1.151,0,1,0-1.151-1.15,1.15,1.15,0,0,0,1.151,1.15m-6.005,0a1.151,1.151,0,1,0-1.151-1.15,1.15,1.15,0,0,0,1.151,1.15m-6.005,0A1.151,1.151,0,1,0,0,21.071a1.15,1.15,0,0,0,1.151,1.15m30.025-6.528a1.151,1.151,0,1,0-1.151-1.151,1.151,1.151,0,0,0,1.151,1.151m-6.005,0a1.151,1.151,0,1,0-1.151-1.151,1.151,1.151,0,0,0,1.151,1.151m-6.005,0a1.151,1.151,0,1,0-1.151-1.151,1.151,1.151,0,0,0,1.151,1.151m-6.005,0a1.151,1.151,0,1,0-1.151-1.151,1.151,1.151,0,0,0,1.151,1.151m-6.005,0a1.151,1.151,0,1,0-1.151-1.151,1.151,1.151,0,0,0,1.151,1.151m-6.005,0A1.151,1.151,0,1,0,0,14.542a1.151,1.151,0,0,0,1.151,1.151M31.176,9.165a1.151,1.151,0,1,0-1.151-1.151,1.151,1.151,0,0,0,1.151,1.151M36.03,21.071a1.151,1.151,0,1,1,1.151,1.15,1.151,1.151,0,0,1-1.151-1.15m1.151-5.378a1.151,1.151,0,1,0-1.151-1.151,1.151,1.151,0,0,0,1.151,1.151m0-6.528A1.151,1.151,0,1,0,36.03,8.014a1.151,1.151,0,0,0,1.151,1.151m-12.01,0A1.151,1.151,0,1,0,24.02,8.014a1.151,1.151,0,0,0,1.151,1.151m-6.005,0a1.151,1.151,0,1,0-1.151-1.151,1.151,1.151,0,0,0,1.151,1.151m-6.005,0A1.151,1.151,0,1,0,12.01,8.014a1.151,1.151,0,0,0,1.151,1.151m-6.005,0A1.151,1.151,0,1,0,6.005,8.014,1.151,1.151,0,0,0,7.156,9.165m-6.005,0A1.151,1.151,0,1,0,0,8.014,1.151,1.151,0,0,0,1.151,9.165M31.176,2.3a1.151,1.151,0,1,0-1.151-1.151A1.151,1.151,0,0,0,31.176,2.3m6.005,0A1.151,1.151,0,1,0,36.03,1.151,1.151,1.151,0,0,0,37.181,2.3m-12.01,0A1.151,1.151,0,1,0,24.02,1.151,1.151,1.151,0,0,0,25.171,2.3m-6.005,0a1.151,1.151,0,1,0-1.151-1.151A1.151,1.151,0,0,0,19.166,2.3m-6.005,0A1.151,1.151,0,1,0,12.01,1.151,1.151,1.151,0,0,0,13.161,2.3m-6.005,0A1.151,1.151,0,1,0,6.005,1.151,1.151,1.151,0,0,0,7.156,2.3m-6.005,0A1.151,1.151,0,1,0,0,1.151,1.151,1.151,0,0,0,1.151,2.3" transform="translate(0 0)" fill="#0f398d"/>
        </g>
      </g>
      <g id="Group_1100749" data-name="Group 1100749" transform="translate(7.664)">
        <g id="Group_1100748" data-name="Group 1100748" clip-path="url(#clip-path-12)">
          <path id="Path_875398" data-name="Path 875398" d="M8.527,0H73.888a8.471,8.471,0,0,1,8.564,8.374l-.043,42.7L46.453,79.117a10.488,10.488,0,0,1-10.493,0L-.184,49.467-.036,8.374A8.47,8.47,0,0,1,8.527,0" transform="translate(0.039 0)" fill="#cbdcff"/>
        </g>
      </g>
      <g id="Group_1100745" data-name="Group 1100745" transform="translate(0 1.529)">
        <g id="Group_1100096" data-name="Group 1100096" transform="translate(0 0)" clip-path="url(#clip-path-13)">
          <path id="Path_873771" data-name="Path 873771" d="M49.5,80a11.773,11.773,0,0,1-7.351-2.447L3.141,46.183a7.662,7.662,0,0,1,0-12.372L42.147,2.445a12.282,12.282,0,0,1,14.705,0L95.86,33.812a7.662,7.662,0,0,1,0,12.372L56.854,77.549A11.777,11.777,0,0,1,49.5,80M49.5.938a11.235,11.235,0,0,0-7.011,2.331L3.483,34.633a6.537,6.537,0,0,0,0,10.725L42.492,76.727a11.713,11.713,0,0,0,14.02,0L95.518,45.361a6.537,6.537,0,0,0,0-10.725L56.511,3.269A11.235,11.235,0,0,0,49.5.938" transform="translate(0 -0.001)" fill="#0f398d"/>
        </g>
      </g>
      <rect id="Rectangle_403516" data-name="Rectangle 403516" width="82.49" height="44.076" rx="9" transform="translate(7.664 0.529)" fill="#cbdcff"/>
    </g>
    <g id="Group_1102770" data-name="Group 1102770" transform="translate(1907.173 -4704.696)">
      <g id="Group_1102769" data-name="Group 1102769" clip-path="url(#clip-path-14)">
        <path id="Path_877895" data-name="Path 877895" d="M30.414,34.478a17.22,17.22,0,0,0,.827,5.267c.065.2.413,1.2.464,1.26.221.266,2.531.061,3.081.12,3.239.349,3.4,5.169,0,5.423-7.149.534-14.953-.414-22.171,0-3.027-.3-3.175-4.686-.278-5.335.678-.152,3.282.036,3.485-.208a21.715,21.715,0,0,0,1.011-3.667,17.366,17.366,0,0,0,.157-2.86H3.144c-1.221,0-3.226-2.2-3.138-3.51L0,3.634A3.9,3.9,0,0,1,3.631,0H44.884a3.082,3.082,0,0,1,2.646,2.771l-.006,28.2c.088,1.31-1.918,3.51-3.138,3.51Zm15.759-8V2.9a1.9,1.9,0,0,0-1.78-1.544H4A2.674,2.674,0,0,0,1.666,2.837c-.052.115-.307.875-.307.924V26.476H5.852l3.75-3.76c.354-.4.976-.2,1.357-.366a10.249,10.249,0,0,0,.807-.8c.141-.312-.32-.8-.458-1.144a6.3,6.3,0,0,1-.593-2.546c-.92.155-2.543-.2-3.366,0-.087.021-.232.456-.385.626a2.055,2.055,0,0,1-2.887.292c-2.117-1.63.386-4.944,2.544-3.283.245.189.67.878.733.895.781.209,2.47-.159,3.361,0a7.456,7.456,0,0,1,1.107-3.448H7.7a1.207,1.207,0,0,1-.428-.557c-.2-1.043.261-3.309-.022-4.164-.084-.253-1.162-.506-1.324-1.63a2.079,2.079,0,1,1,4.026.23c-.179.8-1.328,1.282-1.328,1.38v3.2a1.235,1.235,0,0,0,.185.185H12.87c.114,0,1.438-1.159,1.826-1.375a7.962,7.962,0,1,1,1.781,14.636c-.4-.1-2.086-.922-2.2-.9a4.056,4.056,0,0,0-.861.859c-.256.558-.083,1.2-.728,1.673ZM8.469,6.623C8.96,6.058,8,5.08,7.5,5.72c-.656.842.52,1.416.966.9M25.091,17.15a6.512,6.512,0,1,0-6.512,6.512,6.512,6.512,0,0,0,6.512-6.512m-20.255.431c.3.341,1.291.229,1.181-.5-.183-1.2-1.839-.261-1.181.5m7.905,4.947-.683.685.44.438.683-.685Zm-2.149,1.165-5.355,5.35,1.427,1.429,5.355-5.35ZM4.313,27.953H1.359v2.77a7.955,7.955,0,0,0,.387,1.09,3.073,3.073,0,0,0,2.508,1.309l38.785.008a3.169,3.169,0,0,0,2.746-1.317,7.94,7.94,0,0,0,.388-1.09v-2.77H11.146c-.956.678-3.034,3.5-4,3.758a1.619,1.619,0,0,1-1.473-.258,11.463,11.463,0,0,1-1.468-1.487,1.821,1.821,0,0,1,.1-2.013m24.623,6.525H18.472a22.187,22.187,0,0,1-1.108,6.648h12.8a22.764,22.764,0,0,1-1.231-6.648M12.531,42.634a1.322,1.322,0,0,0,.463,2.555H34.538A1.308,1.308,0,0,0,34.79,42.6Z" transform="translate(0 -0.001)" fill="#0c2d70"/>
        <path id="Path_877896" data-name="Path 877896" d="M212.283,26.131a6.5,6.5,0,0,1,2.239.915,9.2,9.2,0,0,1,3.134,3.391c.313.621,1.288,2.712-.225,2.448-.516-.09-1.015-1.754-1.371-2.329a6.964,6.964,0,0,0-2.431-2.371c-.289-.168-1.69-.745-1.746-.838a.922.922,0,0,1,.4-1.216" transform="translate(-185.719 -22.907)" fill="#0c2d70"/>
        <path id="Path_877897" data-name="Path 877897" d="M245.922,123.05c1.613-.339.662,2.921.374,3.705-.249.678-.922,2.328-1.752,2.182-1.279-.224-.029-1.636.2-2.133a8.805,8.805,0,0,0,.58-1.882c.094-.586-.208-1.7.6-1.873" transform="translate(-213.94 -107.88)" fill="#0c2d70"/>
        <path id="Path_877898" data-name="Path 877898" d="M137.113,32.085c.813.812-1.211,1.748-1.7,2.242a13.791,13.791,0,0,0-1.03,1.309c-.3.4-.362,1.071-1,1.11-1.69.1.054-2.323.491-2.845.487-.581,2.481-2.569,3.234-1.816" transform="translate(-116.332 -27.987)" fill="#0c2d70"/>
        <path id="Path_877899" data-name="Path 877899" d="M224.654,63.975c1-.307,1.623,1.457,1.8,2.213.171.72.553,3.035-.377,3.286-1.205.325-.843-2.007-.951-2.7a4.442,4.442,0,0,0-.29-.941c-.194-.456-1.167-1.559-.184-1.862" transform="translate(-196.617 -56.068)" fill="#0c2d70"/>
        <path id="Path_877900" data-name="Path 877900" d="M191.379,69.828c1.294-.379,2.961,1.1,3.117,2.371.075.615.2,2.288-.775,2.138s-.326-1.644-.883-2.449c-.532-.769-1.7-.674-1.854-.977a.8.8,0,0,1,.4-1.083" transform="translate(-167.403 -61.178)" fill="#0c2d70"/>
        <path id="Path_877901" data-name="Path 877901" d="M204.5,173.251a.765.765,0,0,1,.475,1.33c-.6.637-3.839,2.107-4.586,1.756a.746.746,0,0,1-.1-1.271c.375-.25,1.7-.435,2.345-.733a19.208,19.208,0,0,1,1.866-1.082" transform="translate(-175.359 -151.92)" fill="#0c2d70"/>
        <path id="Path_877902" data-name="Path 877902" d="M180.019,46.83c.985-.164,3.417-.04,4.161.7a.723.723,0,0,1-.373,1.249c-.48.024-1.462-.579-2.219-.626-.658-.041-2.046.457-2.378-.085-.418-.681.174-1.136.809-1.242" transform="translate(-157.024 -41.009)" fill="#0c2d70"/>
        <path id="Path_877903" data-name="Path 877903" d="M219.065,139.121c.737-.113.85.626.676,1.178-.214.677-2.069,3.125-2.673,1.881-.333-.684.68-1.419,1.1-1.981.263-.354.356-.994.9-1.078" transform="translate(-190.285 -121.983)" fill="#0c2d70"/>
        <path id="Path_877904" data-name="Path 877904" d="M178.24,22.907c.517-.062,1.54-.2,1.726.423.194.653-.192.925-.786,1.009a9.473,9.473,0,0,1-1.895.07.807.807,0,0,1-.312-1.046c.136-.273.959-.419,1.267-.456" transform="translate(-155.118 -20.036)" fill="#0c2d70"/>
        <path id="Path_877905" data-name="Path 877905" d="M256.026,88.206c.262.261.328,2.614-.22,2.861-1.369.618-1.4-2.588-.708-2.925a.961.961,0,0,1,.928.063" transform="translate(-223.302 -77.214)" fill="#0c2d70"/>
        <path id="Path_877906" data-name="Path 877906" d="M232.286,114.92c1.513-.465,1.367,2.955-.087,2.254-.538-.26-.55-2.059.087-2.254" transform="translate(-203.264 -100.733)" fill="#0c2d70"/>
        <path id="Path_877907" data-name="Path 877907" d="M161.067,57c.631.629-.7,2.045-1.321,1.757-1.337-.617.55-2.525,1.321-1.757" transform="translate(-139.67 -49.827)" fill="#0c2d70"/>
        <path id="Path_877908" data-name="Path 877908" d="M172.811,241.653a25.233,25.233,0,0,1,3.906-.019.68.68,0,0,1,.128,1.344,31.492,31.492,0,0,1-4.058,0,.676.676,0,0,1,.024-1.325" transform="translate(-151.05 -211.828)" fill="#0c2d70"/>
        <path id="Path_877909" data-name="Path 877909" d="M116.42,99.237a5.627,5.627,0,1,1-5.627-5.627,5.627,5.627,0,0,1,5.627,5.627m-1.433-.006a4.194,4.194,0,1,0-4.194,4.194,4.194,4.194,0,0,0,4.194-4.194" transform="translate(-92.219 -82.085)" fill="#0c2d70"/>
      </g>
    </g>
  </g>
</svg>
