<svg xmlns="http://www.w3.org/2000/svg" xmlns:xlink="http://www.w3.org/1999/xlink" width="148.643" height="148.643" viewBox="0 0 148.643 148.643">
  <defs>
    <clipPath id="clip-path">
      <rect id="Rectangle_403416" data-name="Rectangle 403416" width="147.238" height="98.278" fill="none"/>
    </clipPath>
    <clipPath id="clip-path-2">
      <path id="Path_875268" data-name="Path 875268" d="M2.261,23.822,0,24.46V37.649c0,2.52,1.658,5.039,4.972,6.958L61.6,77.377c6.63,3.836,17.417,3.836,24.047,0l56.623-32.769c3.261-1.888,4.917-4.358,4.97-6.837,0-.11,0-.22-.007-.331l.009,0V24.583L143.69,22.6c-1,6.069-8.129,10.069-14.086,10.9L89.031,57.289,71.323,63.7,14.8,34.461l1.306-.757c-4.829-2.262-7.432-7.436-10.045-12.155Z" transform="translate(0 -21.549)" fill="#0f398d"/>
    </clipPath>
    <clipPath id="clip-path-3">
      <rect id="Rectangle_403409" data-name="Rectangle 403409" width="147.239" height="98.278" fill="none"/>
    </clipPath>
    <clipPath id="clip-path-4">
      <rect id="Rectangle_403408" data-name="Rectangle 403408" width="73.619" height="57.479" fill="none"/>
    </clipPath>
    <clipPath id="clip-path-5">
      <path id="Path_875270" data-name="Path 875270" d="M50.534,9.936,3.311,38.169c2.612,4.72,5.216,9.893,10.045,12.155L67.013,19.269a8.509,8.509,0,0,1,7.7,0l52.721,30.51-.584.345c5.958-.832,13.084-4.832,14.086-10.9L81.768,6.238,64.553,1.678Z" transform="translate(-3.311 -1.678)" fill="#61dfe4"/>
    </clipPath>
    <clipPath id="clip-path-7">
      <rect id="Rectangle_403411" data-name="Rectangle 403411" width="67.553" height="48.646" fill="none"/>
    </clipPath>
    <clipPath id="clip-path-8">
      <path id="Path_875272" data-name="Path 875272" d="M69.769,77.606,13.146,44.835c-2.123-1.23-2.123-3.228,0-4.459L69.767,7.608a8.5,8.5,0,0,1,7.7,0l56.625,32.77c2.123,1.229,2.123,3.228,0,4.457L77.469,77.6a8.508,8.508,0,0,1-7.7,0M73.4,0A24.448,24.448,0,0,0,61.593,2.878L4.972,35.648c-6.628,3.836-6.628,10.08,0,13.916L61.6,82.334c6.63,3.838,17.417,3.838,24.047,0l56.623-32.77c6.628-3.834,6.628-10.08,0-13.916L85.641,2.878A24.448,24.448,0,0,0,73.832,0Z" transform="translate(-0.001)" fill="#98baff"/>
    </clipPath>
    <clipPath id="clip-path-10">
      <path id="Path_875275" data-name="Path 875275" d="M67.144,77.934,10.52,45.165c-3-1.741-3-4.571,0-6.31L67.142,6.087a12.039,12.039,0,0,1,10.9,0l56.623,32.77c3,1.739,3,4.569,0,6.308L78.042,77.934a12.039,12.039,0,0,1-10.9,0M62.166,3.208,5.545,35.976C-.2,39.3-.2,44.717,5.545,48.043L62.17,80.815c5.747,3.324,15.1,3.324,20.85,0l56.621-32.772c5.747-3.324,5.747-8.738,0-12.065L83.016,3.208A21.275,21.275,0,0,0,72.592.712a21.277,21.277,0,0,0-10.426,2.5" transform="translate(-1.234 -0.712)" fill="#98baff"/>
    </clipPath>
    <clipPath id="clip-path-11">
      <rect id="Rectángulo_47325" data-name="Rectángulo 47325" width="70.137" height="75.152" fill="#0c2d70"/>
    </clipPath>
    <clipPath id="clip-path-12">
      <rect id="Rectangle_403406" data-name="Rectangle 403406" width="44.725" height="25.927" fill="#f3f9ff"/>
    </clipPath>
    <clipPath id="clip-path-13">
      <rect id="Rectangle_403518" data-name="Rectangle 403518" width="127.104" height="128.856" fill="none"/>
    </clipPath>
    <clipPath id="clip-path-14">
      <rect id="Rectangle_403232" data-name="Rectangle 403232" width="148.643" height="86.444" fill="#61dfe4"/>
    </clipPath>
    <clipPath id="clip-path-15">
      <rect id="Rectangle_404788" data-name="Rectangle 404788" width="78.845" height="78.868" fill="#0c2d70"/>
    </clipPath>
  </defs>
  <g id="img8" transform="translate(-1045.664 -5613)">
    <g id="Group_1100752" data-name="Group 1100752" transform="translate(1045.664 5613)">
      <g id="Group_1100744" data-name="Group 1100744" transform="translate(0.004 50.365)">
        <g id="Group_1100514" data-name="Group 1100514" clip-path="url(#clip-path)">
          <g id="Group_1100495" data-name="Group 1100495" transform="translate(0 39.572)">
            <g id="Group_1100494" data-name="Group 1100494" clip-path="url(#clip-path-2)">
              <path id="Path_875399" data-name="Path 875399" d="M.164.131,125.557,0l-.164,157.368L0,157.5Z" transform="translate(-25.969 44.825) rotate(-60)" fill="#0f398d"/>
            </g>
          </g>
          <g id="Group_1100500" data-name="Group 1100500" transform="translate(0 0)">
            <g id="Group_1100499" data-name="Group 1100499" clip-path="url(#clip-path-3)">
              <g id="Group_1100498" data-name="Group 1100498" transform="translate(73.619 40.799)" opacity="0.3">
                <g id="Group_1100497" data-name="Group 1100497">
                  <g id="Group_1100496" data-name="Group 1100496" clip-path="url(#clip-path-4)">
                    <path id="Path_875269" data-name="Path 875269" d="M96.171,32.946,55.6,56.729,40.185,62.308V79.7A24.558,24.558,0,0,0,52.21,76.819l56.623-32.77c3.261-1.888,4.917-4.356,4.97-6.835,0-.11,0-.222-.007-.332l.009,0V24.025l-3.244-1.809h-.339c-1.107,5.974-8.151,9.905-14.051,10.73" transform="translate(-40.186 -22.217)" fill="#0f054c"/>
                  </g>
                </g>
              </g>
            </g>
          </g>
          <g id="Group_1100502" data-name="Group 1100502" transform="translate(6.066 3.081)">
            <g id="Group_1100501" data-name="Group 1100501" clip-path="url(#clip-path-5)">
              <path id="Path_875400" data-name="Path 875400" d="M.15.116,111.19,0l-.15,143.538L0,143.653Z" transform="matrix(0.5, -0.866, 0.866, 0.5, -21.189, 36.556)" fill="#61dfe4"/>
            </g>
          </g>
          <g id="Group_1100507" data-name="Group 1100507" transform="translate(0 0)">
            <g id="Group_1100506" data-name="Group 1100506" clip-path="url(#clip-path-3)">
              <g id="Group_1100505" data-name="Group 1100505" transform="translate(6.066 3.081)" opacity="0.3">
                <g id="Group_1100504" data-name="Group 1100504">
                  <g id="Group_1100503" data-name="Group 1100503" clip-path="url(#clip-path-7)">
                    <path id="Path_875271" data-name="Path 875271" d="M70.864,3.35,64.553,1.677,50.534,9.937,3.311,38.168c2.612,4.72,5.214,9.894,10.045,12.157L67.013,19.27a7.874,7.874,0,0,1,3.851-.92Z" transform="translate(-3.311 -1.678)" fill="#0f054c"/>
                  </g>
                </g>
              </g>
            </g>
          </g>
          <g id="Group_1100509" data-name="Group 1100509" transform="translate(0.001)">
            <g id="Group_1100508" data-name="Group 1100508" clip-path="url(#clip-path-8)">
              <rect id="Rectangle_403413" data-name="Rectangle 403413" width="150.551" height="86.172" transform="translate(-1.657 0)" fill="#98baff"/>
            </g>
          </g>
          <g id="Group_1100511" data-name="Group 1100511" transform="translate(0 0)">
            <g id="Group_1100510" data-name="Group 1100510" clip-path="url(#clip-path-3)">
              <path id="Path_875273" data-name="Path 875273" d="M128.843,37.333,72.22,4.563a8.5,8.5,0,0,0-7.7,0L7.9,37.331c-1.416.821-1.881,1.981-1.409,3.03A3.28,3.28,0,0,1,7.9,38.934L64.52,6.164a8.5,8.5,0,0,1,7.7,0l56.623,32.77a3.283,3.283,0,0,1,1.409,1.429c.473-1.049.007-2.211-1.409-3.03" transform="translate(5.25 3.046)" fill="#fff"/>
              <path id="Path_875274" data-name="Path 875274" d="M142.265,29.8,85.642,62.565c-6.63,3.838-17.417,3.838-24.047,0L4.972,29.794c-2.964-1.715-4.6-3.91-4.913-6.157C-.33,26.417,1.3,29.275,4.972,31.4l56.623,32.77c6.63,3.836,17.417,3.836,24.047,0L142.265,31.4c3.666-2.121,5.3-4.978,4.912-7.759-.313,2.246-1.949,4.442-4.912,6.157" transform="translate(0.002 19.77)" fill="#fff"/>
            </g>
          </g>
          <g id="Group_1100513" data-name="Group 1100513" transform="translate(2.26 1.308)">
            <g id="Group_1100512" data-name="Group 1100512" clip-path="url(#clip-path-10)">
              <rect id="Rectangle_403415" data-name="Rectangle 403415" width="145.592" height="83.427" transform="translate(-1.438 0)" fill="#98baff"/>
            </g>
          </g>
        </g>
      </g>
      <g id="Group_1100746" data-name="Group 1100746" transform="translate(34.526 11.331)">
        <g id="Group_1099618" data-name="Group 1099618" transform="translate(0 0)">
          <rect id="Rectangle_401104" data-name="Rectangle 401104" width="75.736" height="76.648" fill="none"/>
        </g>
        <g id="Grupo_156261" data-name="Grupo 156261" transform="translate(1.517 0.448)">
          <rect id="Rectángulo_47312" data-name="Rectángulo 47312" width="10.016" height="5.008" transform="translate(6.286 23.817)" fill="#0c2d70"/>
          <path id="Trazado_198297" data-name="Trazado 198297" d="M10.008,59.838h10.01L15.01,66.1Z" transform="translate(-3.72 -22.241)" fill="#0c2d70"/>
          <g id="Grupo_156260" data-name="Grupo 156260" transform="translate(0 0)">
            <g id="Grupo_156259" data-name="Grupo 156259" clip-path="url(#clip-path-11)">
              <path id="Trazado_198298" data-name="Trazado 198298" d="M25.947,73.836a10.01,10.01,0,1,0,10.01-10.01,10.01,10.01,0,0,0-10.01,10.01M35.96,81.349a7.467,7.467,0,0,1-3.646-.949l4.25-5.311h6.8a7.516,7.516,0,0,1-7.4,6.257Zm7.4-8.765h-6.15V66.437a7.523,7.523,0,0,1,6.148,6.147Zm-8.651-6.147V73.4l-4.345,5.432a7.494,7.494,0,0,1,4.345-12.393" transform="translate(-9.645 -23.723)" fill="#0c2d70"/>
              <rect id="Rectángulo_47313" data-name="Rectángulo 47313" width="2.504" height="2.504" transform="translate(16.302 62.629)" fill="#0c2d70"/>
              <rect id="Rectángulo_47314" data-name="Rectángulo 47314" width="15.024" height="2.504" transform="translate(21.311 62.629)" fill="#0c2d70"/>
              <rect id="Rectángulo_47315" data-name="Rectángulo 47315" width="20.032" height="2.504" transform="translate(16.302 67.638)" fill="#0c2d70"/>
              <rect id="Rectángulo_47316" data-name="Rectángulo 47316" width="2.504" height="2.504" transform="translate(43.846 62.629)" fill="#0c2d70"/>
              <rect id="Rectángulo_47317" data-name="Rectángulo 47317" width="15.024" height="2.504" transform="translate(48.855 62.629)" fill="#0c2d70"/>
              <rect id="Rectángulo_47318" data-name="Rectángulo 47318" width="20.032" height="2.504" transform="translate(43.846 67.638)" fill="#0c2d70"/>
              <rect id="Rectángulo_47319" data-name="Rectángulo 47319" width="2.504" height="2.504" transform="translate(46.35 12.547)" fill="#0c2d70"/>
              <rect id="Rectángulo_47320" data-name="Rectángulo 47320" width="12.52" height="2.504" transform="translate(51.359 12.547)" fill="#0c2d70"/>
              <rect id="Rectángulo_47321" data-name="Rectángulo 47321" width="17.528" height="2.504" transform="translate(46.35 17.555)" fill="#0c2d70"/>
              <rect id="Rectángulo_47322" data-name="Rectángulo 47322" width="2.504" height="2.504" transform="translate(46.35 26.32)" fill="#0c2d70"/>
              <rect id="Rectángulo_47323" data-name="Rectángulo 47323" width="12.52" height="2.504" transform="translate(51.359 26.32)" fill="#0c2d70"/>
              <rect id="Rectángulo_47324" data-name="Rectángulo 47324" width="17.528" height="2.504" transform="translate(46.35 31.328)" fill="#0c2d70"/>
              <path id="Trazado_198299" data-name="Trazado 198299" d="M73.032,83.851H88.059A1.251,1.251,0,0,0,89.31,82.6V72.589a1.251,1.251,0,0,0-1.251-1.253H84.3V65.078a1.251,1.251,0,0,0-1.251-1.253H78.041a1.252,1.252,0,0,0-1.253,1.253V68.83H73.033a1.251,1.251,0,0,0-1.251,1.253V82.608a1.251,1.251,0,0,0,1.25,1.245m13.773-2.5H84.3V73.84h2.5ZM79.3,66.329h2.5V81.355H79.3Zm-5.008,5.008h2.5v10.01h-2.5Z" transform="translate(-26.681 -23.723)" fill="#0c2d70"/>
              <path id="Trazado_198300" data-name="Trazado 198300" d="M43.143,28H58.166a1.251,1.251,0,0,0,1.251-1.251V19.233a1.251,1.251,0,0,0-1.251-1.251H43.143a1.251,1.251,0,0,0-1.253,1.251v7.512A1.251,1.251,0,0,0,43.14,28Zm1.251-7.513H56.919V25.5H44.394Z" transform="translate(-15.571 -6.683)" fill="#0c2d70"/>
              <path id="Trazado_198301" data-name="Trazado 198301" d="M43.143,49.922H58.166a1.251,1.251,0,0,0,1.251-1.251V41.16a1.251,1.251,0,0,0-1.251-1.253H43.143A1.251,1.251,0,0,0,41.89,41.16v7.511a1.251,1.251,0,0,0,1.253,1.251m1.251-7.511H56.919v5.008H44.394Z" transform="translate(-15.571 -14.832)" fill="#0c2d70"/>
              <path id="Trazado_198302" data-name="Trazado 198302" d="M5.031,20.661V37.589a1.254,1.254,0,0,0,.274.783l4.733,5.919V73.9a1.253,1.253,0,0,0,1.253,1.251h57.6A1.251,1.251,0,0,0,70.136,73.9V6.289a1.251,1.251,0,0,0-1.251-1.253H20.66A11.269,11.269,0,1,0,5.031,20.661m10.011,6.918H7.54V25.07h7.506ZM11.294,41.851l-2.4-3.008H13.7ZM7.539,30.081h2.5v6.261h-2.5Zm7.513,6.261H12.547V30.081h2.5Zm52.584-28.8V72.649H12.547V44.292l4.733-5.917a1.254,1.254,0,0,0,.274-.783V20.661A11.2,11.2,0,0,0,21.905,7.543ZM11.3,2.533a8.765,8.765,0,0,1,4.389,16.346,1.251,1.251,0,0,0-.627,1.083v2.606h-2.51V15.575l3.389-3.393-1.769-1.771L11.3,13.283,8.423,10.412l-1.77,1.77,3.389,3.389v6.993h-2.5v-2.6a1.249,1.249,0,0,0-.626-1.083A8.765,8.765,0,0,1,11.3,2.531Z" transform="translate(0.001 0.001)" fill="#0c2d70"/>
            </g>
          </g>
        </g>
      </g>
      <g id="Group_1100747" data-name="Group 1100747" transform="translate(0 122.715)">
        <g id="Group_1100491" data-name="Group 1100491" transform="translate(0 0)" clip-path="url(#clip-path-12)">
          <path id="Path_875261" data-name="Path 875261" d="M35.033,24.585a1.343,1.343,0,1,1,1.343,1.342,1.343,1.343,0,0,1-1.343-1.342m-5.664,1.342a1.342,1.342,0,1,0-1.343-1.342,1.342,1.342,0,0,0,1.343,1.342m-7.007,0a1.342,1.342,0,1,0-1.343-1.342,1.342,1.342,0,0,0,1.343,1.342m-7.007,0a1.342,1.342,0,1,0-1.343-1.342,1.342,1.342,0,0,0,1.343,1.342m-7.007,0a1.342,1.342,0,1,0-1.343-1.342,1.342,1.342,0,0,0,1.343,1.342m-7.007,0A1.342,1.342,0,1,0,0,24.585a1.342,1.342,0,0,0,1.343,1.342M36.376,18.31a1.343,1.343,0,1,0-1.343-1.343,1.343,1.343,0,0,0,1.343,1.343m-7.007,0a1.343,1.343,0,1,0-1.343-1.343,1.343,1.343,0,0,0,1.343,1.343m-7.007,0a1.343,1.343,0,1,0-1.343-1.343,1.343,1.343,0,0,0,1.343,1.343m-7.007,0a1.343,1.343,0,1,0-1.343-1.343,1.343,1.343,0,0,0,1.343,1.343m-7.007,0a1.343,1.343,0,1,0-1.343-1.343A1.343,1.343,0,0,0,8.349,18.31m-7.007,0A1.343,1.343,0,1,0,0,16.968,1.343,1.343,0,0,0,1.343,18.31m35.033-7.617a1.343,1.343,0,1,0-1.343-1.343,1.343,1.343,0,0,0,1.343,1.343M42.04,24.585a1.343,1.343,0,1,1,1.343,1.342,1.343,1.343,0,0,1-1.343-1.342m1.343-6.275a1.343,1.343,0,1,0-1.343-1.343,1.343,1.343,0,0,0,1.343,1.343m0-7.617A1.343,1.343,0,1,0,42.04,9.351a1.343,1.343,0,0,0,1.343,1.343m-14.013,0a1.343,1.343,0,1,0-1.343-1.343,1.343,1.343,0,0,0,1.343,1.343m-7.007,0A1.343,1.343,0,1,0,21.02,9.351a1.343,1.343,0,0,0,1.343,1.343m-7.007,0a1.343,1.343,0,1,0-1.343-1.343,1.343,1.343,0,0,0,1.343,1.343m-7.007,0A1.343,1.343,0,1,0,7.007,9.351a1.343,1.343,0,0,0,1.343,1.343m-7.007,0A1.343,1.343,0,1,0,0,9.351a1.343,1.343,0,0,0,1.343,1.343M36.376,2.685a1.343,1.343,0,1,0-1.343-1.343,1.343,1.343,0,0,0,1.343,1.343m7.007,0A1.343,1.343,0,1,0,42.04,1.343a1.343,1.343,0,0,0,1.343,1.343m-14.013,0a1.343,1.343,0,1,0-1.343-1.343,1.343,1.343,0,0,0,1.343,1.343m-7.007,0A1.343,1.343,0,1,0,21.02,1.343a1.343,1.343,0,0,0,1.343,1.343m-7.007,0a1.343,1.343,0,1,0-1.343-1.343,1.343,1.343,0,0,0,1.343,1.343m-7.007,0A1.343,1.343,0,1,0,7.007,1.343,1.343,1.343,0,0,0,8.349,2.685m-7.007,0A1.343,1.343,0,1,0,0,1.343,1.343,1.343,0,0,0,1.343,2.685" transform="translate(0 0)" fill="#f3f9ff"/>
        </g>
      </g>
      <g id="Group_1100749" data-name="Group 1100749" transform="translate(10.071)">
        <g id="Group_1100748" data-name="Group 1100748" clip-path="url(#clip-path-13)">
          <path id="Path_875398" data-name="Path 875398" d="M13.2,0H113.91a13.3,13.3,0,0,1,13.2,13.4V93.21l-55.468,33.4a15.643,15.643,0,0,1-16.169,0L0,93.211,0,13.4A13.3,13.3,0,0,1,13.2,0" transform="translate(0 0)" fill="#fff"/>
        </g>
      </g>
      <g id="Group_1100745" data-name="Group 1100745" transform="translate(0 30.467)">
        <g id="Group_1100096" data-name="Group 1100096" transform="translate(0 0)" clip-path="url(#clip-path-14)">
          <path id="Path_873771" data-name="Path 873771" d="M74.323,86.446A22.516,22.516,0,0,1,63.285,83.8L4.716,49.907C1.675,48.146,0,45.772,0,43.221S1.675,38.3,4.716,36.537l58.565-33.9C69.37-.88,79.273-.88,85.361,2.642l58.567,33.9c3.041,1.759,4.716,4.133,4.716,6.684s-1.675,4.925-4.716,6.686L85.363,83.8a22.523,22.523,0,0,1-11.04,2.644m0-85.432A21.49,21.49,0,0,0,63.8,3.532L5.23,37.426c-2.712,1.571-4.2,3.628-4.2,5.8s1.491,4.226,4.2,5.8L63.8,82.913c5.8,3.356,15.246,3.356,21.05,0l58.565-33.9c2.712-1.569,4.2-3.626,4.2-5.8s-1.491-4.226-4.2-5.8L84.847,3.532A21.49,21.49,0,0,0,74.321,1.014" transform="translate(0 -0.001)" fill="#0f398d"/>
        </g>
      </g>
      <rect id="Rectangle_403516" data-name="Rectangle 403516" width="127.105" height="52.876" transform="translate(10.071 23.642)" fill="#fff"/>
    </g>
    <g id="Group_1102727" data-name="Group 1102727" transform="translate(1080.47 5622.77)">
      <g id="Group_1102726" data-name="Group 1102726" clip-path="url(#clip-path-15)">
        <path id="Path_877514" data-name="Path 877514" d="M255.865,219.51c2.519-.257,4.181,1.866,4.381,4.186a77.4,77.4,0,0,1-.1,12.327,4.024,4.024,0,0,1-7.995-.3,81.774,81.774,0,0,1,.1-12.92,4.1,4.1,0,0,1,3.613-3.3m1.376,16.658.044-13.057c-.177-.977-2.171-1.092-2.368.588a79.866,79.866,0,0,0,0,11.628,1.329,1.329,0,0,0,2.324.841" transform="translate(-202.323 -176.257)" fill="#0c2d70"/>
        <path id="Path_877515" data-name="Path 877515" d="M260.932,337.218a4.049,4.049,0,1,1-4.049-4.048,4.049,4.049,0,0,1,4.049,4.048m-2.87-.028a1.207,1.207,0,1,0-1.207,1.207,1.207,1.207,0,0,0,1.207-1.207" transform="translate(-203.035 -267.547)" fill="#0c2d70"/>
        <path id="Path_877516" data-name="Path 877516" d="M33.717,5.166c.134.117,1.95-.03,2.538.123.817.214,1.288,1.171,1.87,1.282,3.679.7,9.986-.994,13.365.62a7.218,7.218,0,0,1,3.872,5.976L55.381,35.4c1.483.808,2.96,1.231,4,2.7,4.242,6.963,8.642,13.837,12.877,20.8,1.4,2.305,6.353,9.65,6.545,11.773.38,4.206-1.756,7.539-6.009,8.189l-38.219-.007A7.593,7.593,0,0,1,30.925,77c-.469-.46-1.206-1.791-1.666-1.879H6.412A6.832,6.832,0,0,1,0,69.316V12.181c1.61-8.066,9.26-4.663,14.49-5.6.292-.052,1.114-1.093,1.859-1.29.58-.153,2.427-.011,2.546-.114.044-.038.2-.781.38-1.1A8.107,8.107,0,0,1,32.7,3.129c.312.414.928,1.962,1.013,2.037m1.547,2.985c-.983-.093-2.488.248-3.338-.306-.69-.449-.7-1.476-1.017-2.135a5.154,5.154,0,0,0-9.045-.421c-.364.621-.673,2.124-1.1,2.449-.843.647-2.609.342-3.625.413v4.924H35.265ZM14.386,9.333H6.015a15.363,15.363,0,0,0-1.547.619,4.632,4.632,0,0,0-1.61,2.133l-.1,56.835c.063,1.231,1.88,3.245,3.058,3.245H28.765l.2-2.364H7.591a3,3,0,0,1-2.467-2.458c.134-17.92-.247-35.9.192-53.785A3.184,3.184,0,0,1,7.788,11.7h6.6ZM50.037,36.514c.572-.525,2.232-.587,2.366-1.278l0-22.069A4.109,4.109,0,0,0,50.57,9.884c-.148-.082-1.343-.55-1.419-.55H38.219V11.7h9.159a3.094,3.094,0,0,1,2.659,2.462ZM37.628,14.651c-.234,1.041-1.714,1.316-2.651,1.387-5.715.43-11.963-.339-17.736-.008-.817.319-2.412-1.379-2.56-1.379h-6.6V67.044H30.439l16.84-27.28V14.651ZM53.137,38.336a4.259,4.259,0,0,0-2.751,1.777c-5.269,9.8-12.925,19.326-17.912,29.162-.925,1.825-1.391,2.869-.2,4.8a4.567,4.567,0,0,0,2.889,2.035l37.042,0a4.372,4.372,0,0,0,3.083-6.842L57.018,39.677a4.342,4.342,0,0,0-3.881-1.342" transform="translate(0 0)" fill="#0c2d70"/>
        <path id="Path_877517" data-name="Path 877517" d="M127.08,186.6l17.976.061c1.146.625,1.092,2.483-.281,2.664-5.541-.491-12.129.623-17.543-.006-1.762-.2-1.648-2.214-.151-2.719" transform="translate(-101.13 -149.843)" fill="#0c2d70"/>
        <path id="Path_877518" data-name="Path 877518" d="M145.594,113.8a1.471,1.471,0,0,1-1.014,2.317H127.226a1.4,1.4,0,0,1-.477-2.665l17.829-.112a1.907,1.907,0,0,1,1.016.46" transform="translate(-101.131 -91.014)" fill="#0c2d70"/>
        <path id="Path_877519" data-name="Path 877519" d="M63.58,256.038a1.58,1.58,0,0,1,.156-.729c1.446-2.767,2.827-5.564,4.282-8.325a1.469,1.469,0,0,1,2.367,1.573c-1.944,3.18-3.248,7.272-5.187,10.378-.464.743-1.072,1.37-2.008.939-.2-.093-3.052-2.941-3.165-3.136a1.428,1.428,0,0,1,1.441-2.242c.876.182,1.238,1.4,2.113,1.542" transform="translate(-48.014 -198.055)" fill="#0c2d70"/>
        <path id="Path_877520" data-name="Path 877520" d="M63.68,182.719c1.12-3.091,2.922-5.974,4.331-8.966a1.466,1.466,0,0,1,2.475,1.491c-1.92,3.11-3.192,6.84-5,9.971-.646,1.122-1.362,1.859-2.6.958a31.077,31.077,0,0,1-2.723-2.79c-.893-1.715.8-3.018,2.317-1.728.381.325.57,1.1,1.2,1.063" transform="translate(-48.113 -139.114)" fill="#0c2d70"/>
        <path id="Path_877521" data-name="Path 877521" d="M64.618,113.135A1.67,1.67,0,0,1,62.605,113c-.231-.161-2.4-2.339-2.55-2.569-.91-1.365-.089-2.677,1.561-2.35.613.122,1.515,1.633,1.873,1.374l4.251-8.653A1.416,1.416,0,0,1,70.3,101.97Z" transform="translate(-47.923 -80.421)" fill="#0c2d70"/>
        <path id="Path_877522" data-name="Path 877522" d="M127.512,258.827a57.257,57.257,0,0,1,9-.034c1.789.274,2.1,2.273.4,2.938-2.945-.309-6.806.436-9.635-.007-1.674-.262-1.883-2.544.233-2.9" transform="translate(-101.162 -207.691)" fill="#0c2d70"/>
        <path id="Path_877523" data-name="Path 877523" d="M126.867,212.934c2.626.2,6.092-.419,8.614-.029a1.4,1.4,0,0,1,.2,2.741h-8.657a1.41,1.41,0,0,1-.161-2.713" transform="translate(-101.115 -170.865)" fill="#0c2d70"/>
        <path id="Path_877524" data-name="Path 877524" d="M126.735,140.436l9.023-.028c1.6.644,1.272,2.491-.408,2.734a49.117,49.117,0,0,1-7.842,0c-1.613-.226-2.015-1.68-.773-2.707" transform="translate(-101.187 -112.753)" fill="#0c2d70"/>
        <path id="Path_877525" data-name="Path 877525" d="M127.161,286.158a42.66,42.66,0,0,1,6.023,0c1.151.336,1.365,2.463.035,2.712a43.621,43.621,0,0,1-6.255-.037c-1.388-.318-1.139-2.375.2-2.673" transform="translate(-101.21 -229.709)" fill="#0c2d70"/>
      </g>
    </g>
  </g>
</svg>
