<svg xmlns="http://www.w3.org/2000/svg" xmlns:xlink="http://www.w3.org/1999/xlink" width="123" height="123" viewBox="0 0 123 123">
  <defs>
    <clipPath id="clip-path">
      <rect id="Rectangle_403416" data-name="Rectangle 403416" width="121.687" height="91.902" fill="#d1f3f5"/>
    </clipPath>
    <clipPath id="clip-path-2">
      <path id="Path_875268" data-name="Path 875268" d="M1.868,23.675,0,24.271V36.6c0,2.356,1.37,4.712,4.109,6.507l46.8,30.644c5.479,3.587,14.394,3.587,19.874,0l46.8-30.643c2.7-1.765,4.064-4.075,4.108-6.393,0-.1,0-.206-.006-.309l.008,0V24.386l-2.933-1.849c-.828,5.676-6.718,9.416-11.642,10.194L73.581,54.97,58.946,60.964,12.235,33.623l1.08-.708c-3.991-2.116-6.143-6.953-8.3-11.367Z" transform="translate(0 -21.549)" fill="#61dfe4"/>
    </clipPath>
    <clipPath id="clip-path-3">
      <rect id="Rectangle_403409" data-name="Rectangle 403409" width="121.687" height="91.903" fill="none"/>
    </clipPath>
    <clipPath id="clip-path-4">
      <rect id="Rectangle_403408" data-name="Rectangle 403408" width="60.844" height="53.75" fill="none"/>
    </clipPath>
    <clipPath id="clip-path-5">
      <path id="Path_875270" data-name="Path 875270" d="M42.339,9.4,3.311,35.8c2.159,4.413,4.311,9.251,8.3,11.367L55.958,18.128a6.31,6.31,0,0,1,6.364,0L105.894,46.66l-.483.323c4.924-.778,10.813-4.518,11.642-10.194L68.153,5.942,53.925,1.678Z" transform="translate(-3.311 -1.678)" fill="#61dfe4"/>
    </clipPath>
    <clipPath id="clip-path-7">
      <rect id="Rectangle_403411" data-name="Rectangle 403411" width="55.83" height="45.491" fill="none"/>
    </clipPath>
    <clipPath id="clip-path-8">
      <path id="Path_875272" data-name="Path 875272" d="M57.662,72.571l-46.8-30.644a2.309,2.309,0,0,1,0-4.17L57.66,7.115a6.306,6.306,0,0,1,6.364,0l46.8,30.644a2.308,2.308,0,0,1,0,4.168L64.025,72.57a6.308,6.308,0,0,1-6.364,0M60.664,0A18.357,18.357,0,0,0,50.9,2.691L4.109,33.335c-5.478,3.587-5.478,9.426,0,13.013l46.8,30.644c5.479,3.589,14.394,3.589,19.874,0l46.8-30.644c5.478-3.586,5.478-9.426,0-13.013L70.779,2.691A18.357,18.357,0,0,0,61.02,0Z" transform="translate(-0.001)" fill="#98baff"/>
    </clipPath>
    <clipPath id="clip-path-10">
      <path id="Path_875275" data-name="Path 875275" d="M55.706,72.924,8.909,42.282c-2.483-1.628-2.483-4.274,0-5.9L55.7,5.738a8.927,8.927,0,0,1,9.009,0l46.8,30.644c2.483,1.626,2.483,4.273,0,5.9l-46.8,30.643a8.927,8.927,0,0,1-9.007,0M51.592,3.046,4.8,33.689C.046,36.8.047,41.863,4.8,44.973L51.6,75.619c4.75,3.108,12.479,3.108,17.232,0l46.8-30.646c4.75-3.108,4.75-8.171,0-11.282L68.824,3.046a17.071,17.071,0,0,0-17.232,0" transform="translate(-1.234 -0.712)" fill="#98baff"/>
    </clipPath>
    <clipPath id="clip-path-11">
      <rect id="Rectángulo_47325" data-name="Rectángulo 47325" width="65.588" height="70.277" fill="#0c2d70"/>
    </clipPath>
    <clipPath id="clip-path-12">
      <rect id="Rectangle_403406" data-name="Rectangle 403406" width="41.824" height="24.245" fill="#fff"/>
    </clipPath>
    <clipPath id="clip-path-13">
      <rect id="Rectangle_403518" data-name="Rectangle 403518" width="102.859" height="104.692" fill="#fff"/>
    </clipPath>
    <clipPath id="clip-path-14">
      <rect id="Rectangle_403232" data-name="Rectangle 403232" width="123" height="80.836" fill="#61dfe4"/>
    </clipPath>
    <clipPath id="clip-path-15">
      <rect id="Rectangle_404829" data-name="Rectangle 404829" width="63.694" height="63.644" fill="#0c2d70"/>
    </clipPath>
  </defs>
  <g id="img8" transform="translate(-738.668 -1800)">
    <g id="Group_1101511" data-name="Group 1101511" transform="translate(738.668 1800)">
      <g id="Group_1100744" data-name="Group 1100744" transform="translate(0.004 31.098)">
        <g id="Group_1100514" data-name="Group 1100514" clip-path="url(#clip-path)">
          <g id="Group_1100495" data-name="Group 1100495" transform="translate(0 37.005)">
            <g id="Group_1100494" data-name="Group 1100494" clip-path="url(#clip-path-2)">
              <path id="Path_875399" data-name="Path 875399" d="M7.554,6.012,121.412,0l-7.554,134.342L0,140.354Z" transform="translate(-30.284 45.381) rotate(-60)" fill="#61dfe4"/>
            </g>
          </g>
          <g id="Group_1100500" data-name="Group 1100500" transform="translate(0 0)">
            <g id="Group_1100499" data-name="Group 1100499" clip-path="url(#clip-path-3)">
              <g id="Group_1100498" data-name="Group 1100498" transform="translate(60.843 38.152)" opacity="0.3">
                <g id="Group_1100497" data-name="Group 1100497">
                  <g id="Group_1100496" data-name="Group 1100496" clip-path="url(#clip-path-4)">
                    <path id="Path_875269" data-name="Path 875269" d="M86.455,32.25,52.923,54.49,40.185,59.707V75.968a18.428,18.428,0,0,0,9.938-2.691l46.8-30.644c2.7-1.765,4.064-4.073,4.108-6.392,0-.1,0-.208-.006-.311l.008,0V23.908l-2.681-1.692h-.28c-.914,5.586-6.736,9.263-11.613,10.034" transform="translate(-40.185 -22.217)" fill="#0f054c"/>
                  </g>
                </g>
              </g>
            </g>
          </g>
          <g id="Group_1100502" data-name="Group 1100502" transform="translate(5.013 2.882)">
            <g id="Group_1100501" data-name="Group 1100501" clip-path="url(#clip-path-5)">
              <path id="Path_875400" data-name="Path 875400" d="M6.89,5.324,107.716,0l-6.89,122.535L0,127.859Z" transform="matrix(0.5, -0.866, 0.866, 0.5, -25.423, 37.422)" fill="#61dfe4"/>
            </g>
          </g>
          <g id="Group_1100507" data-name="Group 1100507" transform="translate(0 0)">
            <g id="Group_1100506" data-name="Group 1100506" clip-path="url(#clip-path-3)">
              <g id="Group_1100505" data-name="Group 1100505" transform="translate(5.013 2.881)" opacity="0.3">
                <g id="Group_1100504" data-name="Group 1100504">
                  <g id="Group_1100503" data-name="Group 1100503" clip-path="url(#clip-path-7)">
                    <path id="Path_875271" data-name="Path 875271" d="M59.141,3.241,53.925,1.677,42.339,9.4,3.311,35.8c2.159,4.413,4.309,9.253,8.3,11.368L55.958,18.128a5.908,5.908,0,0,1,3.183-.86Z" transform="translate(-3.311 -1.678)" fill="#0f054c"/>
                  </g>
                </g>
              </g>
            </g>
          </g>
          <g id="Group_1100509" data-name="Group 1100509" transform="translate(0.001)">
            <g id="Group_1100508" data-name="Group 1100508" clip-path="url(#clip-path-8)">
              <rect id="Rectangle_403413" data-name="Rectangle 403413" width="124.425" height="80.582" transform="translate(-1.369 0)" fill="#98baff"/>
            </g>
          </g>
          <g id="Group_1100511" data-name="Group 1100511" transform="translate(0 0)">
            <g id="Group_1100510" data-name="Group 1100510" clip-path="url(#clip-path-3)">
              <path id="Path_875273" data-name="Path 875273" d="M107.579,35.147,60.782,4.5a6.306,6.306,0,0,0-6.364,0L7.621,35.146a2.323,2.323,0,0,0-1.164,2.833,2.931,2.931,0,0,1,1.164-1.334L54.418,6a6.306,6.306,0,0,1,6.364,0l46.8,30.644a2.935,2.935,0,0,1,1.164,1.336,2.322,2.322,0,0,0-1.164-2.833" transform="translate(3.244 2.612)" fill="#fff"/>
              <path id="Path_875274" data-name="Path 875274" d="M117.577,29.4,70.78,60.039c-5.479,3.589-14.394,3.589-19.874,0L4.109,29.395A8.3,8.3,0,0,1,.049,23.637c-.321,2.6,1.03,5.272,4.061,7.257l46.8,30.644c5.479,3.587,14.394,3.587,19.874,0l46.8-30.644c3.03-1.983,4.38-4.655,4.059-7.255a8.3,8.3,0,0,1-4.059,5.758" transform="translate(0.001 16.954)" fill="#fff"/>
            </g>
          </g>
          <g id="Group_1100513" data-name="Group 1100513" transform="translate(1.868 1.223)">
            <g id="Group_1100512" data-name="Group 1100512" clip-path="url(#clip-path-10)">
              <rect id="Rectangle_403415" data-name="Rectangle 403415" width="120.326" height="78.015" transform="translate(-1.188 0)" fill="#98baff"/>
            </g>
          </g>
        </g>
      </g>
      <g id="Group_1100746" data-name="Group 1100746" transform="translate(24.709 10.596)">
        <g id="Group_1099618" data-name="Group 1099618" transform="translate(0 0)">
          <rect id="Rectangle_401104" data-name="Rectangle 401104" width="70.823" height="71.676" fill="none"/>
        </g>
        <g id="Grupo_156261" data-name="Grupo 156261" transform="translate(1.419 0.419)">
          <rect id="Rectángulo_47312" data-name="Rectángulo 47312" width="9.366" height="4.683" transform="translate(5.878 22.272)" fill="#0c2d70"/>
          <path id="Trazado_198297" data-name="Trazado 198297" d="M10.008,59.838h9.36l-4.683,5.853Z" transform="translate(-4.128 -24.68)" fill="#0c2d70"/>
          <g id="Grupo_156260" data-name="Grupo 156260" transform="translate(0 0)">
            <g id="Grupo_156259" data-name="Grupo 156259" clip-path="url(#clip-path-11)">
              <path id="Trazado_198298" data-name="Trazado 198298" d="M25.947,73.186a9.36,9.36,0,1,0,9.361-9.36,9.36,9.36,0,0,0-9.361,9.36m9.363,7.025a6.983,6.983,0,0,1-3.41-.887l3.974-4.967h6.356A7.029,7.029,0,0,1,35.31,80.21Zm6.925-8.2H36.484V66.268a7.035,7.035,0,0,1,5.749,5.748Zm-8.09-5.748v6.507l-4.063,5.08a7.008,7.008,0,0,1,4.063-11.589" transform="translate(-10.702 -26.324)" fill="#0c2d70"/>
              <rect id="Rectángulo_47313" data-name="Rectángulo 47313" width="2.342" height="2.342" transform="translate(15.245 58.566)" fill="#0c2d70"/>
              <rect id="Rectángulo_47314" data-name="Rectángulo 47314" width="14.049" height="2.342" transform="translate(19.929 58.566)" fill="#0c2d70"/>
              <rect id="Rectángulo_47315" data-name="Rectángulo 47315" width="18.732" height="2.342" transform="translate(15.245 63.25)" fill="#0c2d70"/>
              <rect id="Rectángulo_47316" data-name="Rectángulo 47316" width="2.342" height="2.342" transform="translate(41.002 58.566)" fill="#0c2d70"/>
              <rect id="Rectángulo_47317" data-name="Rectángulo 47317" width="14.049" height="2.342" transform="translate(45.686 58.566)" fill="#0c2d70"/>
              <rect id="Rectángulo_47318" data-name="Rectángulo 47318" width="18.732" height="2.342" transform="translate(41.002 63.25)" fill="#0c2d70"/>
              <rect id="Rectángulo_47319" data-name="Rectángulo 47319" width="2.342" height="2.342" transform="translate(43.343 11.733)" fill="#0c2d70"/>
              <rect id="Rectángulo_47320" data-name="Rectángulo 47320" width="11.708" height="2.342" transform="translate(48.027 11.733)" fill="#0c2d70"/>
              <rect id="Rectángulo_47321" data-name="Rectángulo 47321" width="16.391" height="2.342" transform="translate(43.343 16.416)" fill="#0c2d70"/>
              <rect id="Rectángulo_47322" data-name="Rectángulo 47322" width="2.342" height="2.342" transform="translate(43.343 24.612)" fill="#0c2d70"/>
              <rect id="Rectángulo_47323" data-name="Rectángulo 47323" width="11.708" height="2.342" transform="translate(48.027 24.612)" fill="#0c2d70"/>
              <rect id="Rectángulo_47324" data-name="Rectángulo 47324" width="16.391" height="2.342" transform="translate(43.343 29.295)" fill="#0c2d70"/>
              <path id="Trazado_198299" data-name="Trazado 198299" d="M72.951,82.552H87a1.17,1.17,0,0,0,1.17-1.171V72.02A1.17,1.17,0,0,0,87,70.849H83.489V65a1.17,1.17,0,0,0-1.17-1.171H77.635A1.17,1.17,0,0,0,76.464,65v3.509H72.952a1.17,1.17,0,0,0-1.17,1.171V81.389a1.17,1.17,0,0,0,1.169,1.164M85.83,80.218H83.489V73.19H85.83ZM78.808,66.167h2.342V80.218H78.808ZM74.125,70.85h2.341v9.36H74.124Z" transform="translate(-29.607 -26.324)" fill="#0c2d70"/>
              <path id="Trazado_198300" data-name="Trazado 198300" d="M43.061,27.348H57.111a1.17,1.17,0,0,0,1.17-1.17V19.152a1.17,1.17,0,0,0-1.17-1.17H43.061a1.17,1.17,0,0,0-1.171,1.17v7.025a1.17,1.17,0,0,0,1.169,1.171Zm1.17-7.026H55.944v4.685H44.232Z" transform="translate(-17.278 -7.416)" fill="#0c2d70"/>
              <path id="Trazado_198301" data-name="Trazado 198301" d="M43.061,49.272H57.111a1.17,1.17,0,0,0,1.17-1.17V41.078a1.17,1.17,0,0,0-1.17-1.171H43.061a1.17,1.17,0,0,0-1.171,1.171V48.1a1.17,1.17,0,0,0,1.171,1.17m1.17-7.024H55.944v4.683H44.232Z" transform="translate(-17.278 -16.459)" fill="#0c2d70"/>
              <path id="Trazado_198302" data-name="Trazado 198302" d="M4.705,19.321V35.152a1.172,1.172,0,0,0,.256.732l4.426,5.535V69.107a1.171,1.171,0,0,0,1.171,1.17H64.417a1.17,1.17,0,0,0,1.17-1.17V5.882a1.17,1.17,0,0,0-1.17-1.171h-45.1A10.538,10.538,0,1,0,4.705,19.321m9.361,6.469H7.052V23.445H14.07Zm-3.5,13.347L8.315,36.324h4.5ZM7.051,28.131H9.392v5.854H7.051Zm7.026,5.854H11.734V28.131h2.342ZM63.249,7.055V67.937H11.734V41.42l4.426-5.533a1.172,1.172,0,0,0,.256-.732V19.321A10.476,10.476,0,0,0,20.485,7.055ZM10.564,2.37a8.2,8.2,0,0,1,4.1,15.286,1.17,1.17,0,0,0-.587,1.013v2.437H11.734V14.566L14.9,11.394,13.249,9.738l-2.686,2.685L7.878,9.738,6.223,11.393l3.169,3.17V21.1H7.051V18.667a1.168,1.168,0,0,0-.586-1.013,8.2,8.2,0,0,1,4.1-15.286Z" transform="translate(0 0)" fill="#0c2d70"/>
            </g>
          </g>
        </g>
      </g>
      <g id="Group_1100747" data-name="Group 1100747" transform="translate(0 98.755)">
        <g id="Group_1100491" data-name="Group 1100491" transform="translate(0 0)" clip-path="url(#clip-path-12)">
          <path id="Path_875261" data-name="Path 875261" d="M32.76,22.99a1.256,1.256,0,1,1,1.256,1.255A1.256,1.256,0,0,1,32.76,22.99m-5.3,1.255a1.255,1.255,0,1,0-1.256-1.255,1.255,1.255,0,0,0,1.256,1.255m-6.552,0a1.255,1.255,0,1,0-1.256-1.255,1.255,1.255,0,0,0,1.256,1.255m-6.552,0A1.255,1.255,0,1,0,13.1,22.99a1.255,1.255,0,0,0,1.256,1.255m-6.552,0A1.255,1.255,0,1,0,6.552,22.99a1.255,1.255,0,0,0,1.256,1.255m-6.552,0A1.255,1.255,0,1,0,0,22.99a1.255,1.255,0,0,0,1.256,1.255m32.76-7.123a1.256,1.256,0,1,0-1.256-1.256,1.256,1.256,0,0,0,1.256,1.256m-6.552,0a1.256,1.256,0,1,0-1.256-1.256,1.256,1.256,0,0,0,1.256,1.256m-6.552,0a1.256,1.256,0,1,0-1.256-1.256,1.256,1.256,0,0,0,1.256,1.256m-6.552,0A1.256,1.256,0,1,0,13.1,15.867a1.256,1.256,0,0,0,1.256,1.256m-6.552,0a1.256,1.256,0,1,0-1.256-1.256,1.256,1.256,0,0,0,1.256,1.256m-6.552,0A1.256,1.256,0,1,0,0,15.867a1.256,1.256,0,0,0,1.256,1.256M34.016,10A1.256,1.256,0,1,0,32.76,8.744,1.256,1.256,0,0,0,34.016,10m5.3,12.99a1.256,1.256,0,1,1,1.256,1.255,1.256,1.256,0,0,1-1.256-1.255m1.256-5.868a1.256,1.256,0,1,0-1.256-1.256,1.256,1.256,0,0,0,1.256,1.256m0-7.123a1.256,1.256,0,1,0-1.256-1.256A1.256,1.256,0,0,0,40.568,10m-13.1,0a1.256,1.256,0,1,0-1.256-1.256A1.256,1.256,0,0,0,27.464,10m-6.552,0a1.256,1.256,0,1,0-1.256-1.256A1.256,1.256,0,0,0,20.912,10M14.36,10A1.256,1.256,0,1,0,13.1,8.744,1.256,1.256,0,0,0,14.36,10M7.808,10A1.256,1.256,0,1,0,6.552,8.744,1.256,1.256,0,0,0,7.808,10M1.256,10A1.256,1.256,0,1,0,0,8.744,1.256,1.256,0,0,0,1.256,10m32.76-7.489A1.256,1.256,0,1,0,32.76,1.256a1.256,1.256,0,0,0,1.256,1.256m6.552,0a1.256,1.256,0,1,0-1.256-1.256,1.256,1.256,0,0,0,1.256,1.256m-13.1,0a1.256,1.256,0,1,0-1.256-1.256,1.256,1.256,0,0,0,1.256,1.256m-6.552,0a1.256,1.256,0,1,0-1.256-1.256,1.256,1.256,0,0,0,1.256,1.256m-6.552,0A1.256,1.256,0,1,0,13.1,1.256,1.256,1.256,0,0,0,14.36,2.511m-6.552,0A1.256,1.256,0,1,0,6.552,1.256,1.256,1.256,0,0,0,7.808,2.511m-6.552,0A1.256,1.256,0,1,0,0,1.256,1.256,1.256,0,0,0,1.256,2.511" transform="translate(0 0)" fill="#fff"/>
        </g>
      </g>
      <g id="Group_1100749" data-name="Group 1100749" transform="translate(9.418)">
        <g id="Group_1100748" data-name="Group 1100748" clip-path="url(#clip-path-13)">
          <path id="Path_875398" data-name="Path 875398" d="M10.682,0h81.5a10.785,10.785,0,0,1,10.678,10.888l-.134,62.524L57.973,102.864a12.616,12.616,0,0,1-13.084,0L-.2,73.333,0,10.888A10.784,10.784,0,0,1,10.682,0" transform="translate(-0.001 0)" fill="#fff"/>
        </g>
      </g>
      <g id="Group_1100745" data-name="Group 1100745" transform="translate(0 17.918)">
        <g id="Group_1100096" data-name="Group 1100096" transform="translate(0 0)" clip-path="url(#clip-path-14)">
          <path id="Path_873771" data-name="Path 873771" d="M61.5,80.838a16.933,16.933,0,0,1-9.134-2.472L3.9,46.669C1.386,45.023,0,42.8,0,40.417s1.386-4.606,3.9-6.25L52.365,2.47C57.4-.823,65.6-.823,70.635,2.47l48.464,31.7c2.517,1.645,3.9,3.865,3.9,6.25s-1.386,4.606-3.9,6.252L70.637,78.365A16.938,16.938,0,0,1,61.5,80.838m0-79.89A16.161,16.161,0,0,0,52.79,3.3L4.328,35C2.084,36.467.85,38.39.85,40.417s1.234,3.952,3.478,5.419l48.465,31.7c4.8,3.139,12.616,3.139,17.419,0l48.462-31.7c2.244-1.467,3.478-3.391,3.478-5.419s-1.234-3.952-3.478-5.419L70.21,3.3A16.161,16.161,0,0,0,61.5.948" transform="translate(0 -0.001)" fill="#61dfe4"/>
        </g>
      </g>
      <rect id="Rectangle_403516" data-name="Rectangle 403516" width="102.859" height="50.446" transform="translate(9.418 17.158)" fill="#fff"/>
    </g>
    <g id="Group_1101514" data-name="Group 1101514" transform="translate(767.744 1810.995)">
      <g id="Group_1099618-2" data-name="Group 1099618" transform="translate(0 0)">
        <rect id="Rectangle_401104-2" data-name="Rectangle 401104" width="64.848" height="65.629" transform="translate(0)" fill="none"/>
      </g>
      <g id="Group_1102751" data-name="Group 1102751" transform="translate(0.577 0.993)">
        <g id="Group_1102750" data-name="Group 1102750" clip-path="url(#clip-path-15)">
          <path id="Path_877859" data-name="Path 877859" d="M2.5,115.081a3.456,3.456,0,0,1-2.262-1.869C-.235,101.619.172,89.92.027,78.288a2.989,2.989,0,0,1,3.1-2.941l28.614,0c1.679.193,1.253,2.142-.321,2.07l-29,.081a1.419,1.419,0,0,0-.32.315v29.319H61.531V88.305a1.035,1.035,0,0,1,2.069,0l0,23.845a3.228,3.228,0,0,1-2.469,2.934H38.966l.635,5.88c2.519.2,7.6-1,8.091,2.635.138,1.013.374,3.6-1.171,3.41H17.108c-1.827.2-1.3-3.634-.741-4.569,1.36-2.277,5.43-1.245,7.661-1.476l.635-5.88Zm59.034-5.88H2.1v3.814H61.531Zm-35.6,11.759H37.694l-.8-5.871-10.07-.018Zm19.7,3.973c-.036-.675.241-1.468-.518-1.786-8.8-.233-17.69-.137-26.5-.049-.865.3-.61,1.091-.628,1.835Z" transform="translate(0 -63.373)" fill="#0c2d70"/>
          <rect id="Rectangle_404826" data-name="Rectangle 404826" width="11.926" height="2.066" transform="translate(40.706 33.751)" fill="#0c2d70"/>
          <rect id="Rectangle_404827" data-name="Rectangle 404827" width="11.926" height="2.066" transform="translate(44.678 37.724)" fill="#0c2d70"/>
          <path id="Path_877860" data-name="Path 877860" d="M258.1,239.174h-2.067c.036-1.594-.467-2.321,1.519-2.074.976.121.408,1.31.549,2.074" transform="translate(-215.323 -199.383)" fill="#0c2d70"/>
          <rect id="Rectangle_404828" data-name="Rectangle 404828" width="1.912" height="2.071" transform="translate(54.695 33.748)" fill="#0c2d70"/>
          <path id="Path_877861" data-name="Path 877861" d="M230.956,4.353c1.455-.321,2.716-3.133,4.3-1.992a44.385,44.385,0,0,1,4.034,4.068c1.122,1.648-1.62,2.763-1.974,4.28.946.122,3.785-.069,4.169.837.532,1.254-.1,5.261.053,6.807-.273.977-3.479.641-4.381.94.452.744,2.639,2.745,2.518,3.538-.114.743-4,4.01-4.683,4.861-.847,1.067-3.745-2.54-4.032-2.2,0,.682-.134,3.832-.586,4.142a3.377,3.377,0,0,1-1.236.313,31.72,31.72,0,0,1-5.5-.076c-1.522-.363-.867-3.157-1.262-4.38-1.03.451-2.557,2.593-3.7,2.356-.859-.178-3.784-3.805-4.7-4.521-.722-1.38,1.677-2.82,2.2-4.031-.221-.176-2.956-.224-3.542-.353-.735-.162-.854-.83-.914-1.47a30.68,30.68,0,0,1,.078-5.5,3.172,3.172,0,0,1,.235-.678c.307-.45,3.448-.583,4.142-.586-.329-1.076-2.582-2.607-2.356-3.7.181-.868,3.95-3.925,4.683-4.863a.848.848,0,0,1,.455-.169c.682,0,2.723,2.095,3.414,2.533.417-1.37-.252-3.594,1.067-4.417,1.93.073,4.114-.21,6.013-.04.573.051.985.113,1.173.734a21.594,21.594,0,0,1,.33,3.563m8.58,12.713V13.014c0-.089-.267-.244-.4-.239-.857-.063-4.292-.126-4.7-.7a1.335,1.335,0,0,1-.064-1.2L237.3,7.294,234.371,4.36c-1.322.659-4.009,4.551-5.131,2.264l-.351-4.1c0-.13-.15-.4-.239-.4H224.6c-.221.942-.139,4.516-.673,5.047a1.465,1.465,0,0,1-1.353.076l-3.456-2.9-2.929,2.959c-.066.382,3.014,3.23,3.016,4.11a.976.976,0,0,1-.757,1c-1.4.336-3.222.153-4.654.511v4.132c1.039.2,4.594.1,5.179.779a.775.775,0,0,1,.228.422c.138.981-2.5,3.339-3,4.311-.044.293,2.393,2.481,2.782,2.893,1.232-.364,4.722-4.99,5.263-1.932.233,1.315.111,2.975.355,4.332h4.132c.538-1.19-.307-6.5,2.126-5.223l3.494,2.829,2.959-2.929c-.763-1.144-5.074-4.686-1.811-5.152.544-.078,3.891-.192,4.039-.331" transform="translate(-178.005 0)" fill="#0c2d70"/>
          <path id="Path_877862" data-name="Path 877862" d="M280.9,62.6a5.957,5.957,0,1,1-5.957-5.957A5.957,5.957,0,0,1,280.9,62.6m-2,.006a3.968,3.968,0,1,0-3.968,3.968,3.968,3.968,0,0,0,3.968-3.968" transform="translate(-226.246 -47.64)" fill="#0c2d70"/>
          <path id="Path_877863" data-name="Path 877863" d="M48.462,99.876a2.6,2.6,0,0,1-.627-.244,2.927,2.927,0,0,1-1.05-3.9c2.212-4.077,8.331.387,4.3,3.824-.206.176-.689.281-.724.422-.216.889.324,4.283-.189,4.784a8.044,8.044,0,0,1-.837.354h-5.8v1.907h8.1a3.167,3.167,0,0,1,.244-.627c2.575-3.4,7.051.26,5,3.25a2.994,2.994,0,0,1-4.769.317c-.128-.146-.438-.874-.556-.874H43.536V111h6.118a3,3,0,0,1,.568.386c.484.671-.14,3.671.174,4.594.081.239,1.185.769,1.536,1.324a3,3,0,1,1-4.968-.095c.3-.422,1.5-1.107,1.5-1.2v-2.94H43.536v2.94c0,.663-.791.97-1.351,1.033-4.686.527-10.315-.4-15.1.006a1.69,1.69,0,0,1-1.421-.644L25.65,99.708c.2-.542.6-.587,1.114-.634,5-.456,10.676.362,15.747,0,.433-.1,1.025.737,1.025,1.041v2.94h4.926c-.1-.489.134-2.984,0-3.178m1.953-2.782a1,1,0,1,0-1,1,1,1,0,0,0,1-1m-22.77,17.878H41.471V101.147H27.646Zm27.713-6.957a.98.98,0,1,0-.98.98.98.98,0,0,0,.98-.98M50.4,118.945a.983.983,0,1,0-.983.983.983.983,0,0,0,.983-.983" transform="translate(-21.574 -79.155)" fill="#0c2d70"/>
          <path id="Path_877864" data-name="Path 877864" d="M49.768,151.988a20.42,20.42,0,0,0-3.055,0c-.495.17-.458,2.494-2,1.8-.624-.279-.5-.946-.37-1.477a56.442,56.442,0,0,1,2.473-6.583c.342-.816.608-2.244,1.868-1.63.671.327,2.848,7.5,3.467,8.623a1.03,1.03,0,0,1-1.861.735c-.194-.281-.415-1.4-.518-1.469m-.932-2.089c.132-.125-.6-2.054-.792-1.906l-.637,1.906Z" transform="translate(-37.203 -121.074)" fill="#0c2d70"/>
          <path id="Path_877865" data-name="Path 877865" d="M101.161,144.268a3.3,3.3,0,0,1,.356,1.154,48.383,48.383,0,0,1-.014,7.3c-.2,1.658-1.886,1.657-2.056.177a54.158,54.158,0,0,1,.013-7.94,1.041,1.041,0,0,1,1.7-.687" transform="translate(-83.527 -121.126)" fill="#0c2d70"/>
        </g>
      </g>
    </g>
  </g>
</svg>
