<svg xmlns="http://www.w3.org/2000/svg" xmlns:xlink="http://www.w3.org/1999/xlink" width="148.643" height="148.643" viewBox="0 0 148.643 148.643">
  <defs>
    <clipPath id="clip-path">
      <rect id="Rectangle_403416" data-name="Rectangle 403416" width="147.238" height="98.278" fill="none"/>
    </clipPath>
    <clipPath id="clip-path-2">
      <path id="Path_875268" data-name="Path 875268" d="M2.261,23.822,0,24.46V37.649c0,2.52,1.658,5.039,4.972,6.958L61.6,77.377c6.63,3.836,17.417,3.836,24.047,0l56.623-32.769c3.261-1.888,4.917-4.358,4.97-6.837,0-.11,0-.22-.007-.331l.009,0V24.583L143.69,22.6c-1,6.069-8.129,10.069-14.086,10.9L89.031,57.289,71.323,63.7,14.8,34.461l1.306-.757c-4.829-2.262-7.432-7.436-10.045-12.155Z" transform="translate(0 -21.549)" fill="#0f398d"/>
    </clipPath>
    <clipPath id="clip-path-3">
      <rect id="Rectangle_403409" data-name="Rectangle 403409" width="147.239" height="98.278" fill="none"/>
    </clipPath>
    <clipPath id="clip-path-4">
      <rect id="Rectangle_403408" data-name="Rectangle 403408" width="73.619" height="57.479" fill="none"/>
    </clipPath>
    <clipPath id="clip-path-5">
      <path id="Path_875270" data-name="Path 875270" d="M50.534,9.936,3.311,38.169c2.612,4.72,5.216,9.893,10.045,12.155L67.013,19.269a8.509,8.509,0,0,1,7.7,0l52.721,30.51-.584.345c5.958-.832,13.084-4.832,14.086-10.9L81.768,6.238,64.553,1.678Z" transform="translate(-3.311 -1.678)" fill="#61dfe4"/>
    </clipPath>
    <clipPath id="clip-path-7">
      <rect id="Rectangle_403411" data-name="Rectangle 403411" width="67.553" height="48.646" fill="none"/>
    </clipPath>
    <clipPath id="clip-path-8">
      <path id="Path_875272" data-name="Path 875272" d="M69.769,77.606,13.146,44.835c-2.123-1.23-2.123-3.228,0-4.459L69.767,7.608a8.5,8.5,0,0,1,7.7,0l56.625,32.77c2.123,1.229,2.123,3.228,0,4.457L77.469,77.6a8.508,8.508,0,0,1-7.7,0M73.4,0A24.448,24.448,0,0,0,61.593,2.878L4.972,35.648c-6.628,3.836-6.628,10.08,0,13.916L61.6,82.334c6.63,3.838,17.417,3.838,24.047,0l56.623-32.77c6.628-3.834,6.628-10.08,0-13.916L85.641,2.878A24.448,24.448,0,0,0,73.832,0Z" transform="translate(-0.001)" fill="#98baff"/>
    </clipPath>
    <clipPath id="clip-path-10">
      <path id="Path_875275" data-name="Path 875275" d="M67.144,77.934,10.52,45.165c-3-1.741-3-4.571,0-6.31L67.142,6.087a12.039,12.039,0,0,1,10.9,0l56.623,32.77c3,1.739,3,4.569,0,6.308L78.042,77.934a12.039,12.039,0,0,1-10.9,0M62.166,3.208,5.545,35.976C-.2,39.3-.2,44.717,5.545,48.043L62.17,80.815c5.747,3.324,15.1,3.324,20.85,0l56.621-32.772c5.747-3.324,5.747-8.738,0-12.065L83.016,3.208A21.275,21.275,0,0,0,72.592.712a21.277,21.277,0,0,0-10.426,2.5" transform="translate(-1.234 -0.712)" fill="#98baff"/>
    </clipPath>
    <clipPath id="clip-path-11">
      <rect id="Rectángulo_47325" data-name="Rectángulo 47325" width="70.137" height="75.152" fill="#0c2d70"/>
    </clipPath>
    <clipPath id="clip-path-12">
      <rect id="Rectangle_403406" data-name="Rectangle 403406" width="44.725" height="25.927" fill="#f3f9ff"/>
    </clipPath>
    <clipPath id="clip-path-13">
      <rect id="Rectangle_403518" data-name="Rectangle 403518" width="127.104" height="128.856" fill="none"/>
    </clipPath>
    <clipPath id="clip-path-14">
      <rect id="Rectangle_403232" data-name="Rectangle 403232" width="148.643" height="86.444" fill="#61dfe4"/>
    </clipPath>
    <clipPath id="clip-path-15">
      <rect id="Rectangle_404789" data-name="Rectangle 404789" width="73.408" height="73.251" fill="#0c2d70"/>
    </clipPath>
  </defs>
  <g id="img9" transform="translate(-1045.664 -5613)">
    <g id="Group_1100752" data-name="Group 1100752" transform="translate(1045.664 5613)">
      <g id="Group_1100744" data-name="Group 1100744" transform="translate(0.004 50.365)">
        <g id="Group_1100514" data-name="Group 1100514" clip-path="url(#clip-path)">
          <g id="Group_1100495" data-name="Group 1100495" transform="translate(0 39.572)">
            <g id="Group_1100494" data-name="Group 1100494" clip-path="url(#clip-path-2)">
              <path id="Path_875399" data-name="Path 875399" d="M.164.131,125.557,0l-.164,157.368L0,157.5Z" transform="translate(-25.969 44.825) rotate(-60)" fill="#0f398d"/>
            </g>
          </g>
          <g id="Group_1100500" data-name="Group 1100500" transform="translate(0 0)">
            <g id="Group_1100499" data-name="Group 1100499" clip-path="url(#clip-path-3)">
              <g id="Group_1100498" data-name="Group 1100498" transform="translate(73.619 40.799)" opacity="0.3">
                <g id="Group_1100497" data-name="Group 1100497">
                  <g id="Group_1100496" data-name="Group 1100496" clip-path="url(#clip-path-4)">
                    <path id="Path_875269" data-name="Path 875269" d="M96.171,32.946,55.6,56.729,40.185,62.308V79.7A24.558,24.558,0,0,0,52.21,76.819l56.623-32.77c3.261-1.888,4.917-4.356,4.97-6.835,0-.11,0-.222-.007-.332l.009,0V24.025l-3.244-1.809h-.339c-1.107,5.974-8.151,9.905-14.051,10.73" transform="translate(-40.186 -22.217)" fill="#0f054c"/>
                  </g>
                </g>
              </g>
            </g>
          </g>
          <g id="Group_1100502" data-name="Group 1100502" transform="translate(6.066 3.081)">
            <g id="Group_1100501" data-name="Group 1100501" clip-path="url(#clip-path-5)">
              <path id="Path_875400" data-name="Path 875400" d="M.15.116,111.19,0l-.15,143.538L0,143.653Z" transform="matrix(0.5, -0.866, 0.866, 0.5, -21.189, 36.556)" fill="#61dfe4"/>
            </g>
          </g>
          <g id="Group_1100507" data-name="Group 1100507" transform="translate(0 0)">
            <g id="Group_1100506" data-name="Group 1100506" clip-path="url(#clip-path-3)">
              <g id="Group_1100505" data-name="Group 1100505" transform="translate(6.066 3.081)" opacity="0.3">
                <g id="Group_1100504" data-name="Group 1100504">
                  <g id="Group_1100503" data-name="Group 1100503" clip-path="url(#clip-path-7)">
                    <path id="Path_875271" data-name="Path 875271" d="M70.864,3.35,64.553,1.677,50.534,9.937,3.311,38.168c2.612,4.72,5.214,9.894,10.045,12.157L67.013,19.27a7.874,7.874,0,0,1,3.851-.92Z" transform="translate(-3.311 -1.678)" fill="#0f054c"/>
                  </g>
                </g>
              </g>
            </g>
          </g>
          <g id="Group_1100509" data-name="Group 1100509" transform="translate(0.001)">
            <g id="Group_1100508" data-name="Group 1100508" clip-path="url(#clip-path-8)">
              <rect id="Rectangle_403413" data-name="Rectangle 403413" width="150.551" height="86.172" transform="translate(-1.657 0)" fill="#98baff"/>
            </g>
          </g>
          <g id="Group_1100511" data-name="Group 1100511" transform="translate(0 0)">
            <g id="Group_1100510" data-name="Group 1100510" clip-path="url(#clip-path-3)">
              <path id="Path_875273" data-name="Path 875273" d="M128.843,37.333,72.22,4.563a8.5,8.5,0,0,0-7.7,0L7.9,37.331c-1.416.821-1.881,1.981-1.409,3.03A3.28,3.28,0,0,1,7.9,38.934L64.52,6.164a8.5,8.5,0,0,1,7.7,0l56.623,32.77a3.283,3.283,0,0,1,1.409,1.429c.473-1.049.007-2.211-1.409-3.03" transform="translate(5.25 3.046)" fill="#fff"/>
              <path id="Path_875274" data-name="Path 875274" d="M142.265,29.8,85.642,62.565c-6.63,3.838-17.417,3.838-24.047,0L4.972,29.794c-2.964-1.715-4.6-3.91-4.913-6.157C-.33,26.417,1.3,29.275,4.972,31.4l56.623,32.77c6.63,3.836,17.417,3.836,24.047,0L142.265,31.4c3.666-2.121,5.3-4.978,4.912-7.759-.313,2.246-1.949,4.442-4.912,6.157" transform="translate(0.002 19.77)" fill="#fff"/>
            </g>
          </g>
          <g id="Group_1100513" data-name="Group 1100513" transform="translate(2.26 1.308)">
            <g id="Group_1100512" data-name="Group 1100512" clip-path="url(#clip-path-10)">
              <rect id="Rectangle_403415" data-name="Rectangle 403415" width="145.592" height="83.427" transform="translate(-1.438 0)" fill="#98baff"/>
            </g>
          </g>
        </g>
      </g>
      <g id="Group_1100746" data-name="Group 1100746" transform="translate(34.526 11.331)">
        <g id="Group_1099618" data-name="Group 1099618" transform="translate(0 0)">
          <rect id="Rectangle_401104" data-name="Rectangle 401104" width="75.736" height="76.648" fill="none"/>
        </g>
        <g id="Grupo_156261" data-name="Grupo 156261" transform="translate(1.517 0.448)">
          <rect id="Rectángulo_47312" data-name="Rectángulo 47312" width="10.016" height="5.008" transform="translate(6.286 23.817)" fill="#0c2d70"/>
          <path id="Trazado_198297" data-name="Trazado 198297" d="M10.008,59.838h10.01L15.01,66.1Z" transform="translate(-3.72 -22.241)" fill="#0c2d70"/>
          <g id="Grupo_156260" data-name="Grupo 156260" transform="translate(0 0)">
            <g id="Grupo_156259" data-name="Grupo 156259" clip-path="url(#clip-path-11)">
              <path id="Trazado_198298" data-name="Trazado 198298" d="M25.947,73.836a10.01,10.01,0,1,0,10.01-10.01,10.01,10.01,0,0,0-10.01,10.01M35.96,81.349a7.467,7.467,0,0,1-3.646-.949l4.25-5.311h6.8a7.516,7.516,0,0,1-7.4,6.257Zm7.4-8.765h-6.15V66.437a7.523,7.523,0,0,1,6.148,6.147Zm-8.651-6.147V73.4l-4.345,5.432a7.494,7.494,0,0,1,4.345-12.393" transform="translate(-9.645 -23.723)" fill="#0c2d70"/>
              <rect id="Rectángulo_47313" data-name="Rectángulo 47313" width="2.504" height="2.504" transform="translate(16.302 62.629)" fill="#0c2d70"/>
              <rect id="Rectángulo_47314" data-name="Rectángulo 47314" width="15.024" height="2.504" transform="translate(21.311 62.629)" fill="#0c2d70"/>
              <rect id="Rectángulo_47315" data-name="Rectángulo 47315" width="20.032" height="2.504" transform="translate(16.302 67.638)" fill="#0c2d70"/>
              <rect id="Rectángulo_47316" data-name="Rectángulo 47316" width="2.504" height="2.504" transform="translate(43.846 62.629)" fill="#0c2d70"/>
              <rect id="Rectángulo_47317" data-name="Rectángulo 47317" width="15.024" height="2.504" transform="translate(48.855 62.629)" fill="#0c2d70"/>
              <rect id="Rectángulo_47318" data-name="Rectángulo 47318" width="20.032" height="2.504" transform="translate(43.846 67.638)" fill="#0c2d70"/>
              <rect id="Rectángulo_47319" data-name="Rectángulo 47319" width="2.504" height="2.504" transform="translate(46.35 12.547)" fill="#0c2d70"/>
              <rect id="Rectángulo_47320" data-name="Rectángulo 47320" width="12.52" height="2.504" transform="translate(51.359 12.547)" fill="#0c2d70"/>
              <rect id="Rectángulo_47321" data-name="Rectángulo 47321" width="17.528" height="2.504" transform="translate(46.35 17.555)" fill="#0c2d70"/>
              <rect id="Rectángulo_47322" data-name="Rectángulo 47322" width="2.504" height="2.504" transform="translate(46.35 26.32)" fill="#0c2d70"/>
              <rect id="Rectángulo_47323" data-name="Rectángulo 47323" width="12.52" height="2.504" transform="translate(51.359 26.32)" fill="#0c2d70"/>
              <rect id="Rectángulo_47324" data-name="Rectángulo 47324" width="17.528" height="2.504" transform="translate(46.35 31.328)" fill="#0c2d70"/>
              <path id="Trazado_198299" data-name="Trazado 198299" d="M73.032,83.851H88.059A1.251,1.251,0,0,0,89.31,82.6V72.589a1.251,1.251,0,0,0-1.251-1.253H84.3V65.078a1.251,1.251,0,0,0-1.251-1.253H78.041a1.252,1.252,0,0,0-1.253,1.253V68.83H73.033a1.251,1.251,0,0,0-1.251,1.253V82.608a1.251,1.251,0,0,0,1.25,1.245m13.773-2.5H84.3V73.84h2.5ZM79.3,66.329h2.5V81.355H79.3Zm-5.008,5.008h2.5v10.01h-2.5Z" transform="translate(-26.681 -23.723)" fill="#0c2d70"/>
              <path id="Trazado_198300" data-name="Trazado 198300" d="M43.143,28H58.166a1.251,1.251,0,0,0,1.251-1.251V19.233a1.251,1.251,0,0,0-1.251-1.251H43.143a1.251,1.251,0,0,0-1.253,1.251v7.512A1.251,1.251,0,0,0,43.14,28Zm1.251-7.513H56.919V25.5H44.394Z" transform="translate(-15.571 -6.683)" fill="#0c2d70"/>
              <path id="Trazado_198301" data-name="Trazado 198301" d="M43.143,49.922H58.166a1.251,1.251,0,0,0,1.251-1.251V41.16a1.251,1.251,0,0,0-1.251-1.253H43.143A1.251,1.251,0,0,0,41.89,41.16v7.511a1.251,1.251,0,0,0,1.253,1.251m1.251-7.511H56.919v5.008H44.394Z" transform="translate(-15.571 -14.832)" fill="#0c2d70"/>
              <path id="Trazado_198302" data-name="Trazado 198302" d="M5.031,20.661V37.589a1.254,1.254,0,0,0,.274.783l4.733,5.919V73.9a1.253,1.253,0,0,0,1.253,1.251h57.6A1.251,1.251,0,0,0,70.136,73.9V6.289a1.251,1.251,0,0,0-1.251-1.253H20.66A11.269,11.269,0,1,0,5.031,20.661m10.011,6.918H7.54V25.07h7.506ZM11.294,41.851l-2.4-3.008H13.7ZM7.539,30.081h2.5v6.261h-2.5Zm7.513,6.261H12.547V30.081h2.5Zm52.584-28.8V72.649H12.547V44.292l4.733-5.917a1.254,1.254,0,0,0,.274-.783V20.661A11.2,11.2,0,0,0,21.905,7.543ZM11.3,2.533a8.765,8.765,0,0,1,4.389,16.346,1.251,1.251,0,0,0-.627,1.083v2.606h-2.51V15.575l3.389-3.393-1.769-1.771L11.3,13.283,8.423,10.412l-1.77,1.77,3.389,3.389v6.993h-2.5v-2.6a1.249,1.249,0,0,0-.626-1.083A8.765,8.765,0,0,1,11.3,2.531Z" transform="translate(0.001 0.001)" fill="#0c2d70"/>
            </g>
          </g>
        </g>
      </g>
      <g id="Group_1100747" data-name="Group 1100747" transform="translate(0 122.715)">
        <g id="Group_1100491" data-name="Group 1100491" transform="translate(0 0)" clip-path="url(#clip-path-12)">
          <path id="Path_875261" data-name="Path 875261" d="M35.033,24.585a1.343,1.343,0,1,1,1.343,1.342,1.343,1.343,0,0,1-1.343-1.342m-5.664,1.342a1.342,1.342,0,1,0-1.343-1.342,1.342,1.342,0,0,0,1.343,1.342m-7.007,0a1.342,1.342,0,1,0-1.343-1.342,1.342,1.342,0,0,0,1.343,1.342m-7.007,0a1.342,1.342,0,1,0-1.343-1.342,1.342,1.342,0,0,0,1.343,1.342m-7.007,0a1.342,1.342,0,1,0-1.343-1.342,1.342,1.342,0,0,0,1.343,1.342m-7.007,0A1.342,1.342,0,1,0,0,24.585a1.342,1.342,0,0,0,1.343,1.342M36.376,18.31a1.343,1.343,0,1,0-1.343-1.343,1.343,1.343,0,0,0,1.343,1.343m-7.007,0a1.343,1.343,0,1,0-1.343-1.343,1.343,1.343,0,0,0,1.343,1.343m-7.007,0a1.343,1.343,0,1,0-1.343-1.343,1.343,1.343,0,0,0,1.343,1.343m-7.007,0a1.343,1.343,0,1,0-1.343-1.343,1.343,1.343,0,0,0,1.343,1.343m-7.007,0a1.343,1.343,0,1,0-1.343-1.343A1.343,1.343,0,0,0,8.349,18.31m-7.007,0A1.343,1.343,0,1,0,0,16.968,1.343,1.343,0,0,0,1.343,18.31m35.033-7.617a1.343,1.343,0,1,0-1.343-1.343,1.343,1.343,0,0,0,1.343,1.343M42.04,24.585a1.343,1.343,0,1,1,1.343,1.342,1.343,1.343,0,0,1-1.343-1.342m1.343-6.275a1.343,1.343,0,1,0-1.343-1.343,1.343,1.343,0,0,0,1.343,1.343m0-7.617A1.343,1.343,0,1,0,42.04,9.351a1.343,1.343,0,0,0,1.343,1.343m-14.013,0a1.343,1.343,0,1,0-1.343-1.343,1.343,1.343,0,0,0,1.343,1.343m-7.007,0A1.343,1.343,0,1,0,21.02,9.351a1.343,1.343,0,0,0,1.343,1.343m-7.007,0a1.343,1.343,0,1,0-1.343-1.343,1.343,1.343,0,0,0,1.343,1.343m-7.007,0A1.343,1.343,0,1,0,7.007,9.351a1.343,1.343,0,0,0,1.343,1.343m-7.007,0A1.343,1.343,0,1,0,0,9.351a1.343,1.343,0,0,0,1.343,1.343M36.376,2.685a1.343,1.343,0,1,0-1.343-1.343,1.343,1.343,0,0,0,1.343,1.343m7.007,0A1.343,1.343,0,1,0,42.04,1.343a1.343,1.343,0,0,0,1.343,1.343m-14.013,0a1.343,1.343,0,1,0-1.343-1.343,1.343,1.343,0,0,0,1.343,1.343m-7.007,0A1.343,1.343,0,1,0,21.02,1.343a1.343,1.343,0,0,0,1.343,1.343m-7.007,0a1.343,1.343,0,1,0-1.343-1.343,1.343,1.343,0,0,0,1.343,1.343m-7.007,0A1.343,1.343,0,1,0,7.007,1.343,1.343,1.343,0,0,0,8.349,2.685m-7.007,0A1.343,1.343,0,1,0,0,1.343,1.343,1.343,0,0,0,1.343,2.685" transform="translate(0 0)" fill="#f3f9ff"/>
        </g>
      </g>
      <g id="Group_1100749" data-name="Group 1100749" transform="translate(10.071)">
        <g id="Group_1100748" data-name="Group 1100748" clip-path="url(#clip-path-13)">
          <path id="Path_875398" data-name="Path 875398" d="M13.2,0H113.91a13.3,13.3,0,0,1,13.2,13.4V93.21l-55.468,33.4a15.643,15.643,0,0,1-16.169,0L0,93.211,0,13.4A13.3,13.3,0,0,1,13.2,0" transform="translate(0 0)" fill="#fff"/>
        </g>
      </g>
      <g id="Group_1100745" data-name="Group 1100745" transform="translate(0 30.467)">
        <g id="Group_1100096" data-name="Group 1100096" transform="translate(0 0)" clip-path="url(#clip-path-14)">
          <path id="Path_873771" data-name="Path 873771" d="M74.323,86.446A22.516,22.516,0,0,1,63.285,83.8L4.716,49.907C1.675,48.146,0,45.772,0,43.221S1.675,38.3,4.716,36.537l58.565-33.9C69.37-.88,79.273-.88,85.361,2.642l58.567,33.9c3.041,1.759,4.716,4.133,4.716,6.684s-1.675,4.925-4.716,6.686L85.363,83.8a22.523,22.523,0,0,1-11.04,2.644m0-85.432A21.49,21.49,0,0,0,63.8,3.532L5.23,37.426c-2.712,1.571-4.2,3.628-4.2,5.8s1.491,4.226,4.2,5.8L63.8,82.913c5.8,3.356,15.246,3.356,21.05,0l58.565-33.9c2.712-1.569,4.2-3.626,4.2-5.8s-1.491-4.226-4.2-5.8L84.847,3.532A21.49,21.49,0,0,0,74.321,1.014" transform="translate(0 -0.001)" fill="#0f398d"/>
        </g>
      </g>
      <rect id="Rectangle_403516" data-name="Rectangle 403516" width="127.105" height="52.876" transform="translate(10.071 23.642)" fill="#fff"/>
    </g>
    <g id="Group_1102729" data-name="Group 1102729" transform="translate(1083.281 5629.586)">
      <g id="Group_1102728" data-name="Group 1102728" clip-path="url(#clip-path-15)">
        <path id="Path_877526" data-name="Path 877526" d="M73.408,6V8.57H65.892A4.913,4.913,0,0,1,59.8,12.005c-.36-.088-.859-.524-1.122-.473a20.222,20.222,0,0,0-2.3,2.3c.61,1.444,1.56,2.844,2.213,4.329a31.239,31.239,0,0,1-2.2,28.97L71.58,62.367a6.425,6.425,0,0,1-8.058,9.892c-5.619-5.113-10.759-10.752-16.262-16-4.437,2.467-9.3,4.442-14.447,4.746C5.036,62.646-10.713,29.657,8.421,9.484A30.64,30.64,0,0,1,54.8,11.866c.3-.447,2-1.77,2.072-2.13.039-.2-.491-1.519-.521-2.167C56.075,1.668,64.136.542,65.984,6ZM58.735,30.464A28.126,28.126,0,1,0,30.608,58.59,28.126,28.126,0,0,0,58.735,30.464m4.9-23.169a2.438,2.438,0,1,0-2.438,2.438A2.438,2.438,0,0,0,63.63,7.294m-8.739,41.86-5.608,5.608L52.6,58.076,58.2,52.468Zm4.9,5.263c-.654.708-5.269,4.94-5.268,5.388l.092.271L64.621,70.06a3.974,3.974,0,0,0,5.64-5.457L60.309,54.57Z" transform="translate(0 0)" fill="#0c2d70"/>
        <path id="Path_877527" data-name="Path 877527" d="M78.6,52.213A25.639,25.639,0,1,1,52.96,26.574,25.639,25.639,0,0,1,78.6,52.213M34.861,47.32c1.455-5.716,9.879-4.3,9.539,1.565-.04.684-.63,1.927-.471,2.278.788.613,5.028,5.33,5.5,5.323.187,0,.866-.427,1.335-.5a7.016,7.016,0,0,1,2.255.033c.488.1.964.642,1.368.3l7.693-7.709c-1.752-3.743.871-7.9,5.119-7.323.456.062,1.358.553,1.64.5.394-.077,2.49-2.578,3.016-2.986A23.194,23.194,0,0,0,30.278,47.32Zm0,2.383H29.911A23.324,23.324,0,0,0,48.05,74.918C67.6,79,82.643,58.576,73.353,41.089c-.223-.153-2.678,2.3-2.717,2.5-.05.263.386.76.473,1.121a4.934,4.934,0,0,1-5.5,6.228c-.739-.108-1.444-.746-2.073-.328l-7.517,7.532c.062.859.643,1.561.667,2.469.146,5.606-8.011,6.9-9.609,1.712a7.133,7.133,0,0,1,.346-4.181L42.292,52.99c-.507-.337-1.407.32-2.2.386A4.738,4.738,0,0,1,34.861,49.7m33.973-3.6A2.436,2.436,0,1,0,66.4,48.543a2.436,2.436,0,0,0,2.436-2.436m-26.875,2.44a2.435,2.435,0,1,0-2.435,2.435,2.435,2.435,0,0,0,2.435-2.435M54.175,60.764A2.438,2.438,0,1,0,51.737,63.2a2.437,2.437,0,0,0,2.438-2.438" transform="translate(-22.313 -21.703)" fill="#0c2d70"/>
      </g>
    </g>
  </g>
</svg>
