<svg xmlns="http://www.w3.org/2000/svg" xmlns:xlink="http://www.w3.org/1999/xlink" width="123" height="123" viewBox="0 0 123 123">
  <defs>
    <clipPath id="clip-path">
      <rect id="Rectangle_403416" data-name="Rectangle 403416" width="121.687" height="91.902" fill="#d1f3f5"/>
    </clipPath>
    <clipPath id="clip-path-2">
      <path id="Path_875268" data-name="Path 875268" d="M1.868,23.675,0,24.271V36.6c0,2.356,1.37,4.712,4.109,6.507l46.8,30.644c5.479,3.587,14.394,3.587,19.874,0l46.8-30.643c2.7-1.765,4.064-4.075,4.108-6.393,0-.1,0-.206-.006-.309l.008,0V24.386l-2.933-1.849c-.828,5.676-6.718,9.416-11.642,10.194L73.581,54.97,58.946,60.964,12.235,33.623l1.08-.708c-3.991-2.116-6.143-6.953-8.3-11.367Z" transform="translate(0 -21.549)" fill="#61dfe4"/>
    </clipPath>
    <clipPath id="clip-path-3">
      <rect id="Rectangle_403409" data-name="Rectangle 403409" width="121.687" height="91.903" fill="none"/>
    </clipPath>
    <clipPath id="clip-path-4">
      <rect id="Rectangle_403408" data-name="Rectangle 403408" width="60.844" height="53.75" fill="none"/>
    </clipPath>
    <clipPath id="clip-path-5">
      <path id="Path_875270" data-name="Path 875270" d="M42.339,9.4,3.311,35.8c2.159,4.413,4.311,9.251,8.3,11.367L55.958,18.128a6.31,6.31,0,0,1,6.364,0L105.894,46.66l-.483.323c4.924-.778,10.813-4.518,11.642-10.194L68.153,5.942,53.925,1.678Z" transform="translate(-3.311 -1.678)" fill="#61dfe4"/>
    </clipPath>
    <clipPath id="clip-path-7">
      <rect id="Rectangle_403411" data-name="Rectangle 403411" width="55.83" height="45.491" fill="none"/>
    </clipPath>
    <clipPath id="clip-path-8">
      <path id="Path_875272" data-name="Path 875272" d="M57.662,72.571l-46.8-30.644a2.309,2.309,0,0,1,0-4.17L57.66,7.115a6.306,6.306,0,0,1,6.364,0l46.8,30.644a2.308,2.308,0,0,1,0,4.168L64.025,72.57a6.308,6.308,0,0,1-6.364,0M60.664,0A18.357,18.357,0,0,0,50.9,2.691L4.109,33.335c-5.478,3.587-5.478,9.426,0,13.013l46.8,30.644c5.479,3.589,14.394,3.589,19.874,0l46.8-30.644c5.478-3.586,5.478-9.426,0-13.013L70.779,2.691A18.357,18.357,0,0,0,61.02,0Z" transform="translate(-0.001)" fill="#98baff"/>
    </clipPath>
    <clipPath id="clip-path-10">
      <path id="Path_875275" data-name="Path 875275" d="M55.706,72.924,8.909,42.282c-2.483-1.628-2.483-4.274,0-5.9L55.7,5.738a8.927,8.927,0,0,1,9.009,0l46.8,30.644c2.483,1.626,2.483,4.273,0,5.9l-46.8,30.643a8.927,8.927,0,0,1-9.007,0M51.592,3.046,4.8,33.689C.046,36.8.047,41.863,4.8,44.973L51.6,75.619c4.75,3.108,12.479,3.108,17.232,0l46.8-30.646c4.75-3.108,4.75-8.171,0-11.282L68.824,3.046a17.071,17.071,0,0,0-17.232,0" transform="translate(-1.234 -0.712)" fill="#98baff"/>
    </clipPath>
    <clipPath id="clip-path-11">
      <rect id="Rectángulo_47325" data-name="Rectángulo 47325" width="65.588" height="70.277" fill="#0c2d70"/>
    </clipPath>
    <clipPath id="clip-path-12">
      <rect id="Rectangle_403406" data-name="Rectangle 403406" width="41.824" height="24.245" fill="#fff"/>
    </clipPath>
    <clipPath id="clip-path-13">
      <rect id="Rectangle_403518" data-name="Rectangle 403518" width="102.859" height="104.692" fill="#fff"/>
    </clipPath>
    <clipPath id="clip-path-14">
      <rect id="Rectangle_403232" data-name="Rectangle 403232" width="123" height="80.836" fill="#61dfe4"/>
    </clipPath>
    <clipPath id="clip-path-15">
      <rect id="Rectangle_404830" data-name="Rectangle 404830" width="64.308" height="64.302" fill="#0c2d70"/>
    </clipPath>
  </defs>
  <g id="img9" transform="translate(-1090.668 -1800)">
    <g id="Group_1101512" data-name="Group 1101512" transform="translate(1090.668 1800)">
      <g id="Group_1100744" data-name="Group 1100744" transform="translate(0.004 31.098)">
        <g id="Group_1100514" data-name="Group 1100514" clip-path="url(#clip-path)">
          <g id="Group_1100495" data-name="Group 1100495" transform="translate(0 37.005)">
            <g id="Group_1100494" data-name="Group 1100494" clip-path="url(#clip-path-2)">
              <path id="Path_875399" data-name="Path 875399" d="M7.554,6.012,121.412,0l-7.554,134.342L0,140.354Z" transform="translate(-30.284 45.381) rotate(-60)" fill="#61dfe4"/>
            </g>
          </g>
          <g id="Group_1100500" data-name="Group 1100500" transform="translate(0 0)">
            <g id="Group_1100499" data-name="Group 1100499" clip-path="url(#clip-path-3)">
              <g id="Group_1100498" data-name="Group 1100498" transform="translate(60.843 38.152)" opacity="0.3">
                <g id="Group_1100497" data-name="Group 1100497">
                  <g id="Group_1100496" data-name="Group 1100496" clip-path="url(#clip-path-4)">
                    <path id="Path_875269" data-name="Path 875269" d="M86.455,32.25,52.923,54.49,40.185,59.707V75.968a18.428,18.428,0,0,0,9.938-2.691l46.8-30.644c2.7-1.765,4.064-4.073,4.108-6.392,0-.1,0-.208-.006-.311l.008,0V23.908l-2.681-1.692h-.28c-.914,5.586-6.736,9.263-11.613,10.034" transform="translate(-40.185 -22.217)" fill="#0f054c"/>
                  </g>
                </g>
              </g>
            </g>
          </g>
          <g id="Group_1100502" data-name="Group 1100502" transform="translate(5.013 2.882)">
            <g id="Group_1100501" data-name="Group 1100501" clip-path="url(#clip-path-5)">
              <path id="Path_875400" data-name="Path 875400" d="M6.89,5.324,107.716,0l-6.89,122.535L0,127.859Z" transform="matrix(0.5, -0.866, 0.866, 0.5, -25.423, 37.422)" fill="#61dfe4"/>
            </g>
          </g>
          <g id="Group_1100507" data-name="Group 1100507" transform="translate(0 0)">
            <g id="Group_1100506" data-name="Group 1100506" clip-path="url(#clip-path-3)">
              <g id="Group_1100505" data-name="Group 1100505" transform="translate(5.013 2.881)" opacity="0.3">
                <g id="Group_1100504" data-name="Group 1100504">
                  <g id="Group_1100503" data-name="Group 1100503" clip-path="url(#clip-path-7)">
                    <path id="Path_875271" data-name="Path 875271" d="M59.141,3.241,53.925,1.677,42.339,9.4,3.311,35.8c2.159,4.413,4.309,9.253,8.3,11.368L55.958,18.128a5.908,5.908,0,0,1,3.183-.86Z" transform="translate(-3.311 -1.678)" fill="#0f054c"/>
                  </g>
                </g>
              </g>
            </g>
          </g>
          <g id="Group_1100509" data-name="Group 1100509" transform="translate(0.001)">
            <g id="Group_1100508" data-name="Group 1100508" clip-path="url(#clip-path-8)">
              <rect id="Rectangle_403413" data-name="Rectangle 403413" width="124.425" height="80.582" transform="translate(-1.369 0)" fill="#98baff"/>
            </g>
          </g>
          <g id="Group_1100511" data-name="Group 1100511" transform="translate(0 0)">
            <g id="Group_1100510" data-name="Group 1100510" clip-path="url(#clip-path-3)">
              <path id="Path_875273" data-name="Path 875273" d="M107.579,35.147,60.782,4.5a6.306,6.306,0,0,0-6.364,0L7.621,35.146a2.323,2.323,0,0,0-1.164,2.833,2.931,2.931,0,0,1,1.164-1.334L54.418,6a6.306,6.306,0,0,1,6.364,0l46.8,30.644a2.935,2.935,0,0,1,1.164,1.336,2.322,2.322,0,0,0-1.164-2.833" transform="translate(3.244 2.612)" fill="#fff"/>
              <path id="Path_875274" data-name="Path 875274" d="M117.577,29.4,70.78,60.039c-5.479,3.589-14.394,3.589-19.874,0L4.109,29.395A8.3,8.3,0,0,1,.049,23.637c-.321,2.6,1.03,5.272,4.061,7.257l46.8,30.644c5.479,3.587,14.394,3.587,19.874,0l46.8-30.644c3.03-1.983,4.38-4.655,4.059-7.255a8.3,8.3,0,0,1-4.059,5.758" transform="translate(0.001 16.954)" fill="#fff"/>
            </g>
          </g>
          <g id="Group_1100513" data-name="Group 1100513" transform="translate(1.868 1.223)">
            <g id="Group_1100512" data-name="Group 1100512" clip-path="url(#clip-path-10)">
              <rect id="Rectangle_403415" data-name="Rectangle 403415" width="120.326" height="78.015" transform="translate(-1.188 0)" fill="#98baff"/>
            </g>
          </g>
        </g>
      </g>
      <g id="Group_1100746" data-name="Group 1100746" transform="translate(24.709 10.596)">
        <g id="Group_1099618" data-name="Group 1099618" transform="translate(0 0)">
          <rect id="Rectangle_401104" data-name="Rectangle 401104" width="70.823" height="71.676" fill="none"/>
        </g>
        <g id="Grupo_156261" data-name="Grupo 156261" transform="translate(1.419 0.419)">
          <rect id="Rectángulo_47312" data-name="Rectángulo 47312" width="9.366" height="4.683" transform="translate(5.878 22.272)" fill="#0c2d70"/>
          <path id="Trazado_198297" data-name="Trazado 198297" d="M10.008,59.838h9.36l-4.683,5.853Z" transform="translate(-4.128 -24.68)" fill="#0c2d70"/>
          <g id="Grupo_156260" data-name="Grupo 156260" transform="translate(0 0)">
            <g id="Grupo_156259" data-name="Grupo 156259" clip-path="url(#clip-path-11)">
              <path id="Trazado_198298" data-name="Trazado 198298" d="M25.947,73.186a9.36,9.36,0,1,0,9.361-9.36,9.36,9.36,0,0,0-9.361,9.36m9.363,7.025a6.983,6.983,0,0,1-3.41-.887l3.974-4.967h6.356A7.029,7.029,0,0,1,35.31,80.21Zm6.925-8.2H36.484V66.268a7.035,7.035,0,0,1,5.749,5.748Zm-8.09-5.748v6.507l-4.063,5.08a7.008,7.008,0,0,1,4.063-11.589" transform="translate(-10.702 -26.324)" fill="#0c2d70"/>
              <rect id="Rectángulo_47313" data-name="Rectángulo 47313" width="2.342" height="2.342" transform="translate(15.245 58.566)" fill="#0c2d70"/>
              <rect id="Rectángulo_47314" data-name="Rectángulo 47314" width="14.049" height="2.342" transform="translate(19.929 58.566)" fill="#0c2d70"/>
              <rect id="Rectángulo_47315" data-name="Rectángulo 47315" width="18.732" height="2.342" transform="translate(15.245 63.25)" fill="#0c2d70"/>
              <rect id="Rectángulo_47316" data-name="Rectángulo 47316" width="2.342" height="2.342" transform="translate(41.002 58.566)" fill="#0c2d70"/>
              <rect id="Rectángulo_47317" data-name="Rectángulo 47317" width="14.049" height="2.342" transform="translate(45.686 58.566)" fill="#0c2d70"/>
              <rect id="Rectángulo_47318" data-name="Rectángulo 47318" width="18.732" height="2.342" transform="translate(41.002 63.25)" fill="#0c2d70"/>
              <rect id="Rectángulo_47319" data-name="Rectángulo 47319" width="2.342" height="2.342" transform="translate(43.343 11.733)" fill="#0c2d70"/>
              <rect id="Rectángulo_47320" data-name="Rectángulo 47320" width="11.708" height="2.342" transform="translate(48.027 11.733)" fill="#0c2d70"/>
              <rect id="Rectángulo_47321" data-name="Rectángulo 47321" width="16.391" height="2.342" transform="translate(43.343 16.416)" fill="#0c2d70"/>
              <rect id="Rectángulo_47322" data-name="Rectángulo 47322" width="2.342" height="2.342" transform="translate(43.343 24.612)" fill="#0c2d70"/>
              <rect id="Rectángulo_47323" data-name="Rectángulo 47323" width="11.708" height="2.342" transform="translate(48.027 24.612)" fill="#0c2d70"/>
              <rect id="Rectángulo_47324" data-name="Rectángulo 47324" width="16.391" height="2.342" transform="translate(43.343 29.295)" fill="#0c2d70"/>
              <path id="Trazado_198299" data-name="Trazado 198299" d="M72.951,82.552H87a1.17,1.17,0,0,0,1.17-1.171V72.02A1.17,1.17,0,0,0,87,70.849H83.489V65a1.17,1.17,0,0,0-1.17-1.171H77.635A1.17,1.17,0,0,0,76.464,65v3.509H72.952a1.17,1.17,0,0,0-1.17,1.171V81.389a1.17,1.17,0,0,0,1.169,1.164M85.83,80.218H83.489V73.19H85.83ZM78.808,66.167h2.342V80.218H78.808ZM74.125,70.85h2.341v9.36H74.124Z" transform="translate(-29.607 -26.324)" fill="#0c2d70"/>
              <path id="Trazado_198300" data-name="Trazado 198300" d="M43.061,27.348H57.111a1.17,1.17,0,0,0,1.17-1.17V19.152a1.17,1.17,0,0,0-1.17-1.17H43.061a1.17,1.17,0,0,0-1.171,1.17v7.025a1.17,1.17,0,0,0,1.169,1.171Zm1.17-7.026H55.944v4.685H44.232Z" transform="translate(-17.278 -7.416)" fill="#0c2d70"/>
              <path id="Trazado_198301" data-name="Trazado 198301" d="M43.061,49.272H57.111a1.17,1.17,0,0,0,1.17-1.17V41.078a1.17,1.17,0,0,0-1.17-1.171H43.061a1.17,1.17,0,0,0-1.171,1.171V48.1a1.17,1.17,0,0,0,1.171,1.17m1.17-7.024H55.944v4.683H44.232Z" transform="translate(-17.278 -16.459)" fill="#0c2d70"/>
              <path id="Trazado_198302" data-name="Trazado 198302" d="M4.705,19.321V35.152a1.172,1.172,0,0,0,.256.732l4.426,5.535V69.107a1.171,1.171,0,0,0,1.171,1.17H64.417a1.17,1.17,0,0,0,1.17-1.17V5.882a1.17,1.17,0,0,0-1.17-1.171h-45.1A10.538,10.538,0,1,0,4.705,19.321m9.361,6.469H7.052V23.445H14.07Zm-3.5,13.347L8.315,36.324h4.5ZM7.051,28.131H9.392v5.854H7.051Zm7.026,5.854H11.734V28.131h2.342ZM63.249,7.055V67.937H11.734V41.42l4.426-5.533a1.172,1.172,0,0,0,.256-.732V19.321A10.476,10.476,0,0,0,20.485,7.055ZM10.564,2.37a8.2,8.2,0,0,1,4.1,15.286,1.17,1.17,0,0,0-.587,1.013v2.437H11.734V14.566L14.9,11.394,13.249,9.738l-2.686,2.685L7.878,9.738,6.223,11.393l3.169,3.17V21.1H7.051V18.667a1.168,1.168,0,0,0-.586-1.013,8.2,8.2,0,0,1,4.1-15.286Z" transform="translate(0 0)" fill="#0c2d70"/>
            </g>
          </g>
        </g>
      </g>
      <g id="Group_1100747" data-name="Group 1100747" transform="translate(0 98.755)">
        <g id="Group_1100491" data-name="Group 1100491" transform="translate(0 0)" clip-path="url(#clip-path-12)">
          <path id="Path_875261" data-name="Path 875261" d="M32.76,22.99a1.256,1.256,0,1,1,1.256,1.255A1.256,1.256,0,0,1,32.76,22.99m-5.3,1.255a1.255,1.255,0,1,0-1.256-1.255,1.255,1.255,0,0,0,1.256,1.255m-6.552,0a1.255,1.255,0,1,0-1.256-1.255,1.255,1.255,0,0,0,1.256,1.255m-6.552,0A1.255,1.255,0,1,0,13.1,22.99a1.255,1.255,0,0,0,1.256,1.255m-6.552,0A1.255,1.255,0,1,0,6.552,22.99a1.255,1.255,0,0,0,1.256,1.255m-6.552,0A1.255,1.255,0,1,0,0,22.99a1.255,1.255,0,0,0,1.256,1.255m32.76-7.123a1.256,1.256,0,1,0-1.256-1.256,1.256,1.256,0,0,0,1.256,1.256m-6.552,0a1.256,1.256,0,1,0-1.256-1.256,1.256,1.256,0,0,0,1.256,1.256m-6.552,0a1.256,1.256,0,1,0-1.256-1.256,1.256,1.256,0,0,0,1.256,1.256m-6.552,0A1.256,1.256,0,1,0,13.1,15.867a1.256,1.256,0,0,0,1.256,1.256m-6.552,0a1.256,1.256,0,1,0-1.256-1.256,1.256,1.256,0,0,0,1.256,1.256m-6.552,0A1.256,1.256,0,1,0,0,15.867a1.256,1.256,0,0,0,1.256,1.256M34.016,10A1.256,1.256,0,1,0,32.76,8.744,1.256,1.256,0,0,0,34.016,10m5.3,12.99a1.256,1.256,0,1,1,1.256,1.255,1.256,1.256,0,0,1-1.256-1.255m1.256-5.868a1.256,1.256,0,1,0-1.256-1.256,1.256,1.256,0,0,0,1.256,1.256m0-7.123a1.256,1.256,0,1,0-1.256-1.256A1.256,1.256,0,0,0,40.568,10m-13.1,0a1.256,1.256,0,1,0-1.256-1.256A1.256,1.256,0,0,0,27.464,10m-6.552,0a1.256,1.256,0,1,0-1.256-1.256A1.256,1.256,0,0,0,20.912,10M14.36,10A1.256,1.256,0,1,0,13.1,8.744,1.256,1.256,0,0,0,14.36,10M7.808,10A1.256,1.256,0,1,0,6.552,8.744,1.256,1.256,0,0,0,7.808,10M1.256,10A1.256,1.256,0,1,0,0,8.744,1.256,1.256,0,0,0,1.256,10m32.76-7.489A1.256,1.256,0,1,0,32.76,1.256a1.256,1.256,0,0,0,1.256,1.256m6.552,0a1.256,1.256,0,1,0-1.256-1.256,1.256,1.256,0,0,0,1.256,1.256m-13.1,0a1.256,1.256,0,1,0-1.256-1.256,1.256,1.256,0,0,0,1.256,1.256m-6.552,0a1.256,1.256,0,1,0-1.256-1.256,1.256,1.256,0,0,0,1.256,1.256m-6.552,0A1.256,1.256,0,1,0,13.1,1.256,1.256,1.256,0,0,0,14.36,2.511m-6.552,0A1.256,1.256,0,1,0,6.552,1.256,1.256,1.256,0,0,0,7.808,2.511m-6.552,0A1.256,1.256,0,1,0,0,1.256,1.256,1.256,0,0,0,1.256,2.511" transform="translate(0 0)" fill="#fff"/>
        </g>
      </g>
      <g id="Group_1100749" data-name="Group 1100749" transform="translate(9.418)">
        <g id="Group_1100748" data-name="Group 1100748" clip-path="url(#clip-path-13)">
          <path id="Path_875398" data-name="Path 875398" d="M10.682,0h81.5a10.785,10.785,0,0,1,10.678,10.888l-.134,62.524L57.973,102.864a12.616,12.616,0,0,1-13.084,0L-.2,73.333,0,10.888A10.784,10.784,0,0,1,10.682,0" transform="translate(-0.001 0)" fill="#fff"/>
        </g>
      </g>
      <g id="Group_1100745" data-name="Group 1100745" transform="translate(0 17.918)">
        <g id="Group_1100096" data-name="Group 1100096" transform="translate(0 0)" clip-path="url(#clip-path-14)">
          <path id="Path_873771" data-name="Path 873771" d="M61.5,80.838a16.933,16.933,0,0,1-9.134-2.472L3.9,46.669C1.386,45.023,0,42.8,0,40.417s1.386-4.606,3.9-6.25L52.365,2.47C57.4-.823,65.6-.823,70.635,2.47l48.464,31.7c2.517,1.645,3.9,3.865,3.9,6.25s-1.386,4.606-3.9,6.252L70.637,78.365A16.938,16.938,0,0,1,61.5,80.838m0-79.89A16.161,16.161,0,0,0,52.79,3.3L4.328,35C2.084,36.467.85,38.39.85,40.417s1.234,3.952,3.478,5.419l48.465,31.7c4.8,3.139,12.616,3.139,17.419,0l48.462-31.7c2.244-1.467,3.478-3.391,3.478-5.419s-1.234-3.952-3.478-5.419L70.21,3.3A16.161,16.161,0,0,0,61.5.948" transform="translate(0 -0.001)" fill="#61dfe4"/>
        </g>
      </g>
      <rect id="Rectangle_403516" data-name="Rectangle 403516" width="102.859" height="51.446" transform="translate(9.418 16.158)" fill="#fff"/>
      <g id="Group_1102753" data-name="Group 1102753" transform="translate(27.966 11.361)">
        <g id="Group_1102752" data-name="Group 1102752" clip-path="url(#clip-path-15)">
          <path id="Path_877866" data-name="Path 877866" d="M171.013,4.288A4.287,4.287,0,1,1,166.726,0a4.287,4.287,0,0,1,4.287,4.287m-2.151,0a2.135,2.135,0,1,0-2.135,2.135,2.135,2.135,0,0,0,2.135-2.135" transform="translate(-134.575 -0.001)" fill="#0c2d70"/>
          <path id="Path_877867" data-name="Path 877867" d="M73.555,36.617c.967-.151,1.756,1.411.794,2.006L59.531,45.433c-1.205.282-1.682-1.5-.667-2.054Z" transform="translate(-48.309 -30.327)" fill="#0c2d70"/>
          <path id="Path_877868" data-name="Path 877868" d="M221.518,36.644a6.836,6.836,0,0,1,1.707.629c4.456,1.94,8.772,4.233,13.249,6.135,1.015.555.538,2.336-.667,2.054L221.1,38.715c-.981-.472-.5-1.932.422-2.071" transform="translate(-182.722 -30.356)" fill="#0c2d70"/>
          <path id="Path_877869" data-name="Path 877869" d="M8.569,79.257a4.284,4.284,0,1,1-4.284-4.284,4.284,4.284,0,0,1,4.284,4.284m-2.15.008a2.14,2.14,0,1,0-2.14,2.14,2.14,2.14,0,0,0,2.14-2.14" transform="translate(0 -62.112)" fill="#0c2d70"/>
          <path id="Path_877870" data-name="Path 877870" d="M30.114,135.251a1.093,1.093,0,0,1,1.552.783c.844,2.158,1.066,5.119,1.921,7.351a1.1,1.1,0,0,1-2.175.279c-.845-2.188-1.126-5.088-1.922-7.352a1.16,1.16,0,0,1,.624-1.061" transform="translate(-24.431 -111.974)" fill="#0c2d70"/>
          <path id="Path_877871" data-name="Path 877871" d="M333.517,79.26a4.283,4.283,0,1,1-4.284-4.283,4.284,4.284,0,0,1,4.284,4.283m-2.14.008a2.14,2.14,0,1,0-2.14,2.14,2.14,2.14,0,0,0,2.14-2.14" transform="translate(-269.209 -62.116)" fill="#0c2d70"/>
          <path id="Path_877872" data-name="Path 877872" d="M324.031,135.322a1.114,1.114,0,0,1,1.587,1.061l-2.009,7.608a1.1,1.1,0,0,1-2.064-.677c.867-2.184,1.066-5.093,1.9-7.21.118-.3.241-.677.589-.783" transform="translate(-266.371 -112.045)" fill="#0c2d70"/>
          <path id="Path_877873" data-name="Path 877873" d="M21.049,112.728a5.863,5.863,0,0,1-.807.479c-1.468.575-7.958.566-9.724.36a4.9,4.9,0,0,1-4.4-4.348c-.371-4.061,1.006-7.276,4.464-9.442a5.337,5.337,0,1,1,9.18-1.8c-.236.806-.713,1.294-.943,2.056a6.349,6.349,0,0,1,2.83,2.4l1.726-3.59c-.265-.716-.873-1.375-.9-2.18-.044-1.55,1.061-1.666.246-3.879-.877-2.379-2.616-1.953-3.371-3.491-.608-1.24-.618-4.529.32-5.641,1.017-1.205,2.2-.655,3.051-2.953.8-2.171-.2-2.172-.246-3.762-.041-1.39,2.5-4.181,3.763-4.557,1.562-.465,1.992.353,3.131.389a5.842,5.842,0,0,0,2.915-1.2c.879-.78.813-1.919,1.908-2.552,1.287-.744,4.814-.734,6.055.068,1.413.914.79,2.374,3.223,3.3,2.167.82,2.378-.313,4.078-.136,1.509.157,4.359,3.158,4.313,4.7-.047,1.59-1.046,1.591-.246,3.762.857,2.327,2.213,1.822,3.124,3.051.842,1.136.858,4.446.19,5.659-.8,1.447-2.443,1.011-3.315,3.375-.79,2.143.332,2.492.137,4.254-.081.725-.8,1.407-.8,1.71-.006.419,1.6,2.857,1.654,3.606l1.464-1.455c.487-.287.853-.809,1.453-.865-.231-.762-.707-1.25-.943-2.056a5.337,5.337,0,1,1,9.18,1.8c3.458,2.166,4.835,5.381,4.464,9.442a4.707,4.707,0,0,1-3.048,3.985c-1.562.591-7.7.564-9.566.38A12.188,12.188,0,0,1,53.3,112.9v4.546a4.513,4.513,0,0,1-2.74,3.436c-3.285.835-9.828-2.33-13.314-2.827-3.751.483-9.548,3.465-13.183,2.9a4.27,4.27,0,0,1-2.154-1.448,7.192,7.192,0,0,1-.858-2.058ZM39.19,70.913a9.213,9.213,0,0,0-3.955-.045c-.087.054-.644,1.4-.982,1.8A6.987,6.987,0,0,1,28.525,74.8c-.436-.058-1.169-.493-1.492-.418a6.858,6.858,0,0,0-2.256,2.2c-.25.584.33,1.3.395,2.088a7.14,7.14,0,0,1-2.419,5.657c-.369.261-1.117.457-1.357.7a4.265,4.265,0,0,0-.081,3.331c.294.385,1.6.782,2.3,1.643a6.644,6.644,0,0,1,1.035,6.771c1.786-1.695,3.605-3.473,6-4.291.119-.17-.591-.93-.758-1.212a8.579,8.579,0,1,1,14.553,0c-.167.282-.876,1.042-.758,1.212,2.4.818,4.216,2.6,6,4.291-.039-.661-.437-1.116-.513-1.8a7.1,7.1,0,0,1,2.413-5.822c1.421-1,1.844-.4,1.711-2.763-.106-1.9-.822-1.327-1.983-2.3A7.157,7.157,0,0,1,49.2,78.35c.073-.508.534-1.131.474-1.521a6.322,6.322,0,0,0-2.357-2.444c-.322-.074-1.056.36-1.492.418a6.554,6.554,0,0,1-6.277-2.956c-.158-.255-.2-.8-.354-.934m4.4,15.827a6.42,6.42,0,1,0-6.42,6.42,6.42,6.42,0,0,0,6.42-6.42M17.86,96.384a3.206,3.206,0,1,0-3.206,3.206,3.206,3.206,0,0,0,3.206-3.206m45.039,0a3.206,3.206,0,1,0-3.206,3.206A3.206,3.206,0,0,0,62.9,96.384M29.626,106.638c.259.9-.192,2.982,0,4.031,5.043-.9,9.934-2.609,14.974-3.6.193-.082.243-1.2,1.366-1.005s.62,1.216.9,1.689c.074.126.837.609,1.11.948a4.391,4.391,0,0,1-1.361,6.692l-5.152,1.621c2.164.194,6.288,2.255,8.28,1.848a1.718,1.718,0,0,0,1.334-1.752c.34-3.54.3-11.871-.907-15.064-1.166-3.094-4.5-6.885-7.726-7.883-.987-.306-1.792.531-2.871.808a9.107,9.107,0,0,1-5.7-.3c-.415-.139-.943-.559-1.286-.617-.86-.145-3.753,1.814-4.5,2.457-6.54,5.6-4.509,13.259-4.79,20.919.239,1.3,1.409,1.662,2.6,1.424,6.058-2.072,13.283-2.95,19.208-5.149,2.678-.994,2-4.48-.638-4.426l-16.686,4.271a1.109,1.109,0,0,1-1.076-1.777c.244-.289.83-.363.872-.537.271-1.124-.9-6.111,1.491-5.075a1.846,1.846,0,0,1,.56.472m-17.367-5.2a6.443,6.443,0,0,0-3.015,2.487c-1.225,2.038-2.049,7.038,1.252,7.435a55.743,55.743,0,0,0,8.238,0c2.45-.28,2.511-2.742,2.314-4.716a6.889,6.889,0,0,0-2.583-4.45c-1.845-1.337-2.081-.4-3.851-.428a16.037,16.037,0,0,0-2.355-.325m45.116,0c-1.976.293-3.889,3.336-4.075,5.2-.212,2.132-.126,4.477,2.479,4.722a55.908,55.908,0,0,0,8.073,0c3.6-.434,2.391-6.358.592-8.319a7.543,7.543,0,0,0-2.355-1.6,16.094,16.094,0,0,0-2.355.325c-.845.011-1.643-.43-2.359-.324" transform="translate(-5.02 -56.721)" fill="#0c2d70"/>
          <path id="Path_877874" data-name="Path 877874" d="M207.015,256.329a26.461,26.461,0,0,1,4.048,0,1.1,1.1,0,0,1-.142,2.022,25.989,25.989,0,0,1-3.906-.033,1.083,1.083,0,0,1,0-1.986" transform="translate(-170.965 -212.293)" fill="#0c2d70"/>
        </g>
      </g>
    </g>
  </g>
</svg>
